<svg xmlns="http://www.w3.org/2000/svg" xmlns:xlink="http://www.w3.org/1999/xlink" fill="none" stroke="none" stroke-linecap="square" stroke-miterlimit="10" version="1.1" viewBox="0 0 560.37 156.244"><clipPath id="p.0"><path d="m0 0l560.37006 0l0 156.2441l-560.37006 0l0 -156.2441z" clip-rule="nonzero"/></clipPath><g clip-path="url(#p.0)"><path fill="#000" fill-opacity="0" fill-rule="evenodd" d="m0 0l560.37006 0l0 156.2441l-560.37006 0z"/><path fill="#000" fill-opacity="0" fill-rule="evenodd" d="m143.04504 24.922682l8.283463 0l0 3.8740158l-8.283463 0z"/><path fill="#f90" fill-rule="evenodd" d="m147.16116 8.367561l0 0c0 -2.968771 2.406662 -5.3754354 5.3754425 -5.3754354l78.225494 0c1.4256592 0 2.792923 0.566339 3.8010101 1.5744286c1.0080872 1.00809 1.5744324 2.3753529 1.5744324 3.8010068l0 21.501097c0 2.968771 -2.406662 5.375437 -5.3754425 5.375437l-78.225494 0c-2.9687805 0 -5.3754425 -2.4066658 -5.3754425 -5.375437z"/><path fill="#000" fill-rule="nonzero" d="m161.50356 15.764359l3.0 0q2.296875 0 2.296875 1.781251q0 0.984375 -0.984375 1.5q0.640625 0.15625 0.984375 0.59375q0.359375 0.421875 0.359375 1.09375q0 1.03125 -0.703125 1.578125q-0.6875 0.546875 -2.015625 0.546875l-3.0 0l0 -0.859375l0.359375 -0.03125q0.296875 -0.03125 0.296875 -0.296875l0 -4.96875l-0.59375 -0.03125l0 -0.90625095zm1.90625 3.859376l0 2.234375l1.0 0q1.375 0 1.375 -1.125q0 -0.546875 -0.34375 -0.828125q-0.34375 -0.28125 -0.984375 -0.28125l-1.046875 0zm0 -2.875l0 1.9375l0.78125 0q0.65625 0 0.96875 -0.265625q0.328125 -0.28125 0.328125 -0.765625q0 -0.5 -0.328125 -0.703125q-0.3125 -0.203125 -0.890625 -0.203125l-0.859375 0zm9.227631 0.96875l0 3.953125q0 0.171875 0.046875 0.234375q0.0625 0.0625 0.21875 0.078125l0.34375 0.015625l0 0.859375l-1.703125 0l0 -0.625l-0.03125 0q-0.53125 0.765625 -1.453125 0.765625q-1.09375 0 -1.625 -0.6875q-0.515625 -0.703125 -0.515625 -1.90625q0 -1.453125 0.703125 -2.25q0.703125 -0.8125 2.109375 -0.8125q0.90625 0 1.90625 0.375zm-1.234375 3.453125l0 -2.765625q-0.296875 -0.140625 -0.828125 -0.140625q-0.71875 0 -1.046875 0.578125q-0.3125 0.578125 -0.3125 1.515625q0 1.734375 1.109375 1.734375q0.46875 0 0.765625 -0.28125q0.3125 -0.28125 0.3125 -0.640625zm5.276535 -2.859375q-0.25 -0.09375 -0.625 -0.09375q-0.359375 0 -0.578125 0.171875q-0.21875 0.15625 -0.21875 0.390625q0 0.234375 0.078125 0.375q0.09375 0.140625 0.265625 0.234375q0.265625 0.140625 0.625 0.234375q0.375 0.09375 0.5625 0.15625q0.1875 0.0625 0.453125 0.203125q0.265625 0.140625 0.40625 0.296875q0.375 0.390625 0.375 1.015625q0 0.796875 -0.578125 1.25q-0.578125 0.453125 -1.484375 0.453125q-1.296875 0 -1.953125 -0.328125l0 -1.484375l0.953125 -0.078125l0 0.515625q0 0.46875 0.890625 0.46875q0.90625 0 0.90625 -0.65625q0 -0.234375 -0.15625 -0.375q-0.15625 -0.15625 -0.3125 -0.203125q-0.140625 -0.0625 -0.359375 -0.109375q-0.203125 -0.046875 -0.40625 -0.09375q-0.1875 -0.0625 -0.421875 -0.15625q-0.21875 -0.09375 -0.5 -0.265625q-0.546875 -0.34375 -0.546875 -1.171875q0 -0.828125 0.578125 -1.265625q0.59375 -0.453125 1.484375 -0.453125q0.890625 0 1.765625 0.421875l0 1.28125l-0.953125 0.078125l0 -0.453125q0 -0.265625 -0.25 -0.359375zm4.69664 -0.96875q0.796875 0 1.265625 0.390625q0.46875 0.390625 0.46875 1.09375q0 0.46875 -0.203125 0.828125q-0.203125 0.34375 -0.5 0.546875q-0.296875 0.203125 -0.734375 0.328125q-0.703125 0.21875 -1.609375 0.21875q0.046875 0.5625 0.359375 0.90625q0.3125 0.34375 0.96875 0.34375q0.671875 0 1.328125 -0.46875l0.40625 0.875q-0.203125 0.1875 -0.71875 0.390625q-0.5 0.203125 -1.15625 0.203125q-1.296875 0 -1.90625 -0.71875q-0.609375 -0.71875 -0.609375 -1.96875q0 -1.265625 0.6875 -2.109375q0.703125 -0.859375 1.953125 -0.859375zm-0.484375 2.4375q0.390625 -0.078125 0.71875 -0.3125q0.328125 -0.25 0.328125 -0.578125q0 -0.640625 -0.640625 -0.640625q-0.59375 0 -0.921875 0.46875q-0.3125 0.46875 -0.34375 1.140625q0.46875 -0.015625 0.859375 -0.078125zm4.9389343 1.890625l0 -4.84375l-0.84375 0q-0.234375 0 -0.234375 0.328125l0 0.5l-1.09375 -0.078125l0 -1.812501l5.578125 0l0 1.812501l-1.09375 0.078125l0 -0.5q0 -0.171875 -0.046875 -0.25q-0.046875 -0.078125 -0.25 -0.078125l-0.734375 0l0 5.09375l0.84375 0.03125l0 0.90625l-3.0 0l0 -0.859375l0.5625 -0.03125q0.3125 -0.03125 0.3125 -0.296875zm8.70546 -3.953125l0 3.953125q0 0.171875 0.046875 0.234375q0.0625 0.0625 0.21875 0.078125l0.34375 0.015625l0 0.859375l-1.703125 0l0 -0.625l-0.03125 0q-0.53125 0.765625 -1.453125 0.765625q-1.09375 0 -1.625 -0.6875q-0.515625 -0.703125 -0.515625 -1.90625q0 -1.453125 0.703125 -2.25q0.703125 -0.8125 2.109375 -0.8125q0.90625 0 1.90625 0.375zm-1.234375 3.453125l0 -2.765625q-0.296875 -0.140625 -0.828125 -0.140625q-0.71875 0 -1.046875 0.578125q-0.3125 0.578125 -0.3125 1.515625q0 1.734375 1.109375 1.734375q0.46875 0 0.765625 -0.28125q0.3125 -0.28125 0.3125 -0.640625zm5.276535 -2.859375q-0.25 -0.09375 -0.625 -0.09375q-0.359375 0 -0.578125 0.171875q-0.21875 0.15625 -0.21875 0.390625q0 0.234375 0.078125 0.375q0.09375 0.140625 0.265625 0.234375q0.265625 0.140625 0.625 0.234375q0.375 0.09375 0.5625 0.15625q0.1875 0.0625 0.453125 0.203125q0.265625 0.140625 0.40625 0.296875q0.375 0.390625 0.375 1.015625q0 0.796875 -0.578125 1.25q-0.578125 0.453125 -1.484375 0.453125q-1.296875 0 -1.953125 -0.328125l0 -1.484375l0.953125 -0.078125l0 0.515625q0 0.46875 0.890625 0.46875q0.90625 0 0.90625 -0.65625q0 -0.234375 -0.15625 -0.375q-0.15625 -0.15625 -0.3125 -0.203125q-0.140625 -0.0625 -0.359375 -0.109375q-0.203125 -0.046875 -0.40625 -0.09375q-0.1875 -0.0625 -0.421875 -0.15625q-0.21875 -0.09375 -0.5 -0.265625q-0.546875 -0.34375 -0.546875 -1.171875q0 -0.828125 0.578125 -1.265625q0.59375 -0.453125 1.484375 -0.453125q0.890625 0 1.765625 0.421875l0 1.28125l-0.953125 0.078125l0 -0.453125q0 -0.265625 -0.25 -0.359375zm2.681015 3.359375l0 -5.203125q0 -0.15625 -0.0625 -0.21875q-0.0625 -0.078125 -0.203125 -0.078125l-0.375 -0.03125l0 -0.87500095l1.890625 0l0 4.609376q0.59375 -0.046875 1.03125 -0.359375q0.4375 -0.3125 0.59375 -0.8125q0.03125 -0.109375 0.03125 -0.171875q0 -0.171875 -0.203125 -0.171875l-0.40625 -0.03125l0 -0.828125l2.203125 0l0 0.859375l-0.5 0.03125q-0.140625 1.078125 -0.9375 1.703125l1.03125 1.875l0.65625 0.03125l0 0.859375l-1.5625 0l-1.203125 -2.21875q-0.359375 0.09375 -0.734375 0.15625l0 1.171875l0.015625 0l0.609375 0.03125l0 0.859375l-2.53125 0l0 -0.8125l0.34375 -0.03125q0.15625 -0.015625 0.234375 -0.078125q0.078125 -0.078125 0.078125 -0.265625zm5.628067 0l1.71875 -4.96875l-0.671875 -0.0625l0 -0.87500095l2.4375 0l2.1875 6.156251l0 0l0.60939026 0.03125l0 0.90625l-2.7500153 0l0 -0.859375l0.40625 -0.03125q0.1875 -0.03125 0.25 -0.09375q0.0625 -0.0625 0 -0.234375l-0.21875 -0.65625l-2.5 0l-0.3125 0.9375l0.640625 0.03125l0 0.90625l-2.46875 0l0 -0.859375l0.359375 -0.03125q0.21875 -0.03125 0.3125 -0.296875zm2.71875 -4.703125l-0.984375 3.03125l1.984375 0l-0.96875 -3.03125l-0.03125 0zm4.3568115 6.90625l0 -5.15625q0 -0.1875 -0.0625 -0.25q-0.0625 -0.078125 -0.203125 -0.078125l-0.453125 -0.03125l0 -0.859375l1.796875 0l0 0.6875q0.171875 -0.3125 0.609375 -0.578125q0.453125 -0.265625 1.078125 -0.265625q1.921875 0 1.921875 2.703125q0 1.4375 -0.625 2.203125q-0.625 0.765625 -1.703125 0.765625q-0.640625 0 -1.140625 -0.3125l0 1.484375l0.859375 0.03125l0 0.84375l-2.75 0l0 -0.8125l0.359375 -0.03125q0.15625 -0.015625 0.234375 -0.09375q0.078125 -0.0625 0.078125 -0.25zm3.375 -3.71875q0 -1.78125 -1.078125 -1.78125q-0.453125 0 -0.765625 0.28125q-0.3125 0.265625 -0.3125 0.640625l0 2.4375q0.40625 0.265625 0.984375 0.265625q0.578125 0 0.875 -0.53125q0.296875 -0.53125 0.296875 -1.3125zm4.0059357 -2.65625l0 4.46875l0.609375 0.03125l0 0.859375l-2.53125 0l0 -0.8125l0.34375 -0.03125q0.3125 -0.03125 0.3125 -0.34375l0 -2.953125q0 -0.1875 -0.0625 -0.25q-0.0625 -0.0625 -0.203125 -0.0625l-0.375 -0.015625l0 -0.890625l1.90625 0zm-1.34375 -0.921875q-0.21875 -0.21875 -0.21875 -0.5625q0 -0.34375095 0.21875 -0.56250095q0.21875 -0.234375 0.578125 -0.234375q0.375 0 0.59375 0.234375q0.234375 0.21875 0.234375 0.56250095q0 0.34375 -0.234375 0.5625q-0.21875 0.21875 -0.59375 0.21875q-0.359375 0 -0.578125 -0.21875z"/><path fill="#f90" fill-rule="evenodd" d="m126.44907 65.90535l0 0c0 -2.968769 2.4066696 -5.375435 5.375435 -5.375435l119.64284 0c1.4256439 0 2.7929077 0.5663376 3.8009949 1.5744286c1.0080872 1.008091 1.5744324 2.3753548 1.5744324 3.8010063l0 21.501099c0 2.968773 -2.406662 5.375435 -5.3754272 5.375435l-119.64284 0c-2.9687653 0 -5.375435 -2.406662 -5.375435 -5.375435z"/><path fill="#000" fill-rule="nonzero" d="m148.8283 77.207146q0 1.546875 -0.65625 2.546875q-0.640625 0.984375 -1.875 1.3125l0 0.03125q0.921875 0.046875 1.765625 0.5625q0.59375 0.375 1.390625 0.375q0.1875 0 0.375 -0.03125l-0.140625 1.15625q-0.171875 0 -0.328125 0l-1.1875 -0.203125q-0.75 -0.25 -1.46875 -0.59375q-0.8125 -0.390625 -1.515625 -0.390625q-0.34375 0 -0.671875 0.078125l0.171875 -0.859375q-2.859375 -0.375 -2.859375 -3.984375q0 -1.109375 0.3125 -1.9375q0.328125 -0.84375 0.875 -1.296875q1.0625 -0.921875 2.484375 -0.921875q1.421875 0 2.375 1.015625q0.953125 1.0 0.953125 3.140625zm-5.5 -0.0625q0 2.96875 2.0625 2.96875q1.109375 0 1.5625 -0.90625q0.390625 -0.796875 0.390625 -1.96875q0 -1.046875 -0.375 -1.921875q-0.1875 -0.484375 -0.609375 -0.75q-0.40625 -0.28125 -1.0625 -0.28125q-0.65625 0 -1.140625 0.4375q-0.46875 0.421875 -0.65625 1.046875q-0.171875 0.609375 -0.171875 1.375zm12.749313 3.078125l0 0.953125l-1.9375 0l0 -0.78125q-0.65625 0.9375 -1.9375 0.9375q-1.859375 0 -1.859375 -2.078125l0 -2.765625q0 -0.328125 -0.3125 -0.34375l-0.375 -0.015625l0 -0.984375l2.109375 0l0 3.796875q0 0.640625 0.171875 0.96875q0.1875 0.3125 0.75 0.3125q0.5625 0 0.90625 -0.34375q0.34375 -0.34375 0.34375 -0.84375l0 -2.53125q0 -0.1875 -0.078125 -0.265625q-0.0625 -0.078125 -0.21875 -0.09375l-0.390625 -0.015625l0 -0.984375l2.109375 0l0 4.703125q0 0.1875 0.0625 0.25q0.0625 0.0625 0.25 0.09375l0.40625 0.03125zm3.7483063 -5.265625q0.90625 0 1.421875 0.4375q0.53125 0.4375 0.53125 1.234375q0 0.53125 -0.234375 0.9375q-0.21875 0.390625 -0.5625 0.625q-0.328125 0.21875 -0.8125 0.375q-0.796875 0.234375 -1.8125 0.234375q0.046875 0.640625 0.40625 1.03125q0.359375 0.390625 1.09375 0.390625q0.75 0 1.5 -0.53125l0.453125 0.96875q-0.25 0.21875 -0.8125 0.453125q-0.5625 0.21875 -1.296875 0.21875q-1.46875 0 -2.15625 -0.8125q-0.6875 -0.8125 -0.6875 -2.21875q0 -1.421875 0.78125 -2.375q0.78125 -0.96875 2.1875 -0.96875zm-0.546875 2.75q0.4375 -0.078125 0.8125 -0.34375q0.375 -0.28125 0.375 -0.65625q0 -0.734375 -0.71875 -0.734375q-0.671875 0 -1.03125 0.546875q-0.359375 0.53125 -0.40625 1.265625q0.53125 0 0.96875 -0.078125zm6.4955444 -1.65625q-0.296875 -0.109375 -0.703125 -0.109375q-0.40625 0 -0.65625 0.1875q-0.25 0.1875 -0.25 0.46875q0 0.265625 0.09375 0.421875q0.09375 0.140625 0.28125 0.25q0.296875 0.15625 0.71875 0.265625q0.421875 0.109375 0.625 0.1875q0.203125 0.0625 0.5 0.21875q0.3125 0.15625 0.46875 0.328125q0.421875 0.453125 0.421875 1.140625q0 0.90625 -0.65625 1.421875q-0.640625 0.5 -1.65625 0.5q-1.46875 0 -2.203125 -0.375l0 -1.671875l1.078125 -0.078125l0 0.578125q0 0.53125 1.0 0.53125q1.015625 0 1.015625 -0.734375q0 -0.265625 -0.171875 -0.4375q-0.171875 -0.171875 -0.34375 -0.21875q-0.171875 -0.0625 -0.40625 -0.125q-0.234375 -0.0625 -0.453125 -0.125q-0.21875 -0.0625 -0.484375 -0.15625q-0.25 -0.109375 -0.5625 -0.296875q-0.609375 -0.390625 -0.609375 -1.3125q0 -0.9375 0.65625 -1.4375q0.65625 -0.515625 1.65625 -0.515625q1.0 0 1.984375 0.484375l0 1.4375l-1.078125 0.078125l0 -0.5q0 -0.296875 -0.265625 -0.40625zm3.479538 -2.1875l0.78125 0l0 1.28125l1.59375 0l-0.125 1.0l-1.46875 0l0 3.15625q0 0.53125 0.1875 0.75q0.1875 0.203125 0.59375 0.203125q0.40625 0 0.8125 -0.25l0.359375 0.921875q-0.609375 0.421875 -1.53125 0.421875q-0.53125 0 -0.90625 -0.140625q-0.375 -0.140625 -0.5625 -0.296875q-0.171875 -0.171875 -0.265625 -0.5q-0.09375 -0.328125 -0.109375 -0.515625q-0.015625 -0.1875 -0.015625 -0.546875l0 -3.203125l-0.84375 0l0.109375 -0.875q0.5625 -0.046875 0.84375 -0.390625q0.296875 -0.359375 0.546875 -1.015625zm5.3521576 1.28125l0 5.03125l0.6875 0.046875l0 0.953125l-2.859375 0l0 -0.90625l0.40625 -0.046875q0.34375 -0.03125 0.34375 -0.375l0 -3.34375q0 -0.203125 -0.0625 -0.265625q-0.0625 -0.078125 -0.234375 -0.078125l-0.421875 -0.03125l0 -0.984375l2.140625 0zm-1.515625 -1.03125q-0.25 -0.25 -0.25 -0.640625q0 -0.390625 0.25 -0.640625q0.265625 -0.265625 0.671875 -0.265625q0.40625 0 0.65625 0.265625q0.265625 0.25 0.265625 0.640625q0 0.390625 -0.265625 0.640625q-0.25 0.234375 -0.65625 0.234375q-0.40625 0 -0.671875 -0.234375zm5.6614075 6.1875q1.3125 0 1.3125 -2.109375q0 -1.078125 -0.296875 -1.625q-0.296875 -0.546875 -0.984375 -0.546875q-0.6875 0 -1.015625 0.53125q-0.328125 0.515625 -0.328125 1.4375q0 1.6875 0.625 2.125q0.28125 0.1875 0.6875 0.1875zm-2.765625 -2.15625q0 -0.875 0.265625 -1.53125q0.265625 -0.65625 0.71875 -1.0q0.84375 -0.65625 1.875 -0.65625q0.71875 0 1.21875 0.234375q0.5 0.234375 0.78125 0.546875q0.28125 0.296875 0.46875 0.890625q0.203125 0.578125 0.203125 1.359375q0 1.65625 -0.8125 2.515625q-0.796875 0.859375 -2.046875 0.859375q-1.25 0 -1.96875 -0.8125q-0.703125 -0.8125 -0.703125 -2.40625zm6.2735443 -2.046875l0 -0.953125l2.03125 0l0 0.78125q0.296875 -0.453125 0.8125 -0.703125q0.53125 -0.265625 1.125 -0.265625q0.90625 0 1.40625 0.53125q0.5 0.515625 0.5 1.5625l0 3.125l0.6875 0.046875l0 0.953125l-2.859375 0l0 -0.90625l0.390625 -0.046875q0.1875 -0.015625 0.265625 -0.09375q0.09375 -0.078125 0.09375 -0.296875l0 -2.46875q0 -0.65625 -0.203125 -0.96875q-0.203125 -0.328125 -0.78125 -0.328125q-0.5625 0 -0.90625 0.359375q-0.328125 0.359375 -0.328125 0.84375l0 2.90625l0.671875 0.046875l0 0.953125l-2.84375 0l0 -0.90625l0.390625 -0.046875q0.171875 -0.015625 0.25 -0.09375q0.09375 -0.078125 0.09375 -0.296875l0 -3.328125q0 -0.359375 -0.296875 -0.375l-0.5 -0.03125zm7.684433 3.734375l1.9375 -5.59375l-0.765625 -0.078125l0 -0.96875l2.75 0l2.453125 6.921875l0.015625 0l0.6875 0.046875l0 1.015625l-3.109375 0l0 -0.96875l0.46875 -0.046875q0.203125 -0.015625 0.265625 -0.078125q0.078125 -0.078125 0.015625 -0.28125l-0.25 -0.734375l-2.8125 0l-0.359375 1.046875l0.71875 0.046875l0 1.015625l-2.765625 0l0 -0.96875l0.390625 -0.046875q0.25 -0.015625 0.359375 -0.328125zm3.0625 -5.296875l-1.109375 3.421875l2.21875 0l-1.078125 -3.421875l-0.03125 0zm4.3971863 1.5625l0 -0.953125l2.03125 0l0 0.78125q0.296875 -0.453125 0.8125 -0.703125q0.53125 -0.265625 1.125 -0.265625q0.90625 0 1.40625 0.53125q0.5 0.515625 0.5 1.5625l0 3.125l0.6875 0.046875l0 0.953125l-2.859375 0l0 -0.90625l0.390625 -0.046875q0.1875 -0.015625 0.265625 -0.09375q0.09375 -0.078125 0.09375 -0.296875l0 -2.46875q0 -0.65625 -0.203125 -0.96875q-0.203125 -0.328125 -0.78125 -0.328125q-0.5625 0 -0.90625 0.359375q-0.328125 0.359375 -0.328125 0.84375l0 2.90625l0.671875 0.046875l0 0.953125l-2.84375 0l0 -0.90625l0.390625 -0.046875q0.171875 -0.015625 0.25 -0.09375q0.09375 -0.078125 0.09375 -0.296875l0 -3.328125q0 -0.359375 -0.296875 -0.375l-0.5 -0.03125zm10.418808 -0.046875q-0.296875 -0.109375 -0.703125 -0.109375q-0.40625 0 -0.65625 0.1875q-0.25 0.1875 -0.25 0.46875q0 0.265625 0.09375 0.421875q0.09375 0.140625 0.28125 0.25q0.296875 0.15625 0.71875 0.265625q0.421875 0.109375 0.625 0.1875q0.203125 0.0625 0.5 0.21875q0.3125 0.15625 0.46875 0.328125q0.421875 0.453125 0.421875 1.140625q0 0.90625 -0.65625 1.421875q-0.640625 0.5 -1.65625 0.5q-1.46875 0 -2.203125 -0.375l0 -1.671875l1.078125 -0.078125l0 0.578125q0 0.53125 1.0 0.53125q1.015625 0 1.015625 -0.734375q0 -0.265625 -0.171875 -0.4375q-0.171875 -0.171875 -0.34375 -0.21875q-0.171875 -0.0625 -0.40625 -0.125q-0.234375 -0.0625 -0.453125 -0.125q-0.21875 -0.0625 -0.484375 -0.15625q-0.25 -0.109375 -0.5625 -0.296875q-0.609375 -0.390625 -0.609375 -1.3125q0 -0.9375 0.65625 -1.4375q0.65625 -0.515625 1.65625 -0.515625q1.0 0 1.984375 0.484375l0 1.4375l-1.078125 0.078125l0 -0.5q0 -0.296875 -0.265625 -0.40625zm6.240158 -0.671875l1.15625 0l1.25 4.46875l0.015625 0l0.828125 -3.71875l-0.609375 -0.03125l0 -0.953125l2.40625 0l0 0.921875l-0.390625 0.015625q-0.25 0.03125 -0.328125 0.296875l-1.140625 4.796875l-1.734375 0l-0.984375 -3.578125l-0.03125 0l-1.015625 3.578125l-1.765625 0l-1.21875 -4.78125q-0.0625 -0.171875 -0.125 -0.234375q-0.0625 -0.0625 -0.21875 -0.078125l-0.34375 -0.015625l0 -0.921875l2.75 0l0 0.953125l-0.671875 0.03125l0.828125 3.6875l0.015625 0l1.328125 -4.4375zm8.57132 -0.421875q0.90625 0 1.421875 0.4375q0.53125 0.4375 0.53125 1.234375q0 0.53125 -0.234375 0.9375q-0.21875 0.390625 -0.5625 0.625q-0.328125 0.21875 -0.8125 0.375q-0.796875 0.234375 -1.8125 0.234375q0.046875 0.640625 0.40625 1.03125q0.359375 0.390625 1.09375 0.390625q0.75 0 1.5 -0.53125l0.453125 0.96875q-0.25 0.21875 -0.8125 0.453125q-0.5625 0.21875 -1.296875 0.21875q-1.46875 0 -2.15625 -0.8125q-0.6875 -0.8125 -0.6875 -2.21875q0 -1.421875 0.78125 -2.375q0.78125 -0.96875 2.1875 -0.96875zm-0.546875 2.75q0.4375 -0.078125 0.8125 -0.34375q0.375 -0.28125 0.375 -0.65625q0 -0.734375 -0.71875 -0.734375q-0.671875 0 -1.03125 0.546875q-0.359375 0.53125 -0.40625 1.265625q0.53125 0 0.96875 -0.078125zm4.0892944 2.125l0 -3.328125q0 -0.1875 -0.0625 -0.265625q-0.0625 -0.078125 -0.234375 -0.09375l-0.5 -0.03125l0 -0.96875l2.015625 0l0 0.890625q0.21875 -0.46875 0.671875 -0.765625q0.453125 -0.3125 1.046875 -0.3125q0.609375 0 1.140625 0.265625l0 1.796875l-1.109375 0.078125l0 -0.546875q0 -0.25 -0.125 -0.3125q-0.125 -0.046875 -0.328125 -0.046875q-0.46875 0 -0.78125 0.34375q-0.3125 0.328125 -0.3125 0.859375l0 2.78125l1.046875 0.046875l0 0.953125l-3.21875 0l0 -0.90625l0.40625 -0.046875q0.171875 -0.015625 0.25 -0.09375q0.09375 -0.078125 0.09375 -0.296875zm7.809662 -4.875q0.90625 0 1.421875 0.4375q0.53125 0.4375 0.53125 1.234375q0 0.53125 -0.234375 0.9375q-0.21875 0.390625 -0.5625 0.625q-0.328125 0.21875 -0.8125 0.375q-0.796875 0.234375 -1.8125 0.234375q0.046875 0.640625 0.40625 1.03125q0.359375 0.390625 1.09375 0.390625q0.75 0 1.5 -0.53125l0.453125 0.96875q-0.25 0.21875 -0.8125 0.453125q-0.5625 0.21875 -1.296875 0.21875q-1.46875 0 -2.15625 -0.8125q-0.6875 -0.8125 -0.6875 -2.21875q0 -1.421875 0.78125 -2.375q0.78125 -0.96875 2.1875 -0.96875zm-0.546875 2.75q0.4375 -0.078125 0.8125 -0.34375q0.375 -0.28125 0.375 -0.65625q0 -0.734375 -0.71875 -0.734375q-0.671875 0 -1.03125 0.546875q-0.359375 0.53125 -0.40625 1.265625q0.53125 0 0.96875 -0.078125zm4.0892944 2.125l0 -3.328125q0 -0.1875 -0.0625 -0.265625q-0.0625 -0.078125 -0.234375 -0.09375l-0.5 -0.03125l0 -0.96875l2.015625 0l0 0.890625q0.21875 -0.46875 0.671875 -0.765625q0.453125 -0.3125 1.046875 -0.3125q0.609375 0 1.140625 0.265625l0 1.796875l-1.109375 0.078125l0 -0.546875q0 -0.25 -0.125 -0.3125q-0.125 -0.046875 -0.328125 -0.046875q-0.46875 0 -0.78125 0.34375q-0.3125 0.328125 -0.3125 0.859375l0 2.78125l1.046875 0.046875l0 0.953125l-3.21875 0l0 -0.90625l0.40625 -0.046875q0.171875 -0.015625 0.25 -0.09375q0.09375 -0.078125 0.09375 -0.296875z"/><path fill="#f90" fill-rule="evenodd" d="m6.3882904 65.90535l0 0c0 -2.968769 2.4066648 -5.375435 5.375436 -5.375435l84.80818 0c1.4256592 0 2.792923 0.5663376 3.8010101 1.5744286c1.0080872 1.008091 1.5744247 2.3753548 1.5744247 3.8010063l0 21.501099c0 2.968773 -2.406662 5.375435 -5.375435 5.375435l-84.80818 0c-2.968771 0 -5.375436 -2.406662 -5.375436 -5.375435z"/><path fill="#000" fill-rule="nonzero" d="m21.444216 81.175896l0 -0.96875l0.421875 -0.046875q0.3125 -0.015625 0.3125 -0.328125l0 -5.578125l-0.6875 -0.03125l0 -1.03125l2.171875 0l3.390625 5.515625l0.03125 0l0 -4.453125l-0.796875 -0.03125l0 -1.03125l2.921875 0l0 0.96875l-0.421875 0.046875q-0.296875 0.015625 -0.296875 0.375l0 6.59375l-1.40625 0l-3.46875 -5.59375l-0.015625 0l0 4.53125l0.78125 0.046875l0 1.015625l-2.9375 0zm14.147554 0l-5.687502 0l0 -0.96875l0.390625 -0.046875q0.34375 -0.03125 0.34375 -0.328125l0 -5.578125l-0.6875 -0.03125l0 -1.03125l2.906252 0l0 0.96875l-0.40625 0.046875q-0.34375 0.03125 -0.34375 0.375l0 5.359375l1.984375 0q0.171875 0 0.21875 -0.09375q0.0625 -0.09375 0.0625 -0.296875l0 -0.828125l1.21875 0.078125l0 2.375zm5.600296 -6.703125q-0.140625 -0.234375 -0.984375 -0.234375q-1.125 0 -1.703125 0.765625q-0.5625 0.75 -0.5625 2.171875q0 2.96875 2.21875 2.96875q0.03125 0 0.3125 0q0.28125 0 0.53125 -0.078125q0.25 -0.078125 0.296875 -0.15625q0.0625 -0.09375 0.0625 -0.265625l0 -0.96875l1.21875 0.09375l0 2.0625q-0.9375 0.5 -2.375 0.5q-1.84375 0 -2.8125 -1.03125q-0.953125 -1.03125 -0.953125 -3.078125q0 -1.125 0.3125 -1.953125q0.328125 -0.84375 0.890625 -1.3125q1.078125 -0.90625 2.5625 -0.90625q1.203125 0 2.25 0.5l0 2.03125l-1.21875 0.078125l0 -0.921875q0 -0.1875 -0.046875 -0.265625zm4.536545 -1.859375l0 7.5625l0.6875 0.046875l0 0.953125l-2.859375 0l0 -0.90625l0.390625 -0.046875q0.34375 -0.03125 0.34375 -0.375l0 -5.921875q0 -0.265625 -0.296875 -0.28125l-0.421875 -0.03125l0 -1.0l2.15625 0zm6.8103943 2.765625l0 4.46875q0 0.1875 0.0625 0.265625q0.078125 0.0625 0.234375 0.078125l0.390625 0.03125l0 0.953125l-1.90625 0l0 -0.703125l-0.03125 0q-0.609375 0.859375 -1.65625 0.859375q-1.21875 0 -1.8125 -0.78125q-0.578125 -0.78125 -0.578125 -2.140625q0 -1.625 0.78125 -2.53125q0.796875 -0.921875 2.375 -0.921875q1.03125 0 2.140625 0.421875zm-1.390625 3.890625l0 -3.109375q-0.328125 -0.15625 -0.921875 -0.15625q-0.8125 0 -1.171875 0.65625q-0.359375 0.640625 -0.359375 1.703125q0 1.953125 1.25 1.953125q0.53125 0 0.859375 -0.3125q0.34375 -0.328125 0.34375 -0.734375zm5.9602966 -3.21875q-0.296875 -0.109375 -0.703125 -0.109375q-0.40625 0 -0.65625 0.1875q-0.25 0.1875 -0.25 0.46875q0 0.265625 0.09375 0.421875q0.09375 0.140625 0.28125 0.25q0.296875 0.15625 0.71875 0.265625q0.421875 0.109375 0.625 0.1875q0.203125 0.0625 0.5 0.21875q0.3125 0.15625 0.46875 0.328125q0.421875 0.453125 0.421875 1.140625q0 0.90625 -0.65625 1.421875q-0.640625 0.5 -1.65625 0.5q-1.46875 0 -2.203125 -0.375l0 -1.671875l1.078125 -0.078125l0 0.578125q0 0.53125 1.0 0.53125q1.015625 0 1.015625 -0.734375q0 -0.265625 -0.171875 -0.4375q-0.171875 -0.171875 -0.34375 -0.21875q-0.171875 -0.0625 -0.40625 -0.125q-0.234375 -0.0625 -0.453125 -0.125q-0.21875 -0.0625 -0.484375 -0.15625q-0.25 -0.109375 -0.5625 -0.296875q-0.609375 -0.390625 -0.609375 -1.3125q0 -0.9375 0.65625 -1.4375q0.65625 -0.515625 1.65625 -0.515625q1.0 0 1.984375 0.484375l0 1.4375l-1.078125 0.078125l0 -0.5q0 -0.296875 -0.265625 -0.40625zm5.412033 0q-0.296875 -0.109375 -0.703125 -0.109375q-0.40625 0 -0.65625 0.1875q-0.25 0.1875 -0.25 0.46875q0 0.265625 0.09375 0.421875q0.09375 0.140625 0.28125 0.25q0.296875 0.15625 0.71875 0.265625q0.421875 0.109375 0.625 0.1875q0.203125 0.0625 0.5 0.21875q0.3125 0.15625 0.46875 0.328125q0.4218712 0.453125 0.4218712 1.140625q0 0.90625 -0.6562462 1.421875q-0.640625 0.5 -1.65625 0.5q-1.46875 0 -2.203125 -0.375l0 -1.671875l1.078125 -0.078125l0 0.578125q0 0.53125 1.0 0.53125q1.015625 0 1.015625 -0.734375q0 -0.265625 -0.171875 -0.4375q-0.171875 -0.171875 -0.34375 -0.21875q-0.171875 -0.0625 -0.40625 -0.125q-0.234375 -0.0625 -0.453125 -0.125q-0.21875 -0.0625 -0.484375 -0.15625q-0.25 -0.109375 -0.5625 -0.296875q-0.609375 -0.390625 -0.609375 -1.3125q0 -0.9375 0.65625 -1.4375q0.65625 -0.515625 1.65625 -0.515625q1.0 0 1.984375 0.484375l0 1.4375l-1.078125 0.078125l0 -0.5q0 -0.296875 -0.265625 -0.40625zm4.4276543 -0.90625l0 5.03125l0.6875 0.046875l0 0.953125l-2.859375 0l0 -0.90625l0.40625 -0.046875q0.34375 -0.03125 0.34375 -0.375l0 -3.34375q0 -0.203125 -0.0625 -0.265625q-0.0625 -0.078125 -0.234375 -0.078125l-0.421875 -0.03125l0 -0.984375l2.140625 0zm-1.515625 -1.03125q-0.25 -0.25 -0.25 -0.640625q0 -0.390625 0.25 -0.640625q0.265625 -0.265625 0.671875 -0.265625q0.40625 0 0.65625 0.265625q0.265625 0.25 0.265625 0.640625q0 0.390625 -0.265625 0.640625q-0.25 0.234375 -0.65625 0.234375q-0.40625 0 -0.671875 -0.234375zm3.6614075 5.71875l0 -3.6875l-1.03125 0l0 -1.0l1.03125 0l0 -0.453125q0 -1.1875 0.53125 -1.703125q0.515625 -0.484375 1.484375 -0.484375q0.96875 0 1.71875 0.421875l-0.34375 0.953125q-0.578125 -0.296875 -1.078125 -0.296875q-0.5 0 -0.703125 0.25q-0.1875 0.234375 -0.1875 0.75l0 0.5625l1.78125 0l0 1.0l-1.78125 0l0 4.015625l1.015625 0.0625l0 0.953125l-3.1875 0l0 -0.90625l0.390625 -0.046875q0.1875 -0.015625 0.265625 -0.09375q0.09375 -0.078125 0.09375 -0.296875zm5.846283 -4.6875l0 5.03125l0.6875 0.046875l0 0.953125l-2.859375 0l0 -0.90625l0.40625 -0.046875q0.34375 -0.03125 0.34375 -0.375l0 -3.34375q0 -0.203125 -0.0625 -0.265625q-0.0625 -0.078125 -0.234375 -0.078125l-0.421875 -0.03125l0 -0.984375l2.140625 0zm-1.515625 -1.03125q-0.25 -0.25 -0.25 -0.640625q0 -0.390625 0.25 -0.640625q0.265625 -0.265625 0.671875 -0.265625q0.40625 0 0.65625 0.265625q0.265625 0.25 0.265625 0.640625q0 0.390625 -0.265625 0.640625q-0.25 0.234375 -0.65625 0.234375q-0.40625 0 -0.671875 -0.234375zm5.9114075 0.84375q0.90625 0 1.421875 0.4375q0.53125 0.4375 0.53125 1.234375q0 0.53125 -0.234375 0.9375q-0.21875 0.390625 -0.5625 0.625q-0.328125 0.21875 -0.8125 0.375q-0.796875 0.234375 -1.8125 0.234375q0.046875 0.640625 0.40625 1.03125q0.359375 0.390625 1.09375 0.390625q0.75 0 1.5 -0.53125l0.453125 0.96875q-0.25 0.21875 -0.8125 0.453125q-0.5625 0.21875 -1.296875 0.21875q-1.46875 0 -2.15625 -0.8125q-0.6875 -0.8125 -0.6875 -2.21875q0 -1.421875 0.78125 -2.375q0.78125 -0.96875 2.1875 -0.96875zm-0.546875 2.75q0.4375 -0.078125 0.8125 -0.34375q0.375 -0.28125 0.375 -0.65625q0 -0.734375 -0.71875 -0.734375q-0.671875 0 -1.03125 0.546875q-0.359375 0.53125 -0.40625 1.265625q0.53125 0 0.96875 -0.078125zm4.0892944 2.125l0 -3.328125q0 -0.1875 -0.0625 -0.265625q-0.0625 -0.078125 -0.234375 -0.09375l-0.5 -0.03125l0 -0.96875l2.015625 0l0 0.890625q0.21875 -0.46875 0.671875 -0.765625q0.453125 -0.3125 1.046875 -0.3125q0.609375 0 1.140625 0.265625l0 1.796875l-1.109375 0.078125l0 -0.546875q0 -0.25 -0.125 -0.3125q-0.125 -0.046875 -0.328125 -0.046875q-0.46875 0 -0.78125 0.34375q-0.3125 0.328125 -0.3125 0.859375l0 2.78125l1.046875 0.046875l0 0.953125l-3.21875 0l0 -0.90625l0.40625 -0.046875q0.171875 -0.015625 0.25 -0.09375q0.09375 -0.078125 0.09375 -0.296875z"/><path fill="#f90" fill-rule="evenodd" d="m-1.4698163E-5 123.44314l0 0c0 -2.968773 2.4066646 -5.375435 5.375436 -5.375435l97.186134 0c1.4256592 0 2.792923 0.5663376 3.8010101 1.5744247c1.0080872 1.0080948 1.5744324 2.3753586 1.5744324 3.8010101l0 21.501091c0 2.9687805 -2.4066696 5.3754425 -5.3754425 5.3754425l-97.186134 0c-2.9687712 0 -5.375436 -2.406662 -5.375436 -5.3754425z"/><path fill="#000" fill-rule="nonzero" d="m14.727401 130.83994l2.999999 0q2.296875 0 2.296875 1.78125q0 0.984375 -0.984375 1.5q0.640625 0.15625 0.984375 0.59375q0.359375 0.421875 0.359375 1.09375q0 1.03125 -0.703125 1.578125q-0.6875 0.546875 -2.015625 0.546875l-2.999999 0l0 -0.859375l0.359375 -0.03125q0.296875 -0.03125 0.296875 -0.296875l0 -4.96875l-0.59375 -0.03125l0 -0.90625zm1.906249 3.859375l0 2.234375l1.0 0q1.375 0 1.375 -1.125q0 -0.546875 -0.34375 -0.828125q-0.34375 -0.28125 -0.984375 -0.28125l-1.046875 0zm0 -2.875l0 1.9375l0.78125 0q0.65625 0 0.96875 -0.265625q0.328125 -0.28125 0.328125 -0.765625q0 -0.5 -0.328125 -0.703125q-0.3125 -0.203125 -0.890625 -0.203125l-0.859375 0zm7.1182556 0.59375q0.796875 0 1.265625 0.390625q0.46875 0.390625 0.46875 1.09375q0 0.46875 -0.203125 0.828125q-0.203125 0.34375 -0.5 0.546875q-0.296875 0.203125 -0.734375 0.328125q-0.703125 0.21875 -1.609375 0.21875q0.046875 0.5625 0.359375 0.90625q0.3125 0.34375 0.96875 0.34375q0.671875 0 1.328125 -0.46875l0.40625 0.875q-0.203125 0.1875 -0.71875 0.390625q-0.5 0.203125 -1.15625 0.203125q-1.296875 0 -1.90625 -0.71875q-0.609375 -0.71875 -0.609375 -1.96875q0 -1.265625 0.6875 -2.109375q0.703125 -0.859375 1.953125 -0.859375zm-0.484375 2.4375q0.390625 -0.078125 0.71875 -0.3125q0.328125 -0.25 0.328125 -0.578125q0 -0.640625 -0.640625 -0.640625q-0.59375 0 -0.921875 0.46875q-0.3125 0.46875 -0.34375 1.140625q0.46875 -0.015625 0.859375 -0.078125zm3.6264343 1.890625l0 -2.953125q0 -0.171875 -0.0625 -0.234375q-0.0625 -0.078125 -0.203125 -0.09375l-0.453125 -0.03125l0 -0.859375l1.796875 0l0 0.796875q0.203125 -0.40625 0.59375 -0.671875q0.40625 -0.28125 0.9375 -0.28125q0.53125 0 1.015625 0.234375l0 1.578125l-1.0 0.078125l0 -0.484375q0 -0.21875 -0.109375 -0.265625q-0.109375 -0.0625 -0.28125 -0.0625q-0.421875 0 -0.703125 0.3125q-0.265625 0.296875 -0.265625 0.765625l0 2.46875l0.921875 0.046875l0 0.84375l-2.84375 0l0 -0.8125l0.34375 -0.03125q0.15625 -0.015625 0.234375 -0.078125q0.078125 -0.078125 0.078125 -0.265625zm5.43886 -5.296875l0.703125 0l0 1.125l1.40625 0l-0.109375 0.890625l-1.296875 0l0 2.8125q0 0.46875 0.15625 0.65625q0.171875 0.171875 0.53125 0.171875q0.359375 0 0.71875 -0.21875l0.328125 0.828125q-0.53125 0.375 -1.359375 0.375q-0.484375 0 -0.8125 -0.125q-0.328125 -0.125 -0.484375 -0.265625q-0.1562519 -0.15625 -0.2500019 -0.4375q-0.078125 -0.296875 -0.09375 -0.453125q-0.015625 -0.171875 -0.015625 -0.5l0 -2.84375l-0.75 0l0.109375 -0.78125q0.5 -0.03125 0.75 -0.34375q0.2656269 -0.328125 0.4687519 -0.890625zm2.8299408 6.484375l0 -0.859375l0.375 -0.03125q0.28125 -0.03125 0.28125 -0.296875l0 -4.96875l-0.609375 -0.03125l0 -0.90625l1.921875 0l3.015625 4.90625l0.015625 0l0 -3.96875l-0.703125 -0.03125l0 -0.90625l2.609375 0l0 0.875l-0.390625 0.03125q-0.25 0.015625 -0.25 0.328125l0 5.859375l-1.25 0l-3.078125 -4.96875l-0.015625 0l0 4.03125l0.6875 0.03125l0 0.90625l-2.609375 0zm12.575226 0l-5.0625 0l0 -0.859375l0.34375 -0.03125q0.3125 -0.03125 0.3125 -0.296875l0 -4.96875l-0.609375 -0.03125l0 -0.90625l2.578125 0l0 0.875l-0.359375 0.03125q-0.3125 0.03125 -0.3125 0.34375l0 4.75l1.78125 0q0.140625 0 0.1875 -0.078125q0.046875 -0.078125 0.046875 -0.265625l0 -0.75l1.09375 0.078125l0 2.109375zm4.956833 -5.953125q-0.109375 -0.203125 -0.875 -0.203125q-0.984375 0 -1.5 0.671875q-0.5 0.671875 -0.5 1.9375q0 2.625 1.96875 2.625q0.03125 0 0.28125 0q0.25 0 0.46875 -0.0625q0.21875 -0.078125 0.265625 -0.140625q0.046875 -0.078125 0.046875 -0.234375l0 -0.859375l1.078125 0.078125l0 1.84375q-0.828125 0.4375 -2.109375 0.4375q-1.625 0 -2.484375 -0.90625q-0.859375 -0.921875 -0.859375 -2.734375q0 -1.0 0.28125 -1.75q0.296875 -0.75 0.78125 -1.171875q0.96875 -0.796875 2.28125 -0.796875q1.078125 0 2.015625 0.4375l0 1.8125l-1.09375 0.078125l0 -0.828125q0 -0.15625 -0.046875 -0.234375zm4.0401306 -1.640625l0 6.703125l0.59375 0.03125l0 0.859375l-2.53125 0l0 -0.8125l0.359375 -0.03125q0.296875 -0.03125 0.296875 -0.34375l0 -5.25q0 -0.234375 -0.265625 -0.25l-0.359375 -0.03125l0 -0.875l1.90625 0zm6.050598 2.453125l0 3.953125q0 0.171875 0.046875 0.234375q0.0625 0.0625 0.21875 0.078125l0.34375 0.015625l0 0.859375l-1.703125 0l0 -0.625l-0.03125 0q-0.53125 0.765625 -1.453125 0.765625q-1.09375 0 -1.625 -0.6875q-0.515625 -0.703125 -0.515625 -1.90625q0 -1.453125 0.703125 -2.25q0.703125 -0.8125 2.109375 -0.8125q0.90625 0 1.90625 0.375zm-1.234375 3.453125l0 -2.765625q-0.296875 -0.140625 -0.828125 -0.140625q-0.71875 0 -1.046875 0.578125q-0.3125 0.578125 -0.3125 1.515625q0 1.734375 1.109375 1.734375q0.46875 0 0.765625 -0.28125q0.3125 -0.28125 0.3125 -0.640625zm5.2765274 -2.859375q-0.25 -0.09375 -0.625 -0.09375q-0.359375 0 -0.578125 0.171875q-0.21874237 0.15625 -0.21874237 0.390625q0 0.234375 0.078125 0.375q0.09374237 0.140625 0.26561737 0.234375q0.265625 0.140625 0.625 0.234375q0.375 0.09375 0.5625 0.15625q0.1875 0.0625 0.453125 0.203125q0.265625 0.140625 0.40625 0.296875q0.375 0.390625 0.375 1.015625q0 0.796875 -0.578125 1.25q-0.578125 0.453125 -1.484375 0.453125q-1.2968674 0 -1.9531174 -0.328125l0 -1.484375l0.953125 -0.078125l0 0.515625q0 0.46875 0.8906174 0.46875q0.90625 0 0.90625 -0.65625q0 -0.234375 -0.15625 -0.375q-0.15625 -0.15625 -0.3125 -0.203125q-0.140625 -0.0625 -0.359375 -0.109375q-0.203125 -0.046875 -0.40625 -0.09375q-0.18749237 -0.0625 -0.42186737 -0.15625q-0.21875 -0.09375 -0.5 -0.265625q-0.546875 -0.34375 -0.546875 -1.171875q0 -0.828125 0.578125 -1.265625q0.59375 -0.453125 1.4843674 -0.453125q0.890625 0 1.765625 0.421875l0 1.28125l-0.953125 0.078125l0 -0.453125q0 -0.265625 -0.25 -0.359375zm4.806015 0q-0.25 -0.09375 -0.625 -0.09375q-0.359375 0 -0.578125 0.171875q-0.21875 0.15625 -0.21875 0.390625q0 0.234375 0.078125 0.375q0.09375 0.140625 0.265625 0.234375q0.265625 0.140625 0.625 0.234375q0.375 0.09375 0.5625 0.15625q0.1875 0.0625 0.453125 0.203125q0.265625 0.140625 0.40625 0.296875q0.375 0.390625 0.375 1.015625q0 0.796875 -0.578125 1.25q-0.578125 0.453125 -1.484375 0.453125q-1.296875 0 -1.953125 -0.328125l0 -1.484375l0.953125 -0.078125l0 0.515625q0 0.46875 0.890625 0.46875q0.90625 0 0.90625 -0.65625q0 -0.234375 -0.15625 -0.375q-0.15625 -0.15625 -0.3125 -0.203125q-0.140625 -0.0625 -0.359375 -0.109375q-0.203125 -0.046875 -0.40625 -0.09375q-0.1875 -0.0625 -0.421875 -0.15625q-0.21875 -0.09375 -0.5 -0.265625q-0.546875 -0.34375 -0.546875 -1.171875q0 -0.828125 0.578125 -1.265625q0.59375 -0.453125 1.484375 -0.453125q0.890625 0 1.765625 0.421875l0 1.28125l-0.953125 0.078125l0 -0.453125q0 -0.265625 -0.25 -0.359375zm3.94664 -0.8125l0 4.46875l0.609375 0.03125l0 0.859375l-2.53125 0l0 -0.8125l0.34375 -0.03125q0.3125 -0.03125 0.3125 -0.34375l0 -2.953125q0 -0.1875 -0.0625 -0.25q-0.0625 -0.0625 -0.203125 -0.0625l-0.375 -0.015625l0 -0.890625l1.90625 0zm-1.34375 -0.921875q-0.21875 -0.21875 -0.21875 -0.5625q0 -0.34375 0.21875 -0.5625q0.21875 -0.234375 0.578125 -0.234375q0.375 0 0.59375 0.234375q0.234375 0.21875 0.234375 0.5625q0 0.34375 -0.234375 0.5625q-0.21875 0.21875 -0.59375 0.21875q-0.359375 0 -0.578125 -0.21875zm3.2324066 5.09375l0 -3.28125l-0.90625 0l0 -0.890625l0.90625 0l0 -0.40625q0 -1.046875 0.484375 -1.5q0.453125 -0.4375 1.3125 -0.4375q0.859375 0 1.53125 0.375l-0.3125 0.84375q-0.5 -0.265625 -0.953125 -0.265625q-0.453125 0 -0.625 0.21875q-0.15625 0.21875 -0.15625 0.671875l0 0.5l1.578125 0l0 0.890625l-1.578125 0l0 3.578125l0.890625 0.03125l0 0.859375l-2.828125 0l0 -0.8125l0.359375 -0.03125q0.15625 -0.015625 0.21875 -0.078125q0.078125 -0.078125 0.078125 -0.265625zm5.208481 -4.171875l0 4.46875l0.609375 0.03125l0 0.859375l-2.53125 0l0 -0.8125l0.34375 -0.03125q0.3125 -0.03125 0.3125 -0.34375l0 -2.953125q0 -0.1875 -0.0625 -0.25q-0.0625 -0.0625 -0.203125 -0.0625l-0.375 -0.015625l0 -0.890625l1.90625 0zm-1.34375 -0.921875q-0.21875 -0.21875 -0.21875 -0.5625q0 -0.34375 0.21875 -0.5625q0.21875 -0.234375 0.578125 -0.234375q0.375 0 0.59375 0.234375q0.234375 0.21875 0.234375 0.5625q0 0.34375 -0.234375 0.5625q-0.21875 0.21875 -0.59375 0.21875q-0.359375 0 -0.578125 -0.21875zm5.2480316 0.765625q0.796875 0 1.265625 0.390625q0.46875 0.390625 0.46875 1.09375q0 0.46875 -0.203125 0.828125q-0.203125 0.34375 -0.5 0.546875q-0.296875 0.203125 -0.734375 0.328125q-0.703125 0.21875 -1.609375 0.21875q0.046875 0.5625 0.359375 0.90625q0.3125 0.34375 0.96875 0.34375q0.671875 0 1.328125 -0.46875l0.40625 0.875q-0.203125 0.1875 -0.71875 0.390625q-0.5 0.203125 -1.15625 0.203125q-1.296875 0 -1.90625 -0.71875q-0.609375 -0.71875 -0.609375 -1.96875q0 -1.265625 0.6875 -2.109375q0.703125 -0.859375 1.953125 -0.859375zm-0.484375 2.4375q0.390625 -0.078125 0.71875 -0.3125q0.328125 -0.25 0.328125 -0.578125q0 -0.640625 -0.640625 -0.640625q-0.59375 0 -0.921875 0.46875q-0.3125 0.46875 -0.34375 1.140625q0.46875 -0.015625 0.859375 -0.078125zm3.6264343 1.890625l0 -2.953125q0 -0.171875 -0.0625 -0.234375q-0.0625 -0.078125 -0.203125 -0.09375l-0.453125 -0.03125l0 -0.859375l1.796875 0l0 0.796875q0.203125 -0.40625 0.59375 -0.671875q0.40625 -0.28125 0.9375 -0.28125q0.53125 0 1.015625 0.234375l0 1.578125l-1.0 0.078125l0 -0.484375q0 -0.21875 -0.109375 -0.265625q-0.109375 -0.0625 -0.28125 -0.0625q-0.421875 0 -0.703125 0.3125q-0.265625 0.296875 -0.265625 0.765625l0 2.46875l0.921875 0.046875l0 0.84375l-2.84375 0l0 -0.8125l0.34375 -0.03125q0.15625 -0.015625 0.234375 -0.078125q0.078125 -0.078125 0.078125 -0.265625z"/><path fill="#f90" fill-rule="evenodd" d="m357.90506 65.907974l0 0c0 -2.968769 2.4066467 -5.375435 5.3754272 -5.375435l116.90268 0c1.4256592 0 2.7929077 0.5663376 3.8009949 1.5744286c1.0080872 1.008091 1.5744324 2.3753548 1.5744324 3.8010063l0 21.501099c0 2.968773 -2.4066467 5.375435 -5.3754272 5.375435l-116.90268 0c-2.9687805 0 -5.3754272 -2.406662 -5.3754272 -5.375435z"/><path fill="#000" fill-rule="nonzero" d="m371.1282 73.194145l3.390625 0q2.578125 0 2.578125 2.015625q0 1.09375 -1.09375 1.671875q0.703125 0.1875 1.109375 0.671875q0.40625 0.46875 0.40625 1.234375q0 1.171875 -0.796875 1.78125q-0.78125 0.609375 -2.28125 0.609375l-3.375 0l0 -0.96875l0.390625 -0.046875q0.359375 -0.03125 0.359375 -0.328125l0 -5.578125l-0.6875 -0.03125l0 -1.03125zm2.140625 4.34375l0 2.515625l1.140625 0q1.546875 0 1.546875 -1.28125q0 -0.59375 -0.390625 -0.90625q-0.375 -0.328125 -1.109375 -0.328125l-1.1875 0zm0 -3.234375l0 2.171875l0.890625 0q0.75 0 1.09375 -0.296875q0.359375 -0.3125 0.359375 -0.859375q0 -0.5625 -0.359375 -0.78125q-0.34375 -0.234375 -1.0 -0.234375l-0.984375 0zm10.395935 1.078125l0 4.46875q0 0.1875 0.0625 0.265625q0.078125 0.0625 0.234375 0.078125l0.390625 0.03125l0 0.953125l-1.90625 0l0 -0.703125l-0.03125 0q-0.609375 0.859375 -1.65625 0.859375q-1.21875 0 -1.8125 -0.78125q-0.578125 -0.78125 -0.578125 -2.140625q0 -1.625 0.78125 -2.53125q0.796875 -0.921875 2.375 -0.921875q1.03125 0 2.140625 0.421875zm-1.390625 3.890625l0 -3.109375q-0.328125 -0.15625 -0.921875 -0.15625q-0.8125 0 -1.171875 0.65625q-0.359375 0.640625 -0.359375 1.703125q0 1.953125 1.25 1.953125q0.53125 0 0.859375 -0.3125q0.34375 -0.328125 0.34375 -0.734375zm5.9602966 -3.21875q-0.296875 -0.109375 -0.703125 -0.109375q-0.40625 0 -0.65625 0.1875q-0.25 0.1875 -0.25 0.46875q0 0.265625 0.09375 0.421875q0.09375 0.140625 0.28125 0.25q0.296875 0.15625 0.71875 0.265625q0.421875 0.109375 0.625 0.1875q0.203125 0.0625 0.5 0.21875q0.3125 0.15625 0.46875 0.328125q0.421875 0.453125 0.421875 1.140625q0 0.90625 -0.65625 1.421875q-0.640625 0.5 -1.65625 0.5q-1.46875 0 -2.203125 -0.375l0 -1.671875l1.078125 -0.078125l0 0.578125q0 0.53125 1.0 0.53125q1.015625 0 1.015625 -0.734375q0 -0.265625 -0.171875 -0.4375q-0.171875 -0.171875 -0.34375 -0.21875q-0.171875 -0.0625 -0.40625 -0.125q-0.234375 -0.0625 -0.453125 -0.125q-0.21875 -0.0625 -0.484375 -0.15625q-0.25 -0.109375 -0.5625 -0.296875q-0.609375 -0.390625 -0.609375 -1.3125q0 -0.9375 0.65625 -1.4375q0.65625 -0.515625 1.65625 -0.515625q1.0 0 1.984375 0.484375l0 1.4375l-1.078125 0.078125l0 -0.5q0 -0.296875 -0.265625 -0.40625zm5.271393 -1.09375q0.90625 0 1.421875 0.4375q0.53125 0.4375 0.53125 1.234375q0 0.53125 -0.234375 0.9375q-0.21875 0.390625 -0.5625 0.625q-0.328125 0.21875 -0.8125 0.375q-0.796875 0.234375 -1.8125 0.234375q0.046875 0.640625 0.40625 1.03125q0.359375 0.390625 1.09375 0.390625q0.75 0 1.5 -0.53125l0.453125 0.96875q-0.25 0.21875 -0.8125 0.453125q-0.5625 0.21875 -1.296875 0.21875q-1.46875 0 -2.15625 -0.8125q-0.6875 -0.8125 -0.6875 -2.21875q0 -1.421875 0.78125 -2.375q0.78125 -0.96875 2.1875 -0.96875zm-0.546875 2.75q0.4375 -0.078125 0.8125 -0.34375q0.375 -0.28125 0.375 -0.65625q0 -0.734375 -0.71875 -0.734375q-0.671875 0 -1.03125 0.546875q-0.359375 0.53125 -0.40625 1.265625q0.53125 0 0.96875 -0.078125zm5.3549194 -3.078125l1.609375 4.828125l0.0625 0l1.6875 -5.1875l-0.734375 -0.046875l0 -1.03125l2.75 0l0 0.96875l-0.390625 0.046875q-0.15625 0.015625 -0.234375 0.09375q-0.0625 0.078125 -0.140625 0.265625l-2.265625 6.609375l-1.5625 0l-2.4375 -6.921875l-0.6875 -0.03125l0 -1.03125l3.09375 0l0 0.96875l-0.390625 0.046875q-0.375 0.015625 -0.375 0.28125q0 0.0625 0.015625 0.140625zm8.004303 0.515625l0 5.03125l0.6875 0.046875l0 0.953125l-2.859375 0l0 -0.90625l0.40625 -0.046875q0.34375 -0.03125 0.34375 -0.375l0 -3.34375q0 -0.203125 -0.0625 -0.265625q-0.0625 -0.078125 -0.234375 -0.078125l-0.421875 -0.03125l0 -0.984375l2.140625 0zm-1.515625 -1.03125q-0.25 -0.25 -0.25 -0.640625q0 -0.390625 0.25 -0.640625q0.265625 -0.265625 0.671875 -0.265625q0.40625 0 0.65625 0.265625q0.265625 0.25 0.265625 0.640625q0 0.390625 -0.265625 0.640625q-0.25 0.234375 -0.65625 0.234375q-0.40625 0 -0.671875 -0.234375zm6.0520325 1.9375q-0.296875 -0.109375 -0.703125 -0.109375q-0.40625 0 -0.65625 0.1875q-0.25 0.1875 -0.25 0.46875q0 0.265625 0.09375 0.421875q0.09375 0.140625 0.28125 0.25q0.296875 0.15625 0.71875 0.265625q0.421875 0.109375 0.625 0.1875q0.203125 0.0625 0.5 0.21875q0.3125 0.15625 0.46875 0.328125q0.421875 0.453125 0.421875 1.140625q0 0.90625 -0.65625 1.421875q-0.640625 0.5 -1.65625 0.5q-1.46875 0 -2.203125 -0.375l0 -1.671875l1.078125 -0.078125l0 0.578125q0 0.53125 1.0 0.53125q1.015625 0 1.015625 -0.734375q0 -0.265625 -0.171875 -0.4375q-0.171875 -0.171875 -0.34375 -0.21875q-0.171875 -0.0625 -0.40625 -0.125q-0.234375 -0.0625 -0.453125 -0.125q-0.21875 -0.0625 -0.484375 -0.15625q-0.25 -0.109375 -0.5625 -0.296875q-0.609375 -0.390625 -0.609375 -1.3125q0 -0.9375 0.65625 -1.4375q0.65625 -0.515625 1.65625 -0.515625q1.0 0 1.984375 0.484375l0 1.4375l-1.078125 0.078125l0 -0.5q0 -0.296875 -0.265625 -0.40625zm4.4276733 -0.90625l0 5.03125l0.6875 0.046875l0 0.953125l-2.859375 0l0 -0.90625l0.40625 -0.046875q0.34375 -0.03125 0.34375 -0.375l0 -3.34375q0 -0.203125 -0.0625 -0.265625q-0.0625 -0.078125 -0.234375 -0.078125l-0.421875 -0.03125l0 -0.984375l2.140625 0zm-1.515625 -1.03125q-0.25 -0.25 -0.25 -0.640625q0 -0.390625 0.25 -0.640625q0.265625 -0.265625 0.671875 -0.265625q0.40625 0 0.65625 0.265625q0.265625 0.25 0.265625 0.640625q0 0.390625 -0.265625 0.640625q-0.25 0.234375 -0.65625 0.234375q-0.40625 0 -0.671875 -0.234375zm5.6614075 6.1875q1.3125 0 1.3125 -2.109375q0 -1.078125 -0.296875 -1.625q-0.296875 -0.546875 -0.984375 -0.546875q-0.6875 0 -1.015625 0.53125q-0.328125 0.515625 -0.328125 1.4375q0 1.6875 0.625 2.125q0.28125 0.1875 0.6875 0.1875zm-2.765625 -2.15625q0 -0.875 0.265625 -1.53125q0.265625 -0.65625 0.71875 -1.0q0.84375 -0.65625 1.875 -0.65625q0.71875 0 1.21875 0.234375q0.5 0.234375 0.78125 0.546875q0.28125 0.296875 0.46875 0.890625q0.203125 0.578125 0.203125 1.359375q0 1.65625 -0.8125 2.515625q-0.796875 0.859375 -2.046875 0.859375q-1.25 0 -1.96875 -0.8125q-0.703125 -0.8125 -0.703125 -2.40625zm6.273529 -2.046875l0 -0.953125l2.03125 0l0 0.78125q0.296875 -0.453125 0.8125 -0.703125q0.53125 -0.265625 1.125 -0.265625q0.90625 0 1.40625 0.53125q0.5 0.515625 0.5 1.5625l0 3.125l0.6875 0.046875l0 0.953125l-2.859375 0l0 -0.90625l0.390625 -0.046875q0.1875 -0.015625 0.265625 -0.09375q0.09375 -0.078125 0.09375 -0.296875l0 -2.46875q0 -0.65625 -0.203125 -0.96875q-0.203125 -0.328125 -0.78125 -0.328125q-0.5625 0 -0.90625 0.359375q-0.328125 0.359375 -0.328125 0.84375l0 2.90625l0.671875 0.046875l0 0.953125l-2.84375 0l0 -0.90625l0.390625 -0.046875q0.171875 -0.015625 0.25 -0.09375q0.09375 -0.078125 0.09375 -0.296875l0 -3.328125q0 -0.359375 -0.296875 -0.375l-0.5 -0.03125zm8.881317 3.734375l0 -5.453125l-0.921875 0q-0.28125 0 -0.28125 0.375l0 0.5625l-1.21875 -0.078125l0 -2.046875l6.265625 0l0 2.046875l-1.21875 0.078125l0 -0.5625q0 -0.203125 -0.0625 -0.28125q-0.0625 -0.09375 -0.28125 -0.09375l-0.828125 0l0 5.734375l0.953125 0.046875l0 1.015625l-3.390625 0l0 -0.96875l0.640625 -0.046875q0.34375 -0.03125 0.34375 -0.328125zm9.807922 -4.453125l0 4.46875q0 0.1875 0.0625 0.265625q0.078125 0.0625 0.234375 0.078125l0.390625 0.03125l0 0.953125l-1.90625 0l0 -0.703125l-0.03125 0q-0.609375 0.859375 -1.65625 0.859375q-1.21875 0 -1.8125 -0.78125q-0.578125 -0.78125 -0.578125 -2.140625q0 -1.625 0.78125 -2.53125q0.796875 -0.921875 2.375 -0.921875q1.03125 0 2.140625 0.421875zm-1.390625 3.890625l0 -3.109375q-0.328125 -0.15625 -0.921875 -0.15625q-0.8125 0 -1.171875 0.65625q-0.359375 0.640625 -0.359375 1.703125q0 1.953125 1.25 1.953125q0.53125 0 0.859375 -0.3125q0.34375 -0.328125 0.34375 -0.734375zm5.9602966 -3.21875q-0.296875 -0.109375 -0.703125 -0.109375q-0.40625 0 -0.65625 0.1875q-0.25 0.1875 -0.25 0.46875q0 0.265625 0.09375 0.421875q0.09375 0.140625 0.28125 0.25q0.296875 0.15625 0.71875 0.265625q0.421875 0.109375 0.625 0.1875q0.203125 0.0625 0.5 0.21875q0.3125 0.15625 0.46875 0.328125q0.421875 0.453125 0.421875 1.140625q0 0.90625 -0.65625 1.421875q-0.640625 0.5 -1.65625 0.5q-1.46875 0 -2.203125 -0.375l0 -1.671875l1.078125 -0.078125l0 0.578125q0 0.53125 1.0 0.53125q1.015625 0 1.015625 -0.734375q0 -0.265625 -0.171875 -0.4375q-0.171875 -0.171875 -0.34375 -0.21875q-0.171875 -0.0625 -0.40625 -0.125q-0.234375 -0.0625 -0.453125 -0.125q-0.21875 -0.0625 -0.484375 -0.15625q-0.25 -0.109375 -0.5625 -0.296875q-0.609375 -0.390625 -0.609375 -1.3125q0 -0.9375 0.65625 -1.4375q0.65625 -0.515625 1.65625 -0.515625q1.0 0 1.984375 0.484375l0 1.4375l-1.078125 0.078125l0 -0.5q0 -0.296875 -0.265625 -0.40625zm3.0057678 3.78125l0 -5.84375q0 -0.1875 -0.0625 -0.265625q-0.0625 -0.078125 -0.234375 -0.078125l-0.421875 -0.03125l0 -1.0l2.140625 0l0 5.203125q0.65625 -0.0625 1.140625 -0.40625q0.5 -0.34375 0.671875 -0.921875q0.046875 -0.109375 0.046875 -0.1875q0 -0.203125 -0.234375 -0.203125l-0.453125 -0.015625l0 -0.9375l2.484375 0l0 0.96875l-0.578125 0.015625q-0.15625 1.234375 -1.0625 1.9375l1.1875 2.109375l0.71875 0.046875l0 0.953125l-1.75 0l-1.359375 -2.5q-0.40625 0.109375 -0.8125 0.171875l0 1.328125l0 0l0.6875 0.046875l0 0.953125l-2.859375 0l0 -0.90625l0.40625 -0.046875q0.171875 -0.015625 0.25 -0.09375q0.09375 -0.078125 0.09375 -0.296875zm6.343933 0l1.9375 -5.59375l-0.765625 -0.078125l0 -0.96875l2.75 0l2.453125 6.921875l0.015625 0l0.6875 0.046875l0 1.015625l-3.109375 0l0 -0.96875l0.46875 -0.046875q0.203125 -0.015625 0.265625 -0.078125q0.078125 -0.078125 0.015625 -0.28125l-0.25 -0.734375l-2.8125 0l-0.359375 1.046875l0.71875 0.046875l0 1.015625l-2.765625 0l0 -0.96875l0.390625 -0.046875q0.25 -0.015625 0.359375 -0.328125zm3.0625 -5.296875l-1.109375 3.421875l2.21875 0l-1.078125 -3.421875l-0.03125 0zm4.8915405 7.78125l0 -5.8125q0 -0.203125 -0.0625 -0.28125q-0.0625 -0.078125 -0.234375 -0.078125l-0.5 -0.03125l0 -0.96875l2.03125 0l0 0.78125q0.1875 -0.359375 0.6875 -0.65625q0.5 -0.3125 1.203125 -0.3125q2.171875 0 2.171875 3.046875q0 1.625 -0.71875 2.5q-0.703125 0.859375 -1.90625 0.859375q-0.71875 0 -1.28125 -0.359375l0 1.65625l0.96875 0.046875l0 0.953125l-3.09375 0l0 -0.90625l0.390625 -0.046875q0.1875 -0.015625 0.265625 -0.09375q0.078125 -0.078125 0.078125 -0.296875zm3.8125 -4.1875q0 -2.0 -1.21875 -2.0q-0.5 0 -0.859375 0.3125q-0.34375 0.296875 -0.34375 0.71875l0 2.75q0.453125 0.3125 1.109375 0.3125q0.65625 0 0.984375 -0.59375q0.328125 -0.609375 0.328125 -1.5zm4.5035706 -2.984375l0 5.03125l0.6875 0.046875l0 0.953125l-2.859375 0l0 -0.90625l0.40625 -0.046875q0.34375 -0.03125 0.34375 -0.375l0 -3.34375q0 -0.203125 -0.0625 -0.265625q-0.0625 -0.078125 -0.234375 -0.078125l-0.421875 -0.03125l0 -0.984375l2.140625 0zm-1.515625 -1.03125q-0.25 -0.25 -0.25 -0.640625q0 -0.390625 0.25 -0.640625q0.265625 -0.265625 0.671875 -0.265625q0.40625 0 0.65625 0.265625q0.265625 0.25 0.265625 0.640625q0 0.390625 -0.265625 0.640625q-0.25 0.234375 -0.65625 0.234375q-0.40625 0 -0.671875 -0.234375z"/><path fill="#f90" fill-rule="evenodd" d="m473.916 123.446304l0 0c0 -2.968773 2.4066772 -5.375435 5.375458 -5.375435l74.760925 0c1.4256592 0 2.7929077 0.5663376 3.8010254 1.5744247c1.0080566 1.0080872 1.5744019 2.375351 1.5744019 3.8010101l0 21.501099c0 2.9687653 -2.4066772 5.3754272 -5.3754272 5.3754272l-74.760925 0l0 0c-2.9687805 0 -5.375458 -2.406662 -5.375458 -5.3754272z"/><path fill="#000" fill-rule="nonzero" d="m488.88403 131.34435q1.109375 0 1.859375 0.78125q0.75 0.78125 0.75 2.390625q0 1.609375 -0.75 2.4375q-0.734375 0.828125 -2.0 0.828125q-1.265625 0 -1.984375 -0.8125q-0.71875 -0.828125 -0.71875 -2.40625q0 -0.859375 0.25 -1.5q0.25 -0.65625 0.65625 -1.0q0.84375 -0.71875 1.9375 -0.71875zm-1.671875 3.171875q0 2.3125 1.59375 2.3125q0.859375 0 1.203125 -0.703125q0.328125 -0.625 0.328125 -1.53125q0 -0.8125 -0.28125 -1.484375q-0.171875 -0.375 -0.5 -0.59375q-0.3125 -0.21875 -0.828125 -0.21875q-0.5 0 -0.875 0.34375q-0.375 0.328125 -0.515625 0.8125q-0.125 0.46875 -0.125 1.0625zm5.2257385 2.859375l0 -5.359375q0 -0.203125 -0.234375 -0.21875l-0.328125 -0.015625l0 -0.78125l1.640625 0l0 2.21875q0.421875 -0.390625 1.125 -0.390625q0.890625 0 1.390625 0.59375q0.515625 0.59375 0.515625 1.65625q0 2.703125 -2.25 2.703125q-0.484375 0 -1.03125 -0.125q-0.53125 -0.109375 -0.828125 -0.28125zm1.078125 -3.015625l0 2.40625q0.359375 0.1875 0.828125 0.1875q1.0625 0 1.0625 -1.71875q0 -1.578125 -1.046875 -1.578125q-0.34375 0 -0.59375 0.203125q-0.25 0.1875 -0.25 0.5zm5.327057 -1.390625l0 4.90625q0 0.75 -0.234375 1.21875q-0.3125 0.5625 -1.25 0.5625q-0.671875 0 -1.203125 -0.328125l0.34375 -0.78125q0.359375 0.203125 0.65625 0.203125q0.3125 0 0.4375 -0.1875q0.140625 -0.1875 0.140625 -0.640625l0 -3.890625q0 -0.15625 -0.046875 -0.203125q-0.046875 -0.0625 -0.1875 -0.078125l-0.328125 -0.015625l0 -0.765625l1.671875 0zm-1.1875 -0.8125q-0.1875 -0.1875 -0.1875 -0.484375q0 -0.296875 0.1875 -0.5q0.203125 -0.203125 0.515625 -0.203125q0.328125 0 0.53125 0.203125q0.203125 0.203125 0.203125 0.5q0 0.296875 -0.203125 0.484375q-0.203125 0.1875 -0.53125 0.1875q-0.3125 0 -0.515625 -0.1875zm4.546112 0.671875q0.6875 0 1.09375 0.34375q0.421875 0.328125 0.421875 0.953125q0 0.40625 -0.1875 0.71875q-0.171875 0.3125 -0.4375 0.5q-0.25 0.171875 -0.625 0.28125q-0.625 0.1875 -1.40625 0.1875q0.03125 0.484375 0.296875 0.796875q0.28125 0.296875 0.859375 0.296875q0.578125 0 1.15625 -0.40625l0.359375 0.75q-0.1875 0.171875 -0.640625 0.359375q-0.4375 0.171875 -1.0 0.171875q-1.140625 0 -1.671875 -0.625q-0.53125 -0.640625 -0.53125 -1.734375q0 -1.109375 0.609375 -1.84375q0.609375 -0.75 1.703125 -0.75zm-0.4375 2.125q0.34375 -0.0625 0.625 -0.265625q0.296875 -0.21875 0.296875 -0.5q0 -0.578125 -0.5625 -0.578125q-0.515625 0 -0.796875 0.421875q-0.28125 0.421875 -0.3125 1.0q0.421875 -0.015625 0.75 -0.078125zm3.7335815 0.3125q0 0.78125 0.296875 1.21875q0.296875 0.4375 0.859375 0.4375q0.5625 0 1.125 -0.390625l0.390625 0.71875q-0.65625 0.53125 -1.65625 0.53125q-1.0 0 -1.578125 -0.625q-0.5625 -0.625 -0.5625 -1.859375q0 -1.234375 0.65625 -1.84375q0.65625 -0.625 1.484375 -0.625q0.828125 0 1.53125 0.375l0 1.21875l-0.859375 0.0625l0 -0.453125q0 -0.25 -0.1875 -0.3125q-0.171875 -0.0625 -0.375 -0.0625q-1.125 0 -1.125 1.609375zm4.2998047 -3.296875l0.609375 0l0 1.0l1.234375 0l-0.09375 0.78125l-1.140625 0l0 2.453125q0 0.40625 0.140625 0.578125q0.15625 0.15625 0.46875 0.15625q0.3125 0 0.625 -0.203125l0.28125 0.71875q-0.46875 0.328125 -1.1875 0.328125q-0.421875 0 -0.71875 -0.109375q-0.28125 -0.09375 -0.421875 -0.21875q-0.140625 -0.140625 -0.21875 -0.390625q-0.0625 -0.25 -0.078125 -0.390625q0 -0.15625 0 -0.4375l0 -2.484375l-0.671875 0l0.09375 -0.6875q0.4375 -0.03125 0.65625 -0.296875q0.234375 -0.28125 0.421875 -0.796875zm2.485443 5.6875l0 -0.75l0.3125 -0.03125q0.265625 -0.03125 0.265625 -0.265625l0 -4.328125l-0.53125 -0.03125l0 -0.796875l2.5625 0q1.375 0 2.140625 0.734375q0.765625 0.71875 0.765625 2.140625q0 0.890625 -0.234375 1.546875q-0.234375 0.65625 -0.625 1.03125q-0.8125 0.75 -2.0 0.75l-2.65625 0zm1.71875 -5.296875l0 4.40625l0.953125 0q0.796875 0 1.25 -0.578125q0.453125 -0.578125 0.453125 -1.6875q0 -2.140625 -1.828125 -2.140625l-0.828125 0zm6.828186 0.46875q0.6875 0 1.09375 0.34375q0.421875 0.328125 0.421875 0.953125q0 0.40625 -0.1875 0.71875q-0.171875 0.3125 -0.4375 0.5q-0.25 0.171875 -0.625 0.28125q-0.625 0.1875 -1.40625 0.1875q0.03125 0.484375 0.296875 0.796875q0.28125 0.296875 0.859375 0.296875q0.578125 0 1.15625 -0.40625l0.359375 0.75q-0.1875 0.171875 -0.640625 0.359375q-0.4375 0.171875 -1.0 0.171875q-1.140625 0 -1.671875 -0.625q-0.53125 -0.640625 -0.53125 -1.734375q0 -1.109375 0.609375 -1.84375q0.609375 -0.75 1.703125 -0.75zm-0.4375 2.125q0.34375 -0.0625 0.625 -0.265625q0.296875 -0.21875 0.296875 -0.5q0 -0.578125 -0.5625 -0.578125q-0.515625 0 -0.796875 0.421875q-0.28125 0.421875 -0.3125 1.0q0.421875 -0.015625 0.75 -0.078125zm3.6398315 -2.984375l0.609375 0l0 1.0l1.234375 0l-0.09375 0.78125l-1.140625 0l0 2.453125q0 0.40625 0.140625 0.578125q0.15625 0.15625 0.46875 0.15625q0.3125 0 0.625 -0.203125l0.28125 0.71875q-0.46875 0.328125 -1.1875 0.328125q-0.421875 0 -0.71875 -0.109375q-0.28125 -0.09375 -0.421875 -0.21875q-0.140625 -0.140625 -0.21875 -0.390625q-0.0625 -0.25 -0.078125 -0.390625q0 -0.15625 0 -0.4375l0 -2.484375l-0.671875 0l0.09375 -0.6875q0.4375 -0.03125 0.65625 -0.296875q0.234375 -0.28125 0.421875 -0.796875zm4.8292236 0.859375q0.6875 0 1.09375 0.34375q0.421875 0.328125 0.421875 0.953125q0 0.40625 -0.1875 0.71875q-0.171875 0.3125 -0.4375 0.5q-0.25 0.171875 -0.625 0.28125q-0.625 0.1875 -1.40625 0.1875q0.03125 0.484375 0.296875 0.796875q0.28125 0.296875 0.859375 0.296875q0.578125 0 1.15625 -0.40625l0.359375 0.75q-0.1875 0.171875 -0.640625 0.359375q-0.4375 0.171875 -1.0 0.171875q-1.140625 0 -1.671875 -0.625q-0.53125 -0.640625 -0.53125 -1.734375q0 -1.109375 0.609375 -1.84375q0.609375 -0.75 1.703125 -0.75zm-0.4375 2.125q0.34375 -0.0625 0.625 -0.265625q0.296875 -0.21875 0.296875 -0.5q0 -0.578125 -0.5625 -0.578125q-0.515625 0 -0.796875 0.421875q-0.28125 0.421875 -0.3125 1.0q0.421875 -0.015625 0.75 -0.078125zm3.7335815 0.3125q0 0.78125 0.296875 1.21875q0.296875 0.4375 0.859375 0.4375q0.5625 0 1.125 -0.390625l0.390625 0.71875q-0.65625 0.53125 -1.65625 0.53125q-1.0 0 -1.578125 -0.625q-0.5625 -0.625 -0.5625 -1.859375q0 -1.234375 0.65625 -1.84375q0.65625 -0.625 1.484375 -0.625q0.828125 0 1.53125 0.375l0 1.21875l-0.859375 0.0625l0 -0.453125q0 -0.25 -0.1875 -0.3125q-0.171875 -0.0625 -0.375 -0.0625q-1.125 0 -1.125 1.609375zm4.2998047 -3.296875l0.609375 0l0 1.0l1.234375 0l-0.09375 0.78125l-1.140625 0l0 2.453125q0 0.40625 0.140625 0.578125q0.15625 0.15625 0.46875 0.15625q0.3125 0 0.625 -0.203125l0.28125 0.71875q-0.46875 0.328125 -1.1875 0.328125q-0.421875 0 -0.71875 -0.109375q-0.28125 -0.09375 -0.421875 -0.21875q-0.140625 -0.140625 -0.21875 -0.390625q-0.0625 -0.25 -0.078125 -0.390625q0 -0.15625 0 -0.4375l0 -2.484375l-0.671875 0l0.09375 -0.6875q0.4375 -0.03125 0.65625 -0.296875q0.234375 -0.28125 0.421875 -0.796875zm4.439392 5.0q1.015625 0 1.015625 -1.640625q0 -0.828125 -0.234375 -1.25q-0.21875 -0.4375 -0.765625 -0.4375q-0.53125 0 -0.78125 0.421875q-0.25 0.40625 -0.25 1.109375q0 1.3125 0.484375 1.65625q0.21875 0.140625 0.53125 0.140625zm-2.140625 -1.65625q0 -0.703125 0.203125 -1.203125q0.203125 -0.515625 0.546875 -0.78125q0.65625 -0.5 1.46875 -0.5q0.5625 0 0.9375 0.1875q0.390625 0.171875 0.609375 0.40625q0.21875 0.234375 0.375 0.6875q0.15625 0.453125 0.15625 1.078125q0 1.28125 -0.625 1.953125q-0.625 0.65625 -1.609375 0.65625q-0.96875 0 -1.515625 -0.625q-0.546875 -0.640625 -0.546875 -1.859375zm5.503357 1.296875l0 -2.578125q0 -0.15625 -0.0625 -0.21875q-0.046875 -0.0625 -0.171875 -0.0625l-0.390625 -0.03125l0 -0.75l1.578125 0l0 0.6875q0.15625 -0.359375 0.515625 -0.59375q0.359375 -0.234375 0.8125 -0.234375q0.46875 0 0.890625 0.203125l0 1.390625l-0.875 0.0625l0 -0.421875q0 -0.1875 -0.09375 -0.234375q-0.09375 -0.046875 -0.25 -0.046875q-0.375 0 -0.609375 0.265625q-0.234375 0.265625 -0.234375 0.671875l0 2.15625l0.8125 0.046875l0 0.734375l-2.5 0l0 -0.703125l0.296875 -0.03125q0.140625 -0.015625 0.203125 -0.078125q0.078125 -0.0625 0.078125 -0.234375z"/><path fill="#f90" fill-rule="evenodd" d="m122.40648 123.44314l0 0c0 -2.968773 2.4066696 -5.375435 5.375435 -5.375435l127.73733 0c1.4256439 0 2.792923 0.5663376 3.8010101 1.5744247c1.0080872 1.0080948 1.5744324 2.3753586 1.5744324 3.8010101l0 21.501091c0 2.9687805 -2.4066772 5.3754425 -5.3754425 5.3754425l-127.73733 0c-2.9687653 0 -5.375435 -2.406662 -5.375435 -5.3754425z"/><path fill="#000" fill-rule="nonzero" d="m137.1603 130.83994l3.0 0q2.296875 0 2.296875 1.78125q0 0.984375 -0.984375 1.5q0.640625 0.15625 0.984375 0.59375q0.359375 0.421875 0.359375 1.09375q0 1.03125 -0.703125 1.578125q-0.6875 0.546875 -2.015625 0.546875l-3.0 0l0 -0.859375l0.359375 -0.03125q0.296875 -0.03125 0.296875 -0.296875l0 -4.96875l-0.59375 -0.03125l0 -0.90625zm1.90625 3.859375l0 2.234375l1.0 0q1.375 0 1.375 -1.125q0 -0.546875 -0.34375 -0.828125q-0.34375 -0.28125 -0.984375 -0.28125l-1.046875 0zm0 -2.875l0 1.9375l0.78125 0q0.65625 0 0.96875 -0.265625q0.328125 -0.28125 0.328125 -0.765625q0 -0.5 -0.328125 -0.703125q-0.3125 -0.203125 -0.890625 -0.203125l-0.859375 0zm7.1182556 0.59375q0.796875 0 1.265625 0.390625q0.46875 0.390625 0.46875 1.09375q0 0.46875 -0.203125 0.828125q-0.203125 0.34375 -0.5 0.546875q-0.296875 0.203125 -0.734375 0.328125q-0.703125 0.21875 -1.609375 0.21875q0.046875 0.5625 0.359375 0.90625q0.3125 0.34375 0.96875 0.34375q0.671875 0 1.328125 -0.46875l0.40625 0.875q-0.203125 0.1875 -0.71875 0.390625q-0.5 0.203125 -1.15625 0.203125q-1.296875 0 -1.90625 -0.71875q-0.609375 -0.71875 -0.609375 -1.96875q0 -1.265625 0.6875 -2.109375q0.703125 -0.859375 1.953125 -0.859375zm-0.484375 2.4375q0.390625 -0.078125 0.71875 -0.3125q0.328125 -0.25 0.328125 -0.578125q0 -0.640625 -0.640625 -0.640625q-0.59375 0 -0.921875 0.46875q-0.3125 0.46875 -0.34375 1.140625q0.46875 -0.015625 0.859375 -0.078125zm3.6264343 1.890625l0 -2.953125q0 -0.171875 -0.0625 -0.234375q-0.0625 -0.078125 -0.203125 -0.09375l-0.453125 -0.03125l0 -0.859375l1.796875 0l0 0.796875q0.203125 -0.40625 0.59375 -0.671875q0.40625 -0.28125 0.9375 -0.28125q0.53125 0 1.015625 0.234375l0 1.578125l-1.0 0.078125l0 -0.484375q0 -0.21875 -0.109375 -0.265625q-0.109375 -0.0625 -0.28125 -0.0625q-0.421875 0 -0.703125 0.3125q-0.265625 0.296875 -0.265625 0.765625l0 2.46875l0.921875 0.046875l0 0.84375l-2.84375 0l0 -0.8125l0.34375 -0.03125q0.15625 -0.015625 0.234375 -0.078125q0.078125 -0.078125 0.078125 -0.265625zm5.438858 -5.296875l0.703125 0l0 1.125l1.40625 0l-0.109375 0.890625l-1.296875 0l0 2.8125q0 0.46875 0.15625 0.65625q0.171875 0.171875 0.53125 0.171875q0.359375 0 0.71875 -0.21875l0.328125 0.828125q-0.53125 0.375 -1.359375 0.375q-0.484375 0 -0.8125 -0.125q-0.328125 -0.125 -0.484375 -0.265625q-0.15625 -0.15625 -0.25 -0.4375q-0.078125 -0.296875 -0.09375 -0.453125q-0.015625 -0.171875 -0.015625 -0.5l0 -2.84375l-0.75 0l0.109375 -0.78125q0.5 -0.03125 0.75 -0.34375q0.265625 -0.328125 0.46875 -0.890625zm9.126816 2.953125q0 1.375 -0.578125 2.265625q-0.578125 0.875 -1.6875 1.171875l0 0.03125q0.828125 0.046875 1.578125 0.484375q0.53125 0.328125 1.234375 0.328125q0.171875 0 0.328125 -0.015625l-0.125 1.03125q-0.140625 0 -0.28125 0l-1.0625 -0.171875q-0.671875 -0.234375 -1.3125 -0.53125q-0.71875 -0.34375 -1.328125 -0.34375q-0.3125 0 -0.609375 0.0625l0.15625 -0.765625q-2.53125 -0.328125 -2.53125 -3.546875q0 -0.96875 0.28125 -1.703125q0.28125 -0.75 0.765625 -1.15625q0.9375 -0.828125 2.203125 -0.828125q1.265625 0 2.109375 0.90625q0.859375 0.890625 0.859375 2.78125zm-4.890625 -0.046875q0 2.640625 1.828125 2.640625q0.984375 0 1.390625 -0.8125q0.34375 -0.71875 0.34375 -1.75q0 -0.921875 -0.328125 -1.703125q-0.171875 -0.421875 -0.546875 -0.65625q-0.359375 -0.25 -0.953125 -0.25q-0.578125 0 -1.0 0.390625q-0.421875 0.375 -0.578125 0.921875q-0.15625 0.53125 -0.15625 1.21875zm11.325821 2.734375l0 0.84375l-1.734375 0l0 -0.6875q-0.578125 0.828125 -1.71875 0.828125q-1.65625 0 -1.65625 -1.84375l0 -2.46875q0 -0.28125 -0.265625 -0.296875l-0.34375 -0.015625l0 -0.875l1.875 0l0 3.375q0 0.5625 0.15625 0.859375q0.171875 0.28125 0.671875 0.28125q0.5 0 0.796875 -0.296875q0.3125 -0.3125 0.3125 -0.75l0 -2.25q0 -0.171875 -0.0625 -0.234375q-0.0625 -0.078125 -0.203125 -0.09375l-0.34375 -0.015625l0 -0.875l1.875 0l0 4.171875q0 0.171875 0.046875 0.234375q0.0625 0.0625 0.21875 0.078125l0.375 0.03125zm3.3291626 -4.671875q0.796875 0 1.265625 0.390625q0.46875 0.390625 0.46875 1.09375q0 0.46875 -0.203125 0.828125q-0.203125 0.34375 -0.5 0.546875q-0.296875 0.203125 -0.734375 0.328125q-0.703125 0.21875 -1.609375 0.21875q0.046875 0.5625 0.359375 0.90625q0.3125 0.34375 0.96875 0.34375q0.671875 0 1.328125 -0.46875l0.40625 0.875q-0.203125 0.1875 -0.71875 0.390625q-0.5 0.203125 -1.15625 0.203125q-1.296875 0 -1.90625 -0.71875q-0.609375 -0.71875 -0.609375 -1.96875q0 -1.265625 0.6875 -2.109375q0.703125 -0.859375 1.953125 -0.859375zm-0.484375 2.4375q0.390625 -0.078125 0.71875 -0.3125q0.328125 -0.25 0.328125 -0.578125q0 -0.640625 -0.640625 -0.640625q-0.59375 0 -0.921875 0.46875q-0.3125 0.46875 -0.34375 1.140625q0.46875 -0.015625 0.859375 -0.078125zm5.7514343 -1.46875q-0.25 -0.09375 -0.625 -0.09375q-0.359375 0 -0.578125 0.171875q-0.21875 0.15625 -0.21875 0.390625q0 0.234375 0.078125 0.375q0.09375 0.140625 0.265625 0.234375q0.265625 0.140625 0.625 0.234375q0.375 0.09375 0.5625 0.15625q0.1875 0.0625 0.453125 0.203125q0.265625 0.140625 0.40625 0.296875q0.375 0.390625 0.375 1.015625q0 0.796875 -0.578125 1.25q-0.578125 0.453125 -1.484375 0.453125q-1.296875 0 -1.953125 -0.328125l0 -1.484375l0.953125 -0.078125l0 0.515625q0 0.46875 0.890625 0.46875q0.90625 0 0.90625 -0.65625q0 -0.234375 -0.15625 -0.375q-0.15625 -0.15625 -0.3125 -0.203125q-0.140625 -0.0625 -0.359375 -0.109375q-0.203125 -0.046875 -0.40625 -0.09375q-0.1875 -0.0625 -0.421875 -0.15625q-0.21875 -0.09375 -0.5 -0.265625q-0.546875 -0.34375 -0.546875 -1.171875q0 -0.828125 0.578125 -1.265625q0.59375 -0.453125 1.484375 -0.453125q0.890625 0 1.765625 0.421875l0 1.28125l-0.953125 0.078125l0 -0.453125q0 -0.265625 -0.25 -0.359375zm3.0899658 -1.9375l0.703125 0l0 1.125l1.40625 0l-0.109375 0.890625l-1.296875 0l0 2.8125q0 0.46875 0.15625 0.65625q0.171875 0.171875 0.53125 0.171875q0.359375 0 0.71875 -0.21875l0.328125 0.828125q-0.53125 0.375 -1.359375 0.375q-0.484375 0 -0.8125 -0.125q-0.328125 -0.125 -0.484375 -0.265625q-0.15625 -0.15625 -0.25 -0.4375q-0.078125 -0.296875 -0.09375 -0.453125q-0.015625 -0.171875 -0.015625 -0.5l0 -2.84375l-0.75 0l0.109375 -0.78125q0.5 -0.03125 0.75 -0.34375q0.265625 -0.328125 0.46875 -0.890625zm4.767441 1.125l0 4.46875l0.609375 0.03125l0 0.859375l-2.53125 0l0 -0.8125l0.34375 -0.03125q0.3125 -0.03125 0.3125 -0.34375l0 -2.953125q0 -0.1875 -0.0625 -0.25q-0.0625 -0.0625 -0.203125 -0.0625l-0.375 -0.015625l0 -0.890625l1.90625 0zm-1.34375 -0.921875q-0.21875 -0.21875 -0.21875 -0.5625q0 -0.34375 0.21875 -0.5625q0.21875 -0.234375 0.578125 -0.234375q0.375 0 0.59375 0.234375q0.234375 0.21875 0.234375 0.5625q0 0.34375 -0.234375 0.5625q-0.21875 0.21875 -0.59375 0.21875q-0.359375 0 -0.578125 -0.21875zm5.0136566 5.5q1.171875 0 1.171875 -1.875q0 -0.953125 -0.265625 -1.4375q-0.265625 -0.484375 -0.875 -0.484375q-0.609375 0 -0.90625 0.46875q-0.28125 0.46875 -0.28125 1.28125q0 1.5 0.546875 1.875q0.25 0.171875 0.609375 0.171875zm-2.4375 -1.90625q0 -0.78125 0.234375 -1.359375q0.234375 -0.59375 0.625 -0.890625q0.75 -0.578125 1.671875 -0.578125q0.640625 0 1.078125 0.203125q0.4375 0.203125 0.6875 0.484375q0.25 0.265625 0.421875 0.78125q0.1875 0.515625 0.1875 1.21875q0 1.46875 -0.71875 2.234375q-0.703125 0.75 -1.828125 0.75q-1.109375 0 -1.734375 -0.71875q-0.625 -0.71875 -0.625 -2.125zm5.5484314 -1.8125l0 -0.859375l1.8125 0l0 0.6875q0.265625 -0.390625 0.71875 -0.609375q0.46875 -0.234375 1.0 -0.234375q0.8125 0 1.25 0.46875q0.453125 0.453125 0.453125 1.375l0 2.78125l0.59375 0.03125l0 0.859375l-2.53125 0l0 -0.8125l0.359375 -0.03125q0.15625 -0.015625 0.21875 -0.078125q0.078125 -0.078125 0.078125 -0.265625l0 -2.203125q0 -0.578125 -0.1875 -0.859375q-0.171875 -0.296875 -0.6875 -0.296875q-0.5 0 -0.796875 0.328125q-0.296875 0.3125 -0.296875 0.75l0 2.578125l0.609375 0.03125l0 0.859375l-2.53125 0l0 -0.8125l0.34375 -0.03125q0.171875 -0.015625 0.234375 -0.078125q0.078125 -0.078125 0.078125 -0.265625l0 -2.953125q0 -0.328125 -0.265625 -0.328125l-0.453125 -0.03125zm6.831314 3.3125l1.71875 -4.96875l-0.671875 -0.0625l0 -0.875l2.4375 0l2.1875 6.15625l0 0l0.609375 0.03125l0 0.90625l-2.75 0l0 -0.859375l0.40625 -0.03125q0.1875 -0.03125 0.25 -0.09375q0.0625 -0.0625 0 -0.234375l-0.21875 -0.65625l-2.5 0l-0.3125 0.9375l0.640625 0.03125l0 0.90625l-2.46875 0l0 -0.859375l0.359375 -0.03125q0.21875 -0.03125 0.3125 -0.296875zm2.71875 -4.703125l-0.984375 3.03125l1.984375 0l-0.96875 -3.03125l-0.03125 0zm3.8982544 1.390625l0 -0.859375l1.8125 0l0 0.6875q0.265625 -0.390625 0.71875 -0.609375q0.46875 -0.234375 1.0 -0.234375q0.8125 0 1.25 0.46875q0.453125 0.453125 0.453125 1.375l0 2.78125l0.59375 0.03125l0 0.859375l-2.53125 0l0 -0.8125l0.359375 -0.03125q0.15625 -0.015625 0.21875 -0.078125q0.078125 -0.078125 0.078125 -0.265625l0 -2.203125q0 -0.578125 -0.1875 -0.859375q-0.171875 -0.296875 -0.6875 -0.296875q-0.5 0 -0.796875 0.328125q-0.296875 0.3125 -0.296875 0.75l0 2.578125l0.609375 0.03125l0 0.859375l-2.53125 0l0 -0.8125l0.34375 -0.03125q0.171875 -0.015625 0.234375 -0.078125q0.078125 -0.078125 0.078125 -0.265625l0 -2.953125q0 -0.328125 -0.265625 -0.328125l-0.453125 -0.03125zm9.253189 -0.046875q-0.25 -0.09375 -0.625 -0.09375q-0.359375 0 -0.578125 0.171875q-0.21875 0.15625 -0.21875 0.390625q0 0.234375 0.078125 0.375q0.09375 0.140625 0.265625 0.234375q0.265625 0.140625 0.625 0.234375q0.375 0.09375 0.5625 0.15625q0.1875 0.0625 0.453125 0.203125q0.265625 0.140625 0.40625 0.296875q0.375 0.390625 0.375 1.015625q0 0.796875 -0.578125 1.25q-0.578125 0.453125 -1.484375 0.453125q-1.296875 0 -1.953125 -0.328125l0 -1.484375l0.953125 -0.078125l0 0.515625q0 0.46875 0.890625 0.46875q0.90625 0 0.90625 -0.65625q0 -0.234375 -0.15625 -0.375q-0.15625 -0.15625 -0.3125 -0.203125q-0.140625 -0.0625 -0.359375 -0.109375q-0.203125 -0.046875 -0.40625 -0.09375q-0.1875 -0.0625 -0.421875 -0.15625q-0.21875 -0.09375 -0.5 -0.265625q-0.546875 -0.34375 -0.546875 -1.171875q0 -0.828125 0.578125 -1.265625q0.59375 -0.453125 1.484375 -0.453125q0.890625 0 1.765625 0.421875l0 1.28125l-0.953125 0.078125l0 -0.453125q0 -0.265625 -0.25 -0.359375zm5.54039 -0.59375l1.03125 0l1.109375 3.953125l0.03125 0l0.71875 -3.28125l-0.546875 -0.03125l0 -0.859375l2.140625 0l0 0.8125l-0.34375 0.03125q-0.21875 0.015625 -0.296875 0.25l-1.0 4.265625l-1.546875 0l-0.859375 -3.171875l-0.046875 0l-0.890625 3.171875l-1.578125 0l-1.078125 -4.25q-0.046875 -0.15625 -0.109375 -0.203125q-0.0625 -0.046875 -0.1875 -0.0625l-0.3125 -0.03125l0 -0.8125l2.4375 0l0 0.859375l-0.59375 0.03125l0.734375 3.265625l0.015625 0l1.171875 -3.9375zm7.6280518 -0.375q0.796875 0 1.265625 0.390625q0.46875 0.390625 0.46875 1.09375q0 0.46875 -0.203125 0.828125q-0.203125 0.34375 -0.5 0.546875q-0.296875 0.203125 -0.734375 0.328125q-0.703125 0.21875 -1.609375 0.21875q0.046875 0.5625 0.359375 0.90625q0.3125 0.34375 0.96875 0.34375q0.671875 0 1.328125 -0.46875l0.40625 0.875q-0.203125 0.1875 -0.71875 0.390625q-0.5 0.203125 -1.15625 0.203125q-1.296875 0 -1.90625 -0.71875q-0.609375 -0.71875 -0.609375 -1.96875q0 -1.265625 0.6875 -2.109375q0.703125 -0.859375 1.953125 -0.859375zm-0.484375 2.4375q0.390625 -0.078125 0.71875 -0.3125q0.328125 -0.25 0.328125 -0.578125q0 -0.640625 -0.640625 -0.640625q-0.59375 0 -0.921875 0.46875q-0.3125 0.46875 -0.34375 1.140625q0.46875 -0.015625 0.859375 -0.078125zm3.6264343 1.890625l0 -2.953125q0 -0.171875 -0.0625 -0.234375q-0.0625 -0.078125 -0.203125 -0.09375l-0.453125 -0.03125l0 -0.859375l1.796875 0l0 0.796875q0.203125 -0.40625 0.59375 -0.671875q0.40625 -0.28125 0.9375 -0.28125q0.53125 0 1.015625 0.234375l0 1.578125l-1.0 0.078125l0 -0.484375q0 -0.21875 -0.109375 -0.265625q-0.109375 -0.0625 -0.28125 -0.0625q-0.421875 0 -0.703125 0.3125q-0.265625 0.296875 -0.265625 0.765625l0 2.46875l0.921875 0.046875l0 0.84375l-2.84375 0l0 -0.8125l0.34375 -0.03125q0.15625 -0.015625 0.234375 -0.078125q0.078125 -0.078125 0.078125 -0.265625zm6.938858 -4.328125q0.796875 0 1.265625 0.390625q0.46875 0.390625 0.46875 1.09375q0 0.46875 -0.203125 0.828125q-0.203125 0.34375 -0.5 0.546875q-0.296875 0.203125 -0.734375 0.328125q-0.703125 0.21875 -1.609375 0.21875q0.046875 0.5625 0.359375 0.90625q0.3125 0.34375 0.96875 0.34375q0.671875 0 1.328125 -0.46875l0.40625 0.875q-0.203125 0.1875 -0.71875 0.390625q-0.5 0.203125 -1.15625 0.203125q-1.296875 0 -1.90625 -0.71875q-0.609375 -0.71875 -0.609375 -1.96875q0 -1.265625 0.6875 -2.109375q0.703125 -0.859375 1.953125 -0.859375zm-0.484375 2.4375q0.390625 -0.078125 0.71875 -0.3125q0.328125 -0.25 0.328125 -0.578125q0 -0.640625 -0.640625 -0.640625q-0.59375 0 -0.921875 0.46875q-0.3125 0.46875 -0.34375 1.140625q0.46875 -0.015625 0.859375 -0.078125zm3.6264343 1.890625l0 -2.953125q0 -0.171875 -0.0625 -0.234375q-0.0625 -0.078125 -0.203125 -0.09375l-0.453125 -0.03125l0 -0.859375l1.796875 0l0 0.796875q0.203125 -0.40625 0.59375 -0.671875q0.40625 -0.28125 0.9375 -0.28125q0.53125 0 1.015625 0.234375l0 1.578125l-1.0 0.078125l0 -0.484375q0 -0.21875 -0.109375 -0.265625q-0.109375 -0.0625 -0.28125 -0.0625q-0.421875 0 -0.703125 0.3125q-0.265625 0.296875 -0.265625 0.765625l0 2.46875l0.921875 0.046875l0 0.84375l-2.84375 0l0 -0.8125l0.34375 -0.03125q0.15625 -0.015625 0.234375 -0.078125q0.078125 -0.078125 0.078125 -0.265625z"/><path fill="#000" fill-opacity="0" fill-rule="evenodd" d="m191.64935 35.244095l0 25.29134"/><path fill-rule="evenodd" stroke="#f90" stroke-linecap="butt" stroke-linejoin="round" stroke-width="1" d="m191.64935 35.244095l0 19.29134"/><path fill="#f90" fill-rule="evenodd" stroke="#f90" stroke-linecap="butt" stroke-width="1" d="m189.99763 54.535435l1.6517181 4.5380974l1.6517334 -4.5380974z"/><path fill="#000" fill-opacity="0" fill-rule="evenodd" d="m191.64592 92.78188l0 25.291336"/><path fill-rule="evenodd" stroke="#f90" stroke-linecap="butt" stroke-linejoin="round" stroke-width="1" d="m191.64592 92.78188l0 19.291344"/><path fill="#f90" fill-rule="evenodd" stroke="#f90" stroke-linecap="butt" stroke-width="1" d="m189.99419 112.07323l1.6517334 4.5380936l1.6517334 -4.5380936z"/><path fill="#000" fill-opacity="0" fill-rule="evenodd" d="m421.7318 92.78451l94.92914 25.291336"/><path fill-rule="evenodd" stroke="#f90" stroke-linecap="butt" stroke-linejoin="round" stroke-width="1" d="m421.73184 92.78451l89.13135 23.746681"/><path fill="#f90" fill-rule="evenodd" stroke="#f90" stroke-linecap="butt" stroke-width="1" d="m510.438 118.12725l4.810364 -0.42775726l-3.9599304 -2.7643585z"/><path fill="#000" fill-opacity="0" fill-rule="evenodd" d="m54.16782 92.78188l-0.1889801 25.291336"/><path fill-rule="evenodd" stroke="#f90" stroke-linecap="butt" stroke-linejoin="round" stroke-width="1" d="m54.16782 92.78188l-0.14414597 19.291504"/><path fill="#f90" fill-rule="evenodd" stroke="#f90" stroke-linecap="butt" stroke-width="1" d="m52.371986 112.06105l1.6177788 4.550316l1.6855965 -4.525635z"/><path fill="#000" fill-opacity="0" fill-rule="evenodd" d="m191.64935 35.244095l-137.48032 25.29134"/><path fill-rule="evenodd" stroke="#f90" stroke-linecap="butt" stroke-linejoin="round" stroke-width="1" d="m191.64935 35.244095l-131.57933 24.205776"/><path fill="#f90" fill-rule="evenodd" stroke="#f90" stroke-linecap="butt" stroke-width="1" d="m59.771175 57.825397l-4.16436 2.4455376l4.762047 0.80340576z"/><path fill="#000" fill-opacity="0" fill-rule="evenodd" d="m191.64935 35.244095l230.07874 25.29134"/><path fill-rule="evenodd" stroke="#f90" stroke-linecap="butt" stroke-linejoin="round" stroke-width="1" d="m191.64935 35.244095l224.11469 24.635738"/><path fill="#f90" fill-rule="evenodd" stroke="#f90" stroke-linecap="butt" stroke-width="1" d="m415.58356 61.521675l4.6914062 -1.1459808l-4.3304443 -2.137703z"/><path fill="#f90" fill-rule="evenodd" d="m281.3436 123.44633l0 0c0 -2.968773 2.4066772 -5.375435 5.3754272 -5.375435l78.225525 0c1.4256592 0 2.7929077 0.5663376 3.8009949 1.5744324c1.0080872 1.0080872 1.5744324 2.375351 1.5744324 3.8010025l0 21.501106c0 2.9687653 -2.4066467 5.3754272 -5.3754272 5.3754272l-78.225525 0c-2.96875 0 -5.3754272 -2.406662 -5.3754272 -5.3754272z"/><path fill="#000" fill-rule="nonzero" d="m293.84845 136.56313l0 -4.28125l-0.53125 -0.03125l0 -0.796875l2.265625 0l0 0.75l-0.3125 0.03125q-0.265625 0.03125 -0.265625 0.296875l0 4.296875l0.53125 0.03125l0 0.796875l-2.265625 0l0 -0.75l0.3125 -0.03125q0.140625 -0.015625 0.203125 -0.078125q0.0625 -0.0625 0.0625 -0.234375zm2.238739 -2.84375l0 -0.75l1.578125 0l0 0.609375q0.515625 -0.75 1.421875 -0.75q0.921875 0 1.234375 0.75q0.53125 -0.75 1.421875 -0.75q0.671875 0 1.03125 0.40625q0.359375 0.40625 0.359375 1.21875l0 2.421875l0.53125 0.03125l0 0.75l-2.21875 0l0 -0.703125l0.3125 -0.03125q0.140625 -0.015625 0.203125 -0.078125q0.0625 -0.0625 0.0625 -0.21875l0 -1.9375q0 -0.515625 -0.125 -0.75q-0.109375 -0.25 -0.53125 -0.25q-0.421875 0 -0.65625 0.265625q-0.234375 0.25 -0.234375 0.6875l0 2.234375l0.515625 0.03125l0 0.75l-2.203125 0l0 -0.703125l0.3125 -0.03125q0.140625 -0.015625 0.203125 -0.078125q0.0625 -0.0625 0.0625 -0.234375l0 -1.921875q0 -0.515625 -0.125 -0.75q-0.109375 -0.25 -0.546875 -0.25q-0.421875 0 -0.65625 0.265625q-0.21875 0.265625 -0.21875 0.671875l0 2.25l0.5 0.03125l0 0.75l-2.1875 0l0 -0.703125l0.296875 -0.03125q0.140625 -0.015625 0.203125 -0.078125q0.078125 -0.0625 0.078125 -0.234375l0 0l0 -2.578125q0 -0.15625 -0.046875 -0.21875q-0.046875 -0.0625 -0.1875 -0.0625l-0.390625 -0.03125zm12.3281555 -0.5625l0 3.46875q0 0.140625 0.046875 0.203125q0.046875 0.046875 0.1875 0.0625l0.296875 0.015625l0 0.75l-1.484375 0l0 -0.546875l-0.03125 0q-0.46875 0.671875 -1.28125 0.671875q-0.953125 0 -1.40625 -0.609375q-0.453125 -0.609375 -0.453125 -1.65625q0 -1.28125 0.609375 -1.984375q0.625 -0.703125 1.84375 -0.703125q0.796875 0 1.671875 0.328125zm-1.078125 3.015625l0 -2.421875q-0.265625 -0.109375 -0.71875 -0.109375q-0.625 0 -0.90625 0.5q-0.28125 0.5 -0.28125 1.328125q0 1.515625 0.96875 1.515625q0.40625 0 0.671875 -0.25q0.265625 -0.25 0.265625 -0.5625zm6.3203125 1.46875q-0.078125 1.046875 -0.59375 1.53125q-0.515625 0.484375 -1.609375 0.484375q-1.078125 0 -1.703125 -0.3125l0 -1.296875l0.890625 -0.078125l0 0.453125q0 0.25 0.234375 0.328125q0.234375 0.09375 0.640625 0.09375q0.59375 0 0.828125 -0.359375q0.25 -0.359375 0.25 -1.0l0 -0.515625q-0.4375 0.515625 -1.234375 0.515625q-0.484375 0 -0.859375 -0.1875q-0.359375 -0.1875 -0.5625 -0.5q-0.40625 -0.640625 -0.40625 -1.484375q0 -1.234375 0.65625 -1.859375q0.671875 -0.625 1.765625 -0.625q0.921875 0 1.734375 0.34375l0 3.453125q0 0.796875 -0.03125 1.015625zm-1.0625 -1.890625l0 -2.0q-0.328125 -0.109375 -0.734375 -0.109375q-0.578125 0 -0.890625 0.421875q-0.296875 0.40625 -0.296875 1.125q0 1.484375 0.96875 1.484375q0.40625 0 0.671875 -0.25q0.28125 -0.25 0.28125 -0.671875zm4.3401184 -2.921875q0.6875 0 1.09375 0.34375q0.421875 0.328125 0.421875 0.953125q0 0.40625 -0.1875 0.71875q-0.171875 0.3125 -0.4375 0.5q-0.25 0.171875 -0.625 0.28125q-0.625 0.1875 -1.40625 0.1875q0.03125 0.484375 0.296875 0.796875q0.28125 0.296875 0.859375 0.296875q0.578125 0 1.15625 -0.40625l0.359375 0.75q-0.1875 0.171875 -0.640625 0.359375q-0.4375 0.171875 -1.0 0.171875q-1.140625 0 -1.671875 -0.625q-0.53125 -0.640625 -0.53125 -1.734375q0 -1.109375 0.609375 -1.84375q0.609375 -0.75 1.703125 -0.75zm-0.4375 2.125q0.34375 -0.0625 0.625 -0.265625q0.296875 -0.21875 0.296875 -0.5q0 -0.578125 -0.5625 -0.578125q-0.515625 0 -0.796875 0.421875q-0.28125 0.421875 -0.3125 1.0q0.421875 -0.015625 0.75 -0.078125zm6.3585815 -2.515625q-0.09375 -0.171875 -0.765625 -0.171875q-0.859375 0 -1.3125 0.59375q-0.4375 0.578125 -0.4375 1.6875q0 2.3125 1.71875 2.3125q0.03125 0 0.25 0q0.21875 0 0.40625 -0.0625q0.203125 -0.0625 0.234375 -0.125q0.046875 -0.0625 0.046875 -0.203125l0 -0.75l0.953125 0.0625l0 1.609375q-0.734375 0.390625 -1.859375 0.390625q-1.421875 0 -2.171875 -0.796875q-0.75 -0.8125 -0.75 -2.390625q0 -0.890625 0.25 -1.53125q0.25 -0.65625 0.6875 -1.015625q0.828125 -0.703125 1.984375 -0.703125q0.9375 0 1.765625 0.375l0 1.59375l-0.953125 0.0625l0 -0.734375q0 -0.140625 -0.046875 -0.203125zm3.5374146 -1.4375l0 5.875l0.53125 0.03125l0 0.75l-2.21875 0l0 -0.703125l0.296875 -0.03125q0.28125 -0.03125 0.28125 -0.296875l0 -4.609375q0 -0.203125 -0.234375 -0.21875l-0.328125 -0.015625l0 -0.78125l1.671875 0zm5.29541 2.15625l0 3.46875q0 0.140625 0.046875 0.203125q0.046875 0.046875 0.1875 0.0625l0.296875 0.015625l0 0.75l-1.484375 0l0 -0.546875l-0.03125 0q-0.46875 0.671875 -1.28125 0.671875q-0.953125 0 -1.40625 -0.609375q-0.453125 -0.609375 -0.453125 -1.65625q0 -1.28125 0.609375 -1.984375q0.625 -0.703125 1.84375 -0.703125q0.796875 0 1.671875 0.328125zm-1.078125 3.015625l0 -2.421875q-0.265625 -0.109375 -0.71875 -0.109375q-0.625 0 -0.90625 0.5q-0.28125 0.5 -0.28125 1.328125q0 1.515625 0.96875 1.515625q0.40625 0 0.671875 -0.25q0.265625 -0.25 0.265625 -0.5625zm4.617157 -2.5q-0.21875 -0.078125 -0.546875 -0.078125q-0.3125 0 -0.5 0.140625q-0.1875 0.140625 -0.1875 0.359375q0 0.203125 0.0625 0.328125q0.078125 0.109375 0.21875 0.1875q0.234375 0.125 0.5625 0.21875q0.328125 0.078125 0.484375 0.140625q0.15625 0.046875 0.390625 0.171875q0.25 0.125 0.359375 0.265625q0.328125 0.34375 0.328125 0.875q0 0.703125 -0.515625 1.109375q-0.5 0.390625 -1.28125 0.390625q-1.140625 0 -1.71875 -0.296875l0 -1.296875l0.84375 -0.0625l0 0.453125q0 0.40625 0.78125 0.40625q0.78125 0 0.78125 -0.5625q0 -0.21875 -0.140625 -0.34375q-0.125 -0.125 -0.265625 -0.171875q-0.125 -0.046875 -0.3125 -0.09375q-0.171875 -0.046875 -0.34375 -0.09375q-0.171875 -0.046875 -0.375 -0.125q-0.203125 -0.078125 -0.4375 -0.234375q-0.484375 -0.3125 -0.484375 -1.03125q0 -0.71875 0.515625 -1.109375q0.515625 -0.390625 1.296875 -0.390625q0.78125 0 1.546875 0.375l0 1.109375l-0.84375 0.0625l0 -0.390625q0 -0.234375 -0.21875 -0.3125zm4.2070007 0q-0.21875 -0.078125 -0.546875 -0.078125q-0.3125 0 -0.5 0.140625q-0.1875 0.140625 -0.1875 0.359375q0 0.203125 0.0625 0.328125q0.078125 0.109375 0.21875 0.1875q0.234375 0.125 0.5625 0.21875q0.328125 0.078125 0.484375 0.140625q0.15625 0.046875 0.390625 0.171875q0.25 0.125 0.359375 0.265625q0.328125 0.34375 0.328125 0.875q0 0.703125 -0.515625 1.109375q-0.5 0.390625 -1.28125 0.390625q-1.140625 0 -1.71875 -0.296875l0 -1.296875l0.84375 -0.0625l0 0.453125q0 0.40625 0.78125 0.40625q0.78125 0 0.78125 -0.5625q0 -0.21875 -0.140625 -0.34375q-0.125 -0.125 -0.265625 -0.171875q-0.125 -0.046875 -0.3125 -0.09375q-0.171875 -0.046875 -0.34375 -0.09375q-0.171875 -0.046875 -0.375 -0.125q-0.203125 -0.078125 -0.4375 -0.234375q-0.484375 -0.3125 -0.484375 -1.03125q0 -0.71875 0.515625 -1.109375q0.515625 -0.390625 1.296875 -0.390625q0.78125 0 1.546875 0.375l0 1.109375l-0.84375 0.0625l0 -0.390625q0 -0.234375 -0.21875 -0.3125zm3.4569702 -0.703125l0 3.90625l0.53125 0.03125l0 0.75l-2.21875 0l0 -0.703125l0.296875 -0.03125q0.28125 -0.03125 0.28125 -0.296875l0 -2.59375q0 -0.15625 -0.0625 -0.21875q-0.046875 -0.0625 -0.171875 -0.0625l-0.328125 -0.015625l0 -0.765625l1.671875 0zm-1.1875 -0.8125q-0.1875 -0.1875 -0.1875 -0.484375q0 -0.296875 0.1875 -0.5q0.203125 -0.203125 0.515625 -0.203125q0.328125 0 0.515625 0.203125q0.203125 0.203125 0.203125 0.5q0 0.296875 -0.203125 0.484375q-0.1875 0.1875 -0.515625 0.1875q-0.3125 0 -0.515625 -0.1875zm2.839264 4.453125l0 -2.859375l-0.796875 0l0 -0.78125l0.796875 0l0 -0.359375q0 -0.90625 0.421875 -1.3125q0.390625 -0.390625 1.140625 -0.390625q0.765625 0 1.359375 0.328125l-0.28125 0.75q-0.4375 -0.234375 -0.84375 -0.234375q-0.390625 0 -0.546875 0.203125q-0.140625 0.1875 -0.140625 0.578125l0 0.4375l1.390625 0l0 0.78125l-1.390625 0l0 3.125l0.796875 0.03125l0 0.75l-2.484375 0l0 -0.703125l0.3125 -0.03125q0.140625 -0.015625 0.203125 -0.078125q0.0625 -0.0625 0.0625 -0.234375zm4.5607605 -3.640625l0 3.90625l0.53125 0.03125l0 0.75l-2.21875 0l0 -0.703125l0.296875 -0.03125q0.28125 -0.03125 0.28125 -0.296875l0 -2.59375q0 -0.15625 -0.0625 -0.21875q-0.046875 -0.0625 -0.171875 -0.0625l-0.328125 -0.015625l0 -0.765625l1.671875 0zm-1.1875 -0.8125q-0.1875 -0.1875 -0.1875 -0.484375q0 -0.296875 0.1875 -0.5q0.203125 -0.203125 0.515625 -0.203125q0.328125 0 0.515625 0.203125q0.203125 0.203125 0.203125 0.5q0 0.296875 -0.203125 0.484375q-0.1875 0.1875 -0.515625 0.1875q-0.3125 0 -0.515625 -0.1875zm4.604889 0.671875q0.6875 0 1.09375 0.34375q0.421875 0.328125 0.421875 0.953125q0 0.40625 -0.1875 0.71875q-0.171875 0.3125 -0.4375 0.5q-0.25 0.171875 -0.625 0.28125q-0.625 0.1875 -1.40625 0.1875q0.03125 0.484375 0.296875 0.796875q0.28125 0.296875 0.859375 0.296875q0.578125 0 1.15625 -0.40625l0.359375 0.75q-0.1875 0.171875 -0.640625 0.359375q-0.4375 0.171875 -1.0 0.171875q-1.140625 0 -1.671875 -0.625q-0.53125 -0.640625 -0.53125 -1.734375q0 -1.109375 0.609375 -1.84375q0.609375 -0.75 1.703125 -0.75zm-0.4375 2.125q0.34375 -0.0625 0.625 -0.265625q0.296875 -0.21875 0.296875 -0.5q0 -0.578125 -0.5625 -0.578125q-0.515625 0 -0.796875 0.421875q-0.28125 0.421875 -0.3125 1.0q0.421875 -0.015625 0.75 -0.078125zm3.186676 1.65625l0 -2.578125q0 -0.15625 -0.0625 -0.21875q-0.046875 -0.0625 -0.171875 -0.0625l-0.390625 -0.03125l0 -0.75l1.578125 0l0 0.6875q0.15625 -0.359375 0.515625 -0.59375q0.359375 -0.234375 0.8125 -0.234375q0.46875 0 0.890625 0.203125l0 1.390625l-0.875 0.0625l0 -0.421875q0 -0.1875 -0.09375 -0.234375q-0.09375 -0.046875 -0.25 -0.046875q-0.375 0 -0.609375 0.265625q-0.234375 0.265625 -0.234375 0.671875l0 2.15625l0.8125 0.046875l0 0.734375l-2.5 0l0 -0.703125l0.296875 -0.03125q0.140625 -0.015625 0.203125 -0.078125q0.078125 -0.0625 0.078125 -0.234375z"/><path fill="#f90" fill-rule="evenodd" d="m374.3386 123.446304l0 0c0 -2.968773 2.4066467 -5.375435 5.3754272 -5.375435l84.80817 0c1.4256592 0 2.7929382 0.5663376 3.8010254 1.5744247c1.0080872 1.0080872 1.5744324 2.375351 1.5744324 3.8010101l0 21.501099c0 2.9687653 -2.4066772 5.3754272 -5.375458 5.3754272l-84.80817 0c-2.9687805 0 -5.3754272 -2.406662 -5.3754272 -5.3754272z"/><path fill="#000" fill-rule="nonzero" d="m387.77484 136.5631l0 -4.28125l-0.53125 -0.03125l0 -0.796875l2.265625 0l0 0.75l-0.3125 0.03125q-0.265625 0.03125 -0.265625 0.296875l0 4.296875l0.53125 0.03125l0 0.796875l-2.265625 0l0 -0.75l0.3125 -0.03125q0.140625 -0.015625 0.203125 -0.078125q0.0625 -0.0625 0.0625 -0.234375zm2.238739 -2.84375l0 -0.75l1.578125 0l0 0.609375q0.515625 -0.75 1.421875 -0.75q0.921875 0 1.234375 0.75q0.53125 -0.75 1.421875 -0.75q0.671875 0 1.03125 0.40625q0.359375 0.40625 0.359375 1.21875l0 2.421875l0.53125 0.03125l0 0.75l-2.21875 0l0 -0.703125l0.3125 -0.03125q0.140625 -0.015625 0.203125 -0.078125q0.0625 -0.0625 0.0625 -0.21875l0 -1.9375q0 -0.515625 -0.125 -0.75q-0.109375 -0.25 -0.53125 -0.25q-0.421875 0 -0.65625 0.265625q-0.234375 0.25 -0.234375 0.6875l0 2.234375l0.515625 0.03125l0 0.75l-2.203125 0l0 -0.703125l0.3125 -0.03125q0.140625 -0.015625 0.203125 -0.078125q0.0625 -0.0625 0.0625 -0.234375l0 -1.921875q0 -0.515625 -0.125 -0.75q-0.109375 -0.25 -0.546875 -0.25q-0.421875 0 -0.65625 0.265625q-0.21875 0.265625 -0.21875 0.671875l0 2.25l0.5 0.03125l0 0.75l-2.1875 0l0 -0.703125l0.296875 -0.03125q0.140625 -0.015625 0.203125 -0.078125q0.078125 -0.0625 0.078125 -0.234375l0 0l0 -2.578125q0 -0.15625 -0.046875 -0.21875q-0.046875 -0.0625 -0.1875 -0.0625l-0.390625 -0.03125zm12.3281555 -0.5625l0 3.46875q0 0.140625 0.046875 0.203125q0.046875 0.046875 0.1875 0.0625l0.296875 0.015625l0 0.75l-1.484375 0l0 -0.546875l-0.03125 0q-0.46875 0.671875 -1.28125 0.671875q-0.953125 0 -1.40625 -0.609375q-0.453125 -0.609375 -0.453125 -1.65625q0 -1.28125 0.609375 -1.984375q0.625 -0.703125 1.84375 -0.703125q0.796875 0 1.671875 0.328125zm-1.078125 3.015625l0 -2.421875q-0.265625 -0.109375 -0.71875 -0.109375q-0.625 0 -0.90625 0.5q-0.28125 0.5 -0.28125 1.328125q0 1.515625 0.96875 1.515625q0.40625 0 0.671875 -0.25q0.265625 -0.25 0.265625 -0.5625zm6.3203125 1.46875q-0.078125 1.046875 -0.59375 1.53125q-0.515625 0.484375 -1.609375 0.484375q-1.078125 0 -1.703125 -0.3125l0 -1.296875l0.890625 -0.078125l0 0.453125q0 0.25 0.234375 0.328125q0.234375 0.09375 0.640625 0.09375q0.59375 0 0.828125 -0.359375q0.25 -0.359375 0.25 -1.0l0 -0.515625q-0.4375 0.515625 -1.234375 0.515625q-0.484375 0 -0.859375 -0.1875q-0.359375 -0.1875 -0.5625 -0.5q-0.40625 -0.640625 -0.40625 -1.484375q0 -1.234375 0.65625 -1.859375q0.671875 -0.625 1.765625 -0.625q0.921875 0 1.734375 0.34375l0 3.453125q0 0.796875 -0.03125 1.015625zm-1.0625 -1.890625l0 -2.0q-0.328125 -0.109375 -0.734375 -0.109375q-0.578125 0 -0.890625 0.421875q-0.296875 0.40625 -0.296875 1.125q0 1.484375 0.96875 1.484375q0.40625 0 0.671875 -0.25q0.28125 -0.25 0.28125 -0.671875zm4.3401184 -2.921875q0.6875 0 1.09375 0.34375q0.421875 0.328125 0.421875 0.953125q0 0.40625 -0.1875 0.71875q-0.171875 0.3125 -0.4375 0.5q-0.25 0.171875 -0.625 0.28125q-0.625 0.1875 -1.40625 0.1875q0.03125 0.484375 0.296875 0.796875q0.28125 0.296875 0.859375 0.296875q0.578125 0 1.15625 -0.40625l0.359375 0.75q-0.1875 0.171875 -0.640625 0.359375q-0.4375 0.171875 -1.0 0.171875q-1.140625 0 -1.671875 -0.625q-0.53125 -0.640625 -0.53125 -1.734375q0 -1.109375 0.609375 -1.84375q0.609375 -0.75 1.703125 -0.75zm-0.4375 2.125q0.34375 -0.0625 0.625 -0.265625q0.296875 -0.21875 0.296875 -0.5q0 -0.578125 -0.5625 -0.578125q-0.515625 0 -0.796875 0.421875q-0.28125 0.421875 -0.3125 1.0q0.421875 -0.015625 0.75 -0.078125zm4.5460815 1.859375q1.125 0 1.125 -0.890625q0 -0.46875 -0.5 -0.6875q-0.265625 -0.140625 -0.6875 -0.25q-0.40625 -0.109375 -0.6875 -0.21875q-0.265625 -0.125 -0.546875 -0.328125q-0.546875 -0.40625 -0.546875 -1.25q0 -0.859375 0.578125 -1.34375q0.59375 -0.5 1.546875 -0.5q0.96875 0 1.78125 0.375l0 1.40625l-0.9375 0.0625l0 -0.546875q0 -0.140625 -0.046875 -0.203125q-0.09375 -0.171875 -0.65625 -0.171875q-0.546875 0 -0.828125 0.203125q-0.265625 0.1875 -0.265625 0.59375q0 0.296875 0.234375 0.53125q0.140625 0.140625 0.4375 0.25q0.296875 0.09375 0.625 0.203125q0.328125 0.09375 0.578125 0.21875q0.265625 0.109375 0.546875 0.328125q0.578125 0.421875 0.578125 1.296875q0 0.875 -0.640625 1.390625q-0.625 0.5 -1.65625 0.5q-1.03125 0 -1.859375 -0.390625l0 -1.46875l0.953125 -0.0625l0 0.5625q0 0.140625 0.03125 0.21875q0.046875 0.0625 0.234375 0.125q0.203125 0.046875 0.609375 0.046875zm5.2755127 -3.984375q0.6875 0 1.09375 0.34375q0.421875 0.328125 0.421875 0.953125q0 0.40625 -0.1875 0.71875q-0.171875 0.3125 -0.4375 0.5q-0.25 0.171875 -0.625 0.28125q-0.625 0.1875 -1.40625 0.1875q0.03125 0.484375 0.296875 0.796875q0.28125 0.296875 0.859375 0.296875q0.578125 0 1.15625 -0.40625l0.359375 0.75q-0.1875 0.171875 -0.640625 0.359375q-0.4375 0.171875 -1.0 0.171875q-1.140625 0 -1.671875 -0.625q-0.53125 -0.640625 -0.53125 -1.734375q0 -1.109375 0.609375 -1.84375q0.609375 -0.75 1.703125 -0.75zm-0.4375 2.125q0.34375 -0.0625 0.625 -0.265625q0.296875 -0.21875 0.296875 -0.5q0 -0.578125 -0.5625 -0.578125q-0.515625 0 -0.796875 0.421875q-0.28125 0.421875 -0.3125 1.0q0.421875 -0.015625 0.75 -0.078125zm6.7492065 2.6875q-0.078125 1.046875 -0.59375 1.53125q-0.515625 0.484375 -1.609375 0.484375q-1.078125 0 -1.703125 -0.3125l0 -1.296875l0.890625 -0.078125l0 0.453125q0 0.25 0.234375 0.328125q0.234375 0.09375 0.640625 0.09375q0.59375 0 0.828125 -0.359375q0.25 -0.359375 0.25 -1.0l0 -0.515625q-0.4375 0.515625 -1.234375 0.515625q-0.484375 0 -0.859375 -0.1875q-0.359375 -0.1875 -0.5625 -0.5q-0.40625 -0.640625 -0.40625 -1.484375q0 -1.234375 0.65625 -1.859375q0.671875 -0.625 1.765625 -0.625q0.921875 0 1.734375 0.34375l0 3.453125q0 0.796875 -0.03125 1.015625zm-1.0625 -1.890625l0 -2.0q-0.328125 -0.109375 -0.734375 -0.109375q-0.578125 0 -0.890625 0.421875q-0.296875 0.40625 -0.296875 1.125q0 1.484375 0.96875 1.484375q0.40625 0 0.671875 -0.25q0.28125 -0.25 0.28125 -0.671875zm1.9338684 -2.03125l0 -0.75l1.578125 0l0 0.609375q0.515625 -0.75 1.421875 -0.75q0.921875 0 1.234375 0.75q0.53125 -0.75 1.421875 -0.75q0.671875 0 1.03125 0.40625q0.359375 0.40625 0.359375 1.21875l0 2.421875l0.53125 0.03125l0 0.75l-2.21875 0l0 -0.703125l0.3125 -0.03125q0.140625 -0.015625 0.203125 -0.078125q0.0625 -0.0625 0.0625 -0.21875l0 -1.9375q0 -0.515625 -0.125 -0.75q-0.109375 -0.25 -0.53125 -0.25q-0.421875 0 -0.65625 0.265625q-0.234375 0.25 -0.234375 0.6875l0 2.234375l0.515625 0.03125l0 0.75l-2.203125 0l0 -0.703125l0.3125 -0.03125q0.140625 -0.015625 0.203125 -0.078125q0.0625 -0.0625 0.0625 -0.234375l0 -1.921875q0 -0.515625 -0.125 -0.75q-0.109375 -0.25 -0.546875 -0.25q-0.421875 0 -0.65625 0.265625q-0.21875 0.265625 -0.21875 0.671875l0 2.25l0.5 0.03125l0 0.75l-2.1875 0l0 -0.703125l0.296875 -0.03125q0.140625 -0.015625 0.203125 -0.078125q0.078125 -0.0625 0.078125 -0.234375l0 0l0 -2.578125q0 -0.15625 -0.046875 -0.21875q-0.046875 -0.0625 -0.1875 -0.0625l-0.390625 -0.03125zm10.4844055 -0.890625q0.6875 0 1.09375 0.34375q0.421875 0.328125 0.421875 0.953125q0 0.40625 -0.1875 0.71875q-0.171875 0.3125 -0.4375 0.5q-0.25 0.171875 -0.625 0.28125q-0.625 0.1875 -1.40625 0.1875q0.03125 0.484375 0.296875 0.796875q0.28125 0.296875 0.859375 0.296875q0.578125 0 1.15625 -0.40625l0.359375 0.75q-0.1875 0.171875 -0.640625 0.359375q-0.4375 0.171875 -1.0 0.171875q-1.140625 0 -1.671875 -0.625q-0.53125 -0.640625 -0.53125 -1.734375q0 -1.109375 0.609375 -1.84375q0.609375 -0.75 1.703125 -0.75zm-0.4375 2.125q0.34375 -0.0625 0.625 -0.265625q0.296875 -0.21875 0.296875 -0.5q0 -0.578125 -0.5625 -0.578125q-0.515625 0 -0.796875 0.421875q-0.28125 0.421875 -0.3125 1.0q0.421875 -0.015625 0.75 -0.078125zm2.5460815 -1.25l0 -0.734375l1.578125 0l0 0.609375q0.25 -0.359375 0.640625 -0.546875q0.40625 -0.203125 0.875 -0.203125q0.703125 0 1.09375 0.40625q0.390625 0.40625 0.390625 1.21875l0 2.421875l0.53125 0.03125l0 0.75l-2.21875 0l0 -0.703125l0.296875 -0.03125q0.140625 -0.015625 0.203125 -0.078125q0.078125 -0.0625 0.078125 -0.234375l0 -1.921875q0 -0.515625 -0.171875 -0.75q-0.15625 -0.25 -0.59375 -0.25q-0.4375 0 -0.703125 0.28125q-0.265625 0.265625 -0.265625 0.65625l0 2.25l0.53125 0.03125l0 0.75l-2.21875 0l0 -0.703125l0.3125 -0.03125q0.140625 -0.015625 0.203125 -0.078125q0.0625 -0.0625 0.0625 -0.234375l0 -2.578125q0 -0.28125 -0.234375 -0.296875l-0.390625 -0.03125zm6.3172913 -1.734375l0.609375 0l0 1.0l1.234375 0l-0.09375 0.78125l-1.140625 0l0 2.453125q0 0.40625 0.140625 0.578125q0.15625 0.15625 0.46875 0.15625q0.3125 0 0.625 -0.203125l0.28125 0.71875q-0.46875 0.328125 -1.1875 0.328125q-0.421875 0 -0.71875 -0.109375q-0.28125 -0.09375 -0.421875 -0.21875q-0.140625 -0.140625 -0.21875 -0.390625q-0.0625 -0.25 -0.078125 -0.390625q0 -0.15625 0 -0.4375l0 -2.484375l-0.671875 0l0.09375 -0.6875q0.4375 -0.03125 0.65625 -0.296875q0.234375 -0.28125 0.421875 -0.796875zm4.829193 0.859375q0.6875 0 1.09375 0.34375q0.421875 0.328125 0.421875 0.953125q0 0.40625 -0.1875 0.71875q-0.171875 0.3125 -0.4375 0.5q-0.25 0.171875 -0.625 0.28125q-0.625 0.1875 -1.40625 0.1875q0.03125 0.484375 0.296875 0.796875q0.28125 0.296875 0.859375 0.296875q0.578125 0 1.15625 -0.40625l0.359375 0.75q-0.1875 0.171875 -0.640625 0.359375q-0.4375 0.171875 -1.0 0.171875q-1.140625 0 -1.671875 -0.625q-0.53125 -0.640625 -0.53125 -1.734375q0 -1.109375 0.609375 -1.84375q0.609375 -0.75 1.703125 -0.75zm-0.4375 2.125q0.34375 -0.0625 0.625 -0.265625q0.296875 -0.21875 0.296875 -0.5q0 -0.578125 -0.5625 -0.578125q-0.515625 0 -0.796875 0.421875q-0.28125 0.421875 -0.3125 1.0q0.421875 -0.015625 0.75 -0.078125zm3.1867065 1.65625l0 -2.578125q0 -0.15625 -0.0625 -0.21875q-0.046875 -0.0625 -0.171875 -0.0625l-0.390625 -0.03125l0 -0.75l1.578125 0l0 0.6875q0.15625 -0.359375 0.515625 -0.59375q0.359375 -0.234375 0.8125 -0.234375q0.46875 0 0.890625 0.203125l0 1.390625l-0.875 0.0625l0 -0.421875q0 -0.1875 -0.09375 -0.234375q-0.09375 -0.046875 -0.25 -0.046875q-0.375 0 -0.609375 0.265625q-0.234375 0.265625 -0.234375 0.671875l0 2.15625l0.8125 0.046875l0 0.734375l-2.5 0l0 -0.703125l0.296875 -0.03125q0.140625 -0.015625 0.203125 -0.078125q0.078125 -0.0625 0.078125 -0.234375z"/><path fill="#000" fill-opacity="0" fill-rule="evenodd" d="m421.7318 92.78451l0.3779602 25.291336"/><path fill-rule="evenodd" stroke="#f90" stroke-linecap="butt" stroke-linejoin="round" stroke-width="1" d="m421.73184 92.78451l0.28829956 19.292007"/><path fill="#f90" fill-rule="evenodd" stroke="#f90" stroke-linecap="butt" stroke-width="1" d="m420.3686 112.1012l1.7193604 4.5129166l1.5837402 -4.562271z"/><path fill="#000" fill-opacity="0" fill-rule="evenodd" d="m421.7318 92.78451l-95.90549 25.291336"/><path fill-rule="evenodd" stroke="#f90" stroke-linecap="butt" stroke-linejoin="round" stroke-width="1" d="m421.73184 92.78451l-90.10388 23.761383"/><path fill="#f90" fill-rule="evenodd" stroke="#f90" stroke-linecap="butt" stroke-width="1" d="m331.2068 114.94876l-3.9668884 2.7543106l4.809265 0.43994904z"/></g></svg>