<svg xmlns="http://www.w3.org/2000/svg" xmlns:xlink="http://www.w3.org/1999/xlink" fill="none" stroke="none" stroke-linecap="square" stroke-miterlimit="10" version="1.1" viewBox="0 0 620 310"><clipPath id="p.0"><path d="m0 0l720.0 0l0 540.0l-720.0 0l0 -540.0z" clip-rule="nonzero"/></clipPath><g clip-path="url(#p.0)"><path fill="#000" fill-opacity="0" fill-rule="evenodd" d="m0 0l720.0 0l0 540.0l-720.0 0z"/><path fill="#f3f3f3" fill-rule="evenodd" d="m12.700788 11.509187l317.00787 0l0 292.31497l-317.00787 0z"/><path fill-rule="evenodd" stroke="#ccc" stroke-linecap="butt" stroke-linejoin="round" stroke-width="1" d="m12.700788 11.509187l317.00787 0l0 292.31497l-317.00787 0z"/><path fill="#434343" fill-rule="nonzero" d="m287.5871 289.67102q0 1.0 -0.75 1.546875q-0.734375 0.53125 -2.078125 0.53125q-1.421875 0 -2.21875 -0.4375l0 -1.015625q0.515625 0.265625 1.109375 0.421875q0.59375 0.140625 1.140625 0.140625q0.84375 0 1.296875 -0.265625q0.453125 -0.265625 0.453125 -0.828125q0 -0.40625 -0.359375 -0.703125q-0.359375 -0.296875 -1.40625 -0.703125q-1.0 -0.375 -1.421875 -0.640625q-0.421875 -0.28125 -0.625 -0.625q-0.203125 -0.359375 -0.203125 -0.84375q0 -0.875 0.703125 -1.375q0.71875 -0.515625 1.953125 -0.515625q1.15625 0 2.25 0.46875l-0.375 0.875q-1.078125 -0.4375 -1.953125 -0.4375q-0.765625 0 -1.15625 0.25q-0.390625 0.234375 -0.390625 0.65625q0 0.28125 0.140625 0.484375q0.15625 0.203125 0.46875 0.390625q0.328125 0.171875 1.25 0.53125q1.28125 0.453125 1.71875 0.921875q0.453125 0.46875 0.453125 1.171875zm4.764435 2.078125q-1.578125 0 -2.5 -0.953125q-0.90625 -0.96875 -0.90625 -2.671875q0 -1.734375 0.84375 -2.75q0.859375 -1.015625 2.28125 -1.015625q1.34375 0 2.125 0.890625q0.78125 0.875 0.78125 2.328125l0 0.671875l-4.90625 0q0.03125 1.265625 0.625 1.921875q0.609375 0.640625 1.703125 0.640625q1.140625 0 2.265625 -0.484375l0 0.96875q-0.5625 0.25 -1.078125 0.34375q-0.515625 0.109375 -1.234375 0.109375zm-0.296875 -6.484375q-0.859375 0 -1.375 0.5625q-0.5 0.5625 -0.59375 1.546875l3.734375 0q0 -1.015625 -0.453125 -1.5625q-0.453125 -0.546875 -1.3125 -0.546875zm8.024445 -0.90625q0.46875 0 0.84375 0.078125l-0.140625 1.0q-0.453125 -0.09375 -0.78125 -0.09375q-0.875 0 -1.5 0.703125q-0.609375 0.703125 -0.609375 1.75l0 3.828125l-1.078125 0l0 -7.125l0.890625 0l0.125 1.3125l0.0625 0q0.390625 -0.703125 0.953125 -1.078125q0.5625 -0.375 1.234375 -0.375zm3.7374573 7.265625l-2.703125 -7.125l1.15625 0l1.53125 4.21875q0.53125 1.484375 0.625 1.9375l0.046875 0q0.0625 -0.359375 0.4375 -1.4375q0.390625 -1.078125 1.71875 -4.71875l1.15625 0l-2.703125 7.125l-1.265625 0zm8.130188 0.125q-1.578125 0 -2.5 -0.953125q-0.90625 -0.96875 -0.90625 -2.671875q0 -1.734375 0.84375 -2.75q0.859375 -1.015625 2.28125 -1.015625q1.34375 0 2.125 0.890625q0.78125 0.875 0.78125 2.328125l0 0.671875l-4.90625 0q0.03125 1.265625 0.625 1.921875q0.609375 0.640625 1.703125 0.640625q1.140625 0 2.265625 -0.484375l0 0.96875q-0.5625 0.25 -1.078125 0.34375q-0.515625 0.109375 -1.234375 0.109375zm-0.296875 -6.484375q-0.859375 0 -1.375 0.5625q-0.5 0.5625 -0.59375 1.546875l3.734375 0q0 -1.015625 -0.453125 -1.5625q-0.453125 -0.546875 -1.3125 -0.546875zm8.024445 -0.90625q0.46875 0 0.84375 0.078125l-0.140625 1.0q-0.453125 -0.09375 -0.78125 -0.09375q-0.875 0 -1.5 0.703125q-0.609375 0.703125 -0.609375 1.75l0 3.828125l-1.078125 0l0 -7.125l0.890625 0l0.125 1.3125l0.0625 0q0.390625 -0.703125 0.953125 -1.078125q0.5625 -0.375 1.234375 -0.375z"/><path fill="#d9d9d9" fill-rule="evenodd" d="m70.40157 31.61155l201.6063 0l0 69.98425l-201.6063 0z"/><path fill-rule="evenodd" stroke="#ccc" stroke-dasharray="4 3" stroke-linecap="butt" stroke-linejoin="round" stroke-width="1" d="m70.40157 31.61155l201.6063 0l0 69.98425l-201.6063 0z"/><path fill="#434343" fill-rule="nonzero" d="m129.30531 52.13155l-1.0 0l0 -7.6875l-2.7031326 0l0 -0.875l6.4218826 0l0 0.875l-2.71875 0l0 7.6875zm6.576172 0.125q-1.421875 0 -2.25 -0.875q-0.828125 -0.875 -0.828125 -2.40625q0 -1.5625 0.765625 -2.46875q0.765625 -0.921875 2.0625 -0.921875q1.203125 0 1.90625 0.796875q0.703125 0.796875 0.703125 2.09375l0 0.625l-4.421875 0q0.03125 1.125 0.5625 1.71875q0.546875 0.578125 1.53125 0.578125q1.03125 0 2.046875 -0.4375l0 0.875q-0.515625 0.21875 -0.984375 0.3125q-0.453125 0.109375 -1.09375 0.109375zm-0.265625 -5.84375q-0.78125 0 -1.25 0.5q-0.453125 0.5 -0.53125 1.390625l3.359375 0q0 -0.921875 -0.40625 -1.40625q-0.40625 -0.484375 -1.171875 -0.484375zm8.669922 5.71875l0 -4.15625q0 -0.78125 -0.359375 -1.171875q-0.34375 -0.390625 -1.109375 -0.390625q-1.015625 0 -1.484375 0.546875q-0.46875 0.546875 -0.46875 1.796875l0 3.375l-0.96875 0l0 -6.421875l0.796875 0l0.15625 0.875l0.046875 0q0.296875 -0.46875 0.828125 -0.734375q0.546875 -0.265625 1.203125 -0.265625q1.171875 0 1.75 0.5625q0.59375 0.5625 0.59375 1.796875l0 4.1875l-0.984375 0zm7.1152344 -1.75q0 0.890625 -0.671875 1.390625q-0.65625 0.484375 -1.875 0.484375q-1.265625 0 -1.984375 -0.40625l0 -0.90625q0.46875 0.234375 0.984375 0.375q0.53125 0.125 1.03125 0.125q0.765625 0 1.171875 -0.234375q0.40625 -0.25 0.40625 -0.75q0 -0.375 -0.328125 -0.640625q-0.3125 -0.265625 -1.265625 -0.625q-0.890625 -0.34375 -1.28125 -0.59375q-0.375 -0.25 -0.5625 -0.5625q-0.171875 -0.3125 -0.171875 -0.75q0 -0.78125 0.640625 -1.234375q0.640625 -0.46875 1.75 -0.46875q1.03125 0 2.03125 0.421875l-0.359375 0.796875q-0.953125 -0.390625 -1.75 -0.390625q-0.6875 0 -1.046875 0.21875q-0.34375 0.203125 -0.34375 0.59375q0 0.25 0.125 0.4375q0.140625 0.171875 0.421875 0.34375q0.296875 0.15625 1.140625 0.46875q1.140625 0.421875 1.53125 0.84375q0.40625 0.421875 0.40625 1.0625zm7.1308594 -1.46875q0 1.578125 -0.796875 2.46875q-0.78125 0.875 -2.1875 0.875q-0.859375 0 -1.53125 -0.40625q-0.65625 -0.40625 -1.03125 -1.15625q-0.359375 -0.765625 -0.359375 -1.78125q0 -1.5625 0.78125 -2.4375q0.796875 -0.890625 2.1875 -0.890625q1.34375 0 2.140625 0.90625q0.796875 0.890625 0.796875 2.421875zm-4.890625 0q0 1.234375 0.484375 1.875q0.5 0.640625 1.453125 0.640625q0.953125 0 1.4375 -0.640625q0.5 -0.640625 0.5 -1.875q0 -1.21875 -0.5 -1.859375q-0.484375 -0.640625 -1.453125 -0.640625q-0.953125 0 -1.4375 0.640625q-0.484375 0.625 -0.484375 1.859375zm9.529297 -3.328125q0.421875 0 0.765625 0.078125l-0.140625 0.90625q-0.390625 -0.09375 -0.703125 -0.09375q-0.78125 0 -1.34375 0.640625q-0.546875 0.625 -0.546875 1.5625l0 3.453125l-0.96875 0l0 -6.421875l0.796875 0l0.125 1.1875l0.046875 0q0.34375 -0.625 0.84375 -0.96875q0.515625 -0.34375 1.125 -0.34375zm3.1015625 6.546875l-1.0 0l0 -8.5625l4.78125 0l0 0.875l-3.78125 0l0 3.140625l3.546875 0l0 0.890625l-3.546875 0l0 3.65625zm6.0214844 0l-0.96875 0l0 -9.125l0.96875 0l0 9.125zm7.6132812 -3.21875q0 1.578125 -0.796875 2.46875q-0.78125 0.875 -2.1875 0.875q-0.859375 0 -1.53125 -0.40625q-0.65625 -0.40625 -1.03125 -1.15625q-0.359375 -0.765625 -0.359375 -1.78125q0 -1.5625 0.78125 -2.4375q0.796875 -0.890625 2.1875 -0.890625q1.34375 0 2.140625 0.90625q0.796875 0.890625 0.796875 2.421875zm-4.890625 0q0 1.234375 0.484375 1.875q0.5 0.640625 1.453125 0.640625q0.953125 0 1.4375 -0.640625q0.5 -0.640625 0.5 -1.875q0 -1.21875 -0.5 -1.859375q-0.484375 -0.640625 -1.453125 -0.640625q-0.953125 0 -1.4375 0.640625q-0.484375 0.625 -0.484375 1.859375zm11.841797 3.21875l-1.1875 -3.765625q-0.109375 -0.34375 -0.40625 -1.578125l-0.046875 0q-0.234375 1.03125 -0.421875 1.59375l-1.203125 3.75l-1.125 0l-1.75 -6.421875l1.015625 0q0.625 2.421875 0.9375 3.6875q0.328125 1.265625 0.375 1.703125l0.046875 0q0.0625 -0.328125 0.203125 -0.859375q0.15625 -0.53125 0.265625 -0.84375l1.171875 -3.6875l1.046875 0l1.15625 3.6875q0.328125 1.0 0.4375 1.6875l0.046875 0q0.03125 -0.203125 0.125 -0.640625q0.109375 -0.453125 1.234375 -4.734375l1.0 0l-1.765625 6.421875l-1.15625 0zm12.732422 0l-1.0625 -2.71875l-3.4375 0l-1.046875 2.71875l-1.015625 0l3.390625 -8.609375l0.828125 0l3.375 8.609375l-1.03125 0zm-1.375 -3.625l-1.0 -2.65625q-0.1875 -0.5 -0.390625 -1.234375q-0.140625 0.5625 -0.375 1.234375l-1.0 2.65625l2.765625 0zm9.015625 -2.453125q0 1.3125 -0.890625 2.015625q-0.890625 0.6875 -2.53125 0.6875l-1.015625 0l0 3.375l-1.0 0l0 -8.5625l2.234375 0q3.203125 0 3.203125 2.484375zm-4.4375 1.859375l0.90625 0q1.3125 0 1.90625 -0.421875q0.59375 -0.4375 0.59375 -1.390625q0 -0.84375 -0.5625 -1.25q-0.546875 -0.421875 -1.734375 -0.421875l-1.109375 0l0 3.484375zm6.2246094 4.21875l0 -8.5625l1.0 0l0 8.5625l-1.0 0zm7.345703 -1.75q0 0.890625 -0.671875 1.390625q-0.65625 0.484375 -1.875 0.484375q-1.265625 0 -1.984375 -0.40625l0 -0.90625q0.46875 0.234375 0.984375 0.375q0.53125 0.125 1.03125 0.125q0.765625 0 1.171875 -0.234375q0.40625 -0.25 0.40625 -0.75q0 -0.375 -0.328125 -0.640625q-0.3125 -0.265625 -1.265625 -0.625q-0.890625 -0.34375 -1.28125 -0.59375q-0.375 -0.25 -0.5625 -0.5625q-0.171875 -0.3125 -0.171875 -0.75q0 -0.78125 0.640625 -1.234375q0.640625 -0.46875 1.75 -0.46875q1.03125 0 2.03125 0.421875l-0.359375 0.796875q-0.953125 -0.390625 -1.75 -0.390625q-0.6875 0 -1.046875 0.21875q-0.34375 0.203125 -0.34375 0.59375q0 0.25 0.125 0.4375q0.140625 0.171875 0.421875 0.34375q0.296875 0.15625 1.140625 0.46875q1.140625 0.421875 1.53125 0.84375q0.40625 0.421875 0.40625 1.0625z"/><path fill="#f3f3f3" fill-rule="evenodd" d="m343.54068 100.7874l249.0079 0l0 203.02364l-249.0079 0z"/><path fill-rule="evenodd" stroke="#ccc" stroke-linecap="butt" stroke-linejoin="round" stroke-width="1" d="m343.54068 100.7874l249.0079 0l0 203.02364l-249.0079 0z"/><path fill="#434343" fill-rule="nonzero" d="m356.54068 291.73602q-1.546875 0 -2.40625 -0.953125q-0.84375 -0.953125 -0.84375 -2.6875q0 -1.796875 0.859375 -2.765625q0.859375 -0.984375 2.453125 -0.984375q0.515625 0 1.03125 0.109375q0.515625 0.109375 0.8125 0.265625l-0.328125 0.921875q-0.359375 -0.15625 -0.796875 -0.25q-0.421875 -0.09375 -0.734375 -0.09375q-2.171875 0 -2.171875 2.78125q0 1.3125 0.515625 2.015625q0.53125 0.703125 1.578125 0.703125q0.890625 0 1.828125 -0.390625l0 0.96875q-0.71875 0.359375 -1.796875 0.359375zm4.5639343 -0.125l-1.078125 0l0 -10.125l1.078125 0l0 10.125zm3.3710938 0l-1.078125 0l0 -7.125l1.078125 0l0 7.125zm-1.171875 -9.0625q0 -0.375 0.1875 -0.546875q0.1875 -0.171875 0.453125 -0.171875q0.265625 0 0.453125 0.171875q0.1875 0.171875 0.1875 0.546875q0 0.359375 -0.1875 0.546875q-0.1875 0.171875 -0.453125 0.171875q-0.265625 0 -0.453125 -0.171875q-0.1875 -0.1875 -0.1875 -0.546875zm6.480438 9.1875q-1.578125 0 -2.5 -0.953125q-0.90625 -0.96875 -0.90625 -2.671875q0 -1.734375 0.84375 -2.75q0.859375 -1.015625 2.28125 -1.015625q1.34375 0 2.125 0.890625q0.78125 0.875 0.78125 2.328125l0 0.671875l-4.90625 0q0.03125 1.265625 0.625 1.921875q0.609375 0.640625 1.703125 0.640625q1.140625 0 2.265625 -0.484375l0 0.96875q-0.5625 0.25 -1.078125 0.34375q-0.515625 0.109375 -1.234375 0.109375zm-0.296875 -6.484375q-0.859375 0 -1.375 0.5625q-0.5 0.5625 -0.59375 1.546875l3.734375 0q0 -1.015625 -0.453125 -1.5625q-0.453125 -0.546875 -1.3125 -0.546875zm9.649445 6.359375l0 -4.609375q0 -0.875 -0.40625 -1.296875q-0.390625 -0.4375 -1.234375 -0.4375q-1.125 0 -1.65625 0.609375q-0.515625 0.59375 -0.515625 2.0l0 3.734375l-1.078125 0l0 -7.125l0.890625 0l0.171875 0.96875l0.046875 0q0.328125 -0.53125 0.921875 -0.8125q0.609375 -0.296875 1.34375 -0.296875q1.296875 0 1.9375 0.625q0.65625 0.625 0.65625 1.984375l0 4.65625l-1.078125 0zm5.6022644 -0.765625q0.28125 0 0.546875 -0.03125q0.265625 -0.046875 0.421875 -0.09375l0 0.828125q-0.171875 0.078125 -0.515625 0.125q-0.34375 0.0625 -0.609375 0.0625q-2.078125 0 -2.078125 -2.171875l0 -4.25l-1.015625 0l0 -0.515625l1.015625 -0.453125l0.453125 -1.515625l0.625 0l0 1.65625l2.078125 0l0 0.828125l-2.078125 0l0 4.203125q0 0.640625 0.3125 0.984375q0.3125 0.34375 0.84375 0.34375z"/><path fill="#f4cccc" fill-rule="evenodd" d="m127.456696 236.45866l87.49606 0l0 30.992111l-87.49606 0z"/><path fill-rule="evenodd" stroke="#000" stroke-linecap="butt" stroke-linejoin="round" stroke-width="1" d="m127.456696 236.45866l87.49606 0l0 30.992111l-87.49606 0z"/><path fill="#000" fill-rule="nonzero" d="m155.70459 249.47473l0 -6.734375l-2.125 0l0 -0.75l5.1875 0l0 0.75l-2.21875 0l0 6.734375l-0.84375 0zm4.437546 0l0 -7.484375l4.3125 0l0 0.734375l-3.46875 0l0 2.34375l2.796875 0l0 0.734375l-2.796875 0l0 3.671875l-0.84375 0zm5.859421 -7.46875l0.984375 0l0 0.078125q-0.078125 0.078125 -0.09375 0.15625q-0.015625 0.078125 -0.015625 0.28125l0 6.234375l3.59375 0l0 0.71875l-4.46875 0l0 -7.46875zm6.406296 7.46875l0 -0.703125l1.40625 0l0 -4.078125l-1.34375 0l0 -0.703125l2.203125 0l0 4.78125l1.28125 0l0 0.703125l-3.546875 0zm1.78125 -6.640625q-0.25 0 -0.4375 -0.171875q-0.171875 -0.1875 -0.171875 -0.4375q0 -0.265625 0.171875 -0.4375q0.171875 -0.1875 0.4375 -0.1875q0.25 0 0.4375 0.1875q0.1875 0.1875 0.1875 0.4375q0 0.25 -0.1875 0.4375q-0.1875 0.171875 -0.4375 0.171875zm8.343796 6.140625q-0.796875 0.578125 -1.734375 0.578125q-0.921875 0 -1.296875 -0.546875q-0.375 -0.546875 -0.375 -1.796875q0 -0.203125 0.015625 -0.703125l0.109375 -1.8125l-1.203125 0l0 -0.703125l1.25 0l0.09375 -1.46875l0.953125 -0.15625l0.125 0l0.015625 0.0625q-0.09375 0.125 -0.140625 0.21875q-0.03125 0.078125 -0.046875 0.25l-0.125 1.09375l1.8125 0l0 0.703125l-1.859375 0l-0.109375 1.859375q-0.03125 0.484375 -0.03125 0.640625q0 0.96875 0.21875 1.3125q0.234375 0.328125 0.71875 0.328125q0.359375 0 0.65625 -0.125q0.3125 -0.140625 0.6875 -0.421875l0.265625 0.6875zm3.9375458 0.625q-1.21875 0 -1.953125 -0.75q-0.71875 -0.75 -0.71875 -2.09375q0 -0.90625 0.328125 -1.5625q0.34375 -0.65625 0.90625 -0.984375q0.578125 -0.34375 1.28125 -0.34375q1.0 0 1.609375 0.65625q0.625 0.65625 0.625 1.9375q0 0.140625 -0.03125 0.40625l-3.890625 0q0.046875 1.0 0.5625 1.515625q0.515625 0.515625 1.296875 0.515625q0.875 0 1.421875 -0.609375l0.484375 0.46875q-0.703125 0.84375 -1.921875 0.84375zm1.203125 -3.40625q0 -0.78125 -0.390625 -1.21875q-0.390625 -0.453125 -1.03125 -0.453125q-0.59375 0 -1.046875 0.421875q-0.4375 0.421875 -0.546875 1.25l3.015625 0z"/><path fill="#000" fill-rule="nonzero" d="m147.59514 262.88098q0.4375 0 0.84375 -0.25q0.40625 -0.25 0.65625 -0.671875l0.625 0.40625q-0.375 0.625 -0.875 0.9375q-0.5 0.296875 -1.21875 0.296875q-0.84375 0 -1.5 -0.40625q-0.65625 -0.421875 -1.046875 -1.265625q-0.390625 -0.859375 -0.390625 -2.15625q0 -1.375 0.421875 -2.234375q0.421875 -0.859375 1.0625 -1.21875q0.65625 -0.375 1.40625 -0.375q0.78125 0 1.359375 0.390625q0.59375 0.390625 0.890625 1.078125l-0.71875 0.34375q-0.015625 0 -0.015625 0q0 -0.015625 0 -0.015625q-0.3125 -0.625 -0.703125 -0.875q-0.375 -0.25 -0.84375 -0.25q-0.9375 0 -1.484375 0.828125q-0.546875 0.8125 -0.546875 2.28125q0 0.921875 0.265625 1.640625q0.28125 0.71875 0.75 1.125q0.484375 0.390625 1.0625 0.390625zm1.375 -5.171875q0.015625 -0.015625 0.015625 -0.015625q0.03125 0 0.109375 0.0625l-0.09375 0.046875l-0.03125 -0.09375zm0.140625 0.046875q0.046875 0.109375 -0.015625 0l0.015625 0zm4.093796 5.8125q-0.734375 0 -1.3125 -0.359375q-0.578125 -0.359375 -0.90625 -1.0q-0.3125 -0.65625 -0.3125 -1.484375q0 -0.828125 0.3125 -1.46875q0.328125 -0.65625 0.90625 -1.015625q0.578125 -0.375 1.3125 -0.375q0.734375 0 1.3125 0.375q0.578125 0.359375 0.890625 1.015625q0.328125 0.640625 0.328125 1.46875q0 0.828125 -0.328125 1.484375q-0.3125 0.640625 -0.890625 1.0q-0.578125 0.359375 -1.3125 0.359375zm0 -0.71875q0.46875 0 0.828125 -0.265625q0.375 -0.28125 0.578125 -0.765625q0.21875 -0.484375 0.21875 -1.109375q0 -0.9375 -0.46875 -1.53125q-0.453125 -0.59375 -1.15625 -0.59375q-0.703125 0 -1.171875 0.59375q-0.453125 0.59375 -0.453125 1.53125q0 0.625 0.203125 1.109375q0.21875 0.484375 0.578125 0.765625q0.375 0.265625 0.84375 0.265625zm3.8594208 -4.859375l0.84375 0l0 0.96875q0.328125 -0.5 0.8125 -0.796875q0.5 -0.296875 1.046875 -0.296875q0.734375 0 1.171875 0.5625q0.4375 0.546875 0.4375 1.71875l0 3.328125l-0.84375 0l0 -3.296875q0 -0.8125 -0.28125 -1.1875q-0.265625 -0.375 -0.71875 -0.375q-0.375 0 -0.75 0.21875q-0.375 0.21875 -0.625 0.609375q-0.25 0.390625 -0.25 0.875l0 3.15625l-0.84375 0l0 -5.484375zm10.593796 0q-0.1875 0.96875 -0.796875 2.40625l-1.328125 3.078125l-0.671875 0l-2.171875 -5.484375l0.859375 0l1.6875 4.296875l0.890625 -2.03125q0.546875 -1.25 0.71875 -2.265625l0.8125 0zm3.8125458 5.609375q-1.21875 0 -1.953125 -0.75q-0.71875 -0.75 -0.71875 -2.09375q0 -0.90625 0.328125 -1.5625q0.34375 -0.65625 0.90625 -0.984375q0.578125 -0.34375 1.28125 -0.34375q1.0 0 1.609375 0.65625q0.625 0.65625 0.625 1.9375q0 0.140625 -0.03125 0.40625l-3.890625 0q0.046875 1.0 0.5625 1.515625q0.515625 0.515625 1.296875 0.515625q0.875 0 1.421875 -0.609375l0.484375 0.46875q-0.703125 0.84375 -1.921875 0.84375zm1.203125 -3.40625q0 -0.78125 -0.390625 -1.21875q-0.390625 -0.453125 -1.03125 -0.453125q-0.59375 0 -1.046875 0.421875q-0.4375 0.421875 -0.546875 1.25l3.015625 0zm6.640671 -1.0625l0 0.015625q-0.34375 -0.328125 -0.578125 -0.4375q-0.234375 -0.109375 -0.546875 -0.109375q-0.4375 0 -0.828125 0.21875q-0.375 0.21875 -0.625 0.65625q-0.234375 0.4375 -0.234375 1.09375l0 2.921875l-0.875 0l0 -5.5l0.90625 0l-0.03125 1.015625q0.234375 -0.546875 0.703125 -0.84375q0.484375 -0.296875 1.046875 -0.296875q0.875 0 1.453125 0.59375l-0.390625 0.671875zm0 0.015625q0.09375 0.0625 0.046875 0.0625q-0.046875 -0.015625 -0.0625 -0.03125l0.015625 -0.03125zm-0.125 0.03125q0 -0.03125 0.03125 -0.015625q0.03125 0 0.078125 0.015625l-0.03125 0.0625l-0.078125 -0.046875l0 -0.015625zm6.343796 3.796875q-0.796875 0.578125 -1.734375 0.578125q-0.921875 0 -1.296875 -0.546875q-0.375 -0.546875 -0.375 -1.796875q0 -0.203125 0.015625 -0.703125l0.109375 -1.8125l-1.203125 0l0 -0.703125l1.25 0l0.09375 -1.46875l0.953125 -0.15625l0.125 0l0.015625 0.0625q-0.09375 0.125 -0.140625 0.21875q-0.03125 0.078125 -0.046875 0.25l-0.125 1.09375l1.8125 0l0 0.703125l-1.859375 0l-0.109375 1.859375q-0.03125 0.484375 -0.03125 0.640625q0 0.96875 0.21875 1.3125q0.234375 0.328125 0.71875 0.328125q0.359375 0 0.65625 -0.125q0.3125 -0.140625 0.6875 -0.421875l0.265625 0.6875zm3.9375458 0.625q-1.21875 0 -1.953125 -0.75q-0.71875 -0.75 -0.71875 -2.09375q0 -0.90625 0.328125 -1.5625q0.34375 -0.65625 0.90625 -0.984375q0.578125 -0.34375 1.28125 -0.34375q1.0 0 1.609375 0.65625q0.625 0.65625 0.625 1.9375q0 0.140625 -0.03125 0.40625l-3.890625 0q0.046875 1.0 0.5625 1.515625q0.515625 0.515625 1.296875 0.515625q0.875 0 1.421875 -0.609375l0.484375 0.46875q-0.703125 0.84375 -1.921875 0.84375zm1.203125 -3.40625q0 -0.78125 -0.390625 -1.21875q-0.390625 -0.453125 -1.03125 -0.453125q-0.59375 0 -1.046875 0.421875q-0.4375 0.421875 -0.546875 1.25l3.015625 0zm6.640671 -1.0625l0 0.015625q-0.34375 -0.328125 -0.578125 -0.4375q-0.234375 -0.109375 -0.546875 -0.109375q-0.4375 0 -0.828125 0.21875q-0.375 0.21875 -0.625 0.65625q-0.234375 0.4375 -0.234375 1.09375l0 2.921875l-0.875 0l0 -5.5l0.90625 0l-0.03125 1.015625q0.234375 -0.546875 0.703125 -0.84375q0.484375 -0.296875 1.046875 -0.296875q0.875 0 1.453125 0.59375l-0.390625 0.671875zm0 0.015625q0.09375 0.0625 0.046875 0.0625q-0.046875 -0.015625 -0.0625 -0.03125l0.015625 -0.03125zm-0.125 0.03125q0 -0.03125 0.03125 -0.015625q0.03125 0 0.078125 0.015625l-0.03125 0.0625l-0.078125 -0.046875l0 -0.015625z"/><path fill="#93c47d" fill-rule="evenodd" d="m230.92084 236.45866l87.49606 0l0 30.992111l-87.49606 0z"/><path fill-rule="evenodd" stroke="#000" stroke-linecap="butt" stroke-linejoin="round" stroke-width="1" d="m230.92084 236.45866l87.49606 0l0 30.992111l-87.49606 0z"/><path fill="#000" fill-rule="nonzero" d="m259.16873 249.47473l0 -6.734375l-2.125 0l0 -0.75l5.1875 0l0 0.75l-2.21875 0l0 6.734375l-0.84375 0zm4.437561 0l0 -7.484375l4.3125 0l0 0.734375l-3.46875 0l0 2.34375l2.796875 0l0 0.734375l-2.796875 0l0 3.671875l-0.84375 0zm5.8594055 -7.46875l0.984375 0l0 0.078125q-0.078125 0.078125 -0.09375 0.15625q-0.015625 0.078125 -0.015625 0.28125l0 6.234375l3.59375 0l0 0.71875l-4.46875 0l0 -7.46875zm6.406311 7.46875l0 -0.703125l1.40625 0l0 -4.078125l-1.34375 0l0 -0.703125l2.203125 0l0 4.78125l1.28125 0l0 0.703125l-3.546875 0zm1.78125 -6.640625q-0.25 0 -0.4375 -0.171875q-0.171875 -0.1875 -0.171875 -0.4375q0 -0.265625 0.171875 -0.4375q0.171875 -0.1875 0.4375 -0.1875q0.25 0 0.4375 0.1875q0.1875 0.1875 0.1875 0.4375q0 0.25 -0.1875 0.4375q-0.1875 0.171875 -0.4375 0.171875zm8.3437805 6.140625q-0.796875 0.578125 -1.734375 0.578125q-0.921875 0 -1.296875 -0.546875q-0.375 -0.546875 -0.375 -1.796875q0 -0.203125 0.015625 -0.703125l0.109375 -1.8125l-1.203125 0l0 -0.703125l1.25 0l0.09375 -1.46875l0.953125 -0.15625l0.125 0l0.015625 0.0625q-0.09375 0.125 -0.140625 0.21875q-0.03125 0.078125 -0.046875 0.25l-0.125 1.09375l1.8125 0l0 0.703125l-1.859375 0l-0.109375 1.859375q-0.03125 0.484375 -0.03125 0.640625q0 0.96875 0.21875 1.3125q0.234375 0.328125 0.71875 0.328125q0.359375 0 0.65625 -0.125q0.3125 -0.140625 0.6875 -0.421875l0.265625 0.6875zm3.937561 0.625q-1.21875 0 -1.953125 -0.75q-0.71875 -0.75 -0.71875 -2.09375q0 -0.90625 0.328125 -1.5625q0.34375 -0.65625 0.90625 -0.984375q0.578125 -0.34375 1.28125 -0.34375q1.0 0 1.609375 0.65625q0.625 0.65625 0.625 1.9375q0 0.140625 -0.03125 0.40625l-3.890625 0q0.046875 1.0 0.5625 1.515625q0.515625 0.515625 1.296875 0.515625q0.875 0 1.421875 -0.609375l0.484375 0.46875q-0.703125 0.84375 -1.921875 0.84375zm1.203125 -3.40625q0 -0.78125 -0.390625 -1.21875q-0.390625 -0.453125 -1.03125 -0.453125q-0.59375 0 -1.046875 0.421875q-0.4375 0.421875 -0.546875 1.25l3.015625 0z"/><path fill="#000" fill-rule="nonzero" d="m245.60614 263.47473l0 -7.484375l4.3125 0l0 0.734375l-3.46875 0l0 2.34375l2.796875 0l0 0.734375l-2.796875 0l0 3.671875l-0.84375 0zm6.015671 0l0 -0.703125l1.609375 0l0 -6.578125l-1.546875 0l0 -0.703125l2.421875 0l0 7.28125l1.609375 0l0 0.703125l-4.09375 0zm7.968796 -5.609375q1.1875 0 1.796875 0.625q0.625 0.609375 0.625 2.0625l0 2.921875l-0.9375 0l0 -0.84375q-0.5 0.96875 -1.875 0.96875q-0.90625 0 -1.421875 -0.40625q-0.515625 -0.421875 -0.515625 -1.09375q0 -0.578125 0.359375 -1.0q0.375 -0.4375 1.0 -0.671875q0.640625 -0.234375 1.390625 -0.234375q0.6875 0 1.234375 0.0625q-0.0625 -0.921875 -0.484375 -1.296875q-0.40625 -0.375 -1.21875 -0.375q-0.421875 0 -0.796875 0.15625q-0.375 0.15625 -0.6875 0.453125l-0.421875 -0.5625q0.765625 -0.765625 1.953125 -0.765625zm-0.3125 5.078125q0.890625 0 1.40625 -0.515625q0.515625 -0.53125 0.5625 -1.515625q-0.53125 -0.078125 -1.15625 -0.078125q-0.90625 0 -1.4375 0.296875q-0.53125 0.296875 -0.53125 0.921875q0 0.890625 1.15625 0.890625zm8.718811 0.03125q-0.796875 0.578125 -1.734375 0.578125q-0.921875 0 -1.296875 -0.546875q-0.375 -0.546875 -0.375 -1.796875q0 -0.203125 0.015625 -0.703125l0.109375 -1.8125l-1.203125 0l0 -0.703125l1.25 0l0.09375 -1.46875l0.953125 -0.15625l0.125 0l0.015625 0.0625q-0.09375 0.125 -0.140625 0.21875q-0.03125 0.078125 -0.046875 0.25l-0.125 1.09375l1.8125 0l0 0.703125l-1.859375 0l-0.109375 1.859375q-0.03125 0.484375 -0.03125 0.640625q0 0.96875 0.21875 1.3125q0.234375 0.328125 0.71875 0.328125q0.359375 0 0.65625 -0.125q0.3125 -0.140625 0.6875 -0.421875l0.265625 0.6875zm3.8594055 0.625q-0.484375 0 -0.90625 -0.21875q-0.421875 -0.21875 -0.703125 -0.625l-0.3125 0.71875l-0.546875 0l0 -7.984375l0.984375 0l0 0.09375q-0.078125 0.0625 -0.09375 0.15625q-0.015625 0.078125 -0.015625 0.28125l0 2.8125q0.265625 -0.453125 0.71875 -0.703125q0.453125 -0.265625 0.921875 -0.265625q1.03125 0 1.640625 0.71875q0.609375 0.71875 0.609375 2.09375q0 0.9375 -0.328125 1.609375q-0.3125 0.65625 -0.84375 0.984375q-0.53125 0.328125 -1.125 0.328125zm-0.109375 -0.765625q0.65625 0 1.078125 -0.5q0.4375 -0.515625 0.4375 -1.609375q0 -1.046875 -0.40625 -1.578125q-0.390625 -0.546875 -1.078125 -0.546875q-0.671875 0 -1.09375 0.609375q-0.421875 0.59375 -0.421875 1.546875q0 2.078125 1.484375 2.078125zm5.578186 0.765625q-0.875 0 -1.390625 -0.640625q-0.515625 -0.640625 -0.5 -1.90625l0.015625 -3.0625l0.84375 0l0 3.0625q0 0.984375 0.328125 1.421875q0.34375 0.4375 0.921875 0.4375q0.609375 0 1.03125 -0.484375q0.4375 -0.484375 0.4375 -1.40625l0 -3.03125l0.84375 0l0 4.625q0 0.296875 0.015625 0.484375q0.015625 0.1875 0.09375 0.375l-0.828125 0q-0.078125 -0.1875 -0.09375 -0.375q-0.015625 -0.1875 -0.015625 -0.46875q-0.265625 0.453125 -0.71875 0.71875q-0.453125 0.25 -0.984375 0.25zm8.5625305 -6.78125l-0.015625 0.015625q-0.328125 -0.421875 -0.5625 -0.5625q-0.234375 -0.15625 -0.65625 -0.15625q-0.5625 0 -0.890625 0.34375q-0.328125 0.328125 -0.328125 1.078125l0 0.453125l1.8125 0l0 0.6875l-1.8125 0l0 4.796875l-0.828125 0l0 -4.796875l-1.1875 0l0 -0.6875l1.1875 0l0 -0.453125q0 -1.0625 0.546875 -1.578125q0.546875 -0.53125 1.46875 -0.53125q0.53125 0 0.984375 0.1875q0.453125 0.1875 0.734375 0.5625l-0.453125 0.640625zm-0.140625 0.03125q0 -0.03125 0.046875 0q0.046875 0.015625 0.0625 0.015625l-0.046875 0.046875l-0.0625 -0.046875l0 -0.015625zm0.125 -0.015625q0.078125 0.09375 0.03125 0.0625q-0.03125 -0.03125 -0.046875 -0.03125l0.015625 -0.03125zm6.015686 -0.015625l-0.015625 0.015625q-0.328125 -0.421875 -0.5625 -0.5625q-0.234375 -0.15625 -0.65625 -0.15625q-0.5625 0 -0.890625 0.34375q-0.328125 0.328125 -0.328125 1.078125l0 0.453125l1.8125 0l0 0.6875l-1.8125 0l0 4.796875l-0.828125 0l0 -4.796875l-1.1875 0l0 -0.6875l1.1875 0l0 -0.453125q0 -1.0625 0.546875 -1.578125q0.546875 -0.53125 1.46875 -0.53125q0.53125 0 0.984375 0.1875q0.453125 0.1875 0.734375 0.5625l-0.453125 0.640625zm-0.140625 0.03125q0 -0.03125 0.046875 0q0.046875 0.015625 0.0625 0.015625l-0.046875 0.046875l-0.0625 -0.046875l0 -0.015625zm0.125 -0.015625q0.078125 0.09375 0.03125 0.0625q-0.03125 -0.03125 -0.046875 -0.03125l0.015625 -0.03125zm4.0625305 6.765625q-1.21875 0 -1.953125 -0.75q-0.71875 -0.75 -0.71875 -2.09375q0 -0.90625 0.328125 -1.5625q0.34375 -0.65625 0.90625 -0.984375q0.578125 -0.34375 1.28125 -0.34375q1.0 0 1.609375 0.65625q0.625 0.65625 0.625 1.9375q0 0.140625 -0.03125 0.40625l-3.890625 0q0.046875 1.0 0.5625 1.515625q0.515625 0.515625 1.296875 0.515625q0.875 0 1.421875 -0.609375l0.484375 0.46875q-0.703125 0.84375 -1.921875 0.84375zm1.203125 -3.40625q0 -0.78125 -0.390625 -1.21875q-0.390625 -0.453125 -1.03125 -0.453125q-0.59375 0 -1.046875 0.421875q-0.4375 0.421875 -0.546875 1.25l3.015625 0zm6.640686 -1.0625l0 0.015625q-0.34375 -0.328125 -0.578125 -0.4375q-0.234375 -0.109375 -0.546875 -0.109375q-0.4375 0 -0.828125 0.21875q-0.375 0.21875 -0.625 0.65625q-0.234375 0.4375 -0.234375 1.09375l0 2.921875l-0.875 0l0 -5.5l0.90625 0l-0.03125 1.015625q0.234375 -0.546875 0.703125 -0.84375q0.484375 -0.296875 1.046875 -0.296875q0.875 0 1.453125 0.59375l-0.390625 0.671875zm0 0.015625q0.09375 0.0625 0.046875 0.0625q-0.046875 -0.015625 -0.0625 -0.03125l0.015625 -0.03125zm-0.125 0.03125q0 -0.03125 0.03125 -0.015625q0.03125 0 0.078125 0.015625l-0.03125 0.0625l-0.078125 -0.046875l0 -0.015625z"/><path fill="#f4cccc" fill-rule="evenodd" d="m359.81628 236.43504l87.49606 0l0 30.992111l-87.49606 0z"/><path fill-rule="evenodd" stroke="#000" stroke-linecap="butt" stroke-linejoin="round" stroke-width="1" d="m359.81628 236.43504l87.49606 0l0 30.992111l-87.49606 0z"/><path fill="#000" fill-rule="nonzero" d="m388.06418 249.4511l0 -6.734375l-2.125 0l0 -0.75l5.1875 0l0 0.75l-2.21875 0l0 6.734375l-0.84375 0zm4.4375305 0l0 -7.484375l4.3125 0l0 0.734375l-3.46875 0l0 2.34375l2.796875 0l0 0.734375l-2.796875 0l0 3.671875l-0.84375 0zm5.859436 -7.46875l0.984375 0l0 0.078125q-0.078125 0.078125 -0.09375 0.15625q-0.015625 0.078125 -0.015625 0.28125l0 6.234375l3.59375 0l0 0.71875l-4.46875 0l0 -7.46875zm6.4062805 7.46875l0 -0.703125l1.40625 0l0 -4.078125l-1.34375 0l0 -0.703125l2.203125 0l0 4.78125l1.28125 0l0 0.703125l-3.546875 0zm1.78125 -6.640625q-0.25 0 -0.4375 -0.171875q-0.171875 -0.1875 -0.171875 -0.4375q0 -0.265625 0.171875 -0.4375q0.171875 -0.1875 0.4375 -0.1875q0.25 0 0.4375 0.1875q0.1875 0.1875 0.1875 0.4375q0 0.25 -0.1875 0.4375q-0.1875 0.171875 -0.4375 0.171875zm8.343811 6.140625q-0.796875 0.578125 -1.734375 0.578125q-0.921875 0 -1.296875 -0.546875q-0.375 -0.546875 -0.375 -1.796875q0 -0.203125 0.015625 -0.703125l0.109375 -1.8125l-1.203125 0l0 -0.703125l1.25 0l0.09375 -1.46875l0.953125 -0.15625l0.125 0l0.015625 0.0625q-0.09375 0.125 -0.140625 0.21875q-0.03125 0.078125 -0.046875 0.25l-0.125 1.09375l1.8125 0l0 0.703125l-1.859375 0l-0.109375 1.859375q-0.03125 0.484375 -0.03125 0.640625q0 0.96875 0.21875 1.3125q0.234375 0.328125 0.71875 0.328125q0.359375 0 0.65625 -0.125q0.3125 -0.140625 0.6875 -0.421875l0.265625 0.6875zm3.9375305 0.625q-1.21875 0 -1.953125 -0.75q-0.71875 -0.75 -0.71875 -2.09375q0 -0.90625 0.328125 -1.5625q0.34375 -0.65625 0.90625 -0.984375q0.578125 -0.34375 1.28125 -0.34375q1.0 0 1.609375 0.65625q0.625 0.65625 0.625 1.9375q0 0.140625 -0.03125 0.40625l-3.890625 0q0.046875 1.0 0.5625 1.515625q0.515625 0.515625 1.296875 0.515625q0.875 0 1.421875 -0.609375l0.484375 0.46875q-0.703125 0.84375 -1.921875 0.84375zm1.203125 -3.40625q0 -0.78125 -0.390625 -1.21875q-0.390625 -0.453125 -1.03125 -0.453125q-0.59375 0 -1.046875 0.421875q-0.4375 0.421875 -0.546875 1.25l3.015625 0z"/><path fill="#000" fill-rule="nonzero" d="m371.76718 263.4511l0 -0.703125l1.40625 0l0 -4.078125l-1.34375 0l0 -0.703125l2.203125 0l0 4.78125l1.28125 0l0 0.703125l-3.546875 0zm1.78125 -6.640625q-0.25 0 -0.4375 -0.171875q-0.171875 -0.1875 -0.171875 -0.4375q0 -0.26564026 0.171875 -0.43751526q0.171875 -0.1875 0.4375 -0.1875q0.25 0 0.4375 0.1875q0.1875 0.1875 0.1875 0.43751526q0 0.25 -0.1875 0.4375q-0.1875 0.171875 -0.4375 0.171875zm3.8750305 1.15625l0.84375 0l0 0.96875q0.328125 -0.5 0.8125 -0.796875q0.5 -0.296875 1.046875 -0.296875q0.734375 0 1.171875 0.5625q0.4375 0.546875 0.4375 1.71875l0 3.328125l-0.84375 0l0 -3.296875q0 -0.8125 -0.28125 -1.1875q-0.265625 -0.375 -0.71875 -0.375q-0.375 0 -0.75 0.21875q-0.375 0.21875 -0.625 0.609375q-0.25 0.390625 -0.25 0.875l0 3.15625l-0.84375 0l0 -5.484375zm10.468811 4.984375q-0.796875 0.578125 -1.734375 0.578125q-0.921875 0 -1.296875 -0.546875q-0.375 -0.546875 -0.375 -1.796875q0 -0.203125 0.015625 -0.703125l0.109375 -1.8125l-1.203125 0l0 -0.703125l1.25 0l0.09375 -1.46875l0.953125 -0.15625l0.125 0l0.015625 0.0625q-0.09375 0.125 -0.140625 0.21875q-0.03125 0.078125 -0.046875 0.25l-0.125 1.09375l1.8125 0l0 0.703125l-1.859375 0l-0.109375 1.859375q-0.03125 0.484375 -0.03125 0.640625q0 0.96875 0.21875 1.3125q0.234375 0.328125 0.71875 0.328125q0.359375 0 0.65625 -0.125q0.3125 -0.140625 0.6875 -0.421875l0.265625 0.6875zm3.9375305 0.625q-1.21875 0 -1.953125 -0.75q-0.71875 -0.75 -0.71875 -2.09375q0 -0.90625 0.328125 -1.5625q0.34375 -0.65625 0.90625 -0.984375q0.578125 -0.34375 1.28125 -0.34375q1.0 0 1.609375 0.65625q0.625 0.65625 0.625 1.9375q0 0.140625 -0.03125 0.40625l-3.890625 0q0.046875 1.0 0.5625 1.515625q0.515625 0.515625 1.296875 0.515625q0.875 0 1.421875 -0.609375l0.484375 0.46875q-0.703125 0.84375 -1.921875 0.84375zm1.203125 -3.40625q0 -0.78125 -0.390625 -1.21875q-0.390625 -0.453125 -1.03125 -0.453125q-0.59375 0 -1.046875 0.421875q-0.4375 0.421875 -0.546875 1.25l3.015625 0zm6.640686 -1.0625l0 0.015625q-0.34375 -0.328125 -0.578125 -0.4375q-0.234375 -0.109375 -0.546875 -0.109375q-0.4375 0 -0.828125 0.21875q-0.375 0.21875 -0.625 0.65625q-0.234375 0.4375 -0.234375 1.09375l0 2.921875l-0.875 0l0 -5.5l0.90625 0l-0.03125 1.015625q0.234375 -0.546875 0.703125 -0.84375q0.484375 -0.296875 1.046875 -0.296875q0.875 0 1.453125 0.59375l-0.390625 0.671875zm0 0.015625q0.09375 0.0625 0.046875 0.0625q-0.046875 -0.015625 -0.0625 -0.03125l0.015625 -0.03125zm-0.125 0.03125q0 -0.03125 0.03125 -0.015625q0.03125 0 0.078125 0.015625l-0.03125 0.0625l-0.078125 -0.046875l0 -0.015625zm1.7344055 -1.1875l0.875 0l0 1.078125q0.1875 -0.59375 0.625 -0.890625q0.4375 -0.3125 1.046875 -0.3125q0.625 0 1.140625 0.328125q0.53125 0.3125 0.84375 0.953125q0.3125 0.625 0.3125 1.546875q0 0.921875 -0.328125 1.59375q-0.328125 0.65625 -0.859375 1.0q-0.53125 0.328125 -1.140625 0.328125q-0.484375 0 -0.921875 -0.21875q-0.421875 -0.234375 -0.703125 -0.640625l0 2.71875l-0.890625 0l0 -7.484375zm2.375 4.859375q0.65625 0 1.109375 -0.5q0.453125 -0.5 0.453125 -1.625q0 -1.015625 -0.40625 -1.5625q-0.390625 -0.546875 -1.125 -0.546875q-0.671875 0 -1.109375 0.578125q-0.421875 0.5625 -0.421875 1.71875q0.03125 0.953125 0.421875 1.453125q0.390625 0.484375 1.078125 0.484375zm8.015686 -3.71875l0 0.015625q-0.34375 -0.328125 -0.578125 -0.4375q-0.234375 -0.109375 -0.546875 -0.109375q-0.4375 0 -0.828125 0.21875q-0.375 0.21875 -0.625 0.65625q-0.234375 0.4375 -0.234375 1.09375l0 2.921875l-0.875 0l0 -5.5l0.90625 0l-0.03125 1.015625q0.234375 -0.546875 0.703125 -0.84375q0.484375 -0.296875 1.046875 -0.296875q0.875 0 1.453125 0.59375l-0.390625 0.671875zm0 0.015625q0.09375 0.0625 0.046875 0.0625q-0.046875 -0.015625 -0.0625 -0.03125l0.015625 -0.03125zm-0.125 0.03125q0 -0.03125 0.03125 -0.015625q0.03125 0 0.078125 0.015625l-0.03125 0.0625l-0.078125 -0.046875l0 -0.015625zm4.2812805 4.421875q-1.21875 0 -1.953125 -0.75q-0.71875 -0.75 -0.71875 -2.09375q0 -0.90625 0.328125 -1.5625q0.34375 -0.65625 0.90625 -0.984375q0.578125 -0.34375 1.28125 -0.34375q1.0 0 1.609375 0.65625q0.625 0.65625 0.625 1.9375q0 0.140625 -0.03125 0.40625l-3.890625 0q0.046875 1.0 0.5625 1.515625q0.515625 0.515625 1.296875 0.515625q0.875 0 1.421875 -0.609375l0.484375 0.46875q-0.703125 0.84375 -1.921875 0.84375zm1.203125 -3.40625q0 -0.78125 -0.390625 -1.21875q-0.390625 -0.453125 -1.03125 -0.453125q-0.59375 0 -1.046875 0.421875q-0.4375 0.421875 -0.546875 1.25l3.015625 0zm6.859436 2.78125q-0.796875 0.578125 -1.734375 0.578125q-0.921875 0 -1.296875 -0.546875q-0.375 -0.546875 -0.375 -1.796875q0 -0.203125 0.015625 -0.703125l0.109375 -1.8125l-1.203125 0l0 -0.703125l1.25 0l0.09375 -1.46875l0.953125 -0.15625l0.125 0l0.015625 0.0625q-0.09375 0.125 -0.140625 0.21875q-0.03125 0.078125 -0.046875 0.25l-0.125 1.09375l1.8125 0l0 0.703125l-1.859375 0l-0.109375 1.859375q-0.03125 0.484375 -0.03125 0.640625q0 0.96875 0.21875 1.3125q0.234375 0.328125 0.71875 0.328125q0.359375 0 0.65625 -0.125q0.3125 -0.140625 0.6875 -0.421875l0.265625 0.6875zm3.9375305 0.625q-1.21875 0 -1.953125 -0.75q-0.71875 -0.75 -0.71875 -2.09375q0 -0.90625 0.328125 -1.5625q0.34375 -0.65625 0.90625 -0.984375q0.578125 -0.34375 1.28125 -0.34375q1.0 0 1.609375 0.65625q0.625 0.65625 0.625 1.9375q0 0.140625 -0.03125 0.40625l-3.890625 0q0.046875 1.0 0.5625 1.515625q0.515625 0.515625 1.296875 0.515625q0.875 0 1.421875 -0.609375l0.484375 0.46875q-0.703125 0.84375 -1.921875 0.84375zm1.203125 -3.40625q0 -0.78125 -0.390625 -1.21875q-0.390625 -0.453125 -1.03125 -0.453125q-0.59375 0 -1.046875 0.421875q-0.4375 0.421875 -0.546875 1.25l3.015625 0zm6.640686 -1.0625l0 0.015625q-0.34375 -0.328125 -0.578125 -0.4375q-0.234375 -0.109375 -0.546875 -0.109375q-0.4375 0 -0.828125 0.21875q-0.375 0.21875 -0.625 0.65625q-0.234375 0.4375 -0.234375 1.09375l0 2.921875l-0.875 0l0 -5.5l0.90625 0l-0.03125 1.015625q0.234375 -0.546875 0.703125 -0.84375q0.484375 -0.296875 1.046875 -0.296875q0.875 0 1.453125 0.59375l-0.390625 0.671875zm0 0.015625q0.09375 0.0625 0.046875 0.0625q-0.046875 -0.015625 -0.0625 -0.03125l0.015625 -0.03125zm-0.125 0.03125q0 -0.03125 0.03125 -0.015625q0.03125 0 0.078125 0.015625l-0.03125 0.0625l-0.078125 -0.046875l0 -0.015625z"/><path fill="#c9daf8" fill-rule="evenodd" d="m495.33072 194.56627l87.49606 0l0 30.992126l-87.49606 0z"/><path fill-rule="evenodd" stroke="#000" stroke-linecap="butt" stroke-linejoin="round" stroke-width="1" d="m495.33072 194.56627l87.49606 0l0 30.992126l-87.49606 0z"/><path fill="#000" fill-rule="nonzero" d="m531.6832 210.09796l2.90625 0l0 4.15625q-0.6875 0.21875 -1.390625 0.328125q-0.703125 0.125 -1.625 0.125q-1.9375 0 -3.03125 -1.15625q-1.078125 -1.171875 -1.078125 -3.25q0 -1.34375 0.53125 -2.34375q0.546875 -1.0 1.546875 -1.53125q1.015625 -0.53125 2.359375 -0.53125q1.375 0 2.5625 0.5l-0.390625 0.875q-1.15625 -0.484375 -2.234375 -0.484375q-1.5625 0 -2.453125 0.9375q-0.875 0.921875 -0.875 2.578125q0 1.734375 0.84375 2.640625q0.859375 0.890625 2.5 0.890625q0.890625 0 1.734375 -0.21875l0 -2.625l-1.90625 0l0 -0.890625zm10.392578 -1.59375q0 1.3125 -0.890625 2.015625q-0.890625 0.6875 -2.53125 0.6875l-1.015625 0l0 3.375l-1.0 0l0 -8.5625l2.234375 0q3.203125 0 3.203125 2.484375zm-4.4375 1.859375l0.90625 0q1.3125 0 1.90625 -0.421875q0.59375 -0.4375 0.59375 -1.390625q0 -0.84375 -0.5625 -1.25q-0.546875 -0.421875 -1.734375 -0.421875l-1.109375 0l0 3.484375zm12.693359 -4.34375l0 5.53125q0 1.46875 -0.890625 2.3125q-0.875 0.84375 -2.421875 0.84375q-1.546875 0 -2.390625 -0.84375q-0.84375 -0.859375 -0.84375 -2.328125l0 -5.515625l1.0 0l0 5.578125q0 1.078125 0.578125 1.65625q0.59375 0.578125 1.71875 0.578125q1.09375 0 1.671875 -0.578125q0.59375 -0.578125 0.59375 -1.65625l0 -5.578125l0.984375 0z"/><path fill="#c9daf8" fill-rule="evenodd" d="m495.33072 236.43504l87.49606 0l0 30.992111l-87.49606 0z"/><path fill-rule="evenodd" stroke="#000" stroke-linecap="butt" stroke-linejoin="round" stroke-width="1" d="m495.33072 236.43504l87.49606 0l0 30.992111l-87.49606 0z"/><path fill="#000" fill-rule="nonzero" d="m532.15686 248.65422q-1.40625 0 -2.234375 0.9375q-0.8125 0.9375 -0.8125 2.578125q0 1.671875 0.78125 2.59375q0.796875 0.921875 2.25 0.921875q0.90625 0 2.046875 -0.328125l0 0.87501526q-0.890625 0.34375 -2.1875 0.34375q-1.890625 0 -2.921875 -1.1562653q-1.03125 -1.15625 -1.03125 -3.265625q0 -1.328125 0.484375 -2.3125q0.5 -1.0 1.4375 -1.53125q0.9375 -0.546875 2.203125 -0.546875q1.34375 0 2.359375 0.484375l-0.421875 0.859375q-0.984375 -0.453125 -1.953125 -0.453125zm9.3359375 1.71875q0 1.3125 -0.890625 2.015625q-0.890625 0.6875 -2.53125 0.6875l-1.015625 0l0 3.3750153l-1.0 0l0 -8.562515l2.234375 0q3.203125 0 3.203125 2.484375zm-4.4375 1.859375l0.90625 0q1.3125 0 1.90625 -0.421875q0.59375 -0.4375 0.59375 -1.390625q0 -0.84375 -0.5625 -1.25q-0.546875 -0.421875 -1.734375 -0.421875l-1.109375 0l0 3.484375zm12.693359 -4.34375l0 5.53125q0 1.46875 -0.890625 2.3125q-0.875 0.84376526 -2.421875 0.84376526q-1.546875 0 -2.390625 -0.84376526q-0.84375 -0.859375 -0.84375 -2.328125l0 -5.515625l1.0 0l0 5.578125q0 1.078125 0.578125 1.65625q0.59375 0.578125 1.71875 0.578125q1.09375 0 1.671875 -0.578125q0.59375 -0.578125 0.59375 -1.65625l0 -5.578125l0.984375 0z"/><path fill="#000" fill-opacity="0" fill-rule="evenodd" d="m214.95276 251.95473l15.968506 0"/><path fill-rule="evenodd" stroke="#000" stroke-linecap="butt" stroke-linejoin="round" stroke-width="1" d="m214.95276 251.95473l12.541412 0"/><path fill="#000" fill-rule="evenodd" stroke="#000" stroke-linecap="butt" stroke-width="1" d="m227.49417 251.95473l-1.124588 1.124588l3.0897675 -1.124588l-3.0897675 -1.124588z"/><path fill="#d9ead3" fill-rule="evenodd" d="m352.5748 58.32546l20.53543 0l0 20.535435l-20.53543 0z"/><path fill-rule="evenodd" stroke="#000" stroke-linecap="butt" stroke-linejoin="round" stroke-width="1" d="m352.5748 58.32546l20.53543 0l0 20.535435l-20.53543 0z"/><path fill="#000" fill-opacity="0" fill-rule="evenodd" d="m377.0735 52.719162l77.480316 0l0 31.748032l-77.480316 0z"/><path fill="#000" fill-rule="nonzero" d="m394.0891 68.87978q0 2.109375 -1.15625 3.234375q-1.140625 1.125 -3.3125 1.125l-2.375 0l0 -8.5625l2.625 0q2.0 0 3.109375 1.109375q1.109375 1.09375 1.109375 3.09375zm-1.046875 0.03125q0 -1.671875 -0.84375 -2.515625q-0.84375 -0.859375 -2.5 -0.859375l-1.453125 0l0 6.84375l1.21875 0q1.78125 0 2.671875 -0.875q0.90625 -0.875 0.90625 -2.59375zm6.763672 4.328125l-0.203125 -0.921875l-0.046875 0q-0.46875 0.609375 -0.953125 0.828125q-0.46875 0.21875 -1.1875 0.21875q-0.953125 0 -1.5 -0.5q-0.546875 -0.5 -0.546875 -1.40625q0 -1.9375 3.109375 -2.03125l1.09375 -0.03125l0 -0.40625q0 -0.75 -0.328125 -1.109375q-0.3125 -0.359375 -1.03125 -0.359375q-0.8125 0 -1.8125 0.484375l-0.3125 -0.75q0.484375 -0.25 1.046875 -0.390625q0.5625 -0.15625 1.140625 -0.15625q1.140625 0 1.6875 0.515625q0.5625 0.5 0.5625 1.625l0 4.390625l-0.71875 0zm-2.203125 -0.6875q0.90625 0 1.421875 -0.5q0.53125 -0.5 0.53125 -1.390625l0 -0.578125l-0.984375 0.03125q-1.15625 0.046875 -1.671875 0.375q-0.5 0.3125 -0.5 0.984375q0 0.53125 0.3125 0.8125q0.3125 0.265625 0.890625 0.265625zm7.001953 0q0.25 0 0.484375 -0.03125q0.25 -0.046875 0.390625 -0.078125l0 0.734375q-0.15625 0.078125 -0.46875 0.125q-0.296875 0.0625 -0.546875 0.0625q-1.859375 0 -1.859375 -1.96875l0 -3.828125l-0.921875 0l0 -0.46875l0.921875 -0.40625l0.40625 -1.359375l0.5625 0l0 1.484375l1.859375 0l0 0.75l-1.859375 0l0 3.78125q0 0.578125 0.265625 0.890625q0.28125 0.3125 0.765625 0.3125zm6.111328 0.6875l-0.203125 -0.921875l-0.046875 0q-0.46875 0.609375 -0.953125 0.828125q-0.46875 0.21875 -1.1875 0.21875q-0.953125 0 -1.5 -0.5q-0.546875 -0.5 -0.546875 -1.40625q0 -1.9375 3.109375 -2.03125l1.09375 -0.03125l0 -0.40625q0 -0.75 -0.328125 -1.109375q-0.3125 -0.359375 -1.03125 -0.359375q-0.8125 0 -1.8125 0.484375l-0.3125 -0.75q0.484375 -0.25 1.046875 -0.390625q0.5625 -0.15625 1.140625 -0.15625q1.140625 0 1.6875 0.515625q0.5625 0.5 0.5625 1.625l0 4.390625l-0.71875 0zm-2.203125 -0.6875q0.90625 0 1.421875 -0.5q0.53125 -0.5 0.53125 -1.390625l0 -0.578125l-0.984375 0.03125q-1.15625 0.046875 -1.671875 0.375q-0.5 0.3125 -0.5 0.984375q0 0.53125 0.3125 0.8125q0.3125 0.265625 0.890625 0.265625zm10.822266 0.6875l-1.0 0l0 -7.6875l-2.703125 0l0 -0.875l6.421875 0l0 0.875l-2.71875 0l0 7.6875zm2.8417969 -6.421875l1.046875 0l1.40625 3.65625q0.453125 1.265625 0.5625 1.8125l0.046875 0q0.078125 -0.296875 0.3125 -1.015625q0.25 -0.734375 1.609375 -4.453125l1.03125 0l-2.75 7.3125q-0.421875 1.078125 -0.96875 1.53125q-0.546875 0.46875 -1.34375 0.46875q-0.4375 0 -0.875 -0.109375l0 -0.78125q0.328125 0.078125 0.71875 0.078125q1.0 0 1.4375 -1.125l0.359375 -0.921875l-2.59375 -6.453125zm10.046875 6.546875q-0.625 0 -1.140625 -0.234375q-0.515625 -0.234375 -0.875 -0.71875l-0.0625 0q0.0625 0.5625 0.0625 1.0625l0 2.65625l-0.96875 0l0 -9.3125l0.796875 0l0.125 0.875l0.046875 0q0.375 -0.53125 0.875 -0.765625q0.5 -0.234375 1.140625 -0.234375q1.28125 0 1.96875 0.875q0.703125 0.875 0.703125 2.453125q0 1.578125 -0.703125 2.46875q-0.703125 0.875 -1.96875 0.875zm-0.140625 -5.84375q-0.984375 0 -1.421875 0.546875q-0.4375 0.546875 -0.453125 1.734375l0 0.21875q0 1.359375 0.453125 1.9375q0.453125 0.578125 1.453125 0.578125q0.828125 0 1.296875 -0.671875q0.46875 -0.671875 0.46875 -1.859375q0 -1.203125 -0.46875 -1.84375q-0.46875 -0.640625 -1.328125 -0.640625zm7.2285156 5.84375q-1.421875 0 -2.25 -0.875q-0.828125 -0.875 -0.828125 -2.40625q0 -1.5625 0.765625 -2.46875q0.765625 -0.921875 2.0625 -0.921875q1.203125 0 1.90625 0.796875q0.703125 0.796875 0.703125 2.09375l0 0.625l-4.421875 0q0.03125 1.125 0.5625 1.71875q0.546875 0.578125 1.53125 0.578125q1.03125 0 2.046875 -0.4375l0 0.875q-0.515625 0.21875 -0.984375 0.3125q-0.453125 0.109375 -1.09375 0.109375zm-0.265625 -5.84375q-0.78125 0 -1.25 0.5q-0.453125 0.5 -0.53125 1.390625l3.359375 0q0 -0.921875 -0.40625 -1.40625q-0.40625 -0.484375 -1.171875 -0.484375z"/><path fill="#c9daf8" fill-rule="evenodd" d="m469.5223 58.951443l20.53543 0l0 20.535435l-20.53543 0z"/><path fill-rule="evenodd" stroke="#000" stroke-linecap="butt" stroke-linejoin="round" stroke-width="1" d="m469.5223 58.951443l20.53543 0l0 20.535435l-20.53543 0z"/><path fill="#000" fill-opacity="0" fill-rule="evenodd" d="m494.021 53.345146l100.0 0l0 31.748032l-100.0 0z"/><path fill="#000" fill-rule="nonzero" d="m504.19287 65.30264l2.421875 0q1.703125 0 2.46875 0.515625q0.765625 0.5 0.765625 1.59375q0 0.765625 -0.421875 1.265625q-0.421875 0.5 -1.25 0.640625l0 0.0625q1.953125 0.328125 1.953125 2.046875q0 1.140625 -0.78125 1.796875q-0.765625 0.640625 -2.15625 0.640625l-3.0 0l0 -8.5625zm1.0 3.65625l1.640625 0q1.0625 0 1.515625 -0.328125q0.46875 -0.328125 0.46875 -1.109375q0 -0.71875 -0.515625 -1.03125q-0.515625 -0.328125 -1.640625 -0.328125l-1.46875 0l0 2.796875zm0 0.84375l0 3.21875l1.796875 0q1.03125 0 1.546875 -0.40625q0.53125 -0.40625 0.53125 -1.265625q0 -0.796875 -0.546875 -1.171875q-0.53125 -0.375 -1.625 -0.375l-1.703125 0zm10.587891 4.0625l-0.203125 -0.921875l-0.046875 0q-0.46875 0.609375 -0.953125 0.828125q-0.46875 0.21875 -1.1875 0.21875q-0.953125 0 -1.5 -0.5q-0.546875 -0.5 -0.546875 -1.40625q0 -1.9375 3.109375 -2.03125l1.09375 -0.03125l0 -0.40625q0 -0.75 -0.328125 -1.109375q-0.3125 -0.359375 -1.03125 -0.359375q-0.8125 0 -1.8125 0.484375l-0.3125 -0.75q0.484375 -0.25 1.046875 -0.390625q0.5625 -0.15625 1.140625 -0.15625q1.140625 0 1.6875 0.515625q0.5625 0.5 0.5625 1.625l0 4.390625l-0.71875 0zm-2.203125 -0.6875q0.90625 0 1.421875 -0.5q0.53125 -0.5 0.53125 -1.390625l0 -0.578125l-0.984375 0.03125q-1.15625 0.046875 -1.671875 0.375q-0.5 0.3125 -0.5 0.984375q0 0.53125 0.3125 0.8125q0.3125 0.265625 0.890625 0.265625zm7.486328 0.8125q-1.390625 0 -2.15625 -0.859375q-0.765625 -0.859375 -0.765625 -2.4375q0 -1.609375 0.78125 -2.484375q0.78125 -0.890625 2.203125 -0.890625q0.46875 0 0.921875 0.109375q0.46875 0.09375 0.734375 0.234375l-0.296875 0.828125q-0.328125 -0.140625 -0.703125 -0.21875q-0.375 -0.078125 -0.671875 -0.078125q-1.953125 0 -1.953125 2.484375q0 1.1875 0.46875 1.828125q0.484375 0.625 1.421875 0.625q0.796875 0 1.640625 -0.34375l0 0.859375q-0.640625 0.34375 -1.625 0.34375zm4.1191406 -3.40625q0.25 -0.359375 0.765625 -0.9375l2.0625 -2.203125l1.15625 0l-2.59375 2.734375l2.78125 3.6875l-1.171875 0l-2.28125 -3.03125l-0.71875 0.625l0 2.40625l-0.96875 0l0 -9.125l0.96875 0l0 4.84375q0 0.3125 -0.046875 1.0l0.046875 0zm8.048828 3.40625q-1.421875 0 -2.25 -0.875q-0.828125 -0.875 -0.828125 -2.40625q0 -1.5625 0.765625 -2.46875q0.765625 -0.921875 2.0625 -0.921875q1.203125 0 1.90625 0.796875q0.703125 0.796875 0.703125 2.09375l0 0.625l-4.421875 0q0.03125 1.125 0.5625 1.71875q0.546875 0.578125 1.53125 0.578125q1.03125 0 2.046875 -0.4375l0 0.875q-0.515625 0.21875 -0.984375 0.3125q-0.453125 0.109375 -1.09375 0.109375zm-0.265625 -5.84375q-0.78125 0 -1.25 0.5q-0.453125 0.5 -0.53125 1.390625l3.359375 0q0 -0.921875 -0.40625 -1.40625q-0.40625 -0.484375 -1.171875 -0.484375zm8.669922 5.71875l0 -4.15625q0 -0.78125 -0.359375 -1.171875q-0.34375 -0.390625 -1.109375 -0.390625q-1.015625 0 -1.484375 0.546875q-0.46875 0.546875 -0.46875 1.796875l0 3.375l-0.96875 0l0 -6.421875l0.796875 0l0.15625 0.875l0.046875 0q0.296875 -0.46875 0.828125 -0.734375q0.546875 -0.265625 1.203125 -0.265625q1.171875 0 1.75 0.5625q0.59375 0.5625 0.59375 1.796875l0 4.1875l-0.984375 0zm7.3496094 -0.859375l-0.0625 0q-0.671875 0.984375 -2.015625 0.984375q-1.25 0 -1.953125 -0.859375q-0.703125 -0.875 -0.703125 -2.453125q0 -1.59375 0.703125 -2.46875q0.703125 -0.890625 1.953125 -0.890625q1.3125 0 2.015625 0.953125l0.078125 0l-0.046875 -0.453125l-0.03125 -0.453125l0 -2.625l0.984375 0l0 9.125l-0.796875 0l-0.125 -0.859375zm-1.953125 0.15625q1.0 0 1.4375 -0.53125q0.453125 -0.546875 0.453125 -1.75l0 -0.203125q0 -1.375 -0.453125 -1.953125q-0.453125 -0.578125 -1.4375 -0.578125q-0.859375 0 -1.3125 0.671875q-0.453125 0.65625 -0.453125 1.859375q0 1.234375 0.4375 1.859375q0.453125 0.625 1.328125 0.625z"/><path fill="#d9ead3" fill-rule="evenodd" d="m26.510082 150.08989l87.49606 0l0 30.992126l-87.49606 0z"/><path fill-rule="evenodd" stroke="#000" stroke-linecap="butt" stroke-linejoin="round" stroke-width="1" d="m26.510082 150.08989l87.49606 0l0 30.992126l-87.49606 0z"/><path fill="#000" fill-rule="nonzero" d="m51.586056 162.60596q-0.796875 0.578125 -1.734375 0.578125q-0.921875 0 -1.296875 -0.546875q-0.375 -0.546875 -0.375 -1.796875q0 -0.203125 0.015625 -0.703125l0.109375 -1.8125l-1.203125 0l0 -0.703125l1.25 0l0.09375 -1.46875l0.953125 -0.15625l0.125 0l0.015625 0.0625q-0.09375 0.125 -0.140625 0.21875q-0.03125 0.078125 -0.046875 0.25l-0.125 1.09375l1.8125 0l0 0.703125l-1.859375 0l-0.109375 1.859375q-0.03125 0.484375 -0.03125 0.640625q0 0.96875 0.21875 1.3125q0.234375 0.328125 0.71875 0.328125q0.359375 0 0.65625 -0.125q0.3125 -0.140625 0.6875 -0.421875l0.265625 0.6875zm5.890671 -6.15625l-0.015625 0.015625q-0.328125 -0.421875 -0.5625 -0.5625q-0.234375 -0.15625 -0.65625 -0.15625q-0.5625 0 -0.890625 0.34375q-0.328125 0.328125 -0.328125 1.078125l0 0.453125l1.8125 0l0 0.6875l-1.8125 0l0 4.796875l-0.828125 0l0 -4.796875l-1.1875 0l0 -0.6875l1.1875 0l0 -0.453125q0 -1.0625 0.546875 -1.578125q0.546875 -0.53125 1.46875 -0.53125q0.53125 0 0.984375 0.1875q0.453125 0.1875 0.734375 0.5625l-0.453125 0.640625zm-0.140625 0.03125q0 -0.03125 0.046875 0q0.046875 0.015625 0.0625 0.015625l-0.046875 0.046875l-0.0625 -0.046875l0 -0.015625zm0.125 -0.015625q0.078125 0.09375 0.03125 0.0625q-0.03125 -0.03125 -0.046875 -0.03125l0.015625 -0.03125zm3.6562958 6.765625q-0.296875 0 -0.5 -0.203125q-0.203125 -0.203125 -0.203125 -0.46875q0 -0.28125 0.203125 -0.484375q0.203125 -0.203125 0.5 -0.203125q0.265625 0 0.46875 0.203125q0.21875 0.203125 0.21875 0.484375q0 0.265625 -0.21875 0.46875q-0.203125 0.203125 -0.46875 0.203125zm5.1250496 -3.875l-0.578125 0.65625l0 3.09375l-0.90625 0l0 -7.46875l1.015625 0l0 0.078125q-0.078125 0.078125 -0.09375 0.15625q-0.015625 0.078125 -0.015625 0.28125l0 2.921875l3.125 -3.5q0.296875 0.0625 0.609375 0.0625l0.3125 0l-2.828125 3.21875l3.03125 4.25l-1.078125 0.046875l-2.59375 -3.796875zm7.281296 3.875q-1.21875 0 -1.953125 -0.75q-0.71875 -0.75 -0.71875 -2.09375q0 -0.90625 0.328125 -1.5625q0.34375 -0.65625 0.90625 -0.984375q0.578125 -0.34375 1.28125 -0.34375q1.0 0 1.609375 0.65625q0.625 0.65625 0.625 1.9375q0 0.140625 -0.03125 0.40625l-3.890625 0q0.046875 1.0 0.5625 1.515625q0.515625 0.515625 1.296875 0.515625q0.875 0 1.421875 -0.609375l0.484375 0.46875q-0.703125 0.84375 -1.921875 0.84375zm1.203125 -3.40625q0 -0.78125 -0.390625 -1.21875q-0.390625 -0.453125 -1.03125 -0.453125q-0.59375 0 -1.046875 0.421875q-0.4375 0.421875 -0.546875 1.25l3.015625 0zm6.640671 -1.0625l0 0.015625q-0.34375 -0.328125 -0.578125 -0.4375q-0.234375 -0.109375 -0.546875 -0.109375q-0.4375 0 -0.828125 0.21875q-0.375 0.21875 -0.625 0.65625q-0.234375 0.4375 -0.234375 1.09375l0 2.921875l-0.875 0l0 -5.5l0.90625 0l-0.03125 1.015625q0.234375 -0.546875 0.703125 -0.84375q0.484375 -0.296875 1.046875 -0.296875q0.875 0 1.453125 0.59375l-0.390625 0.671875zm0 0.015625q0.09375 0.0625 0.046875 0.0625q-0.046875 -0.015625 -0.0625 -0.03125l0.015625 -0.03125zm-0.125 0.03125q0 -0.03125 0.03125 -0.015625q0.03125 0 0.078125 0.015625l-0.03125 0.0625l-0.078125 -0.046875l0 -0.015625zm3.9375458 -1.3125q1.1875 0 1.796875 0.625q0.625 0.609375 0.625 2.0625l0 2.921875l-0.9375 0l0 -0.84375q-0.5 0.96875 -1.875 0.96875q-0.90625 0 -1.421875 -0.40625q-0.515625 -0.421875 -0.515625 -1.09375q0 -0.578125 0.359375 -1.0q0.375 -0.4375 1.0 -0.671875q0.640625 -0.234375 1.390625 -0.234375q0.6875 0 1.234375 0.0625q-0.0625 -0.921875 -0.484375 -1.296875q-0.40625 -0.375 -1.21875 -0.375q-0.421875 0 -0.796875 0.15625q-0.375 0.15625 -0.6875 0.453125l-0.421875 -0.5625q0.765625 -0.765625 1.953125 -0.765625zm-0.3125 5.078125q0.890625 0 1.40625 -0.515625q0.515625 -0.53125 0.5625 -1.515625q-0.53125 -0.078125 -1.15625 -0.078125q-0.90625 0 -1.4375 0.296875q-0.53125 0.296875 -0.53125 0.921875q0 0.890625 1.15625 0.890625zm6.781296 -2.703125q1.03125 0.3125 1.453125 0.6875q0.4375 0.359375 0.4375 0.953125q0 0.734375 -0.59375 1.234375q-0.578125 0.484375 -1.671875 0.484375q-1.390625 0 -2.328125 -0.875l0.46875 -0.8125l0.015625 -0.015625l0.015625 0.015625q0.375 0.484375 0.765625 0.734375q0.40625 0.234375 1.078125 0.234375q0.65625 0 1.015625 -0.234375q0.375 -0.234375 0.375 -0.640625q0 -0.359375 -0.296875 -0.578125q-0.296875 -0.234375 -1.078125 -0.484375q-2.0625 -0.59375 -2.0625 -1.703125q0 -0.640625 0.515625 -1.0q0.53125 -0.375 1.5 -0.375q0.75 0 1.25 0.203125q0.515625 0.203125 0.9375 0.65625l-0.5 0.59375l0 0.015625q-0.265625 -0.390625 -0.734375 -0.609375q-0.453125 -0.21875 -0.921875 -0.21875q-0.515625 0 -0.859375 0.1875q-0.328125 0.171875 -0.328125 0.5q0 0.296875 0.328125 0.546875q0.34375 0.25 1.21875 0.5zm1.15625 -0.875q0 -0.0625 0.09375 0l-0.03125 0.046875l-0.0625 -0.046875zm0.140625 -0.03125q0.03125 0.046875 0.015625 0.0625q0 0.015625 -0.03125 0q-0.015625 -0.015625 -0.03125 -0.03125l0.046875 -0.03125zm-3.375 2.53125q0 0.046875 -0.109375 0l0.03125 -0.0625l0.078125 0.046875l0 0.015625zm-0.140625 0.03125q-0.03125 -0.046875 -0.03125 -0.046875q0.015625 0 0.0625 0.015625l-0.03125 0.03125z"/><path fill="#000" fill-rule="nonzero" d="m55.711124 171.62158l0.796875 0l0 0.546875q0.1875 -0.3125 0.484375 -0.484375q0.3125 -0.1875 0.625 -0.1875q0.359375 0 0.625 0.234375q0.28125 0.21875 0.359375 0.5625q0.140625 -0.359375 0.46875 -0.578125q0.34375 -0.21875 0.765625 -0.21875q0.53125 0 0.796875 0.390625q0.28125 0.375 0.25 1.0l0 4.21875l-0.78125 0l0 -3.890625q0 -0.6875 -0.140625 -0.890625q-0.125 -0.203125 -0.390625 -0.203125q-0.203125 0 -0.40625 0.203125q-0.203125 0.203125 -0.34375 0.53125q-0.125 0.3125 -0.125 0.625l0 3.625l-0.796875 0l0 -3.8125q0 -0.671875 -0.125 -0.90625q-0.125 -0.234375 -0.46875 -0.234375q-0.1875 0 -0.375 0.171875q-0.1875 0.15625 -0.3125 0.453125q-0.109375 0.28125 -0.109375 0.671875l0 3.65625l-0.796875 0l0 -5.484375zm8.546925 5.578125q-0.7343788 0 -1.3125038 -0.359375q-0.578125 -0.359375 -0.90625 -1.0q-0.3125 -0.65625 -0.3125 -1.484375q0 -0.828125 0.3125 -1.46875q0.328125 -0.65625 0.90625 -1.015625q0.578125 -0.375 1.3125038 -0.375q0.734375 0 1.3125 0.375q0.578125 0.359375 0.890625 1.015625q0.328125 0.640625 0.328125 1.46875q0 0.828125 -0.328125 1.484375q-0.3125 0.640625 -0.890625 1.0q-0.578125 0.359375 -1.3125 0.359375zm0 -0.71875q0.46875 0 0.828125 -0.265625q0.375 -0.28125 0.578125 -0.765625q0.21875 -0.484375 0.21875 -1.109375q0 -0.9375 -0.46875 -1.53125q-0.453125 -0.59375 -1.15625 -0.59375q-0.7031288 0 -1.1718788 0.59375q-0.453125 0.59375 -0.453125 1.53125q0 0.625 0.203125 1.109375q0.21875 0.484375 0.578125 0.765625q0.375 0.265625 0.8437538 0.265625zm5.812546 0.75q-0.59375 0 -1.109375 -0.328125q-0.515625 -0.34375 -0.84375 -1.0q-0.3125 -0.65625 -0.3125 -1.59375q0 -0.953125 0.328125 -1.578125q0.34375 -0.640625 0.859375 -0.9375q0.53125 -0.3125 1.125 -0.3125q0.546875 0 0.953125 0.25q0.421875 0.25 0.640625 0.6875l0 -3.296875l0.90625 0l0 0.09375q-0.0625 0.0625 -0.09375 0.15625q-0.015625 0.078125 -0.015625 0.28125l0.015625 6.59375q0 0.296875 0.015625 0.484375q0.015625 0.1875 0.109375 0.375l-0.859375 0q-0.078125 -0.1875 -0.09375 -0.375q-0.015625 -0.1875 -0.015625 -0.484375q-0.265625 0.46875 -0.6875 0.734375q-0.40625 0.25 -0.921875 0.25zm0.125 -0.765625q0.75 0 1.09375 -0.578125q0.34375 -0.59375 0.34375 -1.546875q0 -0.984375 -0.375 -1.5625q-0.375 -0.59375 -1.125 -0.59375q-0.734375 0 -1.125 0.53125q-0.375 0.53125 -0.375 1.46875q0 1.046875 0.40625 1.671875q0.40625 0.609375 1.15625 0.609375zm6.328171 0.765625q-1.21875 0 -1.953125 -0.75q-0.71875 -0.75 -0.71875 -2.09375q0 -0.90625 0.328125 -1.5625q0.34375 -0.65625 0.90625 -0.984375q0.578125 -0.34375 1.28125 -0.34375q1.0 0 1.609375 0.65625q0.625 0.65625 0.625 1.9375q0 0.140625 -0.03125 0.40625l-3.890625 0q0.046875 1.0 0.5625 1.515625q0.515625 0.515625 1.296875 0.515625q0.875 0 1.421875 -0.609375l0.484375 0.46875q-0.703125 0.84375 -1.921875 0.84375zm1.203125 -3.40625q0 -0.78125 -0.390625 -1.21875q-0.390625 -0.453125 -1.03125 -0.453125q-0.59375 0 -1.046875 0.421875q-0.4375 0.421875 -0.546875 1.25l3.015625 0zm2.4844208 3.28125l0 -0.703125l1.609375 0l0 -6.578125l-1.546875 0l0 -0.703125l2.421875 0l0 7.28125l1.609375 0l0 0.703125l-4.09375 0z"/><path fill="#f4cccc" fill-rule="evenodd" d="m76.08137 63.718502l87.496056 0l0 30.99213l-87.496056 0z"/><path fill-rule="evenodd" stroke="#000" stroke-linecap="butt" stroke-linejoin="round" stroke-width="1" d="m76.08137 63.718502l87.496056 0l0 30.99213l-87.496056 0z"/><path fill="#000" fill-rule="nonzero" d="m101.15734 83.234566q-0.796875 0.578125 -1.734375 0.578125q-0.921875 0 -1.296875 -0.546875q-0.375 -0.546875 -0.375 -1.796875q0 -0.203125 0.015625 -0.703125l0.109375 -1.8125l-1.203125 0l0 -0.703125l1.25 0l0.09375 -1.46875l0.953125 -0.15625l0.125 0l0.015625 0.0625q-0.09375 0.125 -0.140625 0.21875q-0.03125 0.078125 -0.046875 0.25l-0.125 1.09375l1.8125 0l0 0.703125l-1.859375 0l-0.109375 1.859375q-0.03125 0.484375 -0.03125 0.640625q0 0.96875 0.21875 1.3125q0.234375 0.328125 0.71875 0.328125q0.359375 0 0.65625 -0.125q0.3125 -0.140625 0.6875 -0.421875l0.265625 0.6875zm5.890671 -6.15625l-0.015625 0.015625q-0.328125 -0.421875 -0.5625 -0.5625q-0.234375 -0.15625 -0.65625 -0.15625q-0.5625 0 -0.890625 0.34375q-0.328125 0.328125 -0.328125 1.078125l0 0.453125l1.8125 0l0 0.6875l-1.8125 0l0 4.796875l-0.828125 0l0 -4.796875l-1.1875 0l0 -0.6875l1.1875 0l0 -0.453125q0 -1.0625 0.546875 -1.578125q0.546875 -0.53125 1.46875 -0.53125q0.53125 0 0.984375 0.1875q0.453125 0.1875 0.734375 0.5625l-0.453125 0.640625zm-0.140625 0.03125q0 -0.03125 0.046875 0q0.046875 0.015625 0.0625 0.015625l-0.046875 0.046875l-0.0625 -0.046875l0 -0.015625zm0.125 -0.015625q0.078125 0.09375 0.03125 0.0625q-0.03125 -0.03125 -0.046875 -0.03125l0.015625 -0.03125zm3.6562958 6.765625q-0.296875 0 -0.5 -0.203125q-0.203125 -0.203125 -0.203125 -0.46875q0 -0.28125 0.203125 -0.484375q0.203125 -0.203125 0.5 -0.203125q0.265625 0 0.46875 0.203125q0.21875 0.203125 0.21875 0.484375q0 0.265625 -0.21875 0.46875q-0.203125 0.203125 -0.46875 0.203125zm5.125046 -3.875l-0.578125 0.65625l0 3.09375l-0.90625 0l0 -7.46875l1.015625 0l0 0.078125q-0.078125 0.078125 -0.09375 0.15625q-0.015625 0.078125 -0.015625 0.28125l0 2.921875l3.125 -3.5q0.296875 0.0625 0.609375 0.0625l0.3125 0l-2.828125 3.21875l3.03125 4.25l-1.078125 0.046875l-2.59375 -3.796875zm7.281296 3.875q-1.21875 0 -1.953125 -0.75q-0.71875 -0.75 -0.71875 -2.09375q0 -0.90625 0.328125 -1.5625q0.34375 -0.65625 0.90625 -0.984375q0.578125 -0.34375 1.28125 -0.34375q1.0 0 1.609375 0.65625q0.625 0.65625 0.625 1.9375q0 0.140625 -0.03125 0.40625l-3.890625 0q0.046875 1.0 0.5625 1.515625q0.515625 0.515625 1.296875 0.515625q0.875 0 1.421875 -0.609375l0.484375 0.46875q-0.703125 0.84375 -1.921875 0.84375zm1.203125 -3.40625q0 -0.78125 -0.390625 -1.21875q-0.390625 -0.453125 -1.03125 -0.453125q-0.59375 0 -1.046875 0.421875q-0.4375 0.421875 -0.546875 1.25l3.015625 0zm6.640663 -1.0625l0 0.015625q-0.34375 -0.328125 -0.578125 -0.4375q-0.234375 -0.109375 -0.546875 -0.109375q-0.4375 0 -0.828125 0.21875q-0.375 0.21875 -0.625 0.65625q-0.234375 0.4375 -0.234375 1.09375l0 2.921875l-0.8749924 0l0 -5.5l0.9062424 0l-0.03125 1.015625q0.234375 -0.546875 0.703125 -0.84375q0.484375 -0.296875 1.046875 -0.296875q0.875 0 1.453125 0.59375l-0.390625 0.671875zm0 0.015625q0.09375 0.0625 0.046875 0.0625q-0.046875 -0.015625 -0.0625 -0.03125l0.015625 -0.03125zm-0.125 0.03125q0 -0.03125 0.03125 -0.015625q0.03125 0 0.078125 0.015625l-0.03125 0.0625l-0.078125 -0.046875l0 -0.015625zm3.9375458 -1.3125q1.1875 0 1.796875 0.625q0.625 0.609375 0.625 2.0625l0 2.921875l-0.9375 0l0 -0.84375q-0.5 0.96875 -1.875 0.96875q-0.90625 0 -1.421875 -0.40625q-0.515625 -0.421875 -0.515625 -1.09375q0 -0.578125 0.359375 -1.0q0.375 -0.4375 1.0 -0.671875q0.640625 -0.234375 1.390625 -0.234375q0.6875 0 1.234375 0.0625q-0.0625 -0.921875 -0.484375 -1.296875q-0.40625 -0.375 -1.21875 -0.375q-0.421875 0 -0.796875 0.15625q-0.375 0.15625 -0.6875 0.453125l-0.421875 -0.5625q0.765625 -0.765625 1.953125 -0.765625zm-0.3125 5.078125q0.890625 0 1.40625 -0.515625q0.515625 -0.53125 0.5625 -1.515625q-0.53125 -0.078125 -1.15625 -0.078125q-0.90625 0 -1.4375 0.296875q-0.53125 0.296875 -0.53125 0.921875q0 0.890625 1.15625 0.890625zm6.781296 -2.703125q1.03125 0.3125 1.453125 0.6875q0.4375 0.359375 0.4375 0.953125q0 0.734375 -0.59375 1.234375q-0.578125 0.484375 -1.671875 0.484375q-1.390625 0 -2.328125 -0.875l0.46875 -0.8125l0.015625 -0.015625l0.015625 0.015625q0.375 0.484375 0.765625 0.734375q0.40625 0.234375 1.078125 0.234375q0.65625 0 1.015625 -0.234375q0.375 -0.234375 0.375 -0.640625q0 -0.359375 -0.296875 -0.578125q-0.296875 -0.234375 -1.078125 -0.484375q-2.0625 -0.59375 -2.0625 -1.703125q0 -0.640625 0.515625 -1.0q0.53125 -0.375 1.5 -0.375q0.75 0 1.25 0.203125q0.515625 0.203125 0.9375 0.65625l-0.5 0.59375l0 0.015625q-0.265625 -0.390625 -0.734375 -0.609375q-0.453125 -0.21875 -0.921875 -0.21875q-0.515625 0 -0.859375 0.1875q-0.328125 0.171875 -0.328125 0.5q0 0.296875 0.328125 0.546875q0.34375 0.25 1.21875 0.5zm1.15625 -0.875q0 -0.0625 0.09375 0l-0.03125 0.046875l-0.0625 -0.046875zm0.140625 -0.03125q0.03125 0.046875 0.015625 0.0625q0 0.015625 -0.03125 0q-0.015625 -0.015625 -0.03125 -0.03125l0.046875 -0.03125zm-3.375 2.53125q0 0.046875 -0.109375 0l0.03125 -0.0625l0.078125 0.046875l0 0.015625zm-0.140625 0.03125q-0.03125 -0.046875 -0.03125 -0.046875q0.015625 0 0.0625 0.015625l-0.03125 0.03125z"/><path fill="#f4cccc" fill-rule="evenodd" d="m176.69817 63.71982l87.49605 0l0 30.992126l-87.49605 0z"/><path fill-rule="evenodd" stroke="#000" stroke-linecap="butt" stroke-linejoin="round" stroke-width="1" d="m176.69817 63.71982l87.49605 0l0 30.992126l-87.49605 0z"/><path fill="#000" fill-rule="nonzero" d="m187.2167 83.73588l1.8125 -8.5625l1.0 0l-1.625 7.65625l3.3125 0l-0.1875 0.90625l-4.3125 0zm8.955078 -6.5q1.109375 0 1.75 0.65625q0.65625 0.65625 0.65625 1.8125q0 1.09375 -0.421875 2.078125q-0.421875 0.984375 -1.140625 1.515625q-0.71875 0.53125 -1.625 0.53125q-1.125 0 -1.765625 -0.65625q-0.640625 -0.671875 -0.640625 -1.8125q0 -1.125 0.421875 -2.09375q0.4375 -0.984375 1.15625 -1.5q0.734375 -0.53125 1.609375 -0.53125zm1.390625 2.328125q0 -0.671875 -0.375 -1.078125q-0.359375 -0.421875 -0.984375 -0.421875q-0.640625 0 -1.15625 0.4375q-0.5 0.421875 -0.78125 1.203125q-0.28125 0.765625 -0.28125 1.703125q0 0.765625 0.375 1.1875q0.375 0.421875 1.078125 0.421875q0.609375 0 1.09375 -0.421875q0.484375 -0.4375 0.75 -1.21875q0.28125 -0.796875 0.28125 -1.8125zm6.451172 4.171875l-0.1875 -3.53125q-0.03125 -0.546875 -0.03125 -1.0l0 -0.921875l-0.046875 0l-0.296875 0.6875l-0.484375 1.109375l-1.703125 3.65625l-1.1875 0l-0.25 -6.421875l0.953125 0l0.109375 3.484375l0 0.515625q0 0.859375 -0.046875 1.578125l0.03125 0q0.28125 -0.734375 0.8125 -1.890625l1.71875 -3.6875l1.078125 0l0.21875 3.484375q0.03125 0.984375 0.03125 1.53125l0 0.3125l-0.015625 0.25l0.03125 0q0.171875 -0.515625 0.484375 -1.28125q0.328125 -0.78125 1.90625 -4.296875l1.03125 0l-2.953125 6.421875l-1.203125 0zm8.15625 0l-0.984375 0l1.953125 -9.125l0.984375 0l-1.953125 9.125zm4.625 0.125q-1.078125 0 -1.703125 -0.640625q-0.609375 -0.640625 -0.609375 -1.78125q0 -1.09375 0.4375 -2.109375q0.4375 -1.015625 1.15625 -1.578125q0.71875 -0.5625 1.578125 -0.5625q0.90625 0 1.359375 0.390625q0.453125 0.390625 0.453125 1.09375q0 1.046875 -0.984375 1.65625q-0.96875 0.59375 -2.78125 0.59375l-0.1875 0l-0.03125 0.46875q0 0.765625 0.359375 1.203125q0.359375 0.4375 1.125 0.4375q0.359375 0 0.75 -0.109375q0.390625 -0.109375 0.96875 -0.390625l0 0.859375q-0.546875 0.25 -0.96875 0.359375q-0.421875 0.109375 -0.921875 0.109375zm0.8125 -5.828125q-0.609375 0 -1.140625 0.5625q-0.53125 0.546875 -0.8125 1.515625l0.078125 0q1.328125 0 2.03125 -0.34375q0.71875 -0.34375 0.71875 -1.015625q0 -0.3125 -0.21875 -0.515625q-0.203125 -0.203125 -0.65625 -0.203125zm3.5273438 5.703125l-0.734375 -6.421875l0.984375 0l0.375 3.59375q0.140625 1.515625 0.140625 2.125l0.03125 0q0.75 -1.625 1.046875 -2.1875l1.90625 -3.53125l1.046875 0l-3.46875 6.421875l-1.328125 0zm7.1210938 0.125q-1.078125 0 -1.703125 -0.640625q-0.609375 -0.640625 -0.609375 -1.78125q0 -1.09375 0.4375 -2.109375q0.4375 -1.015625 1.15625 -1.578125q0.71875 -0.5625 1.578125 -0.5625q0.90625 0 1.359375 0.390625q0.453125 0.390625 0.453125 1.09375q0 1.046875 -0.984375 1.65625q-0.96875 0.59375 -2.78125 0.59375l-0.1875 0l-0.03125 0.46875q0 0.765625 0.359375 1.203125q0.359375 0.4375 1.125 0.4375q0.359375 0 0.75 -0.109375q0.390625 -0.109375 0.96875 -0.390625l0 0.859375q-0.546875 0.25 -0.96875 0.359375q-0.421875 0.109375 -0.921875 0.109375zm0.8125 -5.828125q-0.609375 0 -1.140625 0.5625q-0.53125 0.546875 -0.8125 1.515625l0.078125 0q1.328125 0 2.03125 -0.34375q0.71875 -0.34375 0.71875 -1.015625q0 -0.3125 -0.21875 -0.515625q-0.203125 -0.203125 -0.65625 -0.203125zm3.5273438 5.703125l-0.984375 0l1.953125 -9.125l0.984375 0l-1.953125 9.125zm9.6171875 -2.71875l-2.90625 0l-1.4375 2.71875l-1.109375 0l4.6875 -8.5625l1.015625 0l1.078125 8.5625l-1.0 0l-0.328125 -2.71875zm-0.109375 -0.921875l-0.203125 -1.75q-0.140625 -1.046875 -0.171875 -2.046875q-0.21875 0.515625 -0.46875 1.03125q-0.25 0.5 -1.46875 2.765625l2.3125 0zm8.802734 -2.71875q0 1.453125 -0.96875 2.21875q-0.953125 0.765625 -2.8125 0.765625l-0.796875 0l-0.71875 3.375l-1.0 0l1.8125 -8.5625l1.9375 0q1.25 0 1.890625 0.5625q0.65625 0.546875 0.65625 1.640625zm-4.390625 2.140625l0.78125 0q1.265625 0 1.921875 -0.53125q0.65625 -0.546875 0.65625 -1.578125q0 -0.734375 -0.40625 -1.046875q-0.40625 -0.328125 -1.25 -0.328125l-0.96875 0l-0.734375 3.484375zm4.8847656 4.21875l1.828125 -8.5625l0.984375 0l-1.828125 8.5625l-0.984375 0z"/><path fill="#c9daf8" fill-rule="evenodd" d="m495.33072 152.69751l87.49606 0l0 30.992126l-87.49606 0z"/><path fill-rule="evenodd" stroke="#000" stroke-linecap="butt" stroke-linejoin="round" stroke-width="1" d="m495.33072 152.69751l87.49606 0l0 30.992126l-87.49606 0z"/><path fill="#000" fill-rule="nonzero" d="m527.26624 172.71358l-1.140625 0l-4.6875 -7.1875l-0.046875 0q0.09375 1.265625 0.09375 2.3125l0 4.875l-0.921875 0l0 -8.5625l1.125 0l4.671875 7.15625l0.046875 0q0 -0.15625 -0.046875 -1.015625q-0.046875 -0.859375 -0.03125 -1.234375l0 -4.90625l0.9375 0l0 8.5625zm9.046875 0l-1.140625 0l-4.6875 -7.1875l-0.046875 0q0.09375 1.265625 0.09375 2.3125l0 4.875l-0.921875 0l0 -8.5625l1.125 0l4.671875 7.15625l0.046875 0q0 -0.15625 -0.046875 -1.015625q-0.046875 -0.859375 -0.03125 -1.234375l0 -4.90625l0.9375 0l0 8.5625zm10.8515625 0l-1.0625 -2.71875l-3.4375 0l-1.046875 2.71875l-1.015625 0l3.390625 -8.609375l0.828125 0l3.375 8.609375l-1.03125 0zm-1.375 -3.625l-1.0 -2.65625q-0.1875 -0.5 -0.390625 -1.234375q-0.140625 0.5625 -0.375 1.234375l-1.0 2.65625l2.765625 0zm9.015625 -2.453125q0 1.3125 -0.890625 2.015625q-0.890625 0.6875 -2.53125 0.6875l-1.015625 0l0 3.375l-1.0 0l0 -8.5625l2.234375 0q3.203125 0 3.203125 2.484375zm-4.4375 1.859375l0.90625 0q1.3125 0 1.90625 -0.421875q0.59375 -0.4375 0.59375 -1.390625q0 -0.84375 -0.5625 -1.25q-0.546875 -0.421875 -1.734375 -0.421875l-1.109375 0l0 3.484375zm6.2246094 4.21875l0 -8.5625l1.0 0l0 8.5625l-1.0 0z"/><path fill="#c9daf8" fill-rule="evenodd" d="m495.33072 110.82874l87.49606 0l0 30.992119l-87.49606 0z"/><path fill-rule="evenodd" stroke="#000" stroke-linecap="butt" stroke-linejoin="round" stroke-width="1" d="m495.33072 110.82874l87.49606 0l0 30.992119l-87.49606 0z"/><path fill="#000" fill-rule="nonzero" d="m535.1793 130.2198q0 -0.390625 0.171875 -0.59375q0.1875 -0.203125 0.515625 -0.203125q0.34375 0 0.53125 0.203125q0.1875 0.203125 0.1875 0.59375q0 0.390625 -0.1875 0.59375q-0.1875 0.203125 -0.53125 0.203125q-0.296875 0 -0.5 -0.1875q-0.1875 -0.1875 -0.1875 -0.609375zm3.1933594 0q0 -0.390625 0.171875 -0.59375q0.1875 -0.203125 0.515625 -0.203125q0.34375 0 0.53125 0.203125q0.1875 0.203125 0.1875 0.59375q0 0.390625 -0.1875 0.59375q-0.1875 0.203125 -0.53125 0.203125q-0.296875 0 -0.5 -0.1875q-0.1875 -0.1875 -0.1875 -0.609375zm3.1933594 0q0 -0.390625 0.171875 -0.59375q0.1875 -0.203125 0.515625 -0.203125q0.34375 0 0.53125 0.203125q0.1875 0.203125 0.1875 0.59375q0 0.390625 -0.1875 0.59375q-0.1875 0.203125 -0.53125 0.203125q-0.296875 0 -0.5 -0.1875q-0.1875 -0.1875 -0.1875 -0.609375z"/><path fill="#000" fill-opacity="0" fill-rule="evenodd" d="m70.25812 181.08202l0 27.68837l100.944885 0l0 27.681717"/><path fill-rule="evenodd" stroke="#000" stroke-linecap="butt" stroke-linejoin="round" stroke-width="1" d="m70.25812 181.08202l0 27.68837l100.94487 0l0 24.254623"/><path fill="#000" fill-rule="evenodd" stroke="#000" stroke-linecap="butt" stroke-width="1" d="m171.20299 233.02501l-1.1245728 -1.1245728l1.1245728 3.0897675l1.124588 -3.0897675z"/><path fill="#000" fill-opacity="0" fill-rule="evenodd" d="m447.31235 251.9311l24.009003 0l0 0.06298828l24.022491 0"/><path fill-rule="evenodd" stroke="#000" stroke-linecap="butt" stroke-linejoin="round" stroke-width="1" d="m447.31235 251.9311l24.009003 0l0 0.06298828l20.595398 0"/><path fill="#000" fill-rule="evenodd" stroke="#000" stroke-linecap="butt" stroke-width="1" d="m491.91675 251.9941l-1.1245728 1.124588l3.0897522 -1.124588l-3.0897522 -1.124588z"/><path fill="#000" fill-opacity="0" fill-rule="evenodd" d="m447.31235 251.9311l24.009003 0l0 -41.858276l24.022491 0"/><path fill-rule="evenodd" stroke="#000" stroke-linecap="butt" stroke-linejoin="round" stroke-width="1" d="m447.31235 251.9311l24.009003 0l0 -41.858276l20.595398 0"/><path fill="#000" fill-rule="evenodd" stroke="#000" stroke-linecap="butt" stroke-width="1" d="m491.91675 210.07283l-1.1245728 1.124588l3.0897522 -1.124588l-3.0897522 -1.1245728z"/><path fill="#000" fill-opacity="0" fill-rule="evenodd" d="m447.31235 251.9311l24.009003 0l0 -83.74803l24.022491 0"/><path fill-rule="evenodd" stroke="#000" stroke-linecap="butt" stroke-linejoin="round" stroke-width="1" d="m447.31235 251.9311l24.009003 0l0 -83.74803l20.595398 0"/><path fill="#000" fill-rule="evenodd" stroke="#000" stroke-linecap="butt" stroke-width="1" d="m491.91675 168.18307l-1.1245728 1.1245728l3.0897522 -1.1245728l-3.0897522 -1.124588z"/><path fill="#000" fill-opacity="0" fill-rule="evenodd" d="m447.31235 251.9311l24.009003 0l0 -125.6063l24.022491 0"/><path fill-rule="evenodd" stroke="#000" stroke-linecap="butt" stroke-linejoin="round" stroke-width="1" d="m447.31235 251.9311l24.009003 0l0 -125.6063l20.595398 0"/><path fill="#000" fill-rule="evenodd" stroke="#000" stroke-linecap="butt" stroke-width="1" d="m491.91675 126.32481l-1.1245728 1.1245804l3.0897522 -1.1245804l-3.0897522 -1.124588z"/><path fill="#93c47d" fill-rule="evenodd" d="m127.45759 150.08989l87.49607 0l0 30.992126l-87.49607 0z"/><path fill-rule="evenodd" stroke="#000" stroke-linecap="butt" stroke-linejoin="round" stroke-width="1" d="m127.45759 150.08989l87.49607 0l0 30.992126l-87.49607 0z"/><path fill="#000" fill-rule="nonzero" d="m144.78352 165.98096q1.0625 0.4375 1.46875 0.90625q0.40625 0.46875 0.40625 1.171875q0 0.5625 -0.265625 1.0625q-0.265625 0.484375 -0.828125 0.796875q-0.5625 0.3125 -1.390625 0.3125q-1.453125 0 -2.34375 -0.953125l0.4375 -0.75l0 -0.015625q0 0 0 0.015625q0 0 0 0q0.328125 0.421875 0.828125 0.6875q0.515625 0.25 1.1875 0.25q0.671875 0 1.109375 -0.359375q0.4375 -0.375 0.4375 -0.921875q0 -0.34375 -0.140625 -0.578125q-0.125 -0.234375 -0.484375 -0.453125q-0.359375 -0.234375 -1.078125 -0.546875q-1.109375 -0.4375 -1.59375 -0.984375q-0.46875 -0.5625 -0.46875 -1.234375q0 -0.84375 0.609375 -1.34375q0.625 -0.515625 1.671875 -0.515625q0.609375 0 1.140625 0.25q0.546875 0.25 0.9375 0.6875l-0.46875 0.625l-0.015625 0.015625q-0.359375 -0.484375 -0.75 -0.671875q-0.390625 -0.203125 -0.96875 -0.203125q-0.578125 0 -0.9375 0.328125q-0.34375 0.3125 -0.34375 0.765625q0 0.34375 0.140625 0.609375q0.15625 0.25 0.546875 0.5q0.390625 0.25 1.15625 0.546875zm1.03125 -1.84375q0 -0.046875 0.046875 -0.015625q0.046875 0.015625 0.0625 0.015625l-0.03125 0.046875l-0.078125 -0.046875l0 0zm0.125 -0.03125q0.078125 0.09375 0.03125 0.0625q-0.03125 -0.03125 -0.046875 -0.03125l0.015625 -0.03125zm-3.546875 4.375q0 0.03125 -0.046875 0.015625q-0.046875 -0.03125 -0.0625 -0.03125l0.03125 -0.046875l0.078125 0.046875l0 0.015625zm-0.125 0.03125q-0.078125 -0.09375 0.015625 -0.046875l-0.015625 0.046875zm7.859421 -4.015625q1.1875 0 1.796875 0.625q0.625 0.609375 0.625 2.0625l0 2.921875l-0.9375 0l0 -0.84375q-0.5 0.96875 -1.875 0.96875q-0.90625 0 -1.421875 -0.40625q-0.515625 -0.421875 -0.515625 -1.09375q0 -0.578125 0.359375 -1.0q0.375 -0.4375 1.0 -0.671875q0.640625 -0.234375 1.390625 -0.234375q0.6875 0 1.234375 0.0625q-0.0625 -0.921875 -0.484375 -1.296875q-0.40625 -0.375 -1.21875 -0.375q-0.421875 0 -0.796875 0.15625q-0.375 0.15625 -0.6875 0.453125l-0.421875 -0.5625q0.765625 -0.765625 1.953125 -0.765625zm-0.3125 5.078125q0.890625 0 1.40625 -0.515625q0.515625 -0.53125 0.5625 -1.515625q-0.53125 -0.078125 -1.15625 -0.078125q-0.90625 0 -1.4375 0.296875q-0.53125 0.296875 -0.53125 0.921875q0 0.890625 1.15625 0.890625zm8.843796 -4.953125q-0.1875 0.96875 -0.796875 2.40625l-1.328125 3.078125l-0.671875 0l-2.171875 -5.484375l0.859375 0l1.6875 4.296875l0.890625 -2.03125q0.546875 -1.25 0.71875 -2.265625l0.8125 0zm3.8125458 5.609375q-1.21875 0 -1.953125 -0.75q-0.71875 -0.75 -0.71875 -2.09375q0 -0.90625 0.328125 -1.5625q0.34375 -0.65625 0.90625 -0.984375q0.578125 -0.34375 1.28125 -0.34375q1.0 0 1.609375 0.65625q0.625 0.65625 0.625 1.9375q0 0.140625 -0.03125 0.40625l-3.890625 0q0.046875 1.0 0.5625 1.515625q0.515625 0.515625 1.296875 0.515625q0.875 0 1.421875 -0.609375l0.484375 0.46875q-0.703125 0.84375 -1.921875 0.84375zm1.203125 -3.40625q0 -0.78125 -0.390625 -1.21875q-0.390625 -0.453125 -1.03125 -0.453125q-0.59375 0 -1.046875 0.421875q-0.4375 0.421875 -0.546875 1.25l3.015625 0zm4.343796 3.40625q-0.59375 0 -1.109375 -0.328125q-0.515625 -0.34375 -0.84375 -1.0q-0.3125 -0.65625 -0.3125 -1.59375q0 -0.953125 0.328125 -1.578125q0.34375 -0.640625 0.859375 -0.9375q0.53125 -0.3125 1.125 -0.3125q0.546875 0 0.953125 0.25q0.421875 0.25 0.640625 0.6875l0 -3.296875l0.90625 0l0 0.09375q-0.0625 0.0625 -0.09375 0.15625q-0.015625 0.078125 -0.015625 0.28125l0.015625 6.59375q0 0.296875 0.015625 0.484375q0.015625 0.1875 0.109375 0.375l-0.859375 0q-0.078125 -0.1875 -0.09375 -0.375q-0.015625 -0.1875 -0.015625 -0.484375q-0.265625 0.46875 -0.6875 0.734375q-0.40625 0.25 -0.921875 0.25zm0.125 -0.765625q0.75 0 1.09375 -0.578125q0.34375 -0.59375 0.34375 -1.546875q0 -0.984375 -0.375 -1.5625q-0.375 -0.59375 -1.125 -0.59375q-0.734375 0 -1.125 0.53125q-0.375 0.53125 -0.375 1.46875q0 1.046875 0.40625 1.671875q0.40625 0.609375 1.15625 0.609375zm3.5469208 0.640625l0 -7.46875l0.671875 0l1.84375 3.65625l1.890625 -3.671875l0.625 0l0 7.484375l-0.78125 0l0 -5.640625l-1.625 3.015625l-0.328125 0l-1.515625 -2.984375l0 5.609375l-0.78125 0zm8.515671 0.09375q-0.734375 0 -1.3125 -0.359375q-0.578125 -0.359375 -0.90625 -1.0q-0.3125 -0.65625 -0.3125 -1.484375q0 -0.828125 0.3125 -1.46875q0.328125 -0.65625 0.90625 -1.015625q0.578125 -0.375 1.3125 -0.375q0.734375 0 1.3125 0.375q0.578125 0.359375 0.890625 1.015625q0.328125 0.640625 0.328125 1.46875q0 0.828125 -0.328125 1.484375q-0.3125 0.640625 -0.890625 1.0q-0.578125 0.359375 -1.3125 0.359375zm0 -0.71875q0.46875 0 0.828125 -0.265625q0.375 -0.28125 0.578125 -0.765625q0.21875 -0.484375 0.21875 -1.109375q0 -0.9375 -0.46875 -1.53125q-0.453125 -0.59375 -1.15625 -0.59375q-0.703125 0 -1.171875 0.59375q-0.453125 0.59375 -0.453125 1.53125q0 0.625 0.203125 1.109375q0.21875 0.484375 0.578125 0.765625q0.375 0.265625 0.84375 0.265625zm5.812546 0.75q-0.59375 0 -1.109375 -0.328125q-0.515625 -0.34375 -0.84375 -1.0q-0.3125 -0.65625 -0.3125 -1.59375q0 -0.953125 0.328125 -1.578125q0.34375 -0.640625 0.859375 -0.9375q0.53125 -0.3125 1.125 -0.3125q0.546875 0 0.953125 0.25q0.421875 0.25 0.640625 0.6875l0 -3.296875l0.90625 0l0 0.09375q-0.0625 0.0625 -0.09375 0.15625q-0.015625 0.078125 -0.015625 0.28125l0.015625 6.59375q0 0.296875 0.015625 0.484375q0.015625 0.1875 0.109375 0.375l-0.859375 0q-0.078125 -0.1875 -0.09375 -0.375q-0.015625 -0.1875 -0.015625 -0.484375q-0.265625 0.46875 -0.6875 0.734375q-0.40625 0.25 -0.921875 0.25zm0.125 -0.765625q0.75 0 1.09375 -0.578125q0.34375 -0.59375 0.34375 -1.546875q0 -0.984375 -0.375 -1.5625q-0.375 -0.59375 -1.125 -0.59375q-0.734375 0 -1.125 0.53125q-0.375 0.53125 -0.375 1.46875q0 1.046875 0.40625 1.671875q0.40625 0.609375 1.15625 0.609375zm6.328171 0.765625q-1.21875 0 -1.953125 -0.75q-0.71875 -0.75 -0.71875 -2.09375q0 -0.90625 0.328125 -1.5625q0.34375 -0.65625 0.90625 -0.984375q0.578125 -0.34375 1.28125 -0.34375q1.0 0 1.609375 0.65625q0.625 0.65625 0.625 1.9375q0 0.140625 -0.03125 0.40625l-3.890625 0q0.046875 1.0 0.5625 1.515625q0.515625 0.515625 1.296875 0.515625q0.875 0 1.421875 -0.609375l0.484375 0.46875q-0.703125 0.84375 -1.921875 0.84375zm1.203125 -3.40625q0 -0.78125 -0.390625 -1.21875q-0.390625 -0.453125 -1.03125 -0.453125q-0.59375 0 -1.046875 0.421875q-0.4375 0.421875 -0.546875 1.25l3.015625 0zm2.4844208 3.28125l0 -0.703125l1.609375 0l0 -6.578125l-1.546875 0l0 -0.703125l2.421875 0l0 7.28125l1.609375 0l0 0.703125l-4.09375 0z"/><path fill="#d9ead3" fill-rule="evenodd" d="m228.40378 150.08989l87.49606 0l0 30.992126l-87.49606 0z"/><path fill-rule="evenodd" stroke="#000" stroke-linecap="butt" stroke-linejoin="round" stroke-width="1" d="m228.40378 150.08989l87.49606 0l0 30.992126l-87.49606 0z"/><path fill="#000" fill-rule="nonzero" d="m251.54225 162.5122q0.4375 0 0.84375 -0.25q0.40625 -0.25 0.65625 -0.671875l0.625 0.40625q-0.375 0.625 -0.875 0.9375q-0.5 0.296875 -1.21875 0.296875q-0.84375 0 -1.5 -0.40625q-0.65625 -0.421875 -1.046875 -1.265625q-0.390625 -0.859375 -0.390625 -2.15625q0 -1.375 0.421875 -2.234375q0.421875 -0.859375 1.0625 -1.21875q0.65625 -0.375 1.40625 -0.375q0.78125 0 1.359375 0.390625q0.59375 0.390625 0.890625 1.078125l-0.71875 0.34375q-0.015625 0 -0.015625 0q0 -0.015625 0 -0.015625q-0.3125 -0.625 -0.703125 -0.875q-0.375 -0.25 -0.84375 -0.25q-0.9375 0 -1.484375 0.828125q-0.546875 0.8125 -0.546875 2.28125q0 0.921875 0.265625 1.640625q0.28125 0.71875 0.75 1.125q0.484375 0.390625 1.0625 0.390625zm1.375 -5.171875q0.015625 -0.015625 0.015625 -0.015625q0.03125 0 0.109375 0.0625l-0.09375 0.046875l-0.03125 -0.09375zm0.140625 0.046875q0.046875 0.109375 -0.015625 0l0.015625 0zm4.093796 5.8125q-0.734375 0 -1.3125 -0.359375q-0.578125 -0.359375 -0.90625 -1.0q-0.3125 -0.65625 -0.3125 -1.484375q0 -0.828125 0.3125 -1.46875q0.328125 -0.65625 0.90625 -1.015625q0.578125 -0.375 1.3125 -0.375q0.734375 0 1.3125 0.375q0.578125 0.359375 0.890625 1.015625q0.328125 0.640625 0.328125 1.46875q0 0.828125 -0.328125 1.484375q-0.3125 0.640625 -0.890625 1.0q-0.578125 0.359375 -1.3125 0.359375zm0 -0.71875q0.46875 0 0.828125 -0.265625q0.375 -0.28125 0.578125 -0.765625q0.21875 -0.484375 0.21875 -1.109375q0 -0.9375 -0.46875 -1.53125q-0.453125 -0.59375 -1.15625 -0.59375q-0.703125 0 -1.171875 0.59375q-0.453125 0.59375 -0.453125 1.53125q0 0.625 0.203125 1.109375q0.21875 0.484375 0.578125 0.765625q0.375 0.265625 0.84375 0.265625zm3.859436 -4.859375l0.84375 0l0 0.96875q0.328125 -0.5 0.8125 -0.796875q0.5 -0.296875 1.046875 -0.296875q0.734375 0 1.171875 0.5625q0.4375 0.546875 0.4375 1.71875l0 3.328125l-0.84375 0l0 -3.296875q0 -0.8125 -0.28125 -1.1875q-0.265625 -0.375 -0.71875 -0.375q-0.375 0 -0.75 0.21875q-0.375 0.21875 -0.625 0.609375q-0.25 0.390625 -0.25 0.875l0 3.15625l-0.84375 0l0 -5.484375zm8.6094055 4.84375q0.828125 0 1.421875 -0.671875l0.515625 0.578125q-0.8125 0.859375 -1.984375 0.859375q-0.796875 0 -1.421875 -0.359375q-0.625 -0.375 -0.984375 -1.03125q-0.34375 -0.65625 -0.34375 -1.46875q0 -0.8125 0.34375 -1.453125q0.359375 -0.65625 0.984375 -1.03125q0.625 -0.375 1.40625 -0.375q0.65625 0 1.1875 0.28125q0.546875 0.265625 0.890625 0.734375l-0.546875 0.53125l0 0.015625q-0.359375 -0.453125 -0.71875 -0.640625q-0.359375 -0.1875 -0.90625 -0.1875q-0.46875 0 -0.875 0.265625q-0.390625 0.25 -0.640625 0.71875q-0.234375 0.46875 -0.234375 1.078125q0 0.609375 0.234375 1.109375q0.25 0.484375 0.6875 0.765625q0.4375 0.28125 0.984375 0.28125zm1.328125 -3.375q0 -0.078125 0.109375 0l-0.046875 0.0625l-0.0625 -0.0625zm0.140625 -0.015625q0.046875 0.078125 0.015625 0.0625q-0.015625 -0.03125 -0.046875 -0.046875l0.03125 -0.015625zm6.171936 -0.3125l0 0.015625q-0.34375 -0.328125 -0.578125 -0.4375q-0.234375 -0.109375 -0.546875 -0.109375q-0.4375 0 -0.828125 0.21875q-0.375 0.21875 -0.625 0.65625q-0.234375 0.4375 -0.234375 1.09375l0 2.921875l-0.875 0l0 -5.5l0.90625 0l-0.03125 1.015625q0.234375 -0.546875 0.703125 -0.84375q0.484375 -0.296875 1.046875 -0.296875q0.875 0 1.453125 0.59375l-0.390625 0.671875zm0 0.015625q0.09375 0.0625 0.046875 0.0625q-0.046875 -0.015625 -0.0625 -0.03125l0.015625 -0.03125zm-0.125 0.03125q0 -0.03125 0.03125 -0.015625q0.03125 0 0.078125 0.015625l-0.03125 0.0625l-0.078125 -0.046875l0 -0.015625zm4.2812805 4.421875q-1.21875 0 -1.953125 -0.75q-0.71875 -0.75 -0.71875 -2.09375q0 -0.90625 0.328125 -1.5625q0.34375 -0.65625 0.90625 -0.984375q0.578125 -0.34375 1.28125 -0.34375q1.0 0 1.609375 0.65625q0.625 0.65625 0.625 1.9375q0 0.140625 -0.03125 0.40625l-3.890625 0q0.046875 1.0 0.5625 1.515625q0.515625 0.515625 1.296875 0.515625q0.875 0 1.421875 -0.609375l0.484375 0.46875q-0.703125 0.84375 -1.921875 0.84375zm1.203125 -3.40625q0 -0.78125 -0.390625 -1.21875q-0.390625 -0.453125 -1.03125 -0.453125q-0.59375 0 -1.046875 0.421875q-0.4375 0.421875 -0.546875 1.25l3.015625 0zm6.859436 2.78125q-0.796875 0.578125 -1.734375 0.578125q-0.921875 0 -1.296875 -0.546875q-0.375 -0.546875 -0.375 -1.796875q0 -0.203125 0.015625 -0.703125l0.109375 -1.8125l-1.203125 0l0 -0.703125l1.25 0l0.09375 -1.46875l0.953125 -0.15625l0.125 0l0.015625 0.0625q-0.09375 0.125 -0.140625 0.21875q-0.03125 0.078125 -0.046875 0.25l-0.125 1.09375l1.8125 0l0 0.703125l-1.859375 0l-0.109375 1.859375q-0.03125 0.484375 -0.03125 0.640625q0 0.96875 0.21875 1.3125q0.234375 0.328125 0.71875 0.328125q0.359375 0 0.65625 -0.125q0.3125 -0.140625 0.6875 -0.421875l0.265625 0.6875zm3.9375305 0.625q-1.21875 0 -1.953125 -0.75q-0.71875 -0.75 -0.71875 -2.09375q0 -0.90625 0.328125 -1.5625q0.34375 -0.65625 0.90625 -0.984375q0.578125 -0.34375 1.28125 -0.34375q1.0 0 1.609375 0.65625q0.625 0.65625 0.625 1.9375q0 0.140625 -0.03125 0.40625l-3.890625 0q0.046875 1.0 0.5625 1.515625q0.515625 0.515625 1.296875 0.515625q0.875 0 1.421875 -0.609375l0.484375 0.46875q-0.703125 0.84375 -1.921875 0.84375zm1.203125 -3.40625q0 -0.78125 -0.390625 -1.21875q-0.390625 -0.453125 -1.03125 -0.453125q-0.59375 0 -1.046875 0.421875q-0.4375 0.421875 -0.546875 1.25l3.015625 0z"/><path fill="#000" fill-rule="nonzero" d="m240.08907 177.10596l0 -7.484375l4.3125 0l0 0.734375l-3.46875 0l0 2.34375l2.796875 0l0 0.734375l-2.796875 0l0 3.671875l-0.84375 0zm7.718796 0.125q-0.875 0 -1.390625 -0.640625q-0.515625 -0.640625 -0.5 -1.90625l0.015625 -3.0625l0.84375 0l0 3.0625q0 0.984375 0.328125 1.421875q0.34375 0.4375 0.921875 0.4375q0.609375 0 1.03125 -0.484375q0.4375 -0.484375 0.4375 -1.40625l0 -3.03125l0.84375 0l0 4.625q0 0.296875 0.015625 0.484375q0.015625 0.1875 0.09375 0.375l-0.828125 0q-0.078125 -0.1875 -0.09375 -0.375q-0.015625 -0.1875 -0.015625 -0.46875q-0.265625 0.453125 -0.71875 0.71875q-0.453125 0.25 -0.984375 0.25zm4.203171 -5.609375l0.84375 0l0 0.96875q0.328125 -0.5 0.8125 -0.796875q0.5 -0.296875 1.046875 -0.296875q0.734375 0 1.171875 0.5625q0.43748474 0.546875 0.43748474 1.71875l0 3.328125l-0.84373474 0l0 -3.296875q0 -0.8125 -0.28125 -1.1875q-0.265625 -0.375 -0.71875 -0.375q-0.375 0 -0.75 0.21875q-0.375 0.21875 -0.625 0.609375q-0.25 0.390625 -0.25 0.875l0 3.15625l-0.84375 0l0 -5.484375zm8.609421 4.84375q0.828125 0 1.421875 -0.671875l0.515625 0.578125q-0.8125 0.859375 -1.984375 0.859375q-0.796875 0 -1.421875 -0.359375q-0.625 -0.375 -0.984375 -1.03125q-0.34375 -0.65625 -0.34375 -1.46875q0 -0.8125 0.34375 -1.453125q0.359375 -0.65625 0.984375 -1.03125q0.625 -0.375 1.40625 -0.375q0.65625 0 1.1875 0.28125q0.546875 0.265625 0.890625 0.734375l-0.546875 0.53125l0 0.015625q-0.359375 -0.453125 -0.71875 -0.640625q-0.359375 -0.1875 -0.90625 -0.1875q-0.46875 0 -0.875 0.265625q-0.390625 0.25 -0.640625 0.71875q-0.234375 0.46875 -0.234375 1.078125q0 0.609375 0.234375 1.109375q0.25 0.484375 0.6875 0.765625q0.4375 0.28125 0.984375 0.28125zm1.328125 -3.375q0 -0.078125 0.109375 0l-0.046875 0.0625l-0.0625 -0.0625zm0.140625 -0.015625q0.046875 0.078125 0.015625 0.0625q-0.015625 -0.03125 -0.046875 -0.046875l0.03125 -0.015625zm6.3906555 3.53125q-0.796875 0.578125 -1.734375 0.578125q-0.921875 0 -1.296875 -0.546875q-0.375 -0.546875 -0.375 -1.796875q0 -0.203125 0.015625 -0.703125l0.109375 -1.8125l-1.203125 0l0 -0.703125l1.25 0l0.09375 -1.46875l0.953125 -0.15625l0.125 0l0.015625 0.0625q-0.09375 0.125 -0.140625 0.21875q-0.03125 0.078125 -0.046875 0.25l-0.125 1.09375l1.8125 0l0 0.703125l-1.859375 0l-0.109375 1.859375q-0.03125 0.484375 -0.03125 0.640625q0 0.96875 0.21875 1.3125q0.234375 0.328125 0.71875 0.328125q0.359375 0 0.65625 -0.125q0.3125 -0.140625 0.6875 -0.421875l0.265625 0.6875zm1.875061 0.5l0 -0.703125l1.40625 0l0 -4.078125l-1.34375 0l0 -0.703125l2.203125 0l0 4.78125l1.28125 0l0 0.703125l-3.546875 0zm1.78125 -6.640625q-0.25 0 -0.4375 -0.171875q-0.171875 -0.1875 -0.171875 -0.4375q0 -0.265625 0.171875 -0.4375q0.171875 -0.1875 0.4375 -0.1875q0.25 0 0.4375 0.1875q0.1875 0.1875 0.1875 0.4375q0 0.25 -0.1875 0.4375q-0.1875 0.171875 -0.4375 0.171875zm6.0156555 6.734375q-0.734375 0 -1.3125 -0.359375q-0.578125 -0.359375 -0.90625 -1.0q-0.3125 -0.65625 -0.3125 -1.484375q0 -0.828125 0.3125 -1.46875q0.328125 -0.65625 0.90625 -1.015625q0.578125 -0.375 1.3125 -0.375q0.734375 0 1.3125 0.375q0.578125 0.359375 0.890625 1.015625q0.328125 0.640625 0.328125 1.46875q0 0.828125 -0.328125 1.484375q-0.3125 0.640625 -0.890625 1.0q-0.578125 0.359375 -1.3125 0.359375zm0 -0.71875q0.46875 0 0.828125 -0.265625q0.375 -0.28125 0.578125 -0.765625q0.21875 -0.484375 0.21875 -1.109375q0 -0.9375 -0.46875 -1.53125q-0.453125 -0.59375 -1.15625 -0.59375q-0.703125 0 -1.171875 0.59375q-0.453125 0.59375 -0.453125 1.53125q0 0.625 0.203125 1.109375q0.21875 0.484375 0.578125 0.765625q0.375 0.265625 0.84375 0.265625zm3.859436 -4.859375l0.84375 0l0 0.96875q0.328125 -0.5 0.8125 -0.796875q0.5 -0.296875 1.046875 -0.296875q0.734375 0 1.171875 0.5625q0.4375 0.546875 0.4375 1.71875l0 3.328125l-0.84375 0l0 -3.296875q0 -0.8125 -0.28125 -1.1875q-0.265625 -0.375 -0.71875 -0.375q-0.375 0 -0.75 0.21875q-0.375 0.21875 -0.625 0.609375q-0.25 0.390625 -0.25 0.875l0 3.15625l-0.84375 0l0 -5.484375zm9.8750305 7.578125q-0.984375 -0.46875 -1.734375 -1.265625q-0.734375 -0.78125 -1.140625 -1.765625q-0.390625 -1.0 -0.390625 -2.0625q0 -1.0625 0.390625 -2.03125q0.390625 -0.96875 1.109375 -1.734375q0.734375 -0.765625 1.703125 -1.21875l0.21875 0.75q-1.171875 0.640625 -1.875 1.796875q-0.703125 1.140625 -0.703125 2.46875q0 1.34375 0.71875 2.53125q0.71875 1.171875 1.9375 1.8125l-0.234375 0.71875zm4.656311 -5.328125q1.03125 0.3125 1.453125 0.6875q0.4375 0.359375 0.4375 0.953125q0 0.734375 -0.59375 1.234375q-0.578125 0.484375 -1.671875 0.484375q-1.390625 0 -2.328125 -0.875l0.46875 -0.8125l0.015625 -0.015625l0.015625 0.015625q0.375 0.484375 0.765625 0.734375q0.40625 0.234375 1.078125 0.234375q0.65625 0 1.015625 -0.234375q0.375 -0.234375 0.375 -0.640625q0 -0.359375 -0.296875 -0.578125q-0.296875 -0.234375 -1.078125 -0.484375q-2.0625 -0.59375 -2.0625 -1.703125q0 -0.640625 0.515625 -1.0q0.53125 -0.375 1.5 -0.375q0.75 0 1.25 0.203125q0.515625 0.203125 0.9375 0.65625l-0.5 0.59375l0 0.015625q-0.265625 -0.390625 -0.734375 -0.609375q-0.453125 -0.21875 -0.921875 -0.21875q-0.515625 0 -0.859375 0.1875q-0.328125 0.171875 -0.328125 0.5q0 0.296875 0.328125 0.546875q0.34375 0.25 1.21875 0.5zm1.15625 -0.875q0 -0.0625 0.09375 0l-0.03125 0.046875l-0.0625 -0.046875zm0.140625 -0.03125q0.03125 0.046875 0.015625 0.0625q0 0.015625 -0.03125 0q-0.015625 -0.015625 -0.03125 -0.03125l0.046875 -0.03125zm-3.375 2.53125q0 0.046875 -0.109375 0l0.03125 -0.0625l0.078125 0.046875l0 0.015625zm-0.140625 0.03125q-0.03125 -0.046875 -0.03125 -0.046875q0.015625 0 0.0625 0.015625l-0.03125 0.03125zm6.2031555 2.953125q1.203125 -0.640625 1.921875 -1.8125q0.71875 -1.1875 0.71875 -2.53125q0 -1.328125 -0.703125 -2.46875q-0.703125 -1.15625 -1.875 -1.796875l0.234375 -0.75q0.953125 0.453125 1.671875 1.21875q0.734375 0.765625 1.125 1.734375q0.40625 0.96875 0.40625 2.03125q0 1.0625 -0.40625 2.0625q-0.40625 0.984375 -1.15625 1.765625q-0.734375 0.796875 -1.71875 1.265625l-0.21875 -0.71875z"/><path fill="#000" fill-opacity="0" fill-rule="evenodd" d="m239.93134 94.31036l0 27.88977l32.22049 0l0 27.889755"/><path fill-rule="evenodd" stroke="#000" stroke-linecap="butt" stroke-linejoin="round" stroke-width="1" d="m239.93135 94.31036l0 27.88977l32.220474 0l0 24.462677"/><path fill="#000" fill-rule="evenodd" stroke="#000" stroke-linecap="butt" stroke-width="1" d="m272.15182 146.66281l-1.1245728 -1.124588l1.1245728 3.0897675l1.1245728 -3.0897675z"/><path fill="#000" fill-opacity="0" fill-rule="evenodd" d="m171.20563 181.08202l0 55.370087"/><path fill-rule="evenodd" stroke="#000" stroke-linecap="butt" stroke-linejoin="round" stroke-width="1" d="m171.20561 181.08202l0 51.942993"/><path fill="#000" fill-rule="evenodd" stroke="#000" stroke-linecap="butt" stroke-width="1" d="m171.20561 233.02501l-1.1245728 -1.1245728l1.1245728 3.0897675l1.124588 -3.0897675z"/><path fill="#000" fill-opacity="0" fill-rule="evenodd" d="m272.15182 181.08202l0 27.68837l-100.944885 0l0 27.681717"/><path fill-rule="evenodd" stroke="#000" stroke-linecap="butt" stroke-linejoin="round" stroke-width="1" d="m272.15182 181.08202l0 27.68837l-100.9449 0l0 24.254623"/><path fill="#000" fill-rule="evenodd" stroke="#000" stroke-linecap="butt" stroke-width="1" d="m171.20692 233.02501l-1.1245728 -1.1245728l1.1245728 3.0897675l1.124588 -3.0897675z"/><path fill="#000" fill-opacity="0" fill-rule="evenodd" d="m220.43396 94.71982l0 27.637794l-38.929123 0l0 27.637794"/><path fill-rule="evenodd" stroke="#000" stroke-linecap="butt" stroke-linejoin="round" stroke-width="1" d="m220.43398 94.71982l0 27.637794l-38.92914 0l0 24.210716"/><path fill="#000" fill-rule="evenodd" stroke="#000" stroke-linecap="butt" stroke-width="1" d="m181.50484 146.56831l-1.124588 -1.1245728l1.124588 3.0897675l1.124588 -3.0897675z"/><path fill="#000" fill-opacity="0" fill-rule="evenodd" d="m119.8294 94.71063l0 27.401573l40.661415 0l0 27.401573"/><path fill-rule="evenodd" stroke="#000" stroke-linecap="butt" stroke-linejoin="round" stroke-width="1" d="m119.8294 94.71063l0 27.401573l40.661415 0l0 23.974495"/><path fill="#000" fill-rule="evenodd" stroke="#000" stroke-linecap="butt" stroke-width="1" d="m160.49081 146.0867l-1.124588 -1.124588l1.124588 3.0897675l1.124588 -3.0897675z"/><path fill="#000" fill-opacity="0" fill-rule="evenodd" d="m99.990395 94.27887l0 27.90551l-29.732277 0l0 27.90551"/><path fill-rule="evenodd" stroke="#000" stroke-linecap="butt" stroke-linejoin="round" stroke-width="1" d="m99.990395 94.27887l0 27.90551l-29.732277 0l0 24.478432"/><path fill="#000" fill-rule="evenodd" stroke="#000" stroke-linecap="butt" stroke-width="1" d="m70.25812 146.66281l-1.124588 -1.124588l1.124588 3.0897675l1.1245804 -3.0897675z"/><path fill="#000" fill-opacity="0" fill-rule="evenodd" d="m318.4169 251.95473l41.385834 -0.03149414"/><path fill-rule="evenodd" stroke="#000" stroke-linecap="butt" stroke-linejoin="round" stroke-width="1" d="m318.4169 251.95473l37.95877 -0.028900146"/><path fill="#000" fill-rule="evenodd" stroke="#000" stroke-linecap="butt" stroke-width="1" d="m356.37564 251.92584l-1.1237183 1.1254272l3.0889282 -1.1269226l-3.0906372 -1.1222382z"/><path fill="#93c47d" fill-rule="evenodd" d="m352.57086 15.863517l20.53543 0l0 20.53543l-20.53543 0z"/><path fill-rule="evenodd" stroke="#000" stroke-linecap="butt" stroke-linejoin="round" stroke-width="1" d="m352.57086 15.863517l20.53543 0l0 20.53543l-20.53543 0z"/><path fill="#000" fill-opacity="0" fill-rule="evenodd" d="m377.56693 10.257217l87.49606 0l0 31.748032l-87.49606 0z"/><path fill="#000" fill-rule="nonzero" d="m388.7388 30.777218l-1.0 0l0 -8.5625l4.78125 0l0 0.875l-3.78125 0l0 3.140625l3.546875 0l0 0.890625l-3.546875 0l0 3.65625zm6.0214844 0l-0.96875 0l0 -6.421875l0.96875 0l0 6.421875zm-1.046875 -8.15625q0 -0.34375 0.15625 -0.5q0.171875 -0.15625 0.421875 -0.15625q0.234375 0 0.390625 0.171875q0.171875 0.15625 0.171875 0.484375q0 0.328125 -0.171875 0.484375q-0.15625 0.15625 -0.390625 0.15625q-0.25 0 -0.421875 -0.15625q-0.15625 -0.15625 -0.15625 -0.484375zm4.0820312 8.15625l-0.96875 0l0 -9.125l0.96875 0l0 9.125zm4.7851562 0.125q-1.421875 0 -2.25 -0.875q-0.828125 -0.875 -0.828125 -2.40625q0 -1.5625 0.765625 -2.46875q0.765625 -0.921875 2.0625 -0.921875q1.203125 0 1.90625 0.796875q0.703125 0.796875 0.703125 2.09375l0 0.625l-4.421875 0q0.03125 1.125 0.5625 1.71875q0.546875 0.578125 1.53125 0.578125q1.03125 0 2.046875 -0.4375l0 0.875q-0.515625 0.21875 -0.984375 0.3125q-0.453125 0.109375 -1.09375 0.109375zm-0.265625 -5.84375q-0.78125 0 -1.25 0.5q-0.453125 0.5 -0.53125 1.390625l3.359375 0q0 -0.921875 -0.40625 -1.40625q-0.40625 -0.484375 -1.171875 -0.484375zm10.287109 0.046875l-1.625 0l0 5.671875l-0.984375 0l0 -5.671875l-1.140625 0l0 -0.4375l1.140625 -0.34375l0 -0.359375q0 -2.375 2.078125 -2.375q0.5 0 1.1875 0.203125l-0.25 0.78125q-0.5625 -0.171875 -0.953125 -0.171875q-0.5625 0 -0.828125 0.375q-0.25 0.359375 -0.25 1.15625l0 0.421875l1.625 0l0 0.75zm6.7226562 2.453125q0 1.578125 -0.796875 2.46875q-0.78125 0.875 -2.1875 0.875q-0.859375 0 -1.53125 -0.40625q-0.65625 -0.40625 -1.03125 -1.15625q-0.359375 -0.765625 -0.359375 -1.78125q0 -1.5625 0.78125 -2.4375q0.796875 -0.890625 2.1875 -0.890625q1.34375 0 2.140625 0.90625q0.796875 0.890625 0.796875 2.421875zm-4.890625 0q0 1.234375 0.484375 1.875q0.5 0.640625 1.453125 0.640625q0.953125 0 1.4375 -0.640625q0.5 -0.640625 0.5 -1.875q0 -1.21875 -0.5 -1.859375q-0.484375 -0.640625 -1.453125 -0.640625q-0.953125 0 -1.4375 0.640625q-0.484375 0.625 -0.484375 1.859375zm9.529297 -3.328125q0.421875 0 0.765625 0.078125l-0.140625 0.90625q-0.390625 -0.09375 -0.703125 -0.09375q-0.78125 0 -1.34375 0.640625q-0.546875 0.625 -0.546875 1.5625l0 3.453125l-0.96875 0l0 -6.421875l0.796875 0l0.125 1.1875l0.046875 0q0.34375 -0.625 0.84375 -0.96875q0.515625 -0.34375 1.125 -0.34375zm10.1484375 6.546875l0 -4.171875q0 -0.78125 -0.328125 -1.15625q-0.328125 -0.390625 -1.015625 -0.390625q-0.90625 0 -1.34375 0.53125q-0.4375 0.515625 -0.4375 1.59375l0 3.59375l-0.96875 0l0 -4.171875q0 -0.78125 -0.328125 -1.15625q-0.328125 -0.390625 -1.03125 -0.390625q-0.90625 0 -1.34375 0.546875q-0.421875 0.546875 -0.421875 1.796875l0 3.375l-0.96875 0l0 -6.421875l0.796875 0l0.15625 0.875l0.046875 0q0.265625 -0.46875 0.765625 -0.734375q0.515625 -0.265625 1.125 -0.265625q1.515625 0 1.96875 1.09375l0.046875 0q0.296875 -0.5 0.828125 -0.796875q0.546875 -0.296875 1.25 -0.296875q1.09375 0 1.625 0.5625q0.546875 0.5625 0.546875 1.796875l0 4.1875l-0.96875 0zm6.9277344 0l-0.203125 -0.921875l-0.046875 0q-0.46875 0.609375 -0.953125 0.828125q-0.46875 0.21875 -1.1875 0.21875q-0.953125 0 -1.5 -0.5q-0.546875 -0.5 -0.546875 -1.40625q0 -1.9375 3.109375 -2.03125l1.09375 -0.03125l0 -0.40625q0 -0.75 -0.328125 -1.109375q-0.3125 -0.359375 -1.03125 -0.359375q-0.8125 0 -1.8125 0.484375l-0.3125 -0.75q0.484375 -0.25 1.046875 -0.390625q0.5625 -0.15625 1.140625 -0.15625q1.140625 0 1.6875 0.515625q0.5625 0.5 0.5625 1.625l0 4.390625l-0.71875 0zm-2.203125 -0.6875q0.90625 0 1.421875 -0.5q0.53125 -0.5 0.53125 -1.390625l0 -0.578125l-0.984375 0.03125q-1.15625 0.046875 -1.671875 0.375q-0.5 0.3125 -0.5 0.984375q0 0.53125 0.3125 0.8125q0.3125 0.265625 0.890625 0.265625zm7.001953 0q0.25 0 0.484375 -0.03125q0.25 -0.046875 0.390625 -0.078125l0 0.734375q-0.15625 0.078125 -0.46875 0.125q-0.296875 0.0625 -0.546875 0.0625q-1.859375 0 -1.859375 -1.96875l0 -3.828125l-0.921875 0l0 -0.46875l0.921875 -0.40625l0.40625 -1.359375l0.5625 0l0 1.484375l1.859375 0l0 0.75l-1.859375 0l0 3.78125q0 0.578125 0.265625 0.890625q0.28125 0.3125 0.765625 0.3125z"/><path fill="#f4cccc" fill-rule="evenodd" d="m469.5223 15.863517l20.53543 0l0 20.53543l-20.53543 0z"/><path fill-rule="evenodd" stroke="#000" stroke-linecap="butt" stroke-linejoin="round" stroke-width="1" d="m469.5223 15.863517l20.53543 0l0 20.53543l-20.53543 0z"/><path fill="#000" fill-opacity="0" fill-rule="evenodd" d="m494.51706 10.829396l100.00003 0l0 31.748032l-100.00003 0z"/><path fill="#000" fill-rule="nonzero" d="m504.68893 31.349398l0 -8.5625l1.0 0l0 8.5625l-1.0 0zm7.5957336 0l0 -4.15625q0 -0.78125 -0.35940552 -1.171875q-0.34375 -0.390625 -1.109375 -0.390625q-1.015625 0 -1.484375 0.546875q-0.46875 0.546875 -0.46875 1.796875l0 3.375l-0.96875 0l0 -6.421875l0.796875 0l0.15625 0.875l0.046875 0q0.296875 -0.46875 0.828125 -0.734375q0.546875 -0.265625 1.203125 -0.265625q1.1719055 0 1.7500305 0.5625q0.59375 0.5625 0.59375 1.796875l0 4.1875l-0.984375 0zm5.8652344 -5.671875l-1.625 0l0 5.671875l-0.984375 0l0 -5.671875l-1.140625 0l0 -0.4375l1.140625 -0.34375l0 -0.359375q0 -2.375 2.078125 -2.375q0.5 0 1.1875 0.203125l-0.25 0.78125q-0.5625 -0.171875 -0.953125 -0.171875q-0.5625 0 -0.828125 0.375q-0.25 0.359375 -0.25 1.15625l0 0.421875l1.625 0l0 0.75zm4.1132812 -0.875q0.421875 0 0.765625 0.078125l-0.140625 0.90625q-0.390625 -0.09375 -0.703125 -0.09375q-0.78125 0 -1.34375 0.640625q-0.546875 0.625 -0.546875 1.5625l0 3.453125l-0.96875 0l0 -6.421875l0.796875 0l0.125 1.1875l0.046875 0q0.34375 -0.625 0.84375 -0.96875q0.515625 -0.34375 1.125 -0.34375zm5.9140625 6.546875l-0.203125 -0.921875l-0.046875 0q-0.46875 0.609375 -0.953125 0.828125q-0.46875 0.21875 -1.1875 0.21875q-0.953125 0 -1.5 -0.5q-0.546875 -0.5 -0.546875 -1.40625q0 -1.9375 3.109375 -2.03125l1.09375 -0.03125l0 -0.40625q0 -0.75 -0.328125 -1.109375q-0.3125 -0.359375 -1.03125 -0.359375q-0.8125 0 -1.8125 0.484375l-0.3125 -0.75q0.484375 -0.25 1.046875 -0.390625q0.5625 -0.15625 1.140625 -0.15625q1.140625 0 1.6875 0.515625q0.5625 0.5 0.5625 1.625l0 4.390625l-0.71875 0zm-2.203125 -0.6875q0.90625 0 1.421875 -0.5q0.53125 -0.5 0.53125 -1.390625l0 -0.578125l-0.984375 0.03125q-1.15625 0.046875 -1.671875 0.375q-0.5 0.3125 -0.5 0.984375q0 0.53125 0.3125 0.8125q0.3125 0.265625 0.890625 0.265625zm9.064453 -1.0625q0 0.890625 -0.671875 1.390625q-0.65625 0.484375 -1.875 0.484375q-1.265625 0 -1.984375 -0.40625l0 -0.90625q0.46875 0.234375 0.984375 0.375q0.53125 0.125 1.03125 0.125q0.765625 0 1.171875 -0.234375q0.40625 -0.25 0.40625 -0.75q0 -0.375 -0.328125 -0.640625q-0.3125 -0.265625 -1.265625 -0.625q-0.890625 -0.34375 -1.28125 -0.59375q-0.375 -0.25 -0.5625 -0.5625q-0.171875 -0.3125 -0.171875 -0.75q0 -0.78125 0.640625 -1.234375q0.640625 -0.46875 1.75 -0.46875q1.03125 0 2.03125 0.421875l-0.359375 0.796875q-0.953125 -0.390625 -1.75 -0.390625q-0.6875 0 -1.046875 0.21875q-0.34375 0.203125 -0.34375 0.59375q0 0.25 0.125 0.4375q0.140625 0.171875 0.421875 0.34375q0.296875 0.15625 1.140625 0.46875q1.140625 0.421875 1.53125 0.84375q0.40625 0.421875 0.40625 1.0625zm3.6621094 1.0625q0.25 0 0.484375 -0.03125q0.25 -0.046875 0.390625 -0.078125l0 0.734375q-0.15625 0.078125 -0.46875 0.125q-0.296875 0.0625 -0.546875 0.0625q-1.859375 0 -1.859375 -1.96875l0 -3.828125l-0.921875 0l0 -0.46875l0.921875 -0.40625l0.40625 -1.359375l0.5625 0l0 1.484375l1.859375 0l0 0.75l-1.859375 0l0 3.78125q0 0.578125 0.265625 0.890625q0.28125 0.3125 0.765625 0.3125zm5.095703 -5.859375q0.421875 0 0.765625 0.078125l-0.140625 0.90625q-0.390625 -0.09375 -0.703125 -0.09375q-0.78125 0 -1.34375 0.640625q-0.546875 0.625 -0.546875 1.5625l0 3.453125l-0.96875 0l0 -6.421875l0.796875 0l0.125 1.1875l0.046875 0q0.34375 -0.625 0.84375 -0.96875q0.515625 -0.34375 1.125 -0.34375zm2.8828125 0.125l0 4.171875q0 0.78125 0.34375 1.171875q0.359375 0.375 1.125 0.375q1.015625 0 1.46875 -0.546875q0.46875 -0.546875 0.46875 -1.796875l0 -3.375l0.96875 0l0 6.421875l-0.796875 0l-0.140625 -0.859375l-0.046875 0q-0.296875 0.46875 -0.828125 0.734375q-0.53125 0.25 -1.21875 0.25q-1.171875 0 -1.75 -0.5625q-0.578125 -0.5625 -0.578125 -1.78125l0 -4.203125l0.984375 0zm9.005859 6.546875q-1.390625 0 -2.15625 -0.859375q-0.765625 -0.859375 -0.765625 -2.4375q0 -1.609375 0.78125 -2.484375q0.78125 -0.890625 2.203125 -0.890625q0.46875 0 0.921875 0.109375q0.46875 0.09375 0.734375 0.234375l-0.296875 0.828125q-0.328125 -0.140625 -0.703125 -0.21875q-0.375 -0.078125 -0.671875 -0.078125q-1.953125 0 -1.953125 2.484375q0 1.1875 0.46875 1.828125q0.484375 0.625 1.421875 0.625q0.796875 0 1.640625 -0.34375l0 0.859375q-0.640625 0.34375 -1.625 0.34375zm5.2285156 -0.8125q0.25 0 0.484375 -0.03125q0.25 -0.046875 0.390625 -0.078125l0 0.734375q-0.15625 0.078125 -0.46875 0.125q-0.296875 0.0625 -0.546875 0.0625q-1.859375 0 -1.859375 -1.96875l0 -3.828125l-0.921875 0l0 -0.46875l0.921875 -0.40625l0.40625 -1.359375l0.5625 0l0 1.484375l1.859375 0l0 0.75l-1.859375 0l0 3.78125q0 0.578125 0.265625 0.890625q0.28125 0.3125 0.765625 0.3125zm3.0800781 -5.734375l0 4.171875q0 0.78125 0.34375 1.171875q0.359375 0.375 1.125 0.375q1.015625 0 1.46875 -0.546875q0.46875 -0.546875 0.46875 -1.796875l0 -3.375l0.96875 0l0 6.421875l-0.796875 0l-0.140625 -0.859375l-0.046875 0q-0.296875 0.46875 -0.828125 0.734375q-0.53125 0.25 -1.21875 0.25q-1.171875 0 -1.75 -0.5625q-0.578125 -0.5625 -0.578125 -1.78125l0 -4.203125l0.984375 0zm9.380859 -0.125q0.421875 0 0.765625 0.078125l-0.140625 0.90625q-0.390625 -0.09375 -0.703125 -0.09375q-0.78125 0 -1.34375 0.640625q-0.546875 0.625 -0.546875 1.5625l0 3.453125l-0.96875 0l0 -6.421875l0.796875 0l0.125 1.1875l0.046875 0q0.34375 -0.625 0.84375 -0.96875q0.515625 -0.34375 1.125 -0.34375zm4.6796875 6.671875q-1.421875 0 -2.25 -0.875q-0.828125 -0.875 -0.828125 -2.40625q0 -1.5625 0.765625 -2.46875q0.765625 -0.921875 2.0625 -0.921875q1.203125 0 1.90625 0.796875q0.703125 0.796875 0.703125 2.09375l0 0.625l-4.421875 0q0.03125 1.125 0.5625 1.71875q0.546875 0.578125 1.53125 0.578125q1.03125 0 2.046875 -0.4375l0 0.875q-0.515625 0.21875 -0.984375 0.3125q-0.453125 0.109375 -1.09375 0.109375zm-0.265625 -5.84375q-0.78125 0 -1.25 0.5q-0.453125 0.5 -0.53125 1.390625l3.359375 0q0 -0.921875 -0.40625 -1.40625q-0.40625 -0.484375 -1.171875 -0.484375z"/></g></svg>