<svg xmlns="http://www.w3.org/2000/svg" xmlns:xlink="http://www.w3.org/1999/xlink" fill="none" stroke="none" stroke-linecap="square" stroke-miterlimit="10" version="1.1" viewBox="0 0 699.798 457.903"><clipPath id="p.0"><path d="m0 0l699.7979 0l0 457.9029l-699.7979 0l0 -457.9029z" clip-rule="nonzero"/></clipPath><g clip-path="url(#p.0)"><path fill="#000" fill-opacity="0" fill-rule="evenodd" d="m0 0l699.7979 0l0 457.9029l-699.7979 0z"/><g filter="url(#shadowFilter-p.1)"><use transform="matrix(1.0 0.0 0.0 1.0 0.0 2.0)" xlink:href="#p.1"/></g><defs><filter id="shadowFilter-p.1" filterUnits="userSpaceOnUse"><feGaussianBlur in="SourceAlpha" result="blur" stdDeviation="2"/><feComponentTransfer color-interpolation-filters="sRGB" in="blur"><feFuncR intercept="0" slope="0" type="linear"/><feFuncG intercept="0" slope="0" type="linear"/><feFuncB intercept="0" slope="0" type="linear"/><feFuncA intercept="0" slope=".5" type="linear"/></feComponentTransfer></filter></defs><g id="p.1"><path fill="#fff2cc" fill-rule="evenodd" d="m385.85303 8.472441l300.063 0l0 434.3937l-300.063 0z"/><path fill-rule="evenodd" stroke="#000" stroke-linecap="butt" stroke-linejoin="round" stroke-width="1" d="m385.85303 8.472441l300.063 0l0 434.3937l-300.063 0z"/></g><path fill="#f4cccc" fill-rule="evenodd" d="m444.83203 79.03937l20.094482 0l0 20.09449l-20.094482 0z"/><path fill-rule="evenodd" stroke="#000" stroke-linecap="butt" stroke-linejoin="round" stroke-width="1" d="m444.83203 79.03937l20.094482 0l0 20.09449l-20.094482 0z"/><path fill="#f4cccc" fill-rule="evenodd" d="m464.9265 79.03937l20.094482 0l0 20.09449l-20.094482 0z"/><path fill-rule="evenodd" stroke="#000" stroke-linecap="butt" stroke-linejoin="round" stroke-width="1" d="m464.9265 79.03937l20.094482 0l0 20.09449l-20.094482 0z"/><path fill="#f4cccc" fill-rule="evenodd" d="m485.021 79.03937l20.094482 0l0 20.09449l-20.094482 0z"/><path fill-rule="evenodd" stroke="#000" stroke-linecap="butt" stroke-linejoin="round" stroke-width="1" d="m485.021 79.03937l20.094482 0l0 20.09449l-20.094482 0z"/><path fill="#e6b8af" fill-rule="evenodd" d="m505.11548 79.03937l20.094482 0l0 20.09449l-20.094482 0z"/><path fill-rule="evenodd" stroke="#000" stroke-linecap="butt" stroke-linejoin="round" stroke-width="1" d="m505.11548 79.03937l20.094482 0l0 20.09449l-20.094482 0z"/><path fill="#f4cccc" fill-rule="evenodd" d="m525.20996 79.03937l20.094482 0l0 20.09449l-20.094482 0z"/><path fill-rule="evenodd" stroke="#000" stroke-linecap="butt" stroke-linejoin="round" stroke-width="1" d="m525.20996 79.03937l20.094482 0l0 20.09449l-20.094482 0z"/><path fill="#f4cccc" fill-rule="evenodd" d="m545.30444 79.03937l20.094482 0l0 20.09449l-20.094482 0z"/><path fill-rule="evenodd" stroke="#000" stroke-linecap="butt" stroke-linejoin="round" stroke-width="1" d="m545.30444 79.03937l20.094482 0l0 20.09449l-20.094482 0z"/><path fill="#f4cccc" fill-rule="evenodd" d="m565.3989 79.03937l20.094482 0l0 20.09449l-20.094482 0z"/><path fill-rule="evenodd" stroke="#000" stroke-linecap="butt" stroke-linejoin="round" stroke-width="1" d="m565.3989 79.03937l20.094482 0l0 20.09449l-20.094482 0z"/><path fill="#f4cccc" fill-rule="evenodd" d="m585.4934 79.03937l20.094543 0l0 20.09449l-20.094543 0z"/><path fill-rule="evenodd" stroke="#000" stroke-linecap="butt" stroke-linejoin="round" stroke-width="1" d="m585.4934 79.03937l20.094543 0l0 20.09449l-20.094543 0z"/><path fill="#f4cccc" fill-rule="evenodd" d="m605.58795 79.03937l20.094482 0l0 20.09449l-20.094482 0z"/><path fill-rule="evenodd" stroke="#000" stroke-linecap="butt" stroke-linejoin="round" stroke-width="1" d="m605.58795 79.03937l20.094482 0l0 20.09449l-20.094482 0z"/><path fill="#f4cccc" fill-rule="evenodd" d="m625.68243 79.03937l20.094482 0l0 20.09449l-20.094482 0z"/><path fill-rule="evenodd" stroke="#000" stroke-linecap="butt" stroke-linejoin="round" stroke-width="1" d="m625.68243 79.03937l20.094482 0l0 20.09449l-20.094482 0z"/><path fill="#f4cccc" fill-rule="evenodd" d="m444.83203 99.13386l20.094482 0l0 20.09449l-20.094482 0z"/><path fill-rule="evenodd" stroke="#000" stroke-linecap="butt" stroke-linejoin="round" stroke-width="1" d="m444.83203 99.13386l20.094482 0l0 20.09449l-20.094482 0z"/><path fill="#f4cccc" fill-rule="evenodd" d="m464.9265 99.13386l20.094482 0l0 20.09449l-20.094482 0z"/><path fill-rule="evenodd" stroke="#000" stroke-linecap="butt" stroke-linejoin="round" stroke-width="1" d="m464.9265 99.13386l20.094482 0l0 20.09449l-20.094482 0z"/><path fill="#f4cccc" fill-rule="evenodd" d="m485.021 99.13386l20.094482 0l0 20.09449l-20.094482 0z"/><path fill-rule="evenodd" stroke="#000" stroke-linecap="butt" stroke-linejoin="round" stroke-width="1" d="m485.021 99.13386l20.094482 0l0 20.09449l-20.094482 0z"/><path fill="#e6b8af" fill-rule="evenodd" d="m505.11548 99.13386l20.094482 0l0 20.09449l-20.094482 0z"/><path fill-rule="evenodd" stroke="#000" stroke-linecap="butt" stroke-linejoin="round" stroke-width="1" d="m505.11548 99.13386l20.094482 0l0 20.09449l-20.094482 0z"/><path fill="#f4cccc" fill-rule="evenodd" d="m525.20996 99.13386l20.094482 0l0 20.09449l-20.094482 0z"/><path fill-rule="evenodd" stroke="#000" stroke-linecap="butt" stroke-linejoin="round" stroke-width="1" d="m525.20996 99.13386l20.094482 0l0 20.09449l-20.094482 0z"/><path fill="#f4cccc" fill-rule="evenodd" d="m545.30444 99.13386l20.094482 0l0 20.09449l-20.094482 0z"/><path fill-rule="evenodd" stroke="#000" stroke-linecap="butt" stroke-linejoin="round" stroke-width="1" d="m545.30444 99.13386l20.094482 0l0 20.09449l-20.094482 0z"/><path fill="#f4cccc" fill-rule="evenodd" d="m565.3989 99.13386l20.094482 0l0 20.09449l-20.094482 0z"/><path fill-rule="evenodd" stroke="#000" stroke-linecap="butt" stroke-linejoin="round" stroke-width="1" d="m565.3989 99.13386l20.094482 0l0 20.09449l-20.094482 0z"/><path fill="#f4cccc" fill-rule="evenodd" d="m585.4934 99.13386l20.094543 0l0 20.09449l-20.094543 0z"/><path fill-rule="evenodd" stroke="#000" stroke-linecap="butt" stroke-linejoin="round" stroke-width="1" d="m585.4934 99.13386l20.094543 0l0 20.09449l-20.094543 0z"/><path fill="#f4cccc" fill-rule="evenodd" d="m605.58795 99.13386l20.094482 0l0 20.09449l-20.094482 0z"/><path fill-rule="evenodd" stroke="#000" stroke-linecap="butt" stroke-linejoin="round" stroke-width="1" d="m605.58795 99.13386l20.094482 0l0 20.09449l-20.094482 0z"/><path fill="#f4cccc" fill-rule="evenodd" d="m625.68243 99.13386l20.094482 0l0 20.09449l-20.094482 0z"/><path fill-rule="evenodd" stroke="#000" stroke-linecap="butt" stroke-linejoin="round" stroke-width="1" d="m625.68243 99.13386l20.094482 0l0 20.09449l-20.094482 0z"/><path fill="#f4cccc" fill-rule="evenodd" d="m645.7769 79.03937l20.094482 0l0 20.09449l-20.094482 0z"/><path fill-rule="evenodd" stroke="#000" stroke-linecap="butt" stroke-linejoin="round" stroke-width="1" d="m645.7769 79.03937l20.094482 0l0 20.09449l-20.094482 0z"/><path fill="#f4cccc" fill-rule="evenodd" d="m645.7769 99.13386l20.094482 0l0 20.09449l-20.094482 0z"/><path fill-rule="evenodd" stroke="#000" stroke-linecap="butt" stroke-linejoin="round" stroke-width="1" d="m645.7769 99.13386l20.094482 0l0 20.09449l-20.094482 0z"/><path fill="#f4cccc" fill-rule="evenodd" d="m444.83203 119.22835l20.094482 0l0 20.094482l-20.094482 0z"/><path fill-rule="evenodd" stroke="#000" stroke-linecap="butt" stroke-linejoin="round" stroke-width="1" d="m444.83203 119.22835l20.094482 0l0 20.094482l-20.094482 0z"/><path fill="#f4cccc" fill-rule="evenodd" d="m464.9265 119.22835l20.094482 0l0 20.094482l-20.094482 0z"/><path fill-rule="evenodd" stroke="#000" stroke-linecap="butt" stroke-linejoin="round" stroke-width="1" d="m464.9265 119.22835l20.094482 0l0 20.094482l-20.094482 0z"/><path fill="#f4cccc" fill-rule="evenodd" d="m485.021 119.22835l20.094482 0l0 20.094482l-20.094482 0z"/><path fill-rule="evenodd" stroke="#000" stroke-linecap="butt" stroke-linejoin="round" stroke-width="1" d="m485.021 119.22835l20.094482 0l0 20.094482l-20.094482 0z"/><path fill="#e6b8af" fill-rule="evenodd" d="m505.11548 119.22835l20.094482 0l0 20.094482l-20.094482 0z"/><path fill-rule="evenodd" stroke="#000" stroke-linecap="butt" stroke-linejoin="round" stroke-width="1" d="m505.11548 119.22835l20.094482 0l0 20.094482l-20.094482 0z"/><path fill="#f4cccc" fill-rule="evenodd" d="m525.20996 119.22835l20.094482 0l0 20.094482l-20.094482 0z"/><path fill-rule="evenodd" stroke="#000" stroke-linecap="butt" stroke-linejoin="round" stroke-width="1" d="m525.20996 119.22835l20.094482 0l0 20.094482l-20.094482 0z"/><path fill="#f4cccc" fill-rule="evenodd" d="m545.30444 119.22835l20.094482 0l0 20.094482l-20.094482 0z"/><path fill-rule="evenodd" stroke="#000" stroke-linecap="butt" stroke-linejoin="round" stroke-width="1" d="m545.30444 119.22835l20.094482 0l0 20.094482l-20.094482 0z"/><path fill="#f4cccc" fill-rule="evenodd" d="m565.3989 119.22835l20.094482 0l0 20.094482l-20.094482 0z"/><path fill-rule="evenodd" stroke="#000" stroke-linecap="butt" stroke-linejoin="round" stroke-width="1" d="m565.3989 119.22835l20.094482 0l0 20.094482l-20.094482 0z"/><path fill="#f4cccc" fill-rule="evenodd" d="m585.4934 119.22835l20.094543 0l0 20.094482l-20.094543 0z"/><path fill-rule="evenodd" stroke="#000" stroke-linecap="butt" stroke-linejoin="round" stroke-width="1" d="m585.4934 119.22835l20.094543 0l0 20.094482l-20.094543 0z"/><path fill="#f4cccc" fill-rule="evenodd" d="m605.58795 119.22835l20.094482 0l0 20.094482l-20.094482 0z"/><path fill-rule="evenodd" stroke="#000" stroke-linecap="butt" stroke-linejoin="round" stroke-width="1" d="m605.58795 119.22835l20.094482 0l0 20.094482l-20.094482 0z"/><path fill="#f4cccc" fill-rule="evenodd" d="m625.68243 119.22835l20.094482 0l0 20.094482l-20.094482 0z"/><path fill-rule="evenodd" stroke="#000" stroke-linecap="butt" stroke-linejoin="round" stroke-width="1" d="m625.68243 119.22835l20.094482 0l0 20.094482l-20.094482 0z"/><path fill="#f4cccc" fill-rule="evenodd" d="m444.83203 139.32283l20.094482 0l0 20.094498l-20.094482 0z"/><path fill-rule="evenodd" stroke="#000" stroke-linecap="butt" stroke-linejoin="round" stroke-width="1" d="m444.83203 139.32283l20.094482 0l0 20.094498l-20.094482 0z"/><path fill="#f4cccc" fill-rule="evenodd" d="m464.9265 139.32283l20.094482 0l0 20.094498l-20.094482 0z"/><path fill-rule="evenodd" stroke="#000" stroke-linecap="butt" stroke-linejoin="round" stroke-width="1" d="m464.9265 139.32283l20.094482 0l0 20.094498l-20.094482 0z"/><path fill="#f4cccc" fill-rule="evenodd" d="m485.021 139.32283l20.094482 0l0 20.094498l-20.094482 0z"/><path fill-rule="evenodd" stroke="#000" stroke-linecap="butt" stroke-linejoin="round" stroke-width="1" d="m485.021 139.32283l20.094482 0l0 20.094498l-20.094482 0z"/><path fill="#e6b8af" fill-rule="evenodd" d="m505.11548 139.32283l20.094482 0l0 20.094498l-20.094482 0z"/><path fill-rule="evenodd" stroke="#000" stroke-linecap="butt" stroke-linejoin="round" stroke-width="1" d="m505.11548 139.32283l20.094482 0l0 20.094498l-20.094482 0z"/><path fill="#f4cccc" fill-rule="evenodd" d="m525.20996 139.32283l20.094482 0l0 20.094498l-20.094482 0z"/><path fill-rule="evenodd" stroke="#000" stroke-linecap="butt" stroke-linejoin="round" stroke-width="1" d="m525.20996 139.32283l20.094482 0l0 20.094498l-20.094482 0z"/><path fill="#f4cccc" fill-rule="evenodd" d="m545.30444 139.32283l20.094482 0l0 20.094498l-20.094482 0z"/><path fill-rule="evenodd" stroke="#000" stroke-linecap="butt" stroke-linejoin="round" stroke-width="1" d="m545.30444 139.32283l20.094482 0l0 20.094498l-20.094482 0z"/><path fill="#f4cccc" fill-rule="evenodd" d="m565.3989 139.32283l20.094482 0l0 20.094498l-20.094482 0z"/><path fill-rule="evenodd" stroke="#000" stroke-linecap="butt" stroke-linejoin="round" stroke-width="1" d="m565.3989 139.32283l20.094482 0l0 20.094498l-20.094482 0z"/><path fill="#f4cccc" fill-rule="evenodd" d="m585.4934 139.32283l20.094543 0l0 20.094498l-20.094543 0z"/><path fill-rule="evenodd" stroke="#000" stroke-linecap="butt" stroke-linejoin="round" stroke-width="1" d="m585.4934 139.32283l20.094543 0l0 20.094498l-20.094543 0z"/><path fill="#f4cccc" fill-rule="evenodd" d="m605.58795 139.32283l20.094482 0l0 20.094498l-20.094482 0z"/><path fill-rule="evenodd" stroke="#000" stroke-linecap="butt" stroke-linejoin="round" stroke-width="1" d="m605.58795 139.32283l20.094482 0l0 20.094498l-20.094482 0z"/><path fill="#f4cccc" fill-rule="evenodd" d="m625.68243 139.32283l20.094482 0l0 20.094498l-20.094482 0z"/><path fill-rule="evenodd" stroke="#000" stroke-linecap="butt" stroke-linejoin="round" stroke-width="1" d="m625.68243 139.32283l20.094482 0l0 20.094498l-20.094482 0z"/><path fill="#f4cccc" fill-rule="evenodd" d="m645.7769 119.22835l20.094482 0l0 20.094482l-20.094482 0z"/><path fill-rule="evenodd" stroke="#000" stroke-linecap="butt" stroke-linejoin="round" stroke-width="1" d="m645.7769 119.22835l20.094482 0l0 20.094482l-20.094482 0z"/><path fill="#f4cccc" fill-rule="evenodd" d="m645.7769 139.32283l20.094482 0l0 20.094498l-20.094482 0z"/><path fill-rule="evenodd" stroke="#000" stroke-linecap="butt" stroke-linejoin="round" stroke-width="1" d="m645.7769 139.32283l20.094482 0l0 20.094498l-20.094482 0z"/><path fill="#f4cccc" fill-rule="evenodd" d="m444.83203 159.41733l20.094482 0l0 20.094482l-20.094482 0z"/><path fill-rule="evenodd" stroke="#000" stroke-linecap="butt" stroke-linejoin="round" stroke-width="1" d="m444.83203 159.41733l20.094482 0l0 20.094482l-20.094482 0z"/><path fill="#f4cccc" fill-rule="evenodd" d="m464.9265 159.41733l20.094482 0l0 20.094482l-20.094482 0z"/><path fill-rule="evenodd" stroke="#000" stroke-linecap="butt" stroke-linejoin="round" stroke-width="1" d="m464.9265 159.41733l20.094482 0l0 20.094482l-20.094482 0z"/><path fill="#f4cccc" fill-rule="evenodd" d="m485.021 159.41733l20.094482 0l0 20.094482l-20.094482 0z"/><path fill-rule="evenodd" stroke="#000" stroke-linecap="butt" stroke-linejoin="round" stroke-width="1" d="m485.021 159.41733l20.094482 0l0 20.094482l-20.094482 0z"/><path fill="#e6b8af" fill-rule="evenodd" d="m505.11548 159.41733l20.094482 0l0 20.094482l-20.094482 0z"/><path fill-rule="evenodd" stroke="#000" stroke-linecap="butt" stroke-linejoin="round" stroke-width="1" d="m505.11548 159.41733l20.094482 0l0 20.094482l-20.094482 0z"/><path fill="#f4cccc" fill-rule="evenodd" d="m525.20996 159.41733l20.094482 0l0 20.094482l-20.094482 0z"/><path fill-rule="evenodd" stroke="#000" stroke-linecap="butt" stroke-linejoin="round" stroke-width="1" d="m525.20996 159.41733l20.094482 0l0 20.094482l-20.094482 0z"/><path fill="#f4cccc" fill-rule="evenodd" d="m545.30444 159.41733l20.094482 0l0 20.094482l-20.094482 0z"/><path fill-rule="evenodd" stroke="#000" stroke-linecap="butt" stroke-linejoin="round" stroke-width="1" d="m545.30444 159.41733l20.094482 0l0 20.094482l-20.094482 0z"/><path fill="#f4cccc" fill-rule="evenodd" d="m565.3989 159.41733l20.094482 0l0 20.094482l-20.094482 0z"/><path fill-rule="evenodd" stroke="#000" stroke-linecap="butt" stroke-linejoin="round" stroke-width="1" d="m565.3989 159.41733l20.094482 0l0 20.094482l-20.094482 0z"/><path fill="#f4cccc" fill-rule="evenodd" d="m585.4934 159.41733l20.094543 0l0 20.094482l-20.094543 0z"/><path fill-rule="evenodd" stroke="#000" stroke-linecap="butt" stroke-linejoin="round" stroke-width="1" d="m585.4934 159.41733l20.094543 0l0 20.094482l-20.094543 0z"/><path fill="#f4cccc" fill-rule="evenodd" d="m605.58795 159.41733l20.094482 0l0 20.094482l-20.094482 0z"/><path fill-rule="evenodd" stroke="#000" stroke-linecap="butt" stroke-linejoin="round" stroke-width="1" d="m605.58795 159.41733l20.094482 0l0 20.094482l-20.094482 0z"/><path fill="#f4cccc" fill-rule="evenodd" d="m625.68243 159.41733l20.094482 0l0 20.094482l-20.094482 0z"/><path fill-rule="evenodd" stroke="#000" stroke-linecap="butt" stroke-linejoin="round" stroke-width="1" d="m625.68243 159.41733l20.094482 0l0 20.094482l-20.094482 0z"/><path fill="#f4cccc" fill-rule="evenodd" d="m444.83203 179.51181l20.094482 0l0 20.094482l-20.094482 0z"/><path fill-rule="evenodd" stroke="#000" stroke-linecap="butt" stroke-linejoin="round" stroke-width="1" d="m444.83203 179.51181l20.094482 0l0 20.094482l-20.094482 0z"/><path fill="#f4cccc" fill-rule="evenodd" d="m464.9265 179.51181l20.094482 0l0 20.094482l-20.094482 0z"/><path fill-rule="evenodd" stroke="#000" stroke-linecap="butt" stroke-linejoin="round" stroke-width="1" d="m464.9265 179.51181l20.094482 0l0 20.094482l-20.094482 0z"/><path fill="#f4cccc" fill-rule="evenodd" d="m485.021 179.51181l20.094482 0l0 20.094482l-20.094482 0z"/><path fill-rule="evenodd" stroke="#000" stroke-linecap="butt" stroke-linejoin="round" stroke-width="1" d="m485.021 179.51181l20.094482 0l0 20.094482l-20.094482 0z"/><path fill="#e6b8af" fill-rule="evenodd" d="m505.11548 179.51181l20.094482 0l0 20.094482l-20.094482 0z"/><path fill-rule="evenodd" stroke="#000" stroke-linecap="butt" stroke-linejoin="round" stroke-width="1" d="m505.11548 179.51181l20.094482 0l0 20.094482l-20.094482 0z"/><path fill="#f4cccc" fill-rule="evenodd" d="m525.20996 179.51181l20.094482 0l0 20.094482l-20.094482 0z"/><path fill-rule="evenodd" stroke="#000" stroke-linecap="butt" stroke-linejoin="round" stroke-width="1" d="m525.20996 179.51181l20.094482 0l0 20.094482l-20.094482 0z"/><path fill="#f4cccc" fill-rule="evenodd" d="m545.30444 179.51181l20.094482 0l0 20.094482l-20.094482 0z"/><path fill-rule="evenodd" stroke="#000" stroke-linecap="butt" stroke-linejoin="round" stroke-width="1" d="m545.30444 179.51181l20.094482 0l0 20.094482l-20.094482 0z"/><path fill="#f4cccc" fill-rule="evenodd" d="m565.3989 179.51181l20.094482 0l0 20.094482l-20.094482 0z"/><path fill-rule="evenodd" stroke="#000" stroke-linecap="butt" stroke-linejoin="round" stroke-width="1" d="m565.3989 179.51181l20.094482 0l0 20.094482l-20.094482 0z"/><path fill="#f4cccc" fill-rule="evenodd" d="m585.4934 179.51181l20.094543 0l0 20.094482l-20.094543 0z"/><path fill-rule="evenodd" stroke="#000" stroke-linecap="butt" stroke-linejoin="round" stroke-width="1" d="m585.4934 179.51181l20.094543 0l0 20.094482l-20.094543 0z"/><path fill="#f4cccc" fill-rule="evenodd" d="m605.58795 179.51181l20.094482 0l0 20.094482l-20.094482 0z"/><path fill-rule="evenodd" stroke="#000" stroke-linecap="butt" stroke-linejoin="round" stroke-width="1" d="m605.58795 179.51181l20.094482 0l0 20.094482l-20.094482 0z"/><path fill="#f4cccc" fill-rule="evenodd" d="m625.68243 179.51181l20.094482 0l0 20.094482l-20.094482 0z"/><path fill-rule="evenodd" stroke="#000" stroke-linecap="butt" stroke-linejoin="round" stroke-width="1" d="m625.68243 179.51181l20.094482 0l0 20.094482l-20.094482 0z"/><path fill="#f4cccc" fill-rule="evenodd" d="m645.7769 159.41733l20.094482 0l0 20.094482l-20.094482 0z"/><path fill-rule="evenodd" stroke="#000" stroke-linecap="butt" stroke-linejoin="round" stroke-width="1" d="m645.7769 159.41733l20.094482 0l0 20.094482l-20.094482 0z"/><path fill="#f4cccc" fill-rule="evenodd" d="m645.7769 179.51181l20.094482 0l0 20.094482l-20.094482 0z"/><path fill-rule="evenodd" stroke="#000" stroke-linecap="butt" stroke-linejoin="round" stroke-width="1" d="m645.7769 179.51181l20.094482 0l0 20.094482l-20.094482 0z"/><path fill="#e6b8af" fill-rule="evenodd" d="m444.83203 199.6063l20.094482 0l0 20.094498l-20.094482 0z"/><path fill-rule="evenodd" stroke="#000" stroke-linecap="butt" stroke-linejoin="round" stroke-width="1" d="m444.83203 199.6063l20.094482 0l0 20.094498l-20.094482 0z"/><path fill="#e6b8af" fill-rule="evenodd" d="m464.9265 199.6063l20.094482 0l0 20.094498l-20.094482 0z"/><path fill-rule="evenodd" stroke="#000" stroke-linecap="butt" stroke-linejoin="round" stroke-width="1" d="m464.9265 199.6063l20.094482 0l0 20.094498l-20.094482 0z"/><path fill="#e6b8af" fill-rule="evenodd" d="m485.021 199.6063l20.094482 0l0 20.094498l-20.094482 0z"/><path fill-rule="evenodd" stroke="#000" stroke-linecap="butt" stroke-linejoin="round" stroke-width="1" d="m485.021 199.6063l20.094482 0l0 20.094498l-20.094482 0z"/><path fill="#ea9999" fill-rule="evenodd" d="m505.11548 199.6063l20.094482 0l0 20.094498l-20.094482 0z"/><path fill-rule="evenodd" stroke="#000" stroke-linecap="butt" stroke-linejoin="round" stroke-width="1" d="m505.11548 199.6063l20.094482 0l0 20.094498l-20.094482 0z"/><path fill="#ea9999" fill-rule="evenodd" d="m525.20996 199.6063l20.094482 0l0 20.094498l-20.094482 0z"/><path fill-rule="evenodd" stroke="#000" stroke-linecap="butt" stroke-linejoin="round" stroke-width="1" d="m525.20996 199.6063l20.094482 0l0 20.094498l-20.094482 0z"/><path fill="#ea9999" fill-rule="evenodd" d="m545.30444 199.6063l20.094482 0l0 20.094498l-20.094482 0z"/><path fill-rule="evenodd" stroke="#000" stroke-linecap="butt" stroke-linejoin="round" stroke-width="1" d="m545.30444 199.6063l20.094482 0l0 20.094498l-20.094482 0z"/><path fill="#ea9999" fill-rule="evenodd" d="m565.3989 199.6063l20.094482 0l0 20.094498l-20.094482 0z"/><path fill-rule="evenodd" stroke="#000" stroke-linecap="butt" stroke-linejoin="round" stroke-width="1" d="m565.3989 199.6063l20.094482 0l0 20.094498l-20.094482 0z"/><path fill="#ea9999" fill-rule="evenodd" d="m585.4934 199.6063l20.094543 0l0 20.094498l-20.094543 0z"/><path fill-rule="evenodd" stroke="#000" stroke-linecap="butt" stroke-linejoin="round" stroke-width="1" d="m585.4934 199.6063l20.094543 0l0 20.094498l-20.094543 0z"/><path fill="#ea9999" fill-rule="evenodd" d="m605.58795 199.6063l20.094482 0l0 20.094498l-20.094482 0z"/><path fill-rule="evenodd" stroke="#000" stroke-linecap="butt" stroke-linejoin="round" stroke-width="1" d="m605.58795 199.6063l20.094482 0l0 20.094498l-20.094482 0z"/><path fill="#f4cccc" fill-rule="evenodd" d="m625.68243 199.6063l20.094482 0l0 20.094498l-20.094482 0z"/><path fill-rule="evenodd" stroke="#000" stroke-linecap="butt" stroke-linejoin="round" stroke-width="1" d="m625.68243 199.6063l20.094482 0l0 20.094498l-20.094482 0z"/><path fill="#f4cccc" fill-rule="evenodd" d="m444.83203 219.70079l20.094482 0l0 20.094482l-20.094482 0z"/><path fill-rule="evenodd" stroke="#000" stroke-linecap="butt" stroke-linejoin="round" stroke-width="1" d="m444.83203 219.70079l20.094482 0l0 20.094482l-20.094482 0z"/><path fill="#f4cccc" fill-rule="evenodd" d="m464.9265 219.70079l20.094482 0l0 20.094482l-20.094482 0z"/><path fill-rule="evenodd" stroke="#000" stroke-linecap="butt" stroke-linejoin="round" stroke-width="1" d="m464.9265 219.70079l20.094482 0l0 20.094482l-20.094482 0z"/><path fill="#f4cccc" fill-rule="evenodd" d="m485.021 219.70079l20.094482 0l0 20.094482l-20.094482 0z"/><path fill-rule="evenodd" stroke="#000" stroke-linecap="butt" stroke-linejoin="round" stroke-width="1" d="m485.021 219.70079l20.094482 0l0 20.094482l-20.094482 0z"/><path fill="#ea9999" fill-rule="evenodd" d="m505.11548 219.70079l20.094482 0l0 20.094482l-20.094482 0z"/><path fill-rule="evenodd" stroke="#000" stroke-linecap="butt" stroke-linejoin="round" stroke-width="1" d="m505.11548 219.70079l20.094482 0l0 20.094482l-20.094482 0z"/><path fill="#ea9999" fill-rule="evenodd" d="m525.20996 219.70079l20.094482 0l0 20.094482l-20.094482 0z"/><path fill-rule="evenodd" stroke="#000" stroke-linecap="butt" stroke-linejoin="round" stroke-width="1" d="m525.20996 219.70079l20.094482 0l0 20.094482l-20.094482 0z"/><path fill="#ea9999" fill-rule="evenodd" d="m545.30444 219.70079l20.094482 0l0 20.094482l-20.094482 0z"/><path fill-rule="evenodd" stroke="#000" stroke-linecap="butt" stroke-linejoin="round" stroke-width="1" d="m545.30444 219.70079l20.094482 0l0 20.094482l-20.094482 0z"/><path fill="#ea9999" fill-rule="evenodd" d="m565.3989 219.70079l20.094482 0l0 20.094482l-20.094482 0z"/><path fill-rule="evenodd" stroke="#000" stroke-linecap="butt" stroke-linejoin="round" stroke-width="1" d="m565.3989 219.70079l20.094482 0l0 20.094482l-20.094482 0z"/><path fill="#ea9999" fill-rule="evenodd" d="m585.4934 219.70079l20.094543 0l0 20.094482l-20.094543 0z"/><path fill-rule="evenodd" stroke="#000" stroke-linecap="butt" stroke-linejoin="round" stroke-width="1" d="m585.4934 219.70079l20.094543 0l0 20.094482l-20.094543 0z"/><path fill="#ea9999" fill-rule="evenodd" d="m605.58795 219.70079l20.094482 0l0 20.094482l-20.094482 0z"/><path fill-rule="evenodd" stroke="#000" stroke-linecap="butt" stroke-linejoin="round" stroke-width="1" d="m605.58795 219.70079l20.094482 0l0 20.094482l-20.094482 0z"/><path fill="#f4cccc" fill-rule="evenodd" d="m625.68243 219.70079l20.094482 0l0 20.094482l-20.094482 0z"/><path fill-rule="evenodd" stroke="#000" stroke-linecap="butt" stroke-linejoin="round" stroke-width="1" d="m625.68243 219.70079l20.094482 0l0 20.094482l-20.094482 0z"/><path fill="#f4cccc" fill-rule="evenodd" d="m645.7769 199.6063l20.094482 0l0 20.094498l-20.094482 0z"/><path fill-rule="evenodd" stroke="#000" stroke-linecap="butt" stroke-linejoin="round" stroke-width="1" d="m645.7769 199.6063l20.094482 0l0 20.094498l-20.094482 0z"/><path fill="#f4cccc" fill-rule="evenodd" d="m645.7769 219.70079l20.094482 0l0 20.094482l-20.094482 0z"/><path fill-rule="evenodd" stroke="#000" stroke-linecap="butt" stroke-linejoin="round" stroke-width="1" d="m645.7769 219.70079l20.094482 0l0 20.094482l-20.094482 0z"/><path fill="#f4cccc" fill-rule="evenodd" d="m444.83203 239.79527l20.094482 0l0 20.094498l-20.094482 0z"/><path fill-rule="evenodd" stroke="#000" stroke-linecap="butt" stroke-linejoin="round" stroke-width="1" d="m444.83203 239.79527l20.094482 0l0 20.094498l-20.094482 0z"/><path fill="#f4cccc" fill-rule="evenodd" d="m464.9265 239.79527l20.094482 0l0 20.094498l-20.094482 0z"/><path fill-rule="evenodd" stroke="#000" stroke-linecap="butt" stroke-linejoin="round" stroke-width="1" d="m464.9265 239.79527l20.094482 0l0 20.094498l-20.094482 0z"/><path fill="#f4cccc" fill-rule="evenodd" d="m485.021 239.79527l20.094482 0l0 20.094498l-20.094482 0z"/><path fill-rule="evenodd" stroke="#000" stroke-linecap="butt" stroke-linejoin="round" stroke-width="1" d="m485.021 239.79527l20.094482 0l0 20.094498l-20.094482 0z"/><path fill="#ea9999" fill-rule="evenodd" d="m505.11548 239.79527l20.094482 0l0 20.094498l-20.094482 0z"/><path fill-rule="evenodd" stroke="#000" stroke-linecap="butt" stroke-linejoin="round" stroke-width="1" d="m505.11548 239.79527l20.094482 0l0 20.094498l-20.094482 0z"/><path fill="#ea9999" fill-rule="evenodd" d="m525.20996 239.79527l20.094482 0l0 20.094498l-20.094482 0z"/><path fill-rule="evenodd" stroke="#000" stroke-linecap="butt" stroke-linejoin="round" stroke-width="1" d="m525.20996 239.79527l20.094482 0l0 20.094498l-20.094482 0z"/><path fill="#ea9999" fill-rule="evenodd" d="m545.30444 239.79527l20.094482 0l0 20.094498l-20.094482 0z"/><path fill-rule="evenodd" stroke="#000" stroke-linecap="butt" stroke-linejoin="round" stroke-width="1" d="m545.30444 239.79527l20.094482 0l0 20.094498l-20.094482 0z"/><path fill="#ea9999" fill-rule="evenodd" d="m565.3989 239.79527l20.094482 0l0 20.094498l-20.094482 0z"/><path fill-rule="evenodd" stroke="#000" stroke-linecap="butt" stroke-linejoin="round" stroke-width="1" d="m565.3989 239.79527l20.094482 0l0 20.094498l-20.094482 0z"/><path fill="#ea9999" fill-rule="evenodd" d="m585.4934 239.79527l20.094543 0l0 20.094498l-20.094543 0z"/><path fill-rule="evenodd" stroke="#000" stroke-linecap="butt" stroke-linejoin="round" stroke-width="1" d="m585.4934 239.79527l20.094543 0l0 20.094498l-20.094543 0z"/><path fill="#ea9999" fill-rule="evenodd" d="m605.58795 239.79527l20.094482 0l0 20.094498l-20.094482 0z"/><path fill-rule="evenodd" stroke="#000" stroke-linecap="butt" stroke-linejoin="round" stroke-width="1" d="m605.58795 239.79527l20.094482 0l0 20.094498l-20.094482 0z"/><path fill="#f4cccc" fill-rule="evenodd" d="m625.68243 239.79527l20.094482 0l0 20.094498l-20.094482 0z"/><path fill-rule="evenodd" stroke="#000" stroke-linecap="butt" stroke-linejoin="round" stroke-width="1" d="m625.68243 239.79527l20.094482 0l0 20.094498l-20.094482 0z"/><path fill="#f4cccc" fill-rule="evenodd" d="m444.83203 259.88977l20.094482 0l0 20.094482l-20.094482 0z"/><path fill-rule="evenodd" stroke="#000" stroke-linecap="butt" stroke-linejoin="round" stroke-width="1" d="m444.83203 259.88977l20.094482 0l0 20.094482l-20.094482 0z"/><path fill="#f4cccc" fill-rule="evenodd" d="m464.9265 259.88977l20.094482 0l0 20.094482l-20.094482 0z"/><path fill-rule="evenodd" stroke="#000" stroke-linecap="butt" stroke-linejoin="round" stroke-width="1" d="m464.9265 259.88977l20.094482 0l0 20.094482l-20.094482 0z"/><path fill="#f4cccc" fill-rule="evenodd" d="m485.021 259.88977l20.094482 0l0 20.094482l-20.094482 0z"/><path fill-rule="evenodd" stroke="#000" stroke-linecap="butt" stroke-linejoin="round" stroke-width="1" d="m485.021 259.88977l20.094482 0l0 20.094482l-20.094482 0z"/><path fill="#ea9999" fill-rule="evenodd" d="m505.11548 259.88977l20.094482 0l0 20.094482l-20.094482 0z"/><path fill-rule="evenodd" stroke="#000" stroke-linecap="butt" stroke-linejoin="round" stroke-width="1" d="m505.11548 259.88977l20.094482 0l0 20.094482l-20.094482 0z"/><path fill="#ea9999" fill-rule="evenodd" d="m525.20996 259.88977l20.094482 0l0 20.094482l-20.094482 0z"/><path fill-rule="evenodd" stroke="#000" stroke-linecap="butt" stroke-linejoin="round" stroke-width="1" d="m525.20996 259.88977l20.094482 0l0 20.094482l-20.094482 0z"/><path fill="#ea9999" fill-rule="evenodd" d="m545.30444 259.88977l20.094482 0l0 20.094482l-20.094482 0z"/><path fill-rule="evenodd" stroke="#000" stroke-linecap="butt" stroke-linejoin="round" stroke-width="1" d="m545.30444 259.88977l20.094482 0l0 20.094482l-20.094482 0z"/><path fill="#c00" fill-rule="evenodd" d="m565.3989 259.88977l20.094482 0l0 20.094482l-20.094482 0z"/><path fill-rule="evenodd" stroke="#000" stroke-linecap="butt" stroke-linejoin="round" stroke-width="1" d="m565.3989 259.88977l20.094482 0l0 20.094482l-20.094482 0z"/><path fill="#ea9999" fill-rule="evenodd" d="m585.4934 259.88977l20.094543 0l0 20.094482l-20.094543 0z"/><path fill-rule="evenodd" stroke="#000" stroke-linecap="butt" stroke-linejoin="round" stroke-width="1" d="m585.4934 259.88977l20.094543 0l0 20.094482l-20.094543 0z"/><path fill="#ea9999" fill-rule="evenodd" d="m605.58795 259.88977l20.094482 0l0 20.094482l-20.094482 0z"/><path fill-rule="evenodd" stroke="#000" stroke-linecap="butt" stroke-linejoin="round" stroke-width="1" d="m605.58795 259.88977l20.094482 0l0 20.094482l-20.094482 0z"/><path fill="#f4cccc" fill-rule="evenodd" d="m625.68243 259.88977l20.094482 0l0 20.094482l-20.094482 0z"/><path fill-rule="evenodd" stroke="#000" stroke-linecap="butt" stroke-linejoin="round" stroke-width="1" d="m625.68243 259.88977l20.094482 0l0 20.094482l-20.094482 0z"/><path fill="#f4cccc" fill-rule="evenodd" d="m645.7769 239.79527l20.094482 0l0 20.094498l-20.094482 0z"/><path fill-rule="evenodd" stroke="#000" stroke-linecap="butt" stroke-linejoin="round" stroke-width="1" d="m645.7769 239.79527l20.094482 0l0 20.094498l-20.094482 0z"/><path fill="#f4cccc" fill-rule="evenodd" d="m645.7769 259.88977l20.094482 0l0 20.094482l-20.094482 0z"/><path fill-rule="evenodd" stroke="#000" stroke-linecap="butt" stroke-linejoin="round" stroke-width="1" d="m645.7769 259.88977l20.094482 0l0 20.094482l-20.094482 0z"/><path fill="#f4cccc" fill-rule="evenodd" d="m444.83203 279.98425l20.094482 0l0 20.094482l-20.094482 0z"/><path fill-rule="evenodd" stroke="#000" stroke-linecap="butt" stroke-linejoin="round" stroke-width="1" d="m444.83203 279.98425l20.094482 0l0 20.094482l-20.094482 0z"/><path fill="#f4cccc" fill-rule="evenodd" d="m464.9265 279.98425l20.094482 0l0 20.094482l-20.094482 0z"/><path fill-rule="evenodd" stroke="#000" stroke-linecap="butt" stroke-linejoin="round" stroke-width="1" d="m464.9265 279.98425l20.094482 0l0 20.094482l-20.094482 0z"/><path fill="#f4cccc" fill-rule="evenodd" d="m485.021 279.98425l20.094482 0l0 20.094482l-20.094482 0z"/><path fill-rule="evenodd" stroke="#000" stroke-linecap="butt" stroke-linejoin="round" stroke-width="1" d="m485.021 279.98425l20.094482 0l0 20.094482l-20.094482 0z"/><path fill="#ea9999" fill-rule="evenodd" d="m505.11548 279.98425l20.094482 0l0 20.094482l-20.094482 0z"/><path fill-rule="evenodd" stroke="#000" stroke-linecap="butt" stroke-linejoin="round" stroke-width="1" d="m505.11548 279.98425l20.094482 0l0 20.094482l-20.094482 0z"/><path fill="#ea9999" fill-rule="evenodd" d="m525.20996 279.98425l20.094482 0l0 20.094482l-20.094482 0z"/><path fill-rule="evenodd" stroke="#000" stroke-linecap="butt" stroke-linejoin="round" stroke-width="1" d="m525.20996 279.98425l20.094482 0l0 20.094482l-20.094482 0z"/><path fill="#ea9999" fill-rule="evenodd" d="m545.30444 279.98425l20.094482 0l0 20.094482l-20.094482 0z"/><path fill-rule="evenodd" stroke="#000" stroke-linecap="butt" stroke-linejoin="round" stroke-width="1" d="m545.30444 279.98425l20.094482 0l0 20.094482l-20.094482 0z"/><path fill="#ea9999" fill-rule="evenodd" d="m565.3989 279.98425l20.094482 0l0 20.094482l-20.094482 0z"/><path fill-rule="evenodd" stroke="#000" stroke-linecap="butt" stroke-linejoin="round" stroke-width="1" d="m565.3989 279.98425l20.094482 0l0 20.094482l-20.094482 0z"/><path fill="#ea9999" fill-rule="evenodd" d="m585.4934 279.98425l20.094543 0l0 20.094482l-20.094543 0z"/><path fill-rule="evenodd" stroke="#000" stroke-linecap="butt" stroke-linejoin="round" stroke-width="1" d="m585.4934 279.98425l20.094543 0l0 20.094482l-20.094543 0z"/><path fill="#ea9999" fill-rule="evenodd" d="m605.58795 279.98425l20.094482 0l0 20.094482l-20.094482 0z"/><path fill-rule="evenodd" stroke="#000" stroke-linecap="butt" stroke-linejoin="round" stroke-width="1" d="m605.58795 279.98425l20.094482 0l0 20.094482l-20.094482 0z"/><path fill="#f4cccc" fill-rule="evenodd" d="m625.68243 279.98425l20.094482 0l0 20.094482l-20.094482 0z"/><path fill-rule="evenodd" stroke="#000" stroke-linecap="butt" stroke-linejoin="round" stroke-width="1" d="m625.68243 279.98425l20.094482 0l0 20.094482l-20.094482 0z"/><path fill="#f4cccc" fill-rule="evenodd" d="m444.83203 300.07874l20.094482 0l0 20.094482l-20.094482 0z"/><path fill-rule="evenodd" stroke="#000" stroke-linecap="butt" stroke-linejoin="round" stroke-width="1" d="m444.83203 300.07874l20.094482 0l0 20.094482l-20.094482 0z"/><path fill="#f4cccc" fill-rule="evenodd" d="m464.9265 300.07874l20.094482 0l0 20.094482l-20.094482 0z"/><path fill-rule="evenodd" stroke="#000" stroke-linecap="butt" stroke-linejoin="round" stroke-width="1" d="m464.9265 300.07874l20.094482 0l0 20.094482l-20.094482 0z"/><path fill="#f4cccc" fill-rule="evenodd" d="m485.021 300.07874l20.094482 0l0 20.094482l-20.094482 0z"/><path fill-rule="evenodd" stroke="#000" stroke-linecap="butt" stroke-linejoin="round" stroke-width="1" d="m485.021 300.07874l20.094482 0l0 20.094482l-20.094482 0z"/><path fill="#ea9999" fill-rule="evenodd" d="m505.11548 300.07874l20.094482 0l0 20.094482l-20.094482 0z"/><path fill-rule="evenodd" stroke="#000" stroke-linecap="butt" stroke-linejoin="round" stroke-width="1" d="m505.11548 300.07874l20.094482 0l0 20.094482l-20.094482 0z"/><path fill="#ea9999" fill-rule="evenodd" d="m525.20996 300.07874l20.094482 0l0 20.094482l-20.094482 0z"/><path fill-rule="evenodd" stroke="#000" stroke-linecap="butt" stroke-linejoin="round" stroke-width="1" d="m525.20996 300.07874l20.094482 0l0 20.094482l-20.094482 0z"/><path fill="#ea9999" fill-rule="evenodd" d="m545.30444 300.07874l20.094482 0l0 20.094482l-20.094482 0z"/><path fill-rule="evenodd" stroke="#000" stroke-linecap="butt" stroke-linejoin="round" stroke-width="1" d="m545.30444 300.07874l20.094482 0l0 20.094482l-20.094482 0z"/><path fill="#ea9999" fill-rule="evenodd" d="m565.3989 300.07874l20.094482 0l0 20.094482l-20.094482 0z"/><path fill-rule="evenodd" stroke="#000" stroke-linecap="butt" stroke-linejoin="round" stroke-width="1" d="m565.3989 300.07874l20.094482 0l0 20.094482l-20.094482 0z"/><path fill="#ea9999" fill-rule="evenodd" d="m585.4934 300.07874l20.094543 0l0 20.094482l-20.094543 0z"/><path fill-rule="evenodd" stroke="#000" stroke-linecap="butt" stroke-linejoin="round" stroke-width="1" d="m585.4934 300.07874l20.094543 0l0 20.094482l-20.094543 0z"/><path fill="#ea9999" fill-rule="evenodd" d="m605.58795 300.07874l20.094482 0l0 20.094482l-20.094482 0z"/><path fill-rule="evenodd" stroke="#000" stroke-linecap="butt" stroke-linejoin="round" stroke-width="1" d="m605.58795 300.07874l20.094482 0l0 20.094482l-20.094482 0z"/><path fill="#f4cccc" fill-rule="evenodd" d="m625.68243 300.07874l20.094482 0l0 20.094482l-20.094482 0z"/><path fill-rule="evenodd" stroke="#000" stroke-linecap="butt" stroke-linejoin="round" stroke-width="1" d="m625.68243 300.07874l20.094482 0l0 20.094482l-20.094482 0z"/><path fill="#f4cccc" fill-rule="evenodd" d="m645.7769 279.98425l20.094482 0l0 20.094482l-20.094482 0z"/><path fill-rule="evenodd" stroke="#000" stroke-linecap="butt" stroke-linejoin="round" stroke-width="1" d="m645.7769 279.98425l20.094482 0l0 20.094482l-20.094482 0z"/><path fill="#f4cccc" fill-rule="evenodd" d="m645.7769 300.07874l20.094482 0l0 20.094482l-20.094482 0z"/><path fill-rule="evenodd" stroke="#000" stroke-linecap="butt" stroke-linejoin="round" stroke-width="1" d="m645.7769 300.07874l20.094482 0l0 20.094482l-20.094482 0z"/><path fill="#f4cccc" fill-rule="evenodd" d="m444.83203 320.17322l20.094482 0l0 20.094513l-20.094482 0z"/><path fill-rule="evenodd" stroke="#000" stroke-linecap="butt" stroke-linejoin="round" stroke-width="1" d="m444.83203 320.17322l20.094482 0l0 20.094513l-20.094482 0z"/><path fill="#f4cccc" fill-rule="evenodd" d="m464.9265 320.17322l20.094482 0l0 20.094513l-20.094482 0z"/><path fill-rule="evenodd" stroke="#000" stroke-linecap="butt" stroke-linejoin="round" stroke-width="1" d="m464.9265 320.17322l20.094482 0l0 20.094513l-20.094482 0z"/><path fill="#f4cccc" fill-rule="evenodd" d="m485.021 320.17322l20.094482 0l0 20.094513l-20.094482 0z"/><path fill-rule="evenodd" stroke="#000" stroke-linecap="butt" stroke-linejoin="round" stroke-width="1" d="m485.021 320.17322l20.094482 0l0 20.094513l-20.094482 0z"/><path fill="#ea9999" fill-rule="evenodd" d="m505.11548 320.17322l20.094482 0l0 20.094513l-20.094482 0z"/><path fill-rule="evenodd" stroke="#000" stroke-linecap="butt" stroke-linejoin="round" stroke-width="1" d="m505.11548 320.17322l20.094482 0l0 20.094513l-20.094482 0z"/><path fill="#ea9999" fill-rule="evenodd" d="m525.20996 320.17322l20.094482 0l0 20.094513l-20.094482 0z"/><path fill-rule="evenodd" stroke="#000" stroke-linecap="butt" stroke-linejoin="round" stroke-width="1" d="m525.20996 320.17322l20.094482 0l0 20.094513l-20.094482 0z"/><path fill="#ea9999" fill-rule="evenodd" d="m545.30444 320.17322l20.094482 0l0 20.094513l-20.094482 0z"/><path fill-rule="evenodd" stroke="#000" stroke-linecap="butt" stroke-linejoin="round" stroke-width="1" d="m545.30444 320.17322l20.094482 0l0 20.094513l-20.094482 0z"/><path fill="#ea9999" fill-rule="evenodd" d="m565.3989 320.17322l20.094482 0l0 20.094513l-20.094482 0z"/><path fill-rule="evenodd" stroke="#000" stroke-linecap="butt" stroke-linejoin="round" stroke-width="1" d="m565.3989 320.17322l20.094482 0l0 20.094513l-20.094482 0z"/><path fill="#ea9999" fill-rule="evenodd" d="m585.4934 320.17322l20.094543 0l0 20.094513l-20.094543 0z"/><path fill-rule="evenodd" stroke="#000" stroke-linecap="butt" stroke-linejoin="round" stroke-width="1" d="m585.4934 320.17322l20.094543 0l0 20.094513l-20.094543 0z"/><path fill="#ea9999" fill-rule="evenodd" d="m605.58795 320.17322l20.094482 0l0 20.094513l-20.094482 0z"/><path fill-rule="evenodd" stroke="#000" stroke-linecap="butt" stroke-linejoin="round" stroke-width="1" d="m605.58795 320.17322l20.094482 0l0 20.094513l-20.094482 0z"/><path fill="#f4cccc" fill-rule="evenodd" d="m625.68243 320.17322l20.094482 0l0 20.094513l-20.094482 0z"/><path fill-rule="evenodd" stroke="#000" stroke-linecap="butt" stroke-linejoin="round" stroke-width="1" d="m625.68243 320.17322l20.094482 0l0 20.094513l-20.094482 0z"/><path fill="#f4cccc" fill-rule="evenodd" d="m444.83203 340.26773l20.094482 0l0 20.094482l-20.094482 0z"/><path fill-rule="evenodd" stroke="#000" stroke-linecap="butt" stroke-linejoin="round" stroke-width="1" d="m444.83203 340.26773l20.094482 0l0 20.094482l-20.094482 0z"/><path fill="#f4cccc" fill-rule="evenodd" d="m464.9265 340.26773l20.094482 0l0 20.094482l-20.094482 0z"/><path fill-rule="evenodd" stroke="#000" stroke-linecap="butt" stroke-linejoin="round" stroke-width="1" d="m464.9265 340.26773l20.094482 0l0 20.094482l-20.094482 0z"/><path fill="#f4cccc" fill-rule="evenodd" d="m485.021 340.26773l20.094482 0l0 20.094482l-20.094482 0z"/><path fill-rule="evenodd" stroke="#000" stroke-linecap="butt" stroke-linejoin="round" stroke-width="1" d="m485.021 340.26773l20.094482 0l0 20.094482l-20.094482 0z"/><path fill="#ea9999" fill-rule="evenodd" d="m505.11548 340.26773l20.094482 0l0 20.094482l-20.094482 0z"/><path fill-rule="evenodd" stroke="#000" stroke-linecap="butt" stroke-linejoin="round" stroke-width="1" d="m505.11548 340.26773l20.094482 0l0 20.094482l-20.094482 0z"/><path fill="#ea9999" fill-rule="evenodd" d="m525.20996 340.26773l20.094482 0l0 20.094482l-20.094482 0z"/><path fill-rule="evenodd" stroke="#000" stroke-linecap="butt" stroke-linejoin="round" stroke-width="1" d="m525.20996 340.26773l20.094482 0l0 20.094482l-20.094482 0z"/><path fill="#ea9999" fill-rule="evenodd" d="m545.30444 340.26773l20.094482 0l0 20.094482l-20.094482 0z"/><path fill-rule="evenodd" stroke="#000" stroke-linecap="butt" stroke-linejoin="round" stroke-width="1" d="m545.30444 340.26773l20.094482 0l0 20.094482l-20.094482 0z"/><path fill="#ea9999" fill-rule="evenodd" d="m565.3989 340.26773l20.094482 0l0 20.094482l-20.094482 0z"/><path fill-rule="evenodd" stroke="#000" stroke-linecap="butt" stroke-linejoin="round" stroke-width="1" d="m565.3989 340.26773l20.094482 0l0 20.094482l-20.094482 0z"/><path fill="#ea9999" fill-rule="evenodd" d="m585.4934 340.26773l20.094543 0l0 20.094482l-20.094543 0z"/><path fill-rule="evenodd" stroke="#000" stroke-linecap="butt" stroke-linejoin="round" stroke-width="1" d="m585.4934 340.26773l20.094543 0l0 20.094482l-20.094543 0z"/><path fill="#ea9999" fill-rule="evenodd" d="m605.58795 340.26773l20.094482 0l0 20.094482l-20.094482 0z"/><path fill-rule="evenodd" stroke="#000" stroke-linecap="butt" stroke-linejoin="round" stroke-width="1" d="m605.58795 340.26773l20.094482 0l0 20.094482l-20.094482 0z"/><path fill="#f4cccc" fill-rule="evenodd" d="m625.68243 340.26773l20.094482 0l0 20.094482l-20.094482 0z"/><path fill-rule="evenodd" stroke="#000" stroke-linecap="butt" stroke-linejoin="round" stroke-width="1" d="m625.68243 340.26773l20.094482 0l0 20.094482l-20.094482 0z"/><path fill="#f4cccc" fill-rule="evenodd" d="m645.7769 320.17322l20.094482 0l0 20.094513l-20.094482 0z"/><path fill-rule="evenodd" stroke="#000" stroke-linecap="butt" stroke-linejoin="round" stroke-width="1" d="m645.7769 320.17322l20.094482 0l0 20.094513l-20.094482 0z"/><path fill="#f4cccc" fill-rule="evenodd" d="m645.7769 340.26773l20.094482 0l0 20.094482l-20.094482 0z"/><path fill-rule="evenodd" stroke="#000" stroke-linecap="butt" stroke-linejoin="round" stroke-width="1" d="m645.7769 340.26773l20.094482 0l0 20.094482l-20.094482 0z"/><path fill="#f4cccc" fill-rule="evenodd" d="m444.83203 360.3622l20.094482 0l0 20.094482l-20.094482 0z"/><path fill-rule="evenodd" stroke="#000" stroke-linecap="butt" stroke-linejoin="round" stroke-width="1" d="m444.83203 360.3622l20.094482 0l0 20.094482l-20.094482 0z"/><path fill="#f4cccc" fill-rule="evenodd" d="m464.9265 360.3622l20.094482 0l0 20.094482l-20.094482 0z"/><path fill-rule="evenodd" stroke="#000" stroke-linecap="butt" stroke-linejoin="round" stroke-width="1" d="m464.9265 360.3622l20.094482 0l0 20.094482l-20.094482 0z"/><path fill="#f4cccc" fill-rule="evenodd" d="m485.021 360.3622l20.094482 0l0 20.094482l-20.094482 0z"/><path fill-rule="evenodd" stroke="#000" stroke-linecap="butt" stroke-linejoin="round" stroke-width="1" d="m485.021 360.3622l20.094482 0l0 20.094482l-20.094482 0z"/><path fill="#f4cccc" fill-rule="evenodd" d="m505.11548 360.3622l20.094482 0l0 20.094482l-20.094482 0z"/><path fill-rule="evenodd" stroke="#000" stroke-linecap="butt" stroke-linejoin="round" stroke-width="1" d="m505.11548 360.3622l20.094482 0l0 20.094482l-20.094482 0z"/><path fill="#f4cccc" fill-rule="evenodd" d="m525.20996 360.3622l20.094482 0l0 20.094482l-20.094482 0z"/><path fill-rule="evenodd" stroke="#000" stroke-linecap="butt" stroke-linejoin="round" stroke-width="1" d="m525.20996 360.3622l20.094482 0l0 20.094482l-20.094482 0z"/><path fill="#f4cccc" fill-rule="evenodd" d="m545.30444 360.3622l20.094482 0l0 20.094482l-20.094482 0z"/><path fill-rule="evenodd" stroke="#000" stroke-linecap="butt" stroke-linejoin="round" stroke-width="1" d="m545.30444 360.3622l20.094482 0l0 20.094482l-20.094482 0z"/><path fill="#f4cccc" fill-rule="evenodd" d="m565.3989 360.3622l20.094482 0l0 20.094482l-20.094482 0z"/><path fill-rule="evenodd" stroke="#000" stroke-linecap="butt" stroke-linejoin="round" stroke-width="1" d="m565.3989 360.3622l20.094482 0l0 20.094482l-20.094482 0z"/><path fill="#f4cccc" fill-rule="evenodd" d="m585.4934 360.3622l20.094543 0l0 20.094482l-20.094543 0z"/><path fill-rule="evenodd" stroke="#000" stroke-linecap="butt" stroke-linejoin="round" stroke-width="1" d="m585.4934 360.3622l20.094543 0l0 20.094482l-20.094543 0z"/><path fill="#f4cccc" fill-rule="evenodd" d="m605.58795 360.3622l20.094482 0l0 20.094482l-20.094482 0z"/><path fill-rule="evenodd" stroke="#000" stroke-linecap="butt" stroke-linejoin="round" stroke-width="1" d="m605.58795 360.3622l20.094482 0l0 20.094482l-20.094482 0z"/><path fill="#f4cccc" fill-rule="evenodd" d="m625.68243 360.3622l20.094482 0l0 20.094482l-20.094482 0z"/><path fill-rule="evenodd" stroke="#000" stroke-linecap="butt" stroke-linejoin="round" stroke-width="1" d="m625.68243 360.3622l20.094482 0l0 20.094482l-20.094482 0z"/><path fill="#f4cccc" fill-rule="evenodd" d="m444.83203 380.4567l20.094482 0l0 20.094482l-20.094482 0z"/><path fill-rule="evenodd" stroke="#000" stroke-linecap="butt" stroke-linejoin="round" stroke-width="1" d="m444.83203 380.4567l20.094482 0l0 20.094482l-20.094482 0z"/><path fill="#f4cccc" fill-rule="evenodd" d="m464.9265 380.4567l20.094482 0l0 20.094482l-20.094482 0z"/><path fill-rule="evenodd" stroke="#000" stroke-linecap="butt" stroke-linejoin="round" stroke-width="1" d="m464.9265 380.4567l20.094482 0l0 20.094482l-20.094482 0z"/><path fill="#f4cccc" fill-rule="evenodd" d="m485.021 380.4567l20.094482 0l0 20.094482l-20.094482 0z"/><path fill-rule="evenodd" stroke="#000" stroke-linecap="butt" stroke-linejoin="round" stroke-width="1" d="m485.021 380.4567l20.094482 0l0 20.094482l-20.094482 0z"/><path fill="#f4cccc" fill-rule="evenodd" d="m505.11548 380.4567l20.094482 0l0 20.094482l-20.094482 0z"/><path fill-rule="evenodd" stroke="#000" stroke-linecap="butt" stroke-linejoin="round" stroke-width="1" d="m505.11548 380.4567l20.094482 0l0 20.094482l-20.094482 0z"/><path fill="#f4cccc" fill-rule="evenodd" d="m525.20996 380.4567l20.094482 0l0 20.094482l-20.094482 0z"/><path fill-rule="evenodd" stroke="#000" stroke-linecap="butt" stroke-linejoin="round" stroke-width="1" d="m525.20996 380.4567l20.094482 0l0 20.094482l-20.094482 0z"/><path fill="#f4cccc" fill-rule="evenodd" d="m545.30444 380.4567l20.094482 0l0 20.094482l-20.094482 0z"/><path fill-rule="evenodd" stroke="#000" stroke-linecap="butt" stroke-linejoin="round" stroke-width="1" d="m545.30444 380.4567l20.094482 0l0 20.094482l-20.094482 0z"/><path fill="#f4cccc" fill-rule="evenodd" d="m565.3989 380.4567l20.094482 0l0 20.094482l-20.094482 0z"/><path fill-rule="evenodd" stroke="#000" stroke-linecap="butt" stroke-linejoin="round" stroke-width="1" d="m565.3989 380.4567l20.094482 0l0 20.094482l-20.094482 0z"/><path fill="#f4cccc" fill-rule="evenodd" d="m585.4934 380.4567l20.094543 0l0 20.094482l-20.094543 0z"/><path fill-rule="evenodd" stroke="#000" stroke-linecap="butt" stroke-linejoin="round" stroke-width="1" d="m585.4934 380.4567l20.094543 0l0 20.094482l-20.094543 0z"/><path fill="#f4cccc" fill-rule="evenodd" d="m605.58795 380.4567l20.094482 0l0 20.094482l-20.094482 0z"/><path fill-rule="evenodd" stroke="#000" stroke-linecap="butt" stroke-linejoin="round" stroke-width="1" d="m605.58795 380.4567l20.094482 0l0 20.094482l-20.094482 0z"/><path fill="#f4cccc" fill-rule="evenodd" d="m625.68243 380.4567l20.094482 0l0 20.094482l-20.094482 0z"/><path fill-rule="evenodd" stroke="#000" stroke-linecap="butt" stroke-linejoin="round" stroke-width="1" d="m625.68243 380.4567l20.094482 0l0 20.094482l-20.094482 0z"/><path fill="#f4cccc" fill-rule="evenodd" d="m645.7769 360.3622l20.094482 0l0 20.094482l-20.094482 0z"/><path fill-rule="evenodd" stroke="#000" stroke-linecap="butt" stroke-linejoin="round" stroke-width="1" d="m645.7769 360.3622l20.094482 0l0 20.094482l-20.094482 0z"/><path fill="#f4cccc" fill-rule="evenodd" d="m645.7769 380.4567l20.094482 0l0 20.094482l-20.094482 0z"/><path fill-rule="evenodd" stroke="#000" stroke-linecap="butt" stroke-linejoin="round" stroke-width="1" d="m645.7769 380.4567l20.094482 0l0 20.094482l-20.094482 0z"/><path fill="#000" fill-opacity="0" fill-rule="evenodd" d="m445.17847 405.98425l220.3465 0l0 26.519684l-220.3465 0z"/><path fill="#000" fill-rule="nonzero" d="m455.91284 432.90424l0 -13.359375l1.765625 0l0 13.359375l-1.765625 0zm4.683319 0l0 -9.671875l1.46875 0l0 1.375q1.0625 -1.59375 3.078125 -1.59375q0.875 0 1.609375 0.3125q0.734375 0.3125 1.09375 0.828125q0.375 0.5 0.515625 1.203125q0.09375 0.453125 0.09375 1.59375l0 5.953125l-1.640625 0l0 -5.890625q0 -1.0 -0.203125 -1.484375q-0.1875 -0.5 -0.671875 -0.796875q-0.484375 -0.296875 -1.140625 -0.296875q-1.046875 0 -1.8125 0.671875q-0.75 0.65625 -0.75 2.515625l0 5.28125l-1.640625 0zm10.375702 3.703125l0 -13.375l1.484375 0l0 1.25q0.53125 -0.734375 1.1875 -1.09375q0.671875 -0.375 1.625 -0.375q1.234375 0 2.171875 0.640625q0.953125 0.625 1.4375 1.796875q0.484375 1.15625 0.484375 2.546875q0 1.484375 -0.53125 2.671875q-0.53125 1.1875 -1.546875 1.828125q-1.015625 0.625 -2.140625 0.625q-0.8125 0 -1.46875 -0.34375q-0.65625 -0.34375 -1.0625 -0.875l0 4.703125l-1.640625 0zm1.484375 -8.484375q0 1.859375 0.75 2.765625q0.765625 0.890625 1.828125 0.890625q1.09375 0 1.875 -0.921875q0.78125 -0.9375 0.78125 -2.875q0 -1.84375 -0.765625 -2.765625q-0.75 -0.921875 -1.8125 -0.921875q-1.046875 0 -1.859375 0.984375q-0.796875 0.96875 -0.796875 2.84375zm15.219482 4.78125l0 -1.421875q-1.125 1.640625 -3.0625 1.640625q-0.859375 0 -1.609375 -0.328125q-0.734375 -0.328125 -1.09375 -0.828125q-0.359375 -0.5 -0.5 -1.21875q-0.109375 -0.46875 -0.109375 -1.53125l0 -5.984375l1.640625 0l0 5.359375q0 1.28125 0.109375 1.734375q0.15625 0.640625 0.65625 1.015625q0.5 0.375 1.234375 0.375q0.734375 0 1.375 -0.375q0.65625 -0.390625 0.921875 -1.03125q0.265625 -0.65625 0.265625 -1.890625l0 -5.1875l1.640625 0l0 9.671875l-1.46875 0zm7.625702 -1.46875l0.234375 1.453125q-0.6875 0.140625 -1.234375 0.140625q-0.890625 0 -1.390625 -0.28125q-0.484375 -0.28125 -0.6875 -0.734375q-0.203125 -0.46875 -0.203125 -1.9375l0 -5.578125l-1.203125 0l0 -1.265625l1.203125 0l0 -2.390625l1.625 -0.984375l0 3.375l1.65625 0l0 1.265625l-1.65625 0l0 5.671875q0 0.6875 0.078125 0.890625q0.09375 0.203125 0.28125 0.328125q0.203125 0.109375 0.578125 0.109375q0.265625 0 0.71875 -0.0625zm10.397858 1.46875l0 -11.78125l-4.40625 0l0 -1.578125l10.578125 0l0 1.578125l-4.40625 0l0 11.78125l-1.765625 0zm14.411621 -3.109375l1.6875 0.203125q-0.40625 1.484375 -1.484375 2.3125q-1.078125 0.8125 -2.765625 0.8125q-2.125 0 -3.375 -1.296875q-1.234375 -1.3125 -1.234375 -3.671875q0 -2.453125 1.25 -3.796875q1.265625 -1.34375 3.265625 -1.34375q1.9375 0 3.15625 1.328125q1.234375 1.3125 1.234375 3.703125q0 0.15625 0 0.4375l-7.21875 0q0.09375 1.59375 0.90625 2.453125q0.8125 0.84375 2.015625 0.84375q0.90625 0 1.546875 -0.46875q0.640625 -0.484375 1.015625 -1.515625zm-5.390625 -2.65625l5.40625 0q-0.109375 -1.21875 -0.625 -1.828125q-0.78125 -0.953125 -2.03125 -0.953125q-1.125 0 -1.90625 0.765625q-0.765625 0.75 -0.84375 2.015625zm9.141357 5.765625l0 -9.671875l1.46875 0l0 1.375q1.0625 -1.59375 3.078125 -1.59375q0.875 0 1.609375 0.3125q0.734375 0.3125 1.09375 0.828125q0.375 0.5 0.515625 1.203125q0.09375 0.453125 0.09375 1.59375l0 5.953125l-1.640625 0l0 -5.890625q0 -1.0 -0.203125 -1.484375q-0.1875 -0.5 -0.671875 -0.796875q-0.484375 -0.296875 -1.140625 -0.296875q-1.046875 0 -1.8125 0.671875q-0.75 0.65625 -0.75 2.515625l0 5.28125l-1.640625 0zm9.719421 -2.890625l1.625 -0.25q0.125 0.96875 0.75 1.5q0.625 0.515625 1.75 0.515625q1.125 0 1.671875 -0.453125q0.546875 -0.46875 0.546875 -1.09375q0 -0.546875 -0.484375 -0.875q-0.328125 -0.21875 -1.671875 -0.546875q-1.8125 -0.46875 -2.515625 -0.796875q-0.6875 -0.328125 -1.046875 -0.90625q-0.359375 -0.59375 -0.359375 -1.3125q0 -0.640625 0.296875 -1.1875q0.296875 -0.5625 0.8125 -0.921875q0.375 -0.28125 1.03125 -0.46875q0.671875 -0.203125 1.421875 -0.203125q1.140625 0 2.0 0.328125q0.859375 0.328125 1.265625 0.890625q0.421875 0.5625 0.578125 1.5l-1.609375 0.21875q-0.109375 -0.75 -0.640625 -1.171875q-0.515625 -0.421875 -1.46875 -0.421875q-1.140625 0 -1.625 0.375q-0.46875 0.375 -0.46875 0.875q0 0.3125 0.1875 0.578125q0.203125 0.265625 0.640625 0.4375q0.234375 0.09375 1.4375 0.421875q1.75 0.453125 2.4375 0.75q0.6875 0.296875 1.078125 0.859375q0.390625 0.5625 0.390625 1.40625q0 0.828125 -0.484375 1.546875q-0.46875 0.71875 -1.375 1.125q-0.90625 0.390625 -2.046875 0.390625q-1.875 0 -2.875 -0.78125q-0.984375 -0.78125 -1.25 -2.328125zm9.375 -1.953125q0 -2.6875 1.484375 -3.96875q1.25 -1.078125 3.046875 -1.078125q2.0 0 3.265625 1.3125q1.265625 1.296875 1.265625 3.609375q0 1.859375 -0.5625 2.9375q-0.5625 1.0625 -1.640625 1.65625q-1.0625 0.59375 -2.328125 0.59375q-2.03125 0 -3.28125 -1.296875q-1.25 -1.3125 -1.25 -3.765625zm1.6875 0q0 1.859375 0.796875 2.796875q0.8125 0.921875 2.046875 0.921875q1.21875 0 2.03125 -0.921875q0.8125 -0.9375 0.8125 -2.84375q0 -1.796875 -0.8125 -2.71875q-0.8125 -0.921875 -2.03125 -0.921875q-1.234375 0 -2.046875 0.921875q-0.796875 0.90625 -0.796875 2.765625zm9.281982 4.84375l0 -9.671875l1.46875 0l0 1.46875q0.5625 -1.03125 1.03125 -1.359375q0.484375 -0.328125 1.0625 -0.328125q0.828125 0 1.6875 0.53125l-0.5625 1.515625q-0.609375 -0.359375 -1.203125 -0.359375q-0.546875 0 -0.96875 0.328125q-0.421875 0.328125 -0.609375 0.890625q-0.28125 0.875 -0.28125 1.921875l0 5.0625l-1.625 0z"/><path fill="#000" fill-opacity="0" fill-rule="evenodd" d="m434.7848 79.03937l0 120.18898"/><path fill-rule="evenodd" stroke="#000" stroke-linecap="butt" stroke-linejoin="round" stroke-width="1" d="m434.7848 85.03937l0 108.18898"/><path fill="#000" fill-rule="evenodd" stroke="#000" stroke-linecap="butt" stroke-width="1" d="m436.43652 85.03937l-1.6517334 -4.5380936l-1.6517334 4.5380936z"/><path fill="#000" fill-rule="evenodd" stroke="#000" stroke-linecap="butt" stroke-width="1" d="m433.13306 193.22835l1.6517334 4.538101l1.6517334 -4.538101z"/><path fill="#000" fill-opacity="0" fill-rule="evenodd" d="m444.83203 69.37008l60.283447 0"/><path fill-rule="evenodd" stroke="#000" stroke-linecap="butt" stroke-linejoin="round" stroke-width="1" d="m450.83203 69.37008l48.283447 0"/><path fill="#000" fill-rule="evenodd" stroke="#000" stroke-linecap="butt" stroke-width="1" d="m450.83203 67.718346l-4.5381165 1.6517334l4.5381165 1.6517334z"/><path fill="#000" fill-rule="evenodd" stroke="#000" stroke-linecap="butt" stroke-width="1" d="m499.11548 71.02181l4.5381165 -1.6517334l-4.5381165 -1.6517334z"/><path fill="#8e7cc3" fill-rule="evenodd" d="m398.86093 123.25984l29.228363 0l0 26.519684l-29.228363 0z"/><path fill-rule="evenodd" stroke="#000" stroke-linecap="butt" stroke-linejoin="round" stroke-width="1" d="m398.86093 123.25984l29.228363 0l0 26.519684l-29.228363 0z"/><path fill="#000" fill-rule="nonzero" d="m409.09274 141.31969l3.6875 -4.96875l-3.25 -4.578125l1.5 0l1.734375 2.453125q0.53125 0.765625 0.765625 1.171875q0.3125 -0.515625 0.75 -1.09375l1.921875 -2.53125l1.375 0l-3.359375 4.5l3.625 5.046875l-1.5625 0l-2.40625 -3.40625q-0.203125 -0.296875 -0.421875 -0.640625q-0.3125 0.53125 -0.453125 0.71875l-2.390625 3.328125l-1.515625 0z"/><path fill="#8e7cc3" fill-rule="evenodd" d="m460.35962 35.527557l29.228363 0l0 26.519688l-29.228363 0z"/><path fill-rule="evenodd" stroke="#000" stroke-linecap="butt" stroke-linejoin="round" stroke-width="1" d="m460.35962 35.527557l29.228363 0l0 26.519688l-29.228363 0z"/><path fill="#000" fill-rule="nonzero" d="m474.24768 53.5874l0 -4.046875l-3.6875 -5.5l1.546875 0l1.875 2.875q0.515625 0.8125 0.96875 1.625q0.4375 -0.75 1.046875 -1.6875l1.84375 -2.8125l1.46875 0l-3.796875 5.5l0 4.046875l-1.265625 0z"/><path fill="#d9d2e9" fill-rule="evenodd" d="m69.21183 351.24402l76.09182 0l0 40.063354l-76.09182 0z"/><path fill-rule="evenodd" stroke="#000" stroke-linecap="butt" stroke-linejoin="round" stroke-width="1" d="m69.21183 351.24402l76.09182 0l0 40.063354l-76.09182 0z"/><path fill="#d9d2e9" fill-rule="evenodd" d="m145.30365 351.24402l76.09181 0l0 40.063354l-76.09181 0z"/><path fill-rule="evenodd" stroke="#000" stroke-linecap="butt" stroke-linejoin="round" stroke-width="1" d="m145.30365 351.24402l76.09181 0l0 40.063354l-76.09181 0z"/><path fill="#d9d2e9" fill-rule="evenodd" d="m297.48727 351.24402l76.0918 0l0 40.063354l-76.0918 0z"/><path fill-rule="evenodd" stroke="#000" stroke-linecap="butt" stroke-linejoin="round" stroke-width="1" d="m297.48727 351.24402l76.0918 0l0 40.063354l-76.0918 0z"/><path fill="#b4a7d6" fill-rule="evenodd" d="m221.39546 351.24402l76.09181 0l0 40.063354l-76.09181 0z"/><path fill-rule="evenodd" stroke="#000" stroke-linecap="butt" stroke-linejoin="round" stroke-width="1" d="m221.39546 351.24402l76.09181 0l0 40.063354l-76.09181 0z"/><path fill="#cfe2f3" fill-rule="evenodd" d="m69.2126 48.0l58.267715 0l0 50.204727l-58.267715 0z"/><path fill-rule="evenodd" stroke="#000" stroke-linecap="butt" stroke-linejoin="round" stroke-width="1" d="m69.2126 48.0l58.267715 0l0 50.204727l-58.267715 0z"/><path fill="#000" fill-rule="nonzero" d="m95.319725 74.78799l0 -1.578125l5.65625 0l0 4.953125q-1.296875 1.046875 -2.6875 1.578125q-1.375 0.515625 -2.84375 0.515625q-1.96875 0 -3.578125 -0.84375q-1.609375 -0.84375 -2.421875 -2.4375q-0.8125 -1.59375 -0.8125 -3.5625q0 -1.953125 0.8125 -3.640625q0.8125 -1.6875 2.34375 -2.5q1.53125 -0.828125 3.515625 -0.828125q1.453125 0 2.625 0.46875q1.171875 0.46875 1.828125 1.3125q0.671875 0.828125 1.015625 2.171875l-1.59375 0.4375q-0.296875 -1.015625 -0.75 -1.59375q-0.4375 -0.59375 -1.265625 -0.9375q-0.828125 -0.34375 -1.84375 -0.34375q-1.203125 0 -2.09375 0.375q-0.890625 0.359375 -1.4375 0.96875q-0.53125 0.59375 -0.828125 1.3125q-0.515625 1.234375 -0.515625 2.6875q0 1.78125 0.609375 2.984375q0.625 1.203125 1.796875 1.796875q1.171875 0.578125 2.5 0.578125q1.140625 0 2.234375 -0.4375q1.09375 -0.453125 1.65625 -0.953125l0 -2.484375l-3.921875 0z"/><path fill="#000" fill-rule="nonzero" d="m102.65928 82.63174q0 -1.578125 0.328125 -2.53125q0.328125 -0.96875 0.96875 -1.484375q0.640625 -0.53125 1.609375 -0.53125q0.71875 0 1.25 0.296875q0.546875 0.28125 0.890625 0.828125q0.359375 0.53125 0.5625 1.3125q0.203125 0.78125 0.203125 2.109375q0 1.5625 -0.328125 2.53125q-0.328125 0.953125 -0.96875 1.484375q-0.640625 0.53125 -1.609375 0.53125q-1.296875 0 -2.03125 -0.921875q-0.875 -1.109375 -0.875 -3.625zm1.125 0q0 2.1875 0.515625 2.921875q0.515625 0.71875 1.265625 0.71875q0.75 0 1.265625 -0.71875q0.515625 -0.734375 0.515625 -2.921875q0 -2.203125 -0.515625 -2.921875q-0.515625 -0.71875 -1.28125 -0.71875q-0.75 0 -1.203125 0.640625q-0.5625 0.8125 -0.5625 3.0z"/><path fill="#cfe2f3" fill-rule="evenodd" d="m127.480316 48.0l58.267715 0l0 50.204727l-58.267715 0z"/><path fill-rule="evenodd" stroke="#000" stroke-linecap="butt" stroke-linejoin="round" stroke-width="1" d="m127.480316 48.0l58.267715 0l0 50.204727l-58.267715 0z"/><path fill="#000" fill-rule="nonzero" d="m153.58743 74.78799l0 -1.578125l5.65625 0l0 4.953125q-1.296875 1.046875 -2.6875 1.578125q-1.375 0.515625 -2.84375 0.515625q-1.96875 0 -3.578125 -0.84375q-1.609375 -0.84375 -2.421875 -2.4375q-0.8125 -1.59375 -0.8125 -3.5625q0 -1.953125 0.8125 -3.640625q0.8125 -1.6875 2.34375 -2.5q1.53125 -0.828125 3.515625 -0.828125q1.453125 0 2.625 0.46875q1.171875 0.46875 1.828125 1.3125q0.671875 0.828125 1.015625 2.171875l-1.59375 0.4375q-0.296875 -1.015625 -0.75 -1.59375q-0.4375 -0.59375 -1.265625 -0.9375q-0.828125 -0.34375 -1.84375 -0.34375q-1.203125 0 -2.09375 0.375q-0.890625 0.359375 -1.4375 0.96875q-0.53125 0.59375 -0.828125 1.3125q-0.515625 1.234375 -0.515625 2.6875q0 1.78125 0.609375 2.984375q0.625 1.203125 1.796875 1.796875q1.171875 0.578125 2.5 0.578125q1.140625 0 2.234375 -0.4375q1.09375 -0.453125 1.65625 -0.953125l0 -2.484375l-3.921875 0z"/><path fill="#000" fill-rule="nonzero" d="m165.05199 87.02236l-1.09375 0l0 -6.96875q-0.40625 0.375 -1.046875 0.75q-0.640625 0.375 -1.140625 0.578125l0 -1.0625q0.90625 -0.4375 1.59375 -1.046875q0.6875 -0.609375 0.96875 -1.1875l0.71875 0l0 8.9375z"/><path fill="#cfe2f3" fill-rule="evenodd" d="m244.01575 48.0l58.26773 0l0 50.204727l-58.26773 0z"/><path fill-rule="evenodd" stroke="#000" stroke-linecap="butt" stroke-linejoin="round" stroke-width="1" d="m244.01575 48.0l58.26773 0l0 50.204727l-58.26773 0z"/><path fill="#000" fill-rule="nonzero" d="m263.3416 73.52236q0 -3.328125 1.78125 -5.203125q1.78125 -1.890625 4.609375 -1.890625q1.84375 0 3.328125 0.890625q1.484375 0.875 2.265625 2.46875q0.78125 1.578125 0.78125 3.578125q0 2.03125 -0.828125 3.640625q-0.8125 1.59375 -2.3125 2.421875q-1.5 0.828125 -3.25 0.828125q-1.875 0 -3.359375 -0.90625q-1.484375 -0.921875 -2.25 -2.5q-0.765625 -1.578125 -0.765625 -3.328125zm1.8125 0.015625q0 2.421875 1.296875 3.8125q1.296875 1.390625 3.265625 1.390625q2.0 0 3.28125 -1.40625q1.28125 -1.40625 1.28125 -3.984375q0 -1.625 -0.546875 -2.84375q-0.546875 -1.21875 -1.609375 -1.875q-1.0625 -0.671875 -2.375 -0.671875q-1.890625 0 -3.25 1.296875q-1.34375 1.28125 -1.34375 4.28125z"/><path fill="#000" fill-rule="nonzero" d="m281.58743 87.02236l-1.09375 0l0 -6.96875q-0.40625 0.375 -1.046875 0.75q-0.640625 0.375 -1.140625 0.578125l0 -1.0625q0.90625 -0.4375 1.59375 -1.046875q0.6875 -0.609375 0.96875 -1.1875l0.71875 0l0 8.9375z"/><path fill="#cfe2f3" fill-rule="evenodd" d="m185.74803 48.0l58.267715 0l0 50.204727l-58.267715 0z"/><path fill-rule="evenodd" stroke="#000" stroke-linecap="butt" stroke-linejoin="round" stroke-width="1" d="m185.74803 48.0l58.267715 0l0 50.204727l-58.267715 0z"/><path fill="#000" fill-rule="nonzero" d="m205.0739 73.52236q0 -3.328125 1.78125 -5.203125q1.78125 -1.890625 4.609375 -1.890625q1.84375 0 3.328125 0.890625q1.484375 0.875 2.265625 2.46875q0.78125 1.578125 0.78125 3.578125q0 2.03125 -0.828125 3.640625q-0.8125 1.59375 -2.3125 2.421875q-1.5 0.828125 -3.25 0.828125q-1.875 0 -3.359375 -0.90625q-1.484375 -0.921875 -2.25 -2.5q-0.765625 -1.578125 -0.765625 -3.328125zm1.8125 0.015625q0 2.421875 1.296875 3.8125q1.296875 1.390625 3.265625 1.390625q2.0 0 3.28125 -1.40625q1.28125 -1.40625 1.28125 -3.984375q0 -1.625 -0.546875 -2.84375q-0.546875 -1.21875 -1.609375 -1.875q-1.0625 -0.671875 -2.375 -0.671875q-1.890625 0 -3.25 1.296875q-1.34375 1.28125 -1.34375 4.28125z"/><path fill="#000" fill-rule="nonzero" d="m219.1947 82.63174q0 -1.578125 0.328125 -2.53125q0.328125 -0.96875 0.96875 -1.484375q0.640625 -0.53125 1.609375 -0.53125q0.71875 0 1.25 0.296875q0.546875 0.28125 0.890625 0.828125q0.359375 0.53125 0.5625 1.3125q0.203125 0.78125 0.203125 2.109375q0 1.5625 -0.328125 2.53125q-0.328125 0.953125 -0.96875 1.484375q-0.640625 0.53125 -1.609375 0.53125q-1.296875 0 -2.03125 -0.921875q-0.875 -1.109375 -0.875 -3.625zm1.125 0q0 2.1875 0.515625 2.921875q0.515625 0.71875 1.265625 0.71875q0.75 0 1.265625 -0.71875q0.515625 -0.734375 0.515625 -2.921875q0 -2.203125 -0.515625 -2.921875q-0.515625 -0.71875 -1.28125 -0.71875q-0.75 0 -1.203125 0.640625q-0.5625 0.8125 -0.5625 3.0z"/><path fill="#000" fill-opacity="0" fill-rule="evenodd" d="m68.267715 7.813648l260.66144 0l0 44.09449l-260.66144 0z"/><path fill="#000" fill-rule="nonzero" d="m78.173965 28.233646q0 -3.328125 1.78125 -5.203125q1.78125 -1.890625 4.609375 -1.890625q1.84375 0 3.328125 0.890625q1.484375 0.875 2.265625 2.46875q0.78125 1.578125 0.78125 3.578125q0 2.03125 -0.828125 3.640625q-0.8125 1.59375 -2.3125 2.421875q-1.5 0.828125 -3.25 0.828125q-1.875 0 -3.359375 -0.90625q-1.484375 -0.921875 -2.25 -2.5q-0.765625 -1.578125 -0.765625 -3.328125zm1.8125 0.015625q0 2.421875 1.296875 3.8125q1.296875 1.390625 3.265625 1.390625q2.0 0 3.28125 -1.40625q1.28125 -1.40625 1.28125 -3.984375q0 -1.625 -0.546875 -2.84375q-0.546875 -1.21875 -1.609375 -1.875q-1.0625 -0.671875 -2.375 -0.671875q-1.890625 0 -3.25 1.296875q-1.34375 1.28125 -1.34375 4.28125zm19.355179 6.484375l0 -1.421875q-1.125 1.640625 -3.0625 1.640625q-0.859375 0 -1.609375 -0.328125q-0.734375 -0.328125 -1.09375 -0.828125q-0.359375 -0.5 -0.5 -1.21875q-0.109375 -0.46875 -0.109375 -1.53125l0 -5.984375l1.640625 0l0 5.359375q0 1.28125 0.109375 1.734375q0.15625 0.640625 0.65625 1.015625q0.5 0.375 1.234375 0.375q0.734375 0 1.375 -0.375q0.65625 -0.390625 0.921875 -1.03125q0.265625 -0.65625 0.265625 -1.890625l0 -5.1875l1.640625 0l0 9.671875l-1.46875 0zm7.625717 -1.46875l0.234375 1.453125q-0.6875 0.140625 -1.234375 0.140625q-0.890625 0 -1.390625 -0.28125q-0.484375 -0.28125 -0.6875 -0.734375q-0.203125 -0.46875 -0.203125 -1.9375l0 -5.578125l-1.203125 0l0 -1.265625l1.203125 0l0 -2.390625l1.625 -0.984375l0 3.375l1.65625 0l0 1.265625l-1.65625 0l0 5.671875q0 0.6875 0.078125 0.890625q0.09375 0.203125 0.28125 0.328125q0.203125 0.109375 0.578125 0.109375q0.265625 0 0.71875 -0.0625zm1.6051788 5.171875l0 -13.375l1.484375 0l0 1.25q0.53125 -0.734375 1.1875 -1.09375q0.671875 -0.375 1.625 -0.375q1.234375 0 2.171875 0.640625q0.953125 0.625 1.4375 1.796875q0.484375 1.15625 0.484375 2.546875q0 1.484375 -0.53125 2.671875q-0.53125 1.1875 -1.546875 1.828125q-1.015625 0.625 -2.140625 0.625q-0.8125 0 -1.46875 -0.34375q-0.65625 -0.34375 -1.0625 -0.875l0 4.703125l-1.640625 0zm1.484375 -8.484375q0 1.859375 0.75 2.765625q0.765625 0.890625 1.828125 0.890625q1.09375 0 1.875 -0.921875q0.78125 -0.9375 0.78125 -2.875q0 -1.84375 -0.765625 -2.765625q-0.75 -0.921875 -1.8125 -0.921875q-1.046875 0 -1.859375 0.984375q-0.796875 0.96875 -0.796875 2.84375zm15.219467 4.78125l0 -1.421875q-1.125 1.640625 -3.0625 1.640625q-0.859375 0 -1.609375 -0.328125q-0.734375 -0.328125 -1.09375 -0.828125q-0.359375 -0.5 -0.5 -1.21875q-0.109375 -0.46875 -0.109375 -1.53125l0 -5.984375l1.640625 0l0 5.359375q0 1.28125 0.109375 1.734375q0.15625 0.640625 0.65625 1.015625q0.5 0.375 1.234375 0.375q0.734375 0 1.375 -0.375q0.65625 -0.390625 0.921875 -1.03125q0.265625 -0.65625 0.265625 -1.890625l0 -5.1875l1.640625 0l0 9.671875l-1.46875 0zm7.625717 -1.46875l0.234375 1.453125q-0.6875 0.140625 -1.234375 0.140625q-0.890625 0 -1.390625 -0.28125q-0.484375 -0.28125 -0.6875 -0.734375q-0.203125 -0.46875 -0.203125 -1.9375l0 -5.578125l-1.203125 0l0 -1.265625l1.203125 0l0 -2.390625l1.625 -0.984375l0 3.375l1.65625 0l0 1.265625l-1.65625 0l0 5.671875q0 0.6875 0.078125 0.890625q0.09375 0.203125 0.28125 0.328125q0.203125 0.109375 0.578125 0.109375q0.265625 0 0.71875 -0.0625zm7.2884827 1.46875l0 -13.359375l1.765625 0l0 13.359375l-1.765625 0zm4.683304 0l0 -9.671875l1.46875 0l0 1.375q1.0625 -1.59375 3.078125 -1.59375q0.875 0 1.609375 0.3125q0.734375 0.3125 1.09375 0.828125q0.375 0.5 0.515625 1.203125q0.09375 0.453125 0.09375 1.59375l0 5.953125l-1.640625 0l0 -5.890625q0 -1.0 -0.203125 -1.484375q-0.1875 -0.5 -0.671875 -0.796875q-0.484375 -0.296875 -1.140625 -0.296875q-1.046875 0 -1.8125 0.671875q-0.75 0.65625 -0.75 2.515625l0 5.28125l-1.640625 0zm16.641342 0l0 -1.21875q-0.90625 1.4375 -2.703125 1.4375q-1.15625 0 -2.125 -0.640625q-0.96875 -0.640625 -1.5 -1.78125q-0.53125 -1.140625 -0.53125 -2.625q0 -1.453125 0.484375 -2.625q0.484375 -1.1875 1.4375 -1.8125q0.96875 -0.625 2.171875 -0.625q0.875 0 1.546875 0.375q0.6875 0.359375 1.109375 0.953125l0 -4.796875l1.640625 0l0 13.359375l-1.53125 0zm-5.171875 -4.828125q0 1.859375 0.78125 2.78125q0.78125 0.921875 1.84375 0.921875q1.078125 0 1.828125 -0.875q0.75 -0.890625 0.75 -2.6875q0 -1.984375 -0.765625 -2.90625q-0.765625 -0.9375 -1.890625 -0.9375q-1.078125 0 -1.8125 0.890625q-0.734375 0.890625 -0.734375 2.8125zm15.906967 1.71875l1.6875 0.203125q-0.40625 1.484375 -1.484375 2.3125q-1.078125 0.8125 -2.765625 0.8125q-2.125 0 -3.375 -1.296875q-1.234375 -1.3125 -1.234375 -3.671875q0 -2.453125 1.25 -3.796875q1.265625 -1.34375 3.265625 -1.34375q1.9375 0 3.15625 1.328125q1.234375 1.3125 1.234375 3.703125q0 0.15625 0 0.4375l-7.21875 0q0.09375 1.59375 0.90625 2.453125q0.8125 0.84375 2.015625 0.84375q0.90625 0 1.546875 -0.46875q0.640625 -0.484375 1.015625 -1.515625zm-5.390625 -2.65625l5.40625 0q-0.109375 -1.21875 -0.625 -1.828125q-0.78125 -0.953125 -2.03125 -0.953125q-1.125 0 -1.90625 0.765625q-0.765625 0.75 -0.84375 2.015625zm8.047592 5.765625l3.53125 -5.03125l-3.265625 -4.640625l2.046875 0l1.484375 2.265625q0.421875 0.640625 0.671875 1.078125q0.40625 -0.59375 0.734375 -1.0625l1.640625 -2.28125l1.953125 0l-3.34375 4.546875l3.59375 5.125l-2.015625 0l-1.984375 -3.0l-0.515625 -0.8125l-2.546875 3.8125l-1.984375 0z"/><path fill="#000" fill-opacity="0" fill-rule="evenodd" d="m69.2126 404.88846l237.10237 0l0 36.283447l-237.10237 0z"/><path fill="#000" fill-rule="nonzero" d="m85.9001 426.57407l0 -1.578125l5.65625 0l0 4.953125q-1.296875 1.046875 -2.6875 1.578125q-1.375 0.515625 -2.84375 0.515625q-1.96875 0 -3.578125 -0.84375q-1.609375 -0.84375 -2.421875 -2.4375q-0.8125 -1.59375 -0.8125 -3.5625q0 -1.953125 0.8125 -3.640625q0.8125 -1.6875 2.34375 -2.5q1.53125 -0.828125 3.515625 -0.828125q1.453125 0 2.625 0.46875q1.171875 0.46875 1.828125 1.3125q0.671875 0.828125 1.015625 2.171875l-1.59375 0.4375q-0.296875 -1.015625 -0.75 -1.59375q-0.4375 -0.59375 -1.265625 -0.9375q-0.828125 -0.34375 -1.84375 -0.34375q-1.203125 0 -2.09375 0.375q-0.890625 0.359375 -1.4375 0.96875q-0.53125 0.59375 -0.828125 1.3125q-0.515625 1.234375 -0.515625 2.6875q0 1.78125 0.609375 2.984375q0.625 1.203125 1.796875 1.796875q1.171875 0.578125 2.5 0.578125q1.140625 0 2.234375 -0.4375q1.09375 -0.453125 1.65625 -0.953125l0 -2.484375l-3.921875 0zm14.370804 4.046875q-0.921875 0.765625 -1.765625 1.09375q-0.828125 0.3125 -1.796875 0.3125q-1.59375 0 -2.453125 -0.78125q-0.859375 -0.78125 -0.859375 -1.984375q0 -0.71875 0.328125 -1.296875q0.328125 -0.59375 0.84375 -0.9375q0.53125 -0.359375 1.1875 -0.546875q0.46875 -0.125 1.453125 -0.25q1.984375 -0.234375 2.921875 -0.5625q0.015625 -0.34375 0.015625 -0.421875q0 -1.0 -0.46875 -1.421875q-0.625 -0.546875 -1.875 -0.546875q-1.15625 0 -1.703125 0.40625q-0.546875 0.40625 -0.8125 1.421875l-1.609375 -0.21875q0.21875 -1.015625 0.71875 -1.640625q0.5 -0.640625 1.453125 -0.984375q0.953125 -0.34375 2.1875 -0.34375q1.25 0 2.015625 0.296875q0.78125 0.28125 1.140625 0.734375q0.375 0.4375 0.515625 1.109375q0.078125 0.421875 0.078125 1.515625l0 2.1875q0 2.28125 0.109375 2.890625q0.109375 0.59375 0.40625 1.15625l-1.703125 0q-0.265625 -0.515625 -0.328125 -1.1875zm-0.140625 -3.671875q-0.890625 0.375 -2.671875 0.625q-1.015625 0.140625 -1.4375 0.328125q-0.421875 0.1875 -0.65625 0.53125q-0.21875 0.34375 -0.21875 0.78125q0 0.65625 0.5 1.09375q0.5 0.4375 1.453125 0.4375q0.9375 0 1.671875 -0.40625q0.75 -0.421875 1.09375 -1.140625q0.265625 -0.5625 0.265625 -1.640625l0 -0.609375zm7.781967 3.390625l0.234375 1.453125q-0.6875 0.140625 -1.234375 0.140625q-0.890625 0 -1.390625 -0.28125q-0.484375 -0.28125 -0.6875 -0.734375q-0.203125 -0.46875 -0.203125 -1.9375l0 -5.578125l-1.203125 0l0 -1.265625l1.203125 0l0 -2.390625l1.625 -0.984375l0 3.375l1.65625 0l0 1.265625l-1.65625 0l0 5.671875q0 0.6875 0.078125 0.890625q0.09375 0.203125 0.28125 0.328125q0.203125 0.109375 0.578125 0.109375q0.265625 0 0.71875 -0.0625zm1.6051788 1.46875l0 -13.359375l1.640625 0l0 4.796875q1.140625 -1.328125 2.890625 -1.328125q1.078125 0 1.859375 0.421875q0.796875 0.421875 1.140625 1.171875q0.34375 0.75 0.34375 2.171875l0 6.125l-1.640625 0l0 -6.125q0 -1.234375 -0.53125 -1.796875q-0.53125 -0.5625 -1.515625 -0.5625q-0.71875 0 -1.359375 0.390625q-0.640625 0.375 -0.921875 1.015625q-0.265625 0.640625 -0.265625 1.78125l0 5.296875l-1.640625 0zm17.000717 -3.109375l1.6875 0.203125q-0.40625 1.484375 -1.484375 2.3125q-1.078125 0.8125 -2.765625 0.8125q-2.125 0 -3.375 -1.296875q-1.234375 -1.3125 -1.234375 -3.671875q0 -2.453125 1.25 -3.796875q1.265625 -1.34375 3.265625 -1.34375q1.9375 0 3.15625 1.328125q1.234375 1.3125 1.234375 3.703125q0 0.15625 0 0.4375l-7.21875 0q0.09375 1.59375 0.90625 2.453125q0.8125 0.84375 2.015625 0.84375q0.90625 0 1.546875 -0.46875q0.640625 -0.484375 1.015625 -1.515625zm-5.390625 -2.65625l5.40625 0q-0.109375 -1.21875 -0.625 -1.828125q-0.78125 -0.953125 -2.03125 -0.953125q-1.125 0 -1.90625 0.765625q-0.765625 0.75 -0.84375 2.015625zm9.125717 5.765625l0 -9.671875l1.46875 0l0 1.46875q0.5625 -1.03125 1.03125 -1.359375q0.484375 -0.328125 1.0625 -0.328125q0.828125 0 1.6875 0.53125l-0.5625 1.515625q-0.609375 -0.359375 -1.203125 -0.359375q-0.546875 0 -0.96875 0.328125q-0.421875 0.328125 -0.609375 0.890625q-0.28125 0.875 -0.28125 1.921875l0 5.0625l-1.625 0zm11.911606 0l0 -13.359375l1.765625 0l0 13.359375l-1.765625 0zm4.683304 0l0 -9.671875l1.46875 0l0 1.375q1.0625 -1.59375 3.078125 -1.59375q0.875 0 1.609375 0.3125q0.734375 0.3125 1.09375 0.828125q0.375 0.5 0.515625 1.203125q0.09375 0.453125 0.09375 1.59375l0 5.953125l-1.640625 0l0 -5.890625q0 -1.0 -0.203125 -1.484375q-0.1875 -0.5 -0.671875 -0.796875q-0.484375 -0.296875 -1.140625 -0.296875q-1.046875 0 -1.8125 0.671875q-0.75 0.65625 -0.75 2.515625l0 5.28125l-1.640625 0zm16.641342 0l0 -1.21875q-0.90625 1.4375 -2.703125 1.4375q-1.15625 0 -2.125 -0.640625q-0.96875 -0.640625 -1.5 -1.78125q-0.53125 -1.140625 -0.53125 -2.625q0 -1.453125 0.484375 -2.625q0.484375 -1.1875 1.4375 -1.8125q0.96875 -0.625 2.171875 -0.625q0.875 0 1.546875 0.375q0.6875 0.359375 1.109375 0.953125l0 -4.796875l1.640625 0l0 13.359375l-1.53125 0zm-5.171875 -4.828125q0 1.859375 0.78125 2.78125q0.78125 0.921875 1.84375 0.921875q1.078125 0 1.828125 -0.875q0.75 -0.890625 0.75 -2.6875q0 -1.984375 -0.765625 -2.90625q-0.765625 -0.9375 -1.890625 -0.9375q-1.078125 0 -1.8125 0.890625q-0.734375 0.890625 -0.734375 2.8125zm9.281967 -6.640625l0 -1.890625l1.640625 0l0 1.890625l-1.640625 0zm0 11.46875l0 -9.671875l1.640625 0l0 9.671875l-1.640625 0zm10.457321 -3.546875l1.609375 0.21875q-0.265625 1.65625 -1.359375 2.609375q-1.078125 0.9375 -2.671875 0.9375q-1.984375 0 -3.1875 -1.296875q-1.203125 -1.296875 -1.203125 -3.71875q0 -1.578125 0.515625 -2.75q0.515625 -1.171875 1.578125 -1.75q1.0625 -0.59375 2.3125 -0.59375q1.578125 0 2.578125 0.796875q1.0 0.796875 1.28125 2.265625l-1.59375 0.234375q-0.234375 -0.96875 -0.8125 -1.453125q-0.578125 -0.5 -1.390625 -0.5q-1.234375 0 -2.015625 0.890625q-0.78125 0.890625 -0.78125 2.8125q0 1.953125 0.75 2.84375q0.75 0.875 1.953125 0.875q0.96875 0 1.609375 -0.59375q0.65625 -0.59375 0.828125 -1.828125zm9.640625 0.4375l1.6875 0.203125q-0.40625 1.484375 -1.484375 2.3125q-1.078125 0.8125 -2.765625 0.8125q-2.125 0 -3.375 -1.296875q-1.234375 -1.3125 -1.234375 -3.671875q0 -2.453125 1.25 -3.796875q1.265625 -1.34375 3.265625 -1.34375q1.9375 0 3.15625 1.328125q1.234375 1.3125 1.234375 3.703125q0 0.15625 0 0.4375l-7.21875 0q0.09375 1.59375 0.90625 2.453125q0.8125 0.84375 2.015625 0.84375q0.90625 0 1.546875 -0.46875q0.640625 -0.484375 1.015625 -1.515625zm-5.390625 -2.65625l5.40625 0q-0.109375 -1.21875 -0.625 -1.828125q-0.78125 -0.953125 -2.03125 -0.953125q-1.125 0 -1.90625 0.765625q-0.765625 0.75 -0.84375 2.015625zm8.485092 2.875l1.625 -0.25q0.125 0.96875 0.75 1.5q0.625 0.515625 1.75 0.515625q1.125 0 1.671875 -0.453125q0.546875 -0.46875 0.546875 -1.09375q0 -0.546875 -0.484375 -0.875q-0.328125 -0.21875 -1.671875 -0.546875q-1.8125 -0.46875 -2.515625 -0.796875q-0.6875 -0.328125 -1.046875 -0.90625q-0.359375 -0.59375 -0.359375 -1.3125q0 -0.640625 0.296875 -1.1875q0.296875 -0.5625 0.8125 -0.921875q0.375 -0.28125 1.03125 -0.46875q0.671875 -0.203125 1.421875 -0.203125q1.140625 0 2.0 0.328125q0.859375 0.328125 1.265625 0.890625q0.421875 0.5625 0.578125 1.5l-1.609375 0.21875q-0.109375 -0.75 -0.640625 -1.171875q-0.515625 -0.421875 -1.46875 -0.421875q-1.140625 0 -1.625 0.375q-0.46875 0.375 -0.46875 0.875q0 0.3125 0.1875 0.578125q0.203125 0.265625 0.640625 0.4375q0.234375 0.09375 1.4375 0.421875q1.75 0.453125 2.4375 0.75q0.6875 0.296875 1.078125 0.859375q0.390625 0.5625 0.390625 1.40625q0 0.828125 -0.484375 1.546875q-0.46875 0.71875 -1.375 1.125q-0.90625 0.390625 -2.046875 0.390625q-1.875 0 -2.875 -0.78125q-0.984375 -0.78125 -1.25 -2.328125z"/><path fill="#d9d2e9" fill-rule="evenodd" d="m69.21183 190.9598l76.09182 0l0 40.06337l-76.09182 0z"/><path fill-rule="evenodd" stroke="#000" stroke-linecap="butt" stroke-linejoin="round" stroke-width="1" d="m69.21183 190.9598l76.09182 0l0 40.06337l-76.09182 0z"/><path fill="#d9d2e9" fill-rule="evenodd" d="m145.30365 190.9598l76.09181 0l0 40.06337l-76.09181 0z"/><path fill-rule="evenodd" stroke="#000" stroke-linecap="butt" stroke-linejoin="round" stroke-width="1" d="m145.30365 190.9598l76.09181 0l0 40.06337l-76.09181 0z"/><path fill="#d9d2e9" fill-rule="evenodd" d="m297.48727 190.9598l76.0918 0l0 40.06337l-76.0918 0z"/><path fill-rule="evenodd" stroke="#000" stroke-linecap="butt" stroke-linejoin="round" stroke-width="1" d="m297.48727 190.9598l76.0918 0l0 40.06337l-76.0918 0z"/><path fill="#b4a7d6" fill-rule="evenodd" d="m221.39546 190.9598l76.09181 0l0 40.06337l-76.09181 0z"/><path fill-rule="evenodd" stroke="#000" stroke-linecap="butt" stroke-linejoin="round" stroke-width="1" d="m221.39546 190.9598l76.09181 0l0 40.06337l-76.09181 0z"/><path fill="#d9d2e9" fill-rule="evenodd" d="m69.21183 231.03853l76.09182 0l0 40.06337l-76.09182 0z"/><path fill-rule="evenodd" stroke="#000" stroke-linecap="butt" stroke-linejoin="round" stroke-width="1" d="m69.21183 231.03853l76.09182 0l0 40.06337l-76.09182 0z"/><path fill="#d9d2e9" fill-rule="evenodd" d="m145.30365 231.03853l76.09181 0l0 40.06337l-76.09181 0z"/><path fill-rule="evenodd" stroke="#000" stroke-linecap="butt" stroke-linejoin="round" stroke-width="1" d="m145.30365 231.03853l76.09181 0l0 40.06337l-76.09181 0z"/><path fill="#d9d2e9" fill-rule="evenodd" d="m297.48727 231.03853l76.0918 0l0 40.06337l-76.0918 0z"/><path fill-rule="evenodd" stroke="#000" stroke-linecap="butt" stroke-linejoin="round" stroke-width="1" d="m297.48727 231.03853l76.0918 0l0 40.06337l-76.0918 0z"/><path fill="#b4a7d6" fill-rule="evenodd" d="m221.39546 231.03853l76.09181 0l0 40.06337l-76.09181 0z"/><path fill-rule="evenodd" stroke="#000" stroke-linecap="butt" stroke-linejoin="round" stroke-width="1" d="m221.39546 231.03853l76.09181 0l0 40.06337l-76.09181 0z"/><path fill="#d9d2e9" fill-rule="evenodd" d="m69.21183 311.16528l76.09182 0l0 40.063354l-76.09182 0z"/><path fill-rule="evenodd" stroke="#000" stroke-linecap="butt" stroke-linejoin="round" stroke-width="1" d="m69.21183 311.16528l76.09182 0l0 40.063354l-76.09182 0z"/><path fill="#d9d2e9" fill-rule="evenodd" d="m145.30365 311.16528l76.09181 0l0 40.063354l-76.09181 0z"/><path fill-rule="evenodd" stroke="#000" stroke-linecap="butt" stroke-linejoin="round" stroke-width="1" d="m145.30365 311.16528l76.09181 0l0 40.063354l-76.09181 0z"/><path fill="#d9d2e9" fill-rule="evenodd" d="m297.48727 311.16528l76.0918 0l0 40.063354l-76.0918 0z"/><path fill-rule="evenodd" stroke="#000" stroke-linecap="butt" stroke-linejoin="round" stroke-width="1" d="m297.48727 311.16528l76.0918 0l0 40.063354l-76.0918 0z"/><path fill="#b4a7d6" fill-rule="evenodd" d="m221.39546 311.16528l76.09181 0l0 40.063354l-76.09181 0z"/><path fill-rule="evenodd" stroke="#000" stroke-linecap="butt" stroke-linejoin="round" stroke-width="1" d="m221.39546 311.16528l76.09181 0l0 40.063354l-76.09181 0z"/><path fill="#b4a7d6" fill-rule="evenodd" d="m69.21183 271.1019l76.09182 0l0 40.063385l-76.09182 0z"/><path fill-rule="evenodd" stroke="#000" stroke-linecap="butt" stroke-linejoin="round" stroke-width="1" d="m69.21183 271.1019l76.09182 0l0 40.063385l-76.09182 0z"/><path fill="#b4a7d6" fill-rule="evenodd" d="m145.30365 271.1019l76.09181 0l0 40.063385l-76.09181 0z"/><path fill-rule="evenodd" stroke="#000" stroke-linecap="butt" stroke-linejoin="round" stroke-width="1" d="m145.30365 271.1019l76.09181 0l0 40.063385l-76.09181 0z"/><path fill="#b4a7d6" fill-rule="evenodd" d="m297.48727 271.1019l76.0918 0l0 40.063385l-76.0918 0z"/><path fill-rule="evenodd" stroke="#000" stroke-linecap="butt" stroke-linejoin="round" stroke-width="1" d="m297.48727 271.1019l76.0918 0l0 40.063385l-76.0918 0z"/><path fill="#8e7cc3" fill-rule="evenodd" d="m221.39586 271.10236l38.045914 0l0 40.063385l-38.045914 0z"/><path fill-rule="evenodd" stroke="#000" stroke-linecap="butt" stroke-linejoin="round" stroke-width="1" d="m221.39586 271.10236l38.045914 0l0 40.063385l-38.045914 0z"/><path fill="#000" fill-rule="nonzero" d="m234.27515 298.05405l5.171875 -6.953125l-4.5625 -6.40625l2.109375 0l2.421875 3.4375q0.75 1.0625 1.078125 1.625q0.4375 -0.71875 1.046875 -1.515625l2.6875 -3.546875l1.921875 0l-4.6875 6.296875l5.0625 7.0625l-2.1875 0l-3.359375 -4.765625q-0.28125 -0.40625 -0.59375 -0.890625q-0.4375 0.734375 -0.625 1.0l-3.359375 4.65625l-2.125 0z"/><path fill="#8e7cc3" fill-rule="evenodd" d="m259.4326 271.1181l38.04727 0l0 40.06299l-38.04727 0z"/><path fill-rule="evenodd" stroke="#000" stroke-linecap="butt" stroke-linejoin="round" stroke-width="1" d="m259.4326 271.1181l38.04727 0l0 40.06299l-38.04727 0z"/><path fill="#000" fill-rule="nonzero" d="m277.43756 298.0696l0 -5.65625l-5.15625 -7.703125l2.15625 0l2.640625 4.03125q0.71875 1.125 1.34375 2.265625q0.609375 -1.046875 1.46875 -2.359375l2.578125 -3.9375l2.0625 0l-5.328125 7.703125l0 5.65625l-1.765625 0z"/><path fill="#000" fill-opacity="0" fill-rule="evenodd" d="m259.44138 190.9598l0.06298828 84.28346"/><path fill-rule="evenodd" stroke="#000" stroke-dasharray="1 3" stroke-linecap="butt" stroke-linejoin="round" stroke-width="1" d="m259.44138 190.9598l0.06298828 84.28346"/><path fill="#000" fill-opacity="0" fill-rule="evenodd" d="m259.44138 307.02393l0 84.28345"/><path fill-rule="evenodd" stroke="#000" stroke-dasharray="1 3" stroke-linecap="butt" stroke-linejoin="round" stroke-width="1" d="m259.44138 307.02393l0 84.28345"/><path fill="#000" fill-opacity="0" fill-rule="evenodd" d="m183.34955 190.9598l0 200.34645"/><path fill-rule="evenodd" stroke="#000" stroke-dasharray="1 3" stroke-linecap="butt" stroke-linejoin="round" stroke-width="1" d="m183.34955 190.9598l0 200.34645"/><path fill="#000" fill-opacity="0" fill-rule="evenodd" d="m335.53317 190.9598l0 200.34645"/><path fill-rule="evenodd" stroke="#000" stroke-dasharray="1 3" stroke-linecap="butt" stroke-linejoin="round" stroke-width="1" d="m335.53317 190.9598l0 200.34645"/><path fill="#000" fill-opacity="0" fill-rule="evenodd" d="m107.25774 190.9598l0 200.34645"/><path fill-rule="evenodd" stroke="#000" stroke-dasharray="1 3" stroke-linecap="butt" stroke-linejoin="round" stroke-width="1" d="m107.25774 190.9598l0 200.34645"/><path fill="#000" fill-opacity="0" fill-rule="evenodd" d="m575.44617 79.03937l0 321.5118"/><path fill-rule="evenodd" stroke="#000" stroke-dasharray="1 3" stroke-linecap="butt" stroke-linejoin="round" stroke-width="1" d="m575.44617 79.03937l0 321.5118"/><g filter="url(#shadowFilter-p.2)"><use transform="matrix(1.0 0.0 0.0 1.0 0.0 2.0)" xlink:href="#p.2"/></g><defs><filter id="shadowFilter-p.2" filterUnits="userSpaceOnUse"><feGaussianBlur in="SourceAlpha" result="blur" stdDeviation="2"/><feComponentTransfer color-interpolation-filters="sRGB" in="blur"><feFuncR intercept="0" slope="0" type="linear"/><feFuncG intercept="0" slope="0" type="linear"/><feFuncB intercept="0" slope="0" type="linear"/><feFuncA intercept="0" slope=".5" type="linear"/></feComponentTransfer></filter></defs><g id="p.2"><path fill="#000" fill-opacity="0" fill-rule="evenodd" d="m444.83203 269.937l221.03937 0"/><path fill-rule="evenodd" stroke="#000" stroke-dasharray="1 3" stroke-linecap="butt" stroke-linejoin="round" stroke-width="1" d="m444.83203 269.937l221.03937 0"/></g><path fill="#000" fill-opacity="0" fill-rule="evenodd" d="m505.11548 189.55905l60.283447 0"/><path fill-rule="evenodd" stroke="#000" stroke-linecap="butt" stroke-linejoin="round" stroke-width="1" d="m511.11548 189.55905l48.283447 0"/><path fill="#000" fill-rule="evenodd" stroke="#000" stroke-linecap="butt" stroke-width="1" d="m511.11548 187.90732l-4.538086 1.6517334l4.538086 1.6517334z"/><path fill="#000" fill-rule="evenodd" stroke="#000" stroke-linecap="butt" stroke-width="1" d="m559.3989 191.21078l4.538147 -1.6517334l-4.538147 -1.6517334z"/><path fill="#000" fill-opacity="0" fill-rule="evenodd" d="m495.06824 199.6063l0 60.283478"/><path fill-rule="evenodd" stroke="#000" stroke-linecap="butt" stroke-linejoin="round" stroke-width="1" d="m495.06824 205.6063l0 48.283478"/><path fill="#000" fill-rule="evenodd" stroke="#000" stroke-linecap="butt" stroke-width="1" d="m496.71997 205.6063l-1.6517334 -4.538086l-1.6517334 4.538086z"/><path fill="#000" fill-rule="evenodd" stroke="#000" stroke-linecap="butt" stroke-width="1" d="m493.4165 253.88977l1.6517334 4.538086l1.6517334 -4.538086z"/><path fill="#000" fill-opacity="0" fill-rule="evenodd" d="m424.73752 119.03937l20.094513 0l0 20.094498l-20.094513 0z"/><path fill="#000" fill-opacity="0" fill-rule="evenodd" d="m424.73752 115.13386l20.094513 0l0 20.09449l-20.094513 0z"/><path fill="#000" fill-opacity="0" fill-rule="evenodd" d="m424.73752 135.22835l20.094513 0l0 20.094482l-20.094513 0z"/><path fill="#000" fill-opacity="0" fill-rule="evenodd" d="m427.2362 154.94489l20.094513 0l0 20.094482l-20.094513 0z"/><path fill="#000" fill-opacity="0" fill-rule="evenodd" d="m424.73752 195.13387l20.094513 0l0 20.094482l-20.094513 0z"/><path fill="#cfe2f3" fill-rule="evenodd" d="m515.79266 155.32283l38.92914 0l0 28.755905l-38.92914 0z"/><path fill-rule="evenodd" stroke="#000" stroke-linecap="butt" stroke-linejoin="round" stroke-width="1" d="m515.79266 155.32283l38.92914 0l0 28.755905l-38.92914 0z"/><path fill="#000" fill-rule="nonzero" d="m528.24646 169.86017q0 -2.375 1.28125 -3.71875q1.28125 -1.34375 3.296875 -1.34375q1.3125 0 2.375 0.625q1.0625 0.625 1.609375 1.765625q0.5625 1.125 0.5625 2.5625q0 1.4375 -0.59375 2.59375q-0.578125 1.140625 -1.65625 1.734375q-1.0625 0.578125 -2.3125 0.578125q-1.34375 0 -2.40625 -0.640625q-1.0625 -0.65625 -1.609375 -1.78125q-0.546875 -1.125 -0.546875 -2.375zm1.3125 0.015625q0 1.71875 0.921875 2.71875q0.921875 0.984375 2.328125 0.984375q1.421875 0 2.34375 -1.0q0.921875 -1.0 0.921875 -2.84375q0 -1.15625 -0.40625 -2.03125q-0.390625 -0.875 -1.15625 -1.34375q-0.75 -0.484375 -1.6875 -0.484375q-1.34375 0 -2.3125 0.921875q-0.953125 0.921875 -0.953125 3.078125z"/><path fill="#000" fill-rule="nonzero" d="m541.28534 179.5008l-0.78125 0l0 -4.96875q-0.28125 0.265625 -0.75 0.53125q-0.453125 0.265625 -0.8125 0.40625l0 -0.75q0.65625 -0.3125 1.140625 -0.75q0.484375 -0.4375 0.6875 -0.84375l0.515625 0l0 6.375z"/><path fill="#cfe2f3" fill-rule="evenodd" d="m450.37833 216.79002l38.929108 0l0 28.755905l-38.929108 0z"/><path fill-rule="evenodd" stroke="#000" stroke-linecap="butt" stroke-linejoin="round" stroke-width="1" d="m450.37833 216.79002l38.929108 0l0 28.755905l-38.929108 0z"/><path fill="#000" fill-rule="nonzero" d="m462.8321 231.32735q0 -2.375 1.28125 -3.71875q1.28125 -1.34375 3.296875 -1.34375q1.3125 0 2.375 0.625q1.0625 0.625 1.609375 1.765625q0.5625 1.125 0.5625 2.5625q0 1.4375 -0.59375 2.59375q-0.578125 1.140625 -1.65625 1.734375q-1.0625 0.578125 -2.3125 0.578125q-1.34375 0 -2.40625 -0.640625q-1.0625 -0.65625 -1.609375 -1.78125q-0.546875 -1.125 -0.546875 -2.375zm1.3125 0.015625q0 1.71875 0.921875 2.71875q0.921875 0.984375 2.328125 0.984375q1.421875 0 2.34375 -1.0q0.921875 -1.0 0.921875 -2.84375q0 -1.15625 -0.40625 -2.03125q-0.390625 -0.875 -1.15625 -1.34375q-0.75 -0.484375 -1.6875 -0.484375q-1.34375 0 -2.3125 0.921875q-0.953125 0.921875 -0.953125 3.078125z"/><path fill="#000" fill-rule="nonzero" d="m472.93353 237.82735q0 -1.125 0.21875 -1.8125q0.234375 -0.6875 0.6875 -1.046875q0.46875 -0.375 1.15625 -0.375q0.515625 0 0.890625 0.203125q0.390625 0.203125 0.640625 0.59375q0.25 0.390625 0.390625 0.953125q0.15625 0.546875 0.15625 1.484375q0 1.125 -0.234375 1.8125q-0.234375 0.6875 -0.6875 1.0625q-0.453125 0.375 -1.15625 0.375q-0.921875 0 -1.4375 -0.65625q-0.625 -0.796875 -0.625 -2.59375zm0.796875 0q0 1.578125 0.359375 2.09375q0.375 0.515625 0.90625 0.515625q0.546875 0 0.90625 -0.515625q0.359375 -0.53125 0.359375 -2.09375q0 -1.5625 -0.359375 -2.078125q-0.359375 -0.515625 -0.90625 -0.515625q-0.546875 0 -0.859375 0.453125q-0.40625 0.578125 -0.40625 2.140625z"/><path fill="#fff" fill-rule="evenodd" d="m567.6982 290.34647l7.747986 -7.748047l7.748047 7.748047l-3.8740234 0l0 12.346436l-7.747986 0l0 -12.346436z"/><path fill-rule="evenodd" stroke="#000" stroke-linecap="butt" stroke-linejoin="round" stroke-width="1" d="m567.6982 290.34647l7.747986 -7.748047l7.748047 7.748047l-3.8740234 0l0 12.346436l-7.747986 0l0 -12.346436z"/><path fill="#fff" fill-rule="evenodd" d="m522.67456 305.6929l105.543274 0l0 20.094513l-105.543274 0z"/><path fill-rule="evenodd" stroke="#000" stroke-linecap="butt" stroke-linejoin="round" stroke-width="1" d="m522.67456 305.6929l105.543274 0l0 20.094513l-105.543274 0z"/><path fill="#000" fill-rule="nonzero" d="m532.92456 320.54016l0 -9.546875l1.25 0l0 9.546875l-1.25 0zm3.327942 0l0 -6.90625l1.0625 0l0 0.984375q0.75 -1.140625 2.1875 -1.140625q0.625 0 1.15625 0.21875q0.53125 0.21875 0.78125 0.59375q0.265625 0.359375 0.375 0.859375q0.0625 0.328125 0.0625 1.140625l0 4.25l-1.171875 0l0 -4.203125q0 -0.71875 -0.140625 -1.0625q-0.140625 -0.359375 -0.484375 -0.5625q-0.34375 -0.21875 -0.8125 -0.21875q-0.75 0 -1.296875 0.46875q-0.546875 0.46875 -0.546875 1.796875l0 3.78125l-1.171875 0zm7.4124756 2.65625l0 -9.5625l1.078125 0l0 0.890625q0.375 -0.53125 0.84375 -0.78125q0.484375 -0.265625 1.15625 -0.265625q0.875 0 1.546875 0.453125q0.6875 0.453125 1.03125 1.28125q0.34375 0.828125 0.34375 1.828125q0 1.046875 -0.375 1.90625q-0.375 0.84375 -1.109375 1.296875q-0.71875 0.453125 -1.53125 0.453125q-0.578125 0 -1.046875 -0.25q-0.46875 -0.25 -0.765625 -0.625l0 3.375l-1.171875 0zm1.0625 -6.078125q0 1.34375 0.53125 1.984375q0.546875 0.625 1.3125 0.625q0.78125 0 1.34375 -0.65625q0.5625 -0.65625 0.5625 -2.046875q0 -1.3125 -0.546875 -1.96875q-0.546875 -0.671875 -1.296875 -0.671875q-0.75 0 -1.328125 0.703125q-0.578125 0.703125 -0.578125 2.03125zm10.881226 3.421875l0 -1.015625q-0.8125 1.171875 -2.1875 1.171875q-0.609375 0 -1.140625 -0.234375q-0.53125 -0.234375 -0.796875 -0.578125q-0.25 -0.359375 -0.359375 -0.875q-0.0625 -0.34375 -0.0625 -1.09375l0 -4.28125l1.171875 0l0 3.828125q0 0.921875 0.0625 1.234375q0.109375 0.46875 0.46875 0.734375q0.359375 0.25 0.890625 0.25q0.515625 0 0.984375 -0.265625q0.46875 -0.265625 0.65625 -0.734375q0.1875 -0.46875 0.1875 -1.34375l0 -3.703125l1.171875 0l0 6.90625l-1.046875 0zm5.4437256 -1.046875l0.171875 1.03125q-0.5 0.109375 -0.890625 0.109375q-0.640625 0 -1.0 -0.203125q-0.34375 -0.203125 -0.484375 -0.53125q-0.140625 -0.328125 -0.140625 -1.390625l0 -3.96875l-0.859375 0l0 -0.90625l0.859375 0l0 -1.71875l1.171875 -0.703125l0 2.421875l1.171875 0l0 0.90625l-1.171875 0l0 4.046875q0 0.5 0.046875 0.640625q0.0625 0.140625 0.203125 0.234375q0.140625 0.078125 0.40625 0.078125q0.203125 0 0.515625 -0.046875zm5.015381 1.046875l0 -9.546875l6.90625 0l0 1.125l-5.640625 0l0 2.921875l5.28125 0l0 1.125l-5.28125 0l0 3.25l5.859375 0l0 1.125l-7.125 0zm8.7022705 0l0 -9.546875l1.171875 0l0 9.546875l-1.171875 0zm7.7110596 -2.21875l1.203125 0.140625q-0.28125 1.0625 -1.0625 1.65625q-0.765625 0.578125 -1.96875 0.578125q-1.515625 0 -2.40625 -0.9375q-0.890625 -0.9375 -0.890625 -2.609375q0 -1.75 0.890625 -2.703125q0.90625 -0.96875 2.34375 -0.96875q1.390625 0 2.265625 0.9375q0.875 0.9375 0.875 2.65625q0 0.109375 0 0.3125l-5.15625 0q0.0625 1.140625 0.640625 1.75q0.578125 0.59375 1.4375 0.59375q0.65625 0 1.109375 -0.328125q0.453125 -0.34375 0.71875 -1.078125zm-3.84375 -1.90625l3.859375 0q-0.078125 -0.859375 -0.4375 -1.296875q-0.5625 -0.6875 -1.453125 -0.6875q-0.8125 0 -1.359375 0.546875q-0.546875 0.53125 -0.609375 1.4375zm6.5218506 4.125l0 -6.90625l1.046875 0l0 0.96875q0.328125 -0.515625 0.859375 -0.8125q0.546875 -0.3125 1.234375 -0.3125q0.78125 0 1.265625 0.3125q0.484375 0.3125 0.6875 0.890625q0.828125 -1.203125 2.140625 -1.203125q1.03125 0 1.578125 0.578125q0.5625 0.5625 0.5625 1.734375l0 4.75l-1.171875 0l0 -4.359375q0 -0.703125 -0.125 -1.0q-0.109375 -0.3125 -0.40625 -0.5q-0.296875 -0.1875 -0.703125 -0.1875q-0.71875 0 -1.203125 0.484375q-0.484375 0.484375 -0.484375 1.546875l0 4.015625l-1.171875 0l0 -4.484375q0 -0.78125 -0.296875 -1.171875q-0.28125 -0.390625 -0.921875 -0.390625q-0.5 0 -0.921875 0.265625q-0.421875 0.25 -0.609375 0.75q-0.1875 0.5 -0.1875 1.453125l0 3.578125l-1.171875 0zm15.836792 -2.21875l1.203125 0.140625q-0.28125 1.0625 -1.0625 1.65625q-0.765625 0.578125 -1.96875 0.578125q-1.515625 0 -2.40625 -0.9375q-0.890625 -0.9375 -0.890625 -2.609375q0 -1.75 0.890625 -2.703125q0.90625 -0.96875 2.34375 -0.96875q1.390625 0 2.265625 0.9375q0.875 0.9375 0.875 2.65625q0 0.109375 0 0.3125l-5.15625 0q0.0625 1.140625 0.640625 1.75q0.578125 0.59375 1.4375 0.59375q0.65625 0 1.109375 -0.328125q0.453125 -0.34375 0.71875 -1.078125zm-3.84375 -1.90625l3.859375 0q-0.078125 -0.859375 -0.4375 -1.296875q-0.5625 -0.6875 -1.453125 -0.6875q-0.8125 0 -1.359375 0.546875q-0.546875 0.53125 -0.609375 1.4375zm6.5218506 4.125l0 -6.90625l1.0625 0l0 0.984375q0.75 -1.140625 2.1875 -1.140625q0.625 0 1.15625 0.21875q0.53125 0.21875 0.78125 0.59375q0.265625 0.359375 0.375 0.859375q0.0625 0.328125 0.0625 1.140625l0 4.25l-1.171875 0l0 -4.203125q0 -0.71875 -0.140625 -1.0625q-0.140625 -0.359375 -0.484375 -0.5625q-0.34375 -0.21875 -0.8125 -0.21875q-0.75 0 -1.296875 0.46875q-0.546875 0.46875 -0.546875 1.796875l0 3.78125l-1.171875 0zm9.974976 -1.046875l0.171875 1.03125q-0.5 0.109375 -0.890625 0.109375q-0.640625 0 -1.0 -0.203125q-0.34375 -0.203125 -0.484375 -0.53125q-0.140625 -0.328125 -0.140625 -1.390625l0 -3.96875l-0.859375 0l0 -0.90625l0.859375 0l0 -1.71875l1.171875 -0.703125l0 2.421875l1.171875 0l0 0.90625l-1.171875 0l0 4.046875q0 0.5 0.046875 0.640625q0.0625 0.140625 0.203125 0.234375q0.140625 0.078125 0.40625 0.078125q0.203125 0 0.515625 -0.046875z"/><path fill="#000" fill-opacity="0" fill-rule="evenodd" d="m60.003254 191.0883l0 80.157486"/><path fill-rule="evenodd" stroke="#000" stroke-linecap="butt" stroke-linejoin="round" stroke-width="1" d="m60.003254 197.08832l0 68.15747"/><path fill="#000" fill-rule="evenodd" stroke="#000" stroke-linecap="butt" stroke-width="1" d="m61.654987 197.08832l-1.6517334 -4.538101l-1.6517296 4.538101z"/><path fill="#000" fill-rule="evenodd" stroke="#000" stroke-linecap="butt" stroke-width="1" d="m58.351524 265.2458l1.6517296 4.5381165l1.6517334 -4.5381165z"/><path fill="#000" fill-opacity="0" fill-rule="evenodd" d="m69.21183 182.38914l152.18896 0"/><path fill-rule="evenodd" stroke="#000" stroke-linecap="butt" stroke-linejoin="round" stroke-width="1" d="m75.21184 182.38914l140.18898 0"/><path fill="#000" fill-rule="evenodd" stroke="#000" stroke-linecap="butt" stroke-width="1" d="m75.21184 180.73741l-4.538101 1.6517334l4.538101 1.6517334z"/><path fill="#000" fill-rule="evenodd" stroke="#000" stroke-linecap="butt" stroke-width="1" d="m215.40082 184.04088l4.538101 -1.6517334l-4.538101 -1.6517334z"/><path fill="#cfe2f3" fill-rule="evenodd" d="m14.017324 212.97638l38.92913 0l0 33.543304l-38.92913 0z"/><path fill-rule="evenodd" stroke="#000" stroke-linecap="butt" stroke-linejoin="round" stroke-width="1" d="m14.017324 212.97638l38.92913 0l0 33.543304l-38.92913 0z"/><path fill="#000" fill-rule="nonzero" d="m31.330479 230.81366l0 -1.125l4.03125 -0.015625l0 3.546875q-0.921875 0.75 -1.921875 1.125q-0.984375 0.359375 -2.03125 0.359375q-1.40625 0 -2.5625 -0.59375q-1.140625 -0.609375 -1.734375 -1.734375q-0.578125 -1.140625 -0.578125 -2.546875q0 -1.40625 0.578125 -2.609375q0.59375 -1.203125 1.6875 -1.78125q1.09375 -0.59375 2.515625 -0.59375q1.03125 0 1.859375 0.34375q0.84375 0.328125 1.3125 0.9375q0.484375 0.59375 0.734375 1.546875l-1.140625 0.3125q-0.21875 -0.71875 -0.53125 -1.140625q-0.3125 -0.421875 -0.90625 -0.671875q-0.59375 -0.25 -1.3125 -0.25q-0.875 0 -1.515625 0.265625q-0.625 0.265625 -1.015625 0.703125q-0.375 0.421875 -0.59375 0.9375q-0.359375 0.875 -0.359375 1.921875q0 1.265625 0.4375 2.125q0.4375 0.859375 1.265625 1.28125q0.84375 0.421875 1.796875 0.421875q0.8125 0 1.59375 -0.3125q0.78125 -0.328125 1.1875 -0.6875l0 -1.765625l-2.796875 0z"/><path fill="#000" fill-rule="nonzero" d="m36.57253 236.40741q0 -1.125 0.21875 -1.8125q0.234375 -0.6875 0.6875 -1.046875q0.46875 -0.375 1.15625 -0.375q0.515625 0 0.890625 0.203125q0.390625 0.203125 0.640625 0.59375q0.25 0.390625 0.390625 0.953125q0.15625 0.546875 0.15625 1.484375q0 1.125 -0.234375 1.8125q-0.234375 0.6875 -0.6875 1.0625q-0.453125 0.375 -1.15625 0.375q-0.921875 0 -1.4375 -0.65625q-0.625 -0.796875 -0.625 -2.59375zm0.796875 0q0 1.578125 0.359375 2.09375q0.375 0.515625 0.90625 0.515625q0.546875 0 0.90625 -0.515625q0.359375 -0.53125 0.359375 -2.09375q0 -1.5625 -0.359375 -2.078125q-0.359375 -0.515625 -0.90625 -0.515625q-0.546875 0 -0.859375 0.453125q-0.40625 0.578125 -0.40625 2.140625z"/><path fill="#cfe2f3" fill-rule="evenodd" d="m125.84252 141.49606l38.92913 0l0 33.543304l-38.92913 0z"/><path fill-rule="evenodd" stroke="#000" stroke-linecap="butt" stroke-linejoin="round" stroke-width="1" d="m125.84252 141.49606l38.92913 0l0 33.543304l-38.92913 0z"/><path fill="#000" fill-rule="nonzero" d="m143.15567 159.33334l0 -1.125l4.03125 -0.015625l0 3.546875q-0.921875 0.75 -1.921875 1.125q-0.984375 0.359375 -2.03125 0.359375q-1.40625 0 -2.5625 -0.59375q-1.140625 -0.609375 -1.734375 -1.734375q-0.578125 -1.140625 -0.578125 -2.546875q0 -1.40625 0.578125 -2.609375q0.59375 -1.203125 1.6875 -1.78125q1.09375 -0.59375 2.515625 -0.59375q1.03125 0 1.859375 0.34375q0.84375 0.328125 1.3125 0.9375q0.484375 0.59375 0.734375 1.546875l-1.140625 0.3125q-0.21875 -0.71875 -0.53125 -1.140625q-0.3125 -0.421875 -0.90625 -0.671875q-0.59375 -0.25 -1.3125 -0.25q-0.875 0 -1.515625 0.265625q-0.625 0.265625 -1.015625 0.703125q-0.375 0.421875 -0.59375 0.9375q-0.359375 0.875 -0.359375 1.921875q0 1.265625 0.4375 2.125q0.4375 0.859375 1.265625 1.28125q0.84375 0.421875 1.796875 0.421875q0.8125 0 1.59375 -0.3125q0.78125 -0.328125 1.1875 -0.6875l0 -1.765625l-2.796875 0z"/><path fill="#000" fill-rule="nonzero" d="m151.33522 168.06772l-0.78125 0l0 -4.96875q-0.28125 0.265625 -0.75 0.53125q-0.453125 0.265625 -0.8125 0.40625l0 -0.75q0.65625 -0.3125 1.140625 -0.75q0.484375 -0.4375 0.6875 -0.84375l0.515625 0l0 6.375z"/></g></svg>